<?xml version="1.0" encoding="utf-8" standalone="no"?>
<!DOCTYPE svg PUBLIC "-//W3C//DTD SVG 1.1//EN"
  "http://www.w3.org/Graphics/SVG/1.1/DTD/svg11.dtd">
<svg xmlns:xlink="http://www.w3.org/1999/xlink" width="783.235541pt" height="434.238906pt" viewBox="0 0 783.235541 434.238906" xmlns="http://www.w3.org/2000/svg" version="1.1">
 <metadata>
  <rdf:RDF xmlns:dc="http://purl.org/dc/elements/1.1/" xmlns:cc="http://creativecommons.org/ns#" xmlns:rdf="http://www.w3.org/1999/02/22-rdf-syntax-ns#">
   <cc:Work>
    <dc:type rdf:resource="http://purl.org/dc/dcmitype/StillImage"/>
    <dc:date>2026-04-20T16:54:46.757015</dc:date>
    <dc:format>image/svg+xml</dc:format>
    <dc:creator>
     <cc:Agent>
      <dc:title>Matplotlib v3.9.2, https://matplotlib.org/</dc:title>
     </cc:Agent>
    </dc:creator>
   </cc:Work>
  </rdf:RDF>
 </metadata>
 <defs>
  <style type="text/css">*{stroke-linejoin: round; stroke-linecap: butt}</style>
 </defs>
 <g id="figure_1">
  <g id="patch_1">
   <path d="M 0 434.238906 
L 783.235541 434.238906 
L 783.235541 0 
L 0 0 
z
" style="fill: #fbf8f1"/>
  </g>
  <g id="axes_1">
   <g id="patch_2">
    <path d="M 120.19625 389.435625 
L 630.973393 389.435625 
L 630.973393 23.330625 
L 120.19625 23.330625 
z
" style="fill: #fbf8f1"/>
   </g>
   <g id="matplotlib.axis_1">
    <g id="xtick_1">
     <g id="line2d_1">
      <path d="M 120.19625 389.435625 
L 120.19625 23.330625 
" clip-path="url(#p1974b5ee82)" style="fill: none; stroke: #d5cec0; stroke-linecap: round"/>
     </g>
     <g id="text_1">
      <!-- 0 -->
      <g style="fill: #20323b" transform="translate(116.971016 407.72875) scale(0.11 -0.11)">
       <defs>
        <path id="MicrosoftYaHei-30" d="M 284 2325 
Q 284 3606 709 4264 
Q 1134 4922 1941 4922 
Q 3478 4922 3478 2441 
Q 3478 1216 3045 567 
Q 2613 -81 1831 -81 
Q 1094 -81 689 534 
Q 284 1150 284 2325 
z
M 909 2353 
Q 909 425 1888 425 
Q 2850 425 2850 2384 
Q 2850 4413 1906 4413 
Q 909 4413 909 2353 
z
" transform="scale(0.015625)"/>
       </defs>
       <use xlink:href="#MicrosoftYaHei-30"/>
      </g>
     </g>
    </g>
    <g id="xtick_2">
     <g id="line2d_2">
      <path d="M 177.735724 389.435625 
L 177.735724 23.330625 
" clip-path="url(#p1974b5ee82)" style="fill: none; stroke: #d5cec0; stroke-linecap: round"/>
     </g>
     <g id="text_2">
      <!-- 20000 -->
      <g style="fill: #20323b" transform="translate(161.609552 407.72875) scale(0.11 -0.11)">
       <defs>
        <path id="MicrosoftYaHei-32" d="M 2666 3572 
Q 2666 3963 2419 4186 
Q 2172 4409 1747 4409 
Q 1447 4409 1140 4256 
Q 834 4103 569 3819 
L 569 4413 
Q 806 4659 1107 4790 
Q 1409 4922 1816 4922 
Q 2472 4922 2872 4570 
Q 3272 4219 3272 3619 
Q 3272 3084 3026 2693 
Q 2781 2303 2188 1894 
Q 1581 1475 1376 1294 
Q 1172 1113 1090 947 
Q 1009 781 1009 544 
L 3416 544 
L 3416 0 
L 372 0 
L 372 241 
Q 372 659 486 951 
Q 600 1244 862 1520 
Q 1125 1797 1681 2184 
Q 2250 2584 2458 2886 
Q 2666 3188 2666 3572 
z
" transform="scale(0.015625)"/>
       </defs>
       <use xlink:href="#MicrosoftYaHei-32"/>
       <use xlink:href="#MicrosoftYaHei-30" x="58.642578"/>
       <use xlink:href="#MicrosoftYaHei-30" x="117.285156"/>
       <use xlink:href="#MicrosoftYaHei-30" x="175.927734"/>
       <use xlink:href="#MicrosoftYaHei-30" x="234.570312"/>
      </g>
     </g>
    </g>
    <g id="xtick_3">
     <g id="line2d_3">
      <path d="M 235.275197 389.435625 
L 235.275197 23.330625 
" clip-path="url(#p1974b5ee82)" style="fill: none; stroke: #d5cec0; stroke-linecap: round"/>
     </g>
     <g id="text_3">
      <!-- 40000 -->
      <g style="fill: #20323b" transform="translate(219.149025 407.72875) scale(0.11 -0.11)">
       <defs>
        <path id="MicrosoftYaHei-34" d="M 2906 4841 
L 2906 1644 
L 3631 1644 
L 3631 1138 
L 2906 1138 
L 2906 0 
L 2313 0 
L 2313 1138 
L 53 1138 
L 53 1616 
Q 656 2294 1265 3178 
Q 1875 4063 2272 4841 
L 2906 4841 
z
M 741 1644 
L 2313 1644 
L 2313 3950 
Q 1988 3366 1616 2817 
Q 1244 2269 741 1644 
z
" transform="scale(0.015625)"/>
       </defs>
       <use xlink:href="#MicrosoftYaHei-34"/>
       <use xlink:href="#MicrosoftYaHei-30" x="58.642578"/>
       <use xlink:href="#MicrosoftYaHei-30" x="117.285156"/>
       <use xlink:href="#MicrosoftYaHei-30" x="175.927734"/>
       <use xlink:href="#MicrosoftYaHei-30" x="234.570312"/>
      </g>
     </g>
    </g>
    <g id="xtick_4">
     <g id="line2d_4">
      <path d="M 292.814671 389.435625 
L 292.814671 23.330625 
" clip-path="url(#p1974b5ee82)" style="fill: none; stroke: #d5cec0; stroke-linecap: round"/>
     </g>
     <g id="text_4">
      <!-- 60000 -->
      <g style="fill: #20323b" transform="translate(276.688499 407.72875) scale(0.11 -0.11)">
       <defs>
        <path id="MicrosoftYaHei-36" d="M 3181 4219 
Q 2803 4413 2391 4413 
Q 1763 4413 1381 3866 
Q 1000 3319 994 2372 
L 1009 2372 
Q 1353 3038 2106 3038 
Q 2734 3038 3109 2628 
Q 3484 2219 3484 1541 
Q 3484 831 3051 375 
Q 2619 -81 1947 -81 
Q 1209 -81 789 495 
Q 369 1072 369 2131 
Q 369 3413 920 4167 
Q 1472 4922 2372 4922 
Q 2888 4922 3181 4781 
L 3181 4219 
z
M 1031 1584 
Q 1031 1106 1286 765 
Q 1541 425 1963 425 
Q 2363 425 2613 719 
Q 2863 1013 2863 1475 
Q 2863 1975 2627 2253 
Q 2391 2531 1956 2531 
Q 1544 2531 1287 2250 
Q 1031 1969 1031 1584 
z
" transform="scale(0.015625)"/>
       </defs>
       <use xlink:href="#MicrosoftYaHei-36"/>
       <use xlink:href="#MicrosoftYaHei-30" x="58.642578"/>
       <use xlink:href="#MicrosoftYaHei-30" x="117.285156"/>
       <use xlink:href="#MicrosoftYaHei-30" x="175.927734"/>
       <use xlink:href="#MicrosoftYaHei-30" x="234.570312"/>
      </g>
     </g>
    </g>
    <g id="xtick_5">
     <g id="line2d_5">
      <path d="M 350.354145 389.435625 
L 350.354145 23.330625 
" clip-path="url(#p1974b5ee82)" style="fill: none; stroke: #d5cec0; stroke-linecap: round"/>
     </g>
     <g id="text_5">
      <!-- 80000 -->
      <g style="fill: #20323b" transform="translate(334.227973 407.72875) scale(0.11 -0.11)">
       <defs>
        <path id="MicrosoftYaHei-38" d="M 306 1350 
Q 306 1769 556 2122 
Q 806 2475 1200 2625 
Q 884 2803 700 3081 
Q 516 3359 516 3684 
Q 516 4028 692 4312 
Q 869 4597 1183 4759 
Q 1497 4922 1875 4922 
Q 2256 4922 2572 4761 
Q 2888 4600 3063 4315 
Q 3238 4031 3238 3684 
Q 3238 3366 3058 3086 
Q 2878 2806 2559 2625 
Q 2953 2472 3200 2119 
Q 3447 1766 3447 1350 
Q 3447 938 3250 611 
Q 3053 284 2690 103 
Q 2328 -78 1875 -78 
Q 1425 -78 1065 103 
Q 706 284 506 612 
Q 306 941 306 1350 
z
M 906 1378 
Q 906 947 1172 687 
Q 1438 428 1878 428 
Q 2309 428 2582 692 
Q 2856 956 2856 1378 
Q 2856 1778 2579 2051 
Q 2303 2325 1878 2325 
Q 1456 2325 1181 2058 
Q 906 1791 906 1378 
z
M 1081 3634 
Q 1081 3309 1312 3076 
Q 1544 2844 1878 2844 
Q 2206 2844 2445 3078 
Q 2684 3313 2684 3634 
Q 2684 3963 2454 4191 
Q 2225 4419 1878 4419 
Q 1534 4419 1307 4195 
Q 1081 3972 1081 3634 
z
" transform="scale(0.015625)"/>
       </defs>
       <use xlink:href="#MicrosoftYaHei-38"/>
       <use xlink:href="#MicrosoftYaHei-30" x="58.642578"/>
       <use xlink:href="#MicrosoftYaHei-30" x="117.285156"/>
       <use xlink:href="#MicrosoftYaHei-30" x="175.927734"/>
       <use xlink:href="#MicrosoftYaHei-30" x="234.570312"/>
      </g>
     </g>
    </g>
    <g id="xtick_6">
     <g id="line2d_6">
      <path d="M 407.893618 389.435625 
L 407.893618 23.330625 
" clip-path="url(#p1974b5ee82)" style="fill: none; stroke: #d5cec0; stroke-linecap: round"/>
     </g>
     <g id="text_6">
      <!-- 100000 -->
      <g style="fill: #20323b" transform="translate(388.542212 407.72875) scale(0.11 -0.11)">
       <defs>
        <path id="MicrosoftYaHei-31" d="M 1781 0 
L 1781 4141 
Q 1638 3997 1295 3819 
Q 953 3641 663 3569 
L 663 4169 
Q 1047 4275 1484 4508 
Q 1922 4741 2156 4947 
L 2388 4947 
L 2388 0 
L 1781 0 
z
" transform="scale(0.015625)"/>
       </defs>
       <use xlink:href="#MicrosoftYaHei-31"/>
       <use xlink:href="#MicrosoftYaHei-30" x="58.642578"/>
       <use xlink:href="#MicrosoftYaHei-30" x="117.285156"/>
       <use xlink:href="#MicrosoftYaHei-30" x="175.927734"/>
       <use xlink:href="#MicrosoftYaHei-30" x="234.570312"/>
       <use xlink:href="#MicrosoftYaHei-30" x="293.212891"/>
      </g>
     </g>
    </g>
    <g id="xtick_7">
     <g id="line2d_7">
      <path d="M 465.433092 389.435625 
L 465.433092 23.330625 
" clip-path="url(#p1974b5ee82)" style="fill: none; stroke: #d5cec0; stroke-linecap: round"/>
     </g>
     <g id="text_7">
      <!-- 120000 -->
      <g style="fill: #20323b" transform="translate(446.081686 407.72875) scale(0.11 -0.11)">
       <use xlink:href="#MicrosoftYaHei-31"/>
       <use xlink:href="#MicrosoftYaHei-32" x="58.642578"/>
       <use xlink:href="#MicrosoftYaHei-30" x="117.285156"/>
       <use xlink:href="#MicrosoftYaHei-30" x="175.927734"/>
       <use xlink:href="#MicrosoftYaHei-30" x="234.570312"/>
       <use xlink:href="#MicrosoftYaHei-30" x="293.212891"/>
      </g>
     </g>
    </g>
    <g id="xtick_8">
     <g id="line2d_8">
      <path d="M 522.972566 389.435625 
L 522.972566 23.330625 
" clip-path="url(#p1974b5ee82)" style="fill: none; stroke: #d5cec0; stroke-linecap: round"/>
     </g>
     <g id="text_8">
      <!-- 140000 -->
      <g style="fill: #20323b" transform="translate(503.621159 407.72875) scale(0.11 -0.11)">
       <use xlink:href="#MicrosoftYaHei-31"/>
       <use xlink:href="#MicrosoftYaHei-34" x="58.642578"/>
       <use xlink:href="#MicrosoftYaHei-30" x="117.285156"/>
       <use xlink:href="#MicrosoftYaHei-30" x="175.927734"/>
       <use xlink:href="#MicrosoftYaHei-30" x="234.570312"/>
       <use xlink:href="#MicrosoftYaHei-30" x="293.212891"/>
      </g>
     </g>
    </g>
    <g id="xtick_9">
     <g id="line2d_9">
      <path d="M 580.512039 389.435625 
L 580.512039 23.330625 
" clip-path="url(#p1974b5ee82)" style="fill: none; stroke: #d5cec0; stroke-linecap: round"/>
     </g>
     <g id="text_9">
      <!-- 160000 -->
      <g style="fill: #20323b" transform="translate(561.160633 407.72875) scale(0.11 -0.11)">
       <use xlink:href="#MicrosoftYaHei-31"/>
       <use xlink:href="#MicrosoftYaHei-36" x="58.642578"/>
       <use xlink:href="#MicrosoftYaHei-30" x="117.285156"/>
       <use xlink:href="#MicrosoftYaHei-30" x="175.927734"/>
       <use xlink:href="#MicrosoftYaHei-30" x="234.570312"/>
       <use xlink:href="#MicrosoftYaHei-30" x="293.212891"/>
      </g>
     </g>
    </g>
    <g id="text_10">
     <!-- 较差模型相对最优模型的 ΔAIC -->
     <g style="fill: #20323b" transform="translate(293.589196 424.055781) scale(0.12 -0.12)">
      <defs>
       <path id="MicrosoftYaHei-8f83" d="M 694 2234 
L 1438 2234 
L 1438 3603 
L 1875 3603 
L 1875 2234 
L 2513 2234 
L 2513 1828 
L 1875 1828 
L 1875 981 
Q 2288 1031 2688 1084 
Q 2656 847 2644 653 
Q 2294 613 1875 559 
L 1875 -841 
L 1438 -841 
L 1438 506 
Q 844 428 131 334 
L 81 791 
Q 778 856 1438 928 
L 1438 1828 
L 238 1828 
L 238 2222 
Q 575 3156 816 3928 
L 156 3928 
L 156 4347 
L 941 4347 
Q 1103 4891 1206 5347 
L 1688 5247 
Q 1559 4831 1403 4347 
L 2494 4347 
L 2494 3928 
L 1269 3928 
Q 1016 3156 694 2234 
z
M 5525 2341 
Q 5200 1303 4694 644 
Q 5306 69 6331 -247 
Q 6094 -522 5944 -728 
Q 4972 -334 4353 256 
Q 3641 -450 2563 -828 
Q 2481 -666 2263 -384 
Q 3341 -22 4025 619 
Q 3531 1247 3219 2203 
L 3644 2397 
Q 3909 1572 4363 1003 
Q 4813 1622 5063 2497 
L 5525 2341 
z
M 2719 4366 
L 4316 4366 
Q 4109 4728 3806 5116 
L 4188 5359 
Q 4538 4966 4788 4578 
L 4459 4366 
L 6225 4366 
L 6225 3928 
L 2719 3928 
L 2719 4366 
z
M 4663 3422 
L 5006 3722 
Q 5669 3103 6256 2434 
L 5881 2097 
Q 5344 2747 4663 3422 
z
M 3600 3741 
L 4013 3484 
Q 3456 2628 2925 1997 
Q 2706 2191 2544 2297 
Q 3106 2922 3600 3741 
z
" transform="scale(0.015625)"/>
       <path id="MicrosoftYaHei-5dee" d="M 1094 -172 
L 3419 -172 
L 3419 891 
L 1813 891 
L 1813 1088 
Q 1200 394 331 -197 
Q 206 3 31 247 
Q 1213 1028 1859 1984 
L 200 1984 
L 200 2409 
L 2119 2409 
Q 2275 2694 2409 3028 
L 638 3028 
L 638 3447 
L 2569 3447 
Q 2666 3728 2750 4041 
L 488 4041 
L 488 4466 
L 2075 4466 
Q 1813 4797 1513 5122 
L 1869 5397 
Q 2231 5047 2563 4672 
L 2278 4466 
L 4219 4466 
L 3975 4684 
Q 4344 5047 4631 5403 
L 5056 5122 
Q 4738 4772 4413 4466 
L 6050 4466 
L 6050 4041 
L 3291 4041 
Q 3206 3731 3109 3447 
L 5813 3447 
L 5813 3028 
L 2963 3028 
Q 2838 2700 2697 2409 
L 6294 2409 
L 6294 1984 
L 2469 1984 
Q 2259 1634 1997 1309 
L 5613 1309 
L 5613 891 
L 3925 891 
L 3925 -172 
L 6213 -172 
L 6213 -597 
L 1094 -597 
L 1094 -172 
z
" transform="scale(0.015625)"/>
       <path id="MicrosoftYaHei-6a21" d="M 2050 984 
L 3859 984 
Q 3900 1213 3913 1547 
L 2950 1547 
L 2950 1372 
L 2500 1372 
L 2500 3634 
L 5844 3634 
L 5844 1372 
L 5394 1372 
L 5394 1547 
L 4344 1547 
Q 4325 1203 4288 984 
L 6250 984 
L 6250 584 
L 4525 584 
Q 5203 -175 6319 -341 
Q 6144 -572 6013 -809 
Q 4803 -456 4128 466 
Q 3681 -431 2075 -847 
Q 1969 -628 1831 -416 
Q 3303 -106 3713 584 
L 2050 584 
L 2050 984 
z
M 63 1409 
Q 603 2316 922 3509 
L 138 3509 
L 138 3922 
L 1006 3922 
L 1006 5309 
L 1444 5309 
L 1444 3922 
L 2256 3922 
L 2256 3509 
L 1444 3509 
L 1444 2684 
L 1688 2884 
Q 2044 2503 2350 2116 
L 2006 1828 
Q 1719 2244 1444 2563 
L 1444 -822 
L 1006 -822 
L 1006 2581 
Q 672 1438 275 859 
Q 188 1128 63 1409 
z
M 4713 5303 
L 5150 5303 
L 5150 4703 
L 6225 4703 
L 6225 4303 
L 5150 4303 
L 5150 3797 
L 4713 3797 
L 4713 4303 
L 3600 4303 
L 3600 3797 
L 3163 3797 
L 3163 4303 
L 2175 4303 
L 2175 4703 
L 3163 4703 
L 3163 5309 
L 3600 5309 
L 3600 4703 
L 4713 4703 
L 4713 5303 
z
M 5394 3247 
L 2950 3247 
L 2950 2778 
L 5394 2778 
L 5394 3247 
z
M 2950 1934 
L 5394 1934 
L 5394 2403 
L 2950 2403 
L 2950 1934 
z
" transform="scale(0.015625)"/>
       <path id="MicrosoftYaHei-578b" d="M 150 3503 
L 1100 3503 
Q 1106 3638 1106 4547 
L 413 4547 
L 413 4959 
L 3675 4959 
L 3675 4547 
L 2994 4547 
L 2994 3503 
L 3881 3503 
L 3881 3091 
L 2994 3091 
L 2994 1747 
L 2538 1747 
L 2538 3091 
L 1528 3091 
Q 1450 2191 638 1534 
Q 475 1716 294 1897 
Q 1013 2453 1066 3091 
L 150 3091 
L 150 3503 
z
M 138 -103 
L 2938 -103 
L 2938 741 
L 706 741 
L 706 1172 
L 2938 1172 
L 2938 1659 
L 3425 1659 
L 3425 1172 
L 5713 1172 
L 5713 741 
L 3425 741 
L 3425 -103 
L 6256 -103 
L 6256 -534 
L 138 -534 
L 138 -103 
z
M 5856 5209 
L 5856 2334 
Q 5856 1672 5200 1659 
Q 4825 1647 4331 1659 
Q 4306 1897 4256 2153 
Q 4781 2122 5044 2122 
Q 5400 2122 5400 2516 
L 5400 5209 
L 5856 5209 
z
M 1556 3503 
L 2538 3503 
L 2538 4547 
L 1563 4547 
Q 1563 3791 1556 3503 
z
M 4138 4859 
L 4588 4859 
L 4588 2697 
L 4138 2697 
L 4138 4859 
z
" transform="scale(0.015625)"/>
       <path id="MicrosoftYaHei-76f8" d="M 2738 4891 
L 6025 4891 
L 6025 -822 
L 5550 -822 
L 5550 -397 
L 3213 -397 
L 3213 -822 
L 2738 -822 
L 2738 4891 
z
M 94 1409 
Q 784 2372 1128 3622 
L 169 3622 
L 169 4041 
L 1138 4041 
L 1138 5284 
L 1594 5284 
L 1594 4041 
L 2506 4041 
L 2506 3622 
L 1594 3622 
L 1594 2534 
L 1844 2791 
Q 2275 2372 2638 1984 
L 2300 1653 
Q 1956 2059 1594 2444 
L 1594 -809 
L 1138 -809 
L 1138 2444 
Q 800 1516 319 866 
Q 225 1134 94 1409 
z
M 3213 28 
L 5550 28 
L 5550 1241 
L 3213 1241 
L 3213 28 
z
M 5550 4466 
L 3213 4466 
L 3213 3266 
L 5550 3266 
L 5550 4466 
z
M 3213 1653 
L 5550 1653 
L 5550 2853 
L 3213 2853 
L 3213 1653 
z
" transform="scale(0.015625)"/>
       <path id="MicrosoftYaHei-5bf9" d="M 694 3691 
Q 1234 2909 1741 2166 
Q 2113 3081 2213 4147 
L 250 4147 
L 250 4622 
L 2725 4622 
L 2725 4166 
Q 2553 2809 2059 1700 
Q 2569 953 3044 247 
L 2594 -53 
Q 2203 563 1803 1181 
Q 1247 163 388 -622 
Q 263 -428 81 -166 
Q 975 638 1500 1647 
Q 919 2538 319 3434 
L 694 3691 
z
M 2975 3941 
L 5056 3941 
L 5056 5278 
L 5563 5278 
L 5563 3941 
L 6325 3941 
L 6325 3466 
L 5563 3466 
L 5563 191 
Q 5563 -716 4669 -716 
Q 4388 -716 3744 -709 
Q 3713 -478 3644 -147 
Q 4263 -197 4588 -197 
Q 5056 -197 5056 278 
L 5056 3466 
L 2975 3466 
L 2975 3941 
z
M 3088 2684 
L 3494 2928 
Q 4000 2184 4388 1484 
L 3919 1216 
Q 3550 1922 3088 2684 
z
" transform="scale(0.015625)"/>
       <path id="MicrosoftYaHei-6700" d="M 169 -28 
Q 475 3 781 38 
L 781 2416 
L 94 2416 
L 94 2791 
L 6288 2791 
L 6288 2416 
L 3025 2416 
L 3025 331 
Q 3325 375 3625 422 
Q 3619 309 3631 22 
Q 3338 -19 3025 -63 
L 3025 -859 
L 2600 -859 
L 2600 -125 
Q 1525 -278 281 -472 
L 169 -28 
z
M 1038 5053 
L 5363 5053 
L 5363 3047 
L 4925 3047 
L 4925 3191 
L 1475 3191 
L 1475 3047 
L 1038 3047 
L 1038 5053 
z
M 3338 1609 
L 3338 1972 
L 5819 1972 
L 5819 1609 
Q 5500 844 4981 278 
Q 5516 -113 6306 -316 
Q 6144 -553 6025 -753 
Q 5219 -488 4666 -34 
Q 4128 -516 3413 -822 
Q 3306 -634 3125 -428 
Q 3834 -156 4347 266 
Q 3825 825 3603 1609 
L 3338 1609 
z
M 1475 3553 
L 4925 3553 
L 4925 3953 
L 1475 3953 
L 1475 3553 
z
M 4925 4691 
L 1475 4691 
L 1475 4291 
L 4925 4291 
L 4925 4691 
z
M 5344 1609 
L 4025 1609 
Q 4222 994 4659 556 
Q 5094 1013 5344 1609 
z
M 2600 269 
L 2600 691 
L 1206 691 
L 1206 88 
Q 1913 172 2600 269 
z
M 1206 1916 
L 2600 1916 
L 2600 2416 
L 1206 2416 
L 1206 1916 
z
M 1206 1053 
L 2600 1053 
L 2600 1553 
L 1206 1553 
L 1206 1053 
z
" transform="scale(0.015625)"/>
       <path id="MicrosoftYaHei-4f18" d="M 1825 3609 
L 3184 3609 
Q 3216 4322 3213 5272 
L 3713 5272 
Q 3719 4338 3688 3609 
L 6188 3609 
L 6188 3153 
L 4475 3153 
L 4475 228 
Q 4475 -122 4838 -122 
L 5244 -122 
Q 5656 -122 5700 303 
Q 5750 659 5781 1266 
Q 6031 1166 6294 1066 
Q 6244 528 6175 109 
Q 6100 -291 5900 -447 
Q 5713 -603 5275 -597 
L 4763 -597 
Q 4325 -597 4150 -422 
Q 3969 -259 3969 184 
L 3969 3153 
L 3663 3153 
Q 3600 791 1950 -803 
Q 1775 -597 1575 -397 
Q 3100 1028 3159 3153 
L 1825 3153 
L 1825 3609 
z
M 88 2334 
Q 1056 3641 1556 5291 
L 2063 5122 
Q 1753 4253 1388 3522 
L 1388 -809 
L 913 -809 
L 913 2666 
Q 616 2184 288 1778 
Q 194 2047 88 2334 
z
M 4600 5184 
Q 5269 4759 5713 4391 
Q 5538 4197 5388 3991 
Q 4875 4447 4325 4841 
L 4600 5184 
z
" transform="scale(0.015625)"/>
       <path id="MicrosoftYaHei-7684" d="M 356 4284 
L 988 4284 
Q 1219 4853 1369 5322 
L 1894 5172 
Q 1697 4694 1513 4284 
L 2763 4284 
L 2763 -691 
L 2263 -691 
L 2263 -203 
L 856 -203 
L 856 -734 
L 356 -734 
L 356 4284 
z
M 2856 3003 
Q 3444 3934 3850 5322 
L 4375 5191 
Q 4216 4719 4050 4303 
L 6063 4303 
Q 5988 1091 5938 259 
Q 5894 -722 4906 -722 
Q 4338 -722 3750 -684 
Q 3713 -372 3650 -128 
L 3669 -128 
Q 4294 -216 4813 -216 
Q 5381 -216 5425 384 
Q 5494 1316 5525 3834 
L 3850 3834 
Q 3578 3231 3288 2772 
Q 3119 2891 2856 3003 
z
M 856 266 
L 2263 266 
L 2263 1847 
L 856 1847 
L 856 266 
z
M 2263 3816 
L 856 3816 
L 856 2297 
L 2263 2297 
L 2263 3816 
z
M 3406 2578 
L 3788 2859 
Q 4481 2041 4894 1441 
L 4431 1116 
Q 3988 1841 3406 2578 
z
" transform="scale(0.015625)"/>
       <path id="MicrosoftYaHei-20" transform="scale(0.015625)"/>
       <path id="MicrosoftYaHei-394" d="M 166 0 
L 166 275 
L 1913 4841 
L 2578 4841 
L 4334 275 
L 4334 0 
L 166 0 
z
M 2366 3744 
Q 2313 3894 2280 4012 
Q 2247 4131 2241 4225 
L 2225 4225 
Q 2213 4138 2181 4019 
Q 2150 3900 2091 3747 
Q 1856 3097 1570 2301 
Q 1284 1506 941 553 
L 3544 553 
L 2366 3744 
z
" transform="scale(0.015625)"/>
       <path id="MicrosoftYaHei-41" d="M 4428 0 
L 3738 0 
L 3244 1325 
L 1228 1325 
L 763 0 
L 72 0 
L 1916 4841 
L 2584 4841 
L 4428 0 
z
M 3050 1872 
L 2319 3884 
Q 2284 3981 2244 4222 
L 2228 4222 
Q 2194 4003 2150 3884 
L 1425 1872 
L 3050 1872 
z
" transform="scale(0.015625)"/>
       <path id="MicrosoftYaHei-49" d="M 1250 4841 
L 1250 0 
L 625 0 
L 625 4841 
L 1250 4841 
z
" transform="scale(0.015625)"/>
       <path id="MicrosoftYaHei-43" d="M 3938 200 
Q 3403 -81 2597 -81 
Q 1556 -81 934 580 
Q 313 1241 313 2328 
Q 313 3497 1013 4209 
Q 1713 4922 2791 4922 
Q 3484 4922 3938 4725 
L 3938 4072 
Q 3419 4359 2797 4359 
Q 1988 4359 1478 3820 
Q 969 3281 969 2366 
Q 969 1497 1444 986 
Q 1919 475 2688 475 
Q 3406 475 3938 800 
L 3938 200 
z
" transform="scale(0.015625)"/>
      </defs>
      <use xlink:href="#MicrosoftYaHei-8f83"/>
      <use xlink:href="#MicrosoftYaHei-5dee" x="100"/>
      <use xlink:href="#MicrosoftYaHei-6a21" x="200"/>
      <use xlink:href="#MicrosoftYaHei-578b" x="300"/>
      <use xlink:href="#MicrosoftYaHei-76f8" x="400"/>
      <use xlink:href="#MicrosoftYaHei-5bf9" x="500"/>
      <use xlink:href="#MicrosoftYaHei-6700" x="600"/>
      <use xlink:href="#MicrosoftYaHei-4f18" x="700"/>
      <use xlink:href="#MicrosoftYaHei-6a21" x="800"/>
      <use xlink:href="#MicrosoftYaHei-578b" x="900"/>
      <use xlink:href="#MicrosoftYaHei-7684" x="1000"/>
      <use xlink:href="#MicrosoftYaHei-20" x="1100"/>
      <use xlink:href="#MicrosoftYaHei-394" x="1129.589844"/>
      <use xlink:href="#MicrosoftYaHei-41" x="1199.951172"/>
      <use xlink:href="#MicrosoftYaHei-49" x="1270.3125"/>
      <use xlink:href="#MicrosoftYaHei-43" x="1299.707031"/>
     </g>
    </g>
   </g>
   <g id="matplotlib.axis_2">
    <g id="ytick_1">
     <g id="line2d_10">
      <path d="M 120.19625 349.841197 
L 630.973393 349.841197 
" clip-path="url(#p1974b5ee82)" style="fill: none; stroke: #d5cec0; stroke-linecap: round"/>
     </g>
     <g id="text_11">
      <!-- 备降班次 -->
      <g style="fill: #20323b" transform="translate(66.69625 354.23776) scale(0.11 -0.11)">
       <defs>
        <path id="MicrosoftYaHei-5907" d="M 975 2097 
L 5425 2097 
L 5425 -816 
L 4975 -816 
L 4975 -541 
L 1425 -541 
L 1425 -816 
L 975 -816 
L 975 2097 
z
M 1869 5403 
L 2338 5203 
Q 2200 4975 2041 4753 
L 5425 4753 
L 5425 4334 
Q 4847 3638 3869 3119 
Q 4903 2772 6338 2697 
Q 6131 2403 5988 2172 
Q 4372 2366 3278 2838 
Q 2038 2306 281 2003 
Q 169 2222 19 2453 
Q 1569 2678 2719 3119 
Q 1981 3547 1559 4138 
Q 1094 3603 506 3109 
Q 338 3297 163 3453 
Q 1281 4353 1869 5403 
z
M 4756 4341 
L 1953 4341 
Q 2456 3741 3275 3353 
Q 4156 3772 4756 4341 
z
M 1425 953 
L 2975 953 
L 2975 1722 
L 1425 1722 
L 1425 953 
z
M 4975 1722 
L 3425 1722 
L 3425 953 
L 4975 953 
L 4975 1722 
z
M 3425 -166 
L 4975 -166 
L 4975 597 
L 3425 597 
L 3425 -166 
z
M 1425 -166 
L 2975 -166 
L 2975 597 
L 1425 597 
L 1425 -166 
z
" transform="scale(0.015625)"/>
        <path id="MicrosoftYaHei-964d" d="M 2263 3616 
Q 3000 4322 3494 5309 
L 3919 5122 
Q 3803 4919 3688 4728 
L 5788 4728 
L 5788 4303 
Q 5403 3681 4713 3213 
Q 5269 2972 6325 2803 
Q 6294 2728 6125 2353 
Q 4900 2594 4247 2934 
Q 3481 2525 2419 2259 
Q 2319 2491 2194 2672 
Q 3122 2863 3828 3206 
Q 3438 3519 3156 3953 
Q 2878 3591 2588 3297 
Q 2444 3466 2263 3616 
z
M 2181 1678 
Q 2344 509 1588 334 
Q 1388 291 1044 328 
Q 975 597 906 834 
Q 1213 753 1419 784 
Q 1844 859 1706 1678 
Q 1594 2303 1206 2803 
Q 1481 3703 1688 4472 
L 869 4472 
L 869 -841 
L 400 -841 
L 400 4909 
L 2200 4909 
L 2200 4472 
Q 1806 3222 1700 2884 
Q 2094 2316 2181 1678 
z
M 2925 584 
L 4125 584 
L 4125 1591 
L 2500 1591 
L 2500 2016 
L 4125 2016 
L 4125 2597 
L 4594 2597 
L 4594 2016 
L 6088 2016 
L 6088 1591 
L 4594 1591 
L 4594 584 
L 6138 584 
L 6138 159 
L 4594 159 
L 4594 -847 
L 4125 -847 
L 4125 159 
L 2456 159 
L 2456 616 
L 2700 1422 
L 3169 1422 
L 2925 584 
z
M 5244 4303 
L 3422 4303 
Q 3806 3753 4269 3450 
Q 4850 3813 5244 4303 
z
" transform="scale(0.015625)"/>
        <path id="MicrosoftYaHei-73ed" d="M 3650 -47 
L 4738 -47 
L 4738 2141 
L 3888 2141 
L 3888 2591 
L 4738 2591 
L 4738 4378 
L 3844 4378 
L 3844 4828 
L 6113 4828 
L 6113 4378 
L 5200 4378 
L 5200 2591 
L 6075 2591 
L 6075 2141 
L 5200 2141 
L 5200 -47 
L 6288 -47 
L 6288 -497 
L 3650 -497 
L 3650 -47 
z
M 106 328 
Q 547 378 1000 438 
L 1000 2409 
L 188 2409 
L 188 2872 
L 1000 2872 
L 1000 4341 
L 125 4341 
L 125 4803 
L 2313 4803 
L 2313 4341 
L 1456 4341 
L 1456 2872 
L 2206 2872 
L 2206 2409 
L 1456 2409 
L 1456 500 
Q 1891 563 2338 634 
Q 2313 384 2306 159 
Q 1356 16 169 -178 
L 106 328 
z
M 3181 5166 
L 3631 5166 
Q 3631 3653 3613 2384 
Q 3588 253 2531 -859 
Q 2369 -691 2131 -528 
Q 3144 447 3163 2416 
Q 3181 3266 3181 5166 
z
M 2381 4091 
L 2800 4091 
Q 2794 2841 2706 1547 
Q 2488 1553 2288 1553 
Q 2369 2653 2381 4091 
z
" transform="scale(0.015625)"/>
        <path id="MicrosoftYaHei-6b21" d="M 4119 3472 
Q 4113 3159 4091 2856 
Q 4509 728 6319 -284 
Q 6063 -559 5913 -772 
Q 4344 331 3900 1944 
Q 3491 200 1650 -866 
Q 1525 -672 1306 -422 
Q 3225 591 3525 2428 
Q 3613 2878 3619 3472 
L 4119 3472 
z
M 4944 2647 
Q 5225 3166 5450 3766 
L 2991 3766 
Q 2719 3144 2388 2572 
Q 2163 2734 1938 2841 
Q 2669 4034 3000 5309 
L 3506 5166 
Q 3356 4675 3175 4209 
L 5988 4209 
L 5988 3766 
Q 5731 3072 5425 2466 
Q 5213 2572 4944 2647 
z
M 1388 2622 
Q 1675 2403 1875 2284 
Q 1075 859 575 -178 
L 69 153 
Q 713 1128 1388 2622 
z
M 644 4916 
Q 1150 4409 1781 3672 
L 1375 3297 
Q 769 4097 281 4591 
L 644 4916 
z
" transform="scale(0.015625)"/>
       </defs>
       <use xlink:href="#MicrosoftYaHei-5907"/>
       <use xlink:href="#MicrosoftYaHei-964d" x="100"/>
       <use xlink:href="#MicrosoftYaHei-73ed" x="200"/>
       <use xlink:href="#MicrosoftYaHei-6b21" x="300"/>
      </g>
     </g>
    </g>
    <g id="ytick_2">
     <g id="line2d_11">
      <path d="M 120.19625 292.457968 
L 630.973393 292.457968 
" clip-path="url(#p1974b5ee82)" style="fill: none; stroke: #d5cec0; stroke-linecap: round"/>
     </g>
     <g id="text_12">
      <!-- 外部冲击扰动次数 -->
      <g style="fill: #20323b" transform="translate(22.69625 296.854531) scale(0.11 -0.11)">
       <defs>
        <path id="MicrosoftYaHei-5916" d="M 38 2084 
Q 969 3503 1438 5316 
L 1950 5172 
Q 1800 4666 1638 4197 
L 3375 4197 
L 3375 3734 
Q 3044 628 569 -822 
Q 438 -616 244 -378 
Q 1456 341 2106 1422 
Q 1669 1791 1125 2172 
L 1444 2553 
Q 1975 2166 2350 1872 
Q 2738 2678 2850 3722 
L 1456 3722 
Q 1019 2616 325 1553 
Q 200 1809 38 2084 
z
M 3988 5266 
L 4513 5266 
L 4513 3116 
L 4763 3397 
Q 5656 2703 6356 2128 
L 6000 1666 
Q 5338 2278 4513 2972 
L 4513 -859 
L 3988 -859 
L 3988 5266 
z
" transform="scale(0.015625)"/>
        <path id="MicrosoftYaHei-90e8" d="M 6288 1247 
Q 6288 172 5444 84 
Q 5125 47 4594 109 
Q 4563 334 4513 659 
Q 4969 584 5294 584 
Q 5844 584 5794 1341 
Q 5769 2009 4838 2709 
Q 5244 3516 5663 4503 
L 4388 4503 
L 4388 -828 
L 3913 -828 
L 3913 4966 
L 6163 4966 
L 6163 4453 
Q 5919 3822 5406 2816 
Q 6288 2128 6288 1247 
z
M 575 1753 
L 3275 1753 
L 3275 -791 
L 2813 -791 
L 2813 -328 
L 1038 -328 
L 1038 -797 
L 575 -797 
L 575 1753 
z
M 2813 1334 
L 1038 1334 
L 1038 103 
L 2813 103 
L 2813 1334 
z
M 125 2822 
L 2125 2822 
Q 2497 3466 2731 3997 
L 3194 3759 
Q 2922 3284 2616 2822 
L 3706 2822 
L 3706 2403 
L 125 2403 
L 125 2822 
z
M 263 4472 
L 1825 4472 
Q 1703 4753 1456 5159 
L 1888 5359 
Q 2169 4891 2288 4616 
L 1981 4472 
L 3594 4472 
L 3594 4053 
L 263 4053 
L 263 4472 
z
M 681 3728 
L 1063 3959 
Q 1375 3516 1631 3072 
L 1206 2828 
Q 1013 3222 681 3728 
z
" transform="scale(0.015625)"/>
        <path id="MicrosoftYaHei-51b2" d="M 2138 4084 
L 3781 4084 
L 3781 5309 
L 4281 5309 
L 4281 4084 
L 5925 4084 
L 5925 984 
L 5438 984 
L 5438 1284 
L 4281 1284 
L 4281 -828 
L 3781 -828 
L 3781 1284 
L 2625 1284 
L 2625 984 
L 2138 984 
L 2138 4084 
z
M 5438 3634 
L 4281 3634 
L 4281 1734 
L 5438 1734 
L 5438 3634 
z
M 2625 1734 
L 3781 1734 
L 3781 3634 
L 2625 3634 
L 2625 1734 
z
M 1125 2434 
Q 1388 2259 1631 2153 
Q 1181 928 681 -603 
L 163 -328 
Q 663 803 1125 2434 
z
M 644 5034 
Q 1200 4291 1619 3653 
L 1144 3341 
Q 675 4134 219 4747 
L 644 5034 
z
" transform="scale(0.015625)"/>
        <path id="MicrosoftYaHei-51fb" d="M 5150 -816 
L 5150 -547 
L 738 -547 
L 738 1584 
L 1275 1584 
L 1275 -72 
L 2925 -72 
L 2925 2122 
L 138 2122 
L 138 2597 
L 2925 2597 
L 2925 3722 
L 588 3722 
L 588 4197 
L 2925 4197 
L 2925 5316 
L 3475 5316 
L 3475 4197 
L 5831 4197 
L 5831 3722 
L 3475 3722 
L 3475 2597 
L 6256 2597 
L 6256 2122 
L 3475 2122 
L 3475 -72 
L 5150 -72 
L 5150 1584 
L 5688 1584 
L 5688 -816 
L 5150 -816 
z
" transform="scale(0.015625)"/>
        <path id="MicrosoftYaHei-6270" d="M 2306 3722 
L 3234 3722 
Q 3259 4422 3256 5309 
L 3744 5309 
Q 3744 4434 3716 3722 
L 6169 3722 
L 6169 3253 
L 4663 3253 
L 4663 184 
Q 4663 -178 4969 -178 
L 5319 -178 
Q 5675 -178 5750 197 
Q 5831 591 5863 1128 
Q 6119 1022 6350 941 
Q 6275 384 6206 34 
Q 6081 -647 5400 -647 
L 4875 -647 
Q 4181 -647 4181 141 
L 4181 3253 
L 3694 3253 
Q 3638 641 2244 -872 
Q 2056 -666 1850 -484 
Q 3175 928 3213 3253 
L 2306 3253 
L 2306 3722 
z
M 88 1978 
Q 519 2084 969 2203 
L 969 3609 
L 144 3609 
L 144 4059 
L 969 4059 
L 969 5303 
L 1450 5303 
L 1450 4059 
L 2188 4059 
L 2188 3609 
L 1450 3609 
L 1450 2331 
Q 1825 2434 2213 2547 
Q 2225 2259 2256 2059 
Q 1859 1947 1450 1828 
L 1450 -59 
Q 1450 -759 825 -759 
Q 631 -759 219 -747 
Q 194 -491 138 -228 
Q 531 -272 725 -272 
Q 969 -272 969 34 
L 969 1688 
Q 566 1569 150 1441 
L 88 1978 
z
M 4319 4853 
L 4594 5172 
Q 5138 4797 5638 4391 
L 5319 4022 
Q 4888 4416 4319 4853 
z
" transform="scale(0.015625)"/>
        <path id="MicrosoftYaHei-52a8" d="M 2975 4022 
L 3906 4022 
Q 3916 4650 3913 5309 
L 4425 5309 
Q 4422 4656 4409 4022 
L 6094 4022 
Q 6050 1659 5969 216 
Q 5900 -666 5150 -678 
Q 4763 -678 4306 -659 
Q 4263 -397 4206 -109 
Q 4638 -166 4994 -172 
Q 5456 -172 5475 347 
Q 5569 1897 5588 3547 
L 4400 3547 
Q 4394 3278 4388 3016 
Q 4356 553 2900 -872 
Q 2725 -659 2525 -447 
Q 3831 716 3888 3028 
Q 3894 3284 3900 3547 
L 2975 3547 
L 2975 4022 
z
M 2338 1866 
Q 2731 1016 3063 178 
Q 2788 59 2594 -28 
Q 2550 91 2506 209 
Q 1316 97 338 -16 
L 119 491 
Q 394 647 563 997 
Q 869 1613 1200 2559 
L 144 2559 
L 144 3022 
L 3163 3022 
L 3163 2559 
L 1725 2559 
Q 1191 1228 800 491 
Q 1519 544 2347 631 
Q 2138 1163 1906 1672 
L 2338 1866 
z
M 406 4778 
L 2913 4778 
L 2913 4316 
L 406 4316 
L 406 4778 
z
" transform="scale(0.015625)"/>
        <path id="MicrosoftYaHei-6570" d="M 4175 5303 
L 4675 5228 
Q 4544 4622 4369 4097 
L 6281 4097 
L 6281 3672 
L 5888 3672 
Q 5731 1834 5088 753 
Q 5594 66 6375 -372 
Q 6175 -647 6038 -866 
Q 5275 -372 4769 309 
Q 4194 -403 3400 -928 
Q 3263 -747 3044 -534 
Q 3919 41 4463 772 
Q 3956 1647 3794 2791 
Q 3663 2559 3519 2359 
Q 3394 2541 3206 2759 
Q 3931 3803 4175 5303 
z
M 150 1697 
L 1100 1697 
Q 1238 1934 1369 2184 
L 1819 2041 
Q 1719 1866 1619 1697 
L 3150 1697 
L 3150 1291 
Q 2913 678 2431 216 
Q 2775 53 3131 -109 
L 2856 -541 
Q 2469 -322 2050 -103 
Q 1344 -609 269 -903 
Q 169 -703 56 -466 
Q 969 -259 1600 128 
Q 1063 403 475 691 
Q 675 978 863 1284 
L 150 1284 
L 150 1697 
z
M 219 3847 
L 1656 3847 
L 1656 5247 
L 2119 5247 
L 2119 3847 
L 3319 3847 
L 3319 3434 
L 2119 3434 
L 2119 3053 
L 2306 3266 
Q 2888 2841 3281 2516 
L 2981 2166 
Q 2638 2491 2119 2897 
L 2119 2184 
L 1656 2184 
L 1656 3059 
Q 1088 2466 331 2016 
Q 213 2197 63 2397 
Q 850 2822 1506 3434 
L 219 3434 
L 219 3847 
z
M 5388 3672 
L 4219 3672 
Q 4188 3591 4150 3516 
Q 4263 2191 4775 1247 
Q 5275 2159 5388 3672 
z
M 1088 834 
Q 1531 634 2000 416 
Q 2431 784 2675 1284 
L 1375 1284 
Q 1231 1053 1088 834 
z
M 3038 5091 
L 3425 4834 
Q 3081 4384 2738 4003 
Q 2594 4128 2400 4266 
Q 2725 4647 3038 5091 
z
M 381 4816 
L 738 5059 
Q 1019 4716 1319 4322 
L 931 4047 
Q 656 4453 381 4816 
z
" transform="scale(0.015625)"/>
       </defs>
       <use xlink:href="#MicrosoftYaHei-5916"/>
       <use xlink:href="#MicrosoftYaHei-90e8" x="100"/>
       <use xlink:href="#MicrosoftYaHei-51b2" x="200"/>
       <use xlink:href="#MicrosoftYaHei-51fb" x="300"/>
       <use xlink:href="#MicrosoftYaHei-6270" x="400"/>
       <use xlink:href="#MicrosoftYaHei-52a8" x="500"/>
       <use xlink:href="#MicrosoftYaHei-6b21" x="600"/>
       <use xlink:href="#MicrosoftYaHei-6570" x="700"/>
      </g>
     </g>
    </g>
    <g id="ytick_3">
     <g id="line2d_12">
      <path d="M 120.19625 235.074739 
L 630.973393 235.074739 
" clip-path="url(#p1974b5ee82)" style="fill: none; stroke: #d5cec0; stroke-linecap: round"/>
     </g>
     <g id="text_13">
      <!-- 取消班次 -->
      <g style="fill: #20323b" transform="translate(66.69625 239.471302) scale(0.11 -0.11)">
       <defs>
        <path id="MicrosoftYaHei-53d6" d="M 88 641 
Q 363 675 650 713 
L 650 4578 
L 181 4578 
L 181 5016 
L 3244 5016 
L 3244 4797 
L 5975 4797 
L 5975 4403 
Q 5613 2097 4906 1006 
Q 5497 172 6325 -291 
Q 6150 -472 5944 -753 
Q 5275 -266 4625 609 
Q 3994 -219 3125 -828 
Q 2947 -594 2806 -434 
L 2806 -822 
L 2338 -822 
L 2338 531 
Q 1197 353 156 178 
L 88 641 
z
M 3194 4372 
L 3194 4578 
L 2806 4578 
L 2806 1025 
Q 3156 1081 3519 1141 
Q 3500 884 3500 709 
Q 3147 656 2806 603 
L 2806 -403 
Q 3681 109 4350 1006 
Q 3628 2156 3422 4372 
L 3194 4372 
z
M 5506 4372 
L 3875 4372 
Q 4022 2544 4638 1428 
Q 5181 2344 5506 4372 
z
M 2338 953 
L 2338 1866 
L 1119 1866 
L 1119 775 
Q 1703 859 2338 953 
z
M 1119 2266 
L 2338 2266 
L 2338 3222 
L 1119 3222 
L 1119 2266 
z
M 1119 3622 
L 2338 3622 
L 2338 4578 
L 1119 4578 
L 1119 3622 
z
" transform="scale(0.015625)"/>
        <path id="MicrosoftYaHei-6d88" d="M 2513 -803 
L 2019 -803 
L 2019 3566 
L 3731 3566 
L 3731 5334 
L 4250 5334 
L 4250 3566 
L 5925 3566 
L 5925 -47 
Q 5925 -778 5225 -778 
Q 4819 -778 4144 -759 
Q 4106 -528 4050 -247 
Q 4669 -284 5031 -284 
Q 5431 -284 5431 59 
L 5431 653 
L 2513 653 
L 2513 -803 
z
M 2513 1103 
L 5431 1103 
L 5431 1878 
L 2513 1878 
L 2513 1103 
z
M 5431 3097 
L 2513 3097 
L 2513 2328 
L 5431 2328 
L 5431 3097 
z
M 844 1816 
Q 1100 1716 1356 1628 
Q 1050 384 781 -784 
L 231 -622 
Q 569 491 844 1816 
z
M 4750 4097 
Q 5225 4578 5644 5159 
L 6094 4816 
Q 5700 4353 5119 3772 
L 4750 4097 
z
M 400 3622 
Q 869 3291 1500 2772 
Q 1269 2509 1138 2366 
Q 431 2997 88 3259 
L 400 3622 
z
M 638 5241 
Q 1113 4866 1713 4328 
Q 1500 4109 1344 3941 
Q 669 4597 319 4897 
L 638 5241 
z
M 1931 4872 
L 2294 5159 
Q 2581 4897 3250 4141 
L 2825 3816 
Q 2213 4584 1931 4872 
z
" transform="scale(0.015625)"/>
       </defs>
       <use xlink:href="#MicrosoftYaHei-53d6"/>
       <use xlink:href="#MicrosoftYaHei-6d88" x="100"/>
       <use xlink:href="#MicrosoftYaHei-73ed" x="200"/>
       <use xlink:href="#MicrosoftYaHei-6b21" x="300"/>
      </g>
     </g>
    </g>
    <g id="ytick_4">
     <g id="line2d_13">
      <path d="M 120.19625 177.691511 
L 630.973393 177.691511 
" clip-path="url(#p1974b5ee82)" style="fill: none; stroke: #d5cec0; stroke-linecap: round"/>
     </g>
     <g id="text_14">
      <!-- 系统 / NAS 扰动次数 -->
      <g style="fill: #20323b" transform="translate(7.2 182.088073) scale(0.11 -0.11)">
       <defs>
        <path id="MicrosoftYaHei-7cfb" d="M 4494 2747 
Q 5294 2103 6131 1334 
Q 5925 1134 5750 953 
Q 5491 1209 5225 1459 
Q 4391 1425 3519 1378 
L 3519 -28 
Q 3519 -741 2769 -741 
Q 2463 -741 1963 -728 
Q 1931 -497 1881 -216 
Q 2406 -272 2688 -272 
Q 3031 -272 3031 66 
L 3031 1353 
Q 2272 1313 1488 1266 
Q 1131 1247 781 1184 
L 575 1722 
Q 988 1797 1356 1966 
Q 2313 2434 3131 2909 
Q 2044 2825 1306 2759 
Q 981 2728 813 2691 
L 613 3216 
Q 913 3291 1175 3434 
Q 1959 3872 2747 4469 
Q 1675 4403 575 4353 
Q 531 4572 463 4791 
Q 3444 4903 5756 5134 
L 5850 4691 
Q 4494 4578 3097 4488 
L 3350 4309 
Q 2369 3653 1538 3203 
Q 2938 3281 3856 3353 
Q 4481 3753 5013 4159 
L 5419 3828 
Q 3850 2709 1775 1734 
Q 3019 1778 4791 1866 
Q 4478 2153 4163 2428 
L 4494 2747 
z
M 4125 697 
L 4444 1034 
Q 5231 509 6175 -222 
L 5806 -628 
Q 4931 97 4125 697 
z
M 1681 1028 
L 2088 709 
Q 1288 -9 406 -678 
Q 256 -497 63 -297 
Q 875 259 1681 1028 
z
" transform="scale(0.015625)"/>
        <path id="MicrosoftYaHei-7edf" d="M 5100 3641 
Q 5625 2934 6175 2047 
Q 5956 1922 5713 1766 
Q 5556 2031 5413 2275 
Q 5122 2256 4813 2241 
L 4813 122 
Q 4813 -259 5094 -259 
L 5400 -259 
Q 5706 -259 5750 53 
Q 5800 428 5813 866 
Q 6019 778 6313 684 
Q 6263 141 6206 -159 
Q 6119 -703 5550 -703 
L 5013 -703 
Q 4331 -703 4331 78 
L 4331 2213 
Q 3981 2194 3606 2169 
Q 3556 809 3256 272 
Q 2900 -416 1925 -866 
Q 1788 -672 1606 -447 
Q 2513 -78 2819 522 
Q 3100 1000 3122 2138 
Q 2994 2128 2863 2122 
Q 2594 2097 2363 2041 
L 2150 2528 
Q 2419 2641 2581 2828 
Q 3050 3388 3463 4047 
L 2100 4047 
L 2100 4491 
L 4094 4491 
Q 3859 4850 3650 5128 
L 4063 5384 
Q 4300 5091 4594 4684 
L 4297 4491 
L 6200 4491 
L 6200 4047 
L 3663 4047 
L 4006 3897 
Q 3488 3197 2988 2609 
Q 4166 2650 5153 2694 
Q 4916 3075 4700 3391 
L 5100 3641 
z
M 894 1534 
Q 1394 1603 2175 1722 
Q 2138 1472 2113 1259 
Q 1331 1153 325 991 
L 225 1441 
Q 616 1841 1153 2744 
Q 503 2700 219 2678 
L 100 3103 
Q 650 3828 1288 5316 
L 1763 5128 
Q 1156 3941 656 3141 
Q 1066 3147 1394 3159 
Q 1581 3494 1788 3884 
L 2256 3678 
Q 1544 2434 894 1534 
z
M 81 222 
Q 1119 422 2225 672 
Q 2200 347 2200 222 
Q 1069 -28 225 -253 
L 81 222 
z
" transform="scale(0.015625)"/>
        <path id="MicrosoftYaHei-2f" d="M 2791 4841 
L 469 -803 
L -103 -803 
L 2219 4841 
L 2791 4841 
z
" transform="scale(0.015625)"/>
        <path id="MicrosoftYaHei-4e" d="M 4578 0 
L 3838 0 
L 1403 3766 
Q 1300 3925 1238 4081 
L 1219 4081 
Q 1244 3919 1244 3403 
L 1244 0 
L 625 0 
L 625 4841 
L 1409 4841 
L 3778 1141 
Q 3947 878 3978 806 
L 3991 806 
Q 3959 1013 3959 1513 
L 3959 4841 
L 4578 4841 
L 4578 0 
z
" transform="scale(0.015625)"/>
        <path id="MicrosoftYaHei-53" d="M 400 909 
Q 622 716 994 591 
Q 1366 466 1700 466 
Q 2719 466 2719 1191 
Q 2719 1394 2609 1556 
Q 2500 1719 2309 1844 
Q 2119 1969 1594 2228 
Q 866 2591 634 2902 
Q 403 3213 403 3613 
Q 403 4216 887 4569 
Q 1372 4922 2109 4922 
Q 2831 4922 3169 4747 
L 3169 4066 
Q 2731 4369 2063 4369 
Q 1619 4369 1339 4183 
Q 1059 3997 1059 3666 
Q 1059 3372 1253 3187 
Q 1447 3003 2094 2684 
Q 2806 2344 3090 2003 
Q 3375 1663 3375 1238 
Q 3375 600 2912 259 
Q 2450 -81 1628 -81 
Q 1341 -81 958 -1 
Q 575 78 400 197 
L 400 909 
z
" transform="scale(0.015625)"/>
       </defs>
       <use xlink:href="#MicrosoftYaHei-7cfb"/>
       <use xlink:href="#MicrosoftYaHei-7edf" x="100"/>
       <use xlink:href="#MicrosoftYaHei-20" x="200"/>
       <use xlink:href="#MicrosoftYaHei-2f" x="229.589844"/>
       <use xlink:href="#MicrosoftYaHei-20" x="272.314453"/>
       <use xlink:href="#MicrosoftYaHei-4e" x="301.904297"/>
       <use xlink:href="#MicrosoftYaHei-41" x="383.203125"/>
       <use xlink:href="#MicrosoftYaHei-53" x="453.564453"/>
       <use xlink:href="#MicrosoftYaHei-20" x="511.279297"/>
       <use xlink:href="#MicrosoftYaHei-6270" x="540.869141"/>
       <use xlink:href="#MicrosoftYaHei-52a8" x="640.869141"/>
       <use xlink:href="#MicrosoftYaHei-6b21" x="740.869141"/>
       <use xlink:href="#MicrosoftYaHei-6570" x="840.869141"/>
      </g>
     </g>
    </g>
    <g id="ytick_5">
     <g id="line2d_14">
      <path d="M 120.19625 120.308282 
L 630.973393 120.308282 
" clip-path="url(#p1974b5ee82)" style="fill: none; stroke: #d5cec0; stroke-linecap: round"/>
     </g>
     <g id="text_15">
      <!-- 内部运营扰动次数 -->
      <g style="fill: #20323b" transform="translate(22.69625 124.704844) scale(0.11 -0.11)">
       <defs>
        <path id="MicrosoftYaHei-5185" d="M 638 4184 
L 2944 4184 
L 2944 5259 
L 3456 5259 
L 3456 4184 
L 5750 4184 
L 5750 59 
Q 5750 -734 4969 -728 
Q 4556 -728 3956 -716 
Q 3938 -503 3863 -172 
Q 4456 -222 4850 -228 
Q 5244 -241 5244 166 
L 5244 3709 
L 3444 3709 
Q 3419 3141 3306 2697 
Q 4413 1809 5094 1134 
L 4713 728 
Q 4044 1459 3156 2247 
Q 2731 1328 1538 647 
Q 1275 1009 1188 1097 
Q 2206 1634 2581 2291 
Q 2881 2772 2931 3709 
L 1144 3709 
L 1144 -784 
L 638 -784 
L 638 4184 
z
" transform="scale(0.015625)"/>
        <path id="MicrosoftYaHei-8fd0" d="M 4319 2197 
L 4713 2447 
Q 5419 1522 5963 666 
L 5513 359 
Q 5372 597 5225 834 
Q 3450 722 2681 622 
Q 2469 591 2238 516 
L 2006 966 
Q 2250 1134 2413 1366 
Q 2838 2009 3250 2859 
L 1919 2859 
L 1919 3334 
L 6200 3334 
L 6200 2859 
L 3844 2859 
Q 3303 1866 2800 1116 
Q 3750 1172 4959 1253 
Q 4650 1731 4319 2197 
z
M 2756 -141 
L 4588 -178 
L 6313 -109 
Q 6206 -366 6113 -609 
L 4250 -622 
L 2650 -603 
Q 1656 -578 1156 122 
Q 769 -209 369 -697 
L 100 -166 
Q 116 -147 931 547 
L 931 2678 
L 131 2678 
L 131 3141 
L 1431 3141 
L 1431 459 
Q 1903 -125 2756 -141 
z
M 2338 4947 
L 5838 4947 
L 5838 4472 
L 2338 4472 
L 2338 4947 
z
M 794 5278 
Q 1275 4697 1744 4078 
L 1300 3778 
Q 881 4403 413 5003 
L 794 5278 
z
" transform="scale(0.015625)"/>
        <path id="MicrosoftYaHei-8425" d="M 863 1059 
L 5538 1059 
L 5538 -847 
L 5063 -847 
L 5063 -534 
L 1338 -534 
L 1338 -847 
L 863 -847 
L 863 1059 
z
M 1313 2984 
L 5088 2984 
L 5088 1422 
L 4613 1422 
L 4613 1566 
L 1788 1566 
L 1788 1422 
L 1313 1422 
L 1313 2984 
z
M 3938 5328 
L 4394 5328 
L 4394 4816 
L 6269 4816 
L 6269 4403 
L 4394 4403 
L 4394 4028 
L 3938 4028 
L 3938 4403 
L 2456 4403 
L 2456 4028 
L 2000 4028 
L 2000 4403 
L 150 4403 
L 150 4816 
L 2000 4816 
L 2000 5328 
L 2456 5328 
L 2456 4816 
L 3938 4816 
L 3938 5328 
z
M 338 3859 
L 6063 3859 
L 6063 2716 
L 5588 2716 
L 5588 3447 
L 813 3447 
L 813 2716 
L 338 2716 
L 338 3859 
z
M 5063 672 
L 1338 672 
L 1338 -147 
L 5063 -147 
L 5063 672 
z
M 4613 2597 
L 1788 2597 
L 1788 1953 
L 4613 1953 
L 4613 2597 
z
" transform="scale(0.015625)"/>
       </defs>
       <use xlink:href="#MicrosoftYaHei-5185"/>
       <use xlink:href="#MicrosoftYaHei-90e8" x="100"/>
       <use xlink:href="#MicrosoftYaHei-8fd0" x="200"/>
       <use xlink:href="#MicrosoftYaHei-8425" x="300"/>
       <use xlink:href="#MicrosoftYaHei-6270" x="400"/>
       <use xlink:href="#MicrosoftYaHei-52a8" x="500"/>
       <use xlink:href="#MicrosoftYaHei-6b21" x="600"/>
       <use xlink:href="#MicrosoftYaHei-6570" x="700"/>
      </g>
     </g>
    </g>
    <g id="ytick_6">
     <g id="line2d_15">
      <path d="M 120.19625 62.925053 
L 630.973393 62.925053 
" clip-path="url(#p1974b5ee82)" style="fill: none; stroke: #d5cec0; stroke-linecap: round"/>
     </g>
     <g id="text_16">
      <!-- 总延误班次 -->
      <g style="fill: #20323b" transform="translate(55.69625 67.321615) scale(0.11 -0.11)">
       <defs>
        <path id="MicrosoftYaHei-603b" d="M 900 4253 
L 3631 4253 
Q 4022 4822 4331 5353 
L 4813 5103 
Q 4500 4675 4175 4253 
L 5500 4253 
L 5500 1703 
L 5000 1703 
L 5000 1978 
L 1400 1978 
L 1400 1703 
L 900 1703 
L 900 4253 
z
M 5000 3803 
L 1400 3803 
L 1400 2428 
L 5000 2428 
L 5000 3803 
z
M 1694 1378 
L 2181 1378 
L 2181 284 
Q 2181 -203 2619 -203 
L 3875 -203 
Q 4244 -203 4338 172 
Q 4394 366 4450 872 
Q 4631 791 4931 684 
Q 4850 209 4750 -97 
Q 4556 -641 3900 -641 
L 2519 -641 
Q 1694 -641 1694 197 
L 1694 1378 
z
M 719 1422 
L 1188 1272 
Q 931 491 538 -334 
Q 338 -247 81 -134 
Q 444 597 719 1422 
z
M 4881 1203 
L 5238 1478 
Q 5813 841 6319 197 
L 5900 -134 
Q 5456 491 4881 1203 
z
M 2663 1591 
L 3044 1841 
Q 3488 1372 3863 841 
L 3444 547 
Q 3069 1109 2663 1591 
z
M 1594 5109 
L 1975 5353 
Q 2350 4959 2650 4541 
L 2225 4266 
Q 1956 4653 1594 5109 
z
" transform="scale(0.015625)"/>
        <path id="MicrosoftYaHei-5ef6" d="M 600 2066 
Q 825 1325 1234 834 
Q 1594 1525 1688 2391 
L 331 2391 
L 331 2853 
L 1544 4259 
L 150 4259 
L 150 4722 
L 2156 4722 
L 2156 4247 
L 956 2853 
L 2181 2853 
L 2181 2434 
Q 2063 1325 1597 478 
Q 2300 -88 3394 -128 
Q 4706 -184 6319 -97 
Q 6213 -359 6113 -616 
Q 4369 -622 3519 -603 
Q 2188 -597 1344 72 
Q 975 -450 450 -859 
Q 331 -672 125 -459 
Q 631 -72 978 416 
Q 463 997 188 1909 
L 600 2066 
z
M 2813 3547 
L 3300 3547 
L 3300 1134 
L 4144 1134 
L 4144 4416 
Q 3444 4369 2613 4328 
Q 2556 4609 2506 4797 
Q 4213 4853 5944 5053 
L 6050 4578 
Q 5441 4509 4631 4450 
L 4631 3128 
L 5981 3128 
L 5981 2666 
L 4631 2666 
L 4631 1134 
L 6094 1134 
L 6094 666 
L 2813 666 
L 2813 3547 
z
" transform="scale(0.015625)"/>
        <path id="MicrosoftYaHei-8bef" d="M 1819 1484 
L 3706 1484 
Q 3750 1769 3756 2222 
L 2044 2222 
L 2044 2659 
L 6069 2659 
L 6069 2222 
L 4244 2222 
Q 4234 1753 4203 1484 
L 6288 1484 
L 6288 1047 
L 4356 1047 
Q 4913 -53 6363 -359 
Q 6138 -628 5981 -828 
Q 4538 -406 3984 850 
Q 3569 -272 1969 -847 
Q 1819 -653 1631 -441 
Q 3188 53 3588 1047 
L 1819 1047 
L 1819 1484 
z
M 2325 5034 
L 5750 5034 
L 5750 2991 
L 5275 2991 
L 5275 3272 
L 2800 3272 
L 2800 2991 
L 2325 2991 
L 2325 5034 
z
M 2044 784 
Q 2063 459 2088 247 
Q 1294 -272 925 -584 
L 631 -166 
Q 844 9 844 378 
L 844 2716 
L 100 2716 
L 100 3166 
L 1325 3166 
L 1325 284 
Q 1763 578 2044 784 
z
M 5275 4616 
L 2800 4616 
L 2800 3691 
L 5275 3691 
L 5275 4616 
z
M 831 5153 
Q 1281 4697 1725 4184 
L 1294 3822 
Q 881 4347 450 4822 
L 831 5153 
z
" transform="scale(0.015625)"/>
       </defs>
       <use xlink:href="#MicrosoftYaHei-603b"/>
       <use xlink:href="#MicrosoftYaHei-5ef6" x="100"/>
       <use xlink:href="#MicrosoftYaHei-8bef" x="200"/>
       <use xlink:href="#MicrosoftYaHei-73ed" x="300"/>
       <use xlink:href="#MicrosoftYaHei-6b21" x="400"/>
      </g>
     </g>
    </g>
   </g>
   <g id="patch_3">
    <path d="M 120.19625 372.794489 
L 126.447255 372.794489 
L 126.447255 326.887906 
L 120.19625 326.887906 
z
" clip-path="url(#p1974b5ee82)" style="fill: #0f4c5c; opacity: 0.88; stroke: #ffffff; stroke-linejoin: miter"/>
   </g>
   <g id="patch_4">
    <path d="M 120.19625 315.41126 
L 129.536486 315.41126 
L 129.536486 269.504677 
L 120.19625 269.504677 
z
" clip-path="url(#p1974b5ee82)" style="fill: #0f4c5c; opacity: 0.88; stroke: #ffffff; stroke-linejoin: miter"/>
   </g>
   <g id="patch_5">
    <path d="M 120.19625 258.028031 
L 234.853132 258.028031 
L 234.853132 212.121448 
L 120.19625 212.121448 
z
" clip-path="url(#p1974b5ee82)" style="fill: #0f4c5c; opacity: 0.88; stroke: #ffffff; stroke-linejoin: miter"/>
   </g>
   <g id="patch_6">
    <path d="M 120.19625 200.644802 
L 272.856262 200.644802 
L 272.856262 154.738219 
L 120.19625 154.738219 
z
" clip-path="url(#p1974b5ee82)" style="fill: #0f4c5c; opacity: 0.88; stroke: #ffffff; stroke-linejoin: miter"/>
   </g>
   <g id="patch_7">
    <path d="M 120.19625 143.261573 
L 461.631106 143.261573 
L 461.631106 97.35499 
L 120.19625 97.35499 
z
" clip-path="url(#p1974b5ee82)" style="fill: #0f4c5c; opacity: 0.88; stroke: #ffffff; stroke-linejoin: miter"/>
   </g>
   <g id="patch_8">
    <path d="M 120.19625 85.878344 
L 606.650672 85.878344 
L 606.650672 39.971761 
L 120.19625 39.971761 
z
" clip-path="url(#p1974b5ee82)" style="fill: #0f4c5c; opacity: 0.88; stroke: #ffffff; stroke-linejoin: miter"/>
   </g>
   <g id="patch_9">
    <path d="M 120.19625 389.435625 
L 120.19625 23.330625 
" style="fill: none; stroke: #d5cec0; stroke-width: 1.25; stroke-linejoin: miter; stroke-linecap: square"/>
   </g>
   <g id="patch_10">
    <path d="M 630.973393 389.435625 
L 630.973393 23.330625 
" style="fill: none; stroke: #d5cec0; stroke-width: 1.25; stroke-linejoin: miter; stroke-linecap: square"/>
   </g>
   <g id="patch_11">
    <path d="M 120.19625 389.435625 
L 630.973393 389.435625 
" style="fill: none; stroke: #d5cec0; stroke-width: 1.25; stroke-linejoin: miter; stroke-linecap: square"/>
   </g>
   <g id="patch_12">
    <path d="M 120.19625 23.330625 
L 630.973393 23.330625 
" style="fill: none; stroke: #d5cec0; stroke-width: 1.25; stroke-linejoin: miter; stroke-linecap: square"/>
   </g>
   <g id="text_17">
    <!-- Negative Binomial 最优 | AIC=2,531.8 -->
    <g style="fill: #20323b" transform="translate(136.176344 346.786681) scale(0.09 -0.09)">
     <defs>
      <path id="MicrosoftYaHei-65" d="M 3363 1572 
L 944 1572 
Q 959 1019 1246 717 
Q 1534 416 2050 416 
Q 2631 416 3116 788 
L 3116 241 
Q 2659 -81 1906 -81 
Q 1156 -81 736 394 
Q 316 869 316 1713 
Q 316 2506 777 3022 
Q 1238 3538 1922 3538 
Q 2600 3538 2981 3102 
Q 3363 2666 3363 1881 
L 3363 1572 
z
M 2750 2063 
Q 2747 2531 2528 2787 
Q 2309 3044 1913 3044 
Q 1547 3044 1280 2772 
Q 1013 2500 944 2063 
L 2750 2063 
z
" transform="scale(0.015625)"/>
      <path id="MicrosoftYaHei-67" d="M 3547 291 
Q 3547 -1628 1684 -1628 
Q 1041 -1628 566 -1388 
L 566 -797 
Q 1144 -1119 1675 -1119 
Q 2934 -1119 2934 206 
L 2934 572 
L 2922 572 
Q 2528 -81 1747 -81 
Q 1097 -81 706 384 
Q 316 850 316 1619 
Q 316 2503 747 3020 
Q 1178 3538 1897 3538 
Q 2588 3538 2922 2988 
L 2934 2988 
L 2934 3456 
L 3547 3456 
L 3547 291 
z
M 2934 2056 
Q 2938 2456 2666 2743 
Q 2394 3031 1997 3031 
Q 1497 3031 1219 2664 
Q 941 2297 941 1656 
Q 941 1106 1209 765 
Q 1478 425 1922 425 
Q 2369 425 2653 750 
Q 2938 1075 2934 1575 
L 2934 2056 
z
" transform="scale(0.015625)"/>
      <path id="MicrosoftYaHei-61" d="M 628 3216 
Q 1144 3538 1819 3538 
Q 3069 3538 3069 2225 
L 3069 0 
L 2463 0 
L 2463 534 
L 2447 534 
Q 2088 -81 1388 -81 
Q 884 -81 587 191 
Q 291 463 291 925 
Q 291 1894 1438 2053 
L 2463 2197 
Q 2463 3044 1763 3044 
Q 1141 3044 628 2625 
L 628 3216 
z
M 1653 1625 
Q 1228 1569 1067 1412 
Q 906 1256 906 975 
Q 906 728 1081 572 
Q 1256 416 1544 416 
Q 1944 416 2203 697 
Q 2463 978 2463 1403 
L 2463 1734 
L 1653 1625 
z
" transform="scale(0.015625)"/>
      <path id="MicrosoftYaHei-74" d="M 2206 34 
Q 2006 -75 1666 -75 
Q 738 -75 738 953 
L 738 2950 
L 144 2950 
L 144 3456 
L 738 3456 
L 738 4288 
L 1347 4481 
L 1347 3456 
L 2206 3456 
L 2206 2950 
L 1347 2950 
L 1347 1063 
Q 1347 722 1462 575 
Q 1578 428 1847 428 
Q 2053 428 2206 544 
L 2206 34 
z
" transform="scale(0.015625)"/>
      <path id="MicrosoftYaHei-69" d="M 472 4675 
Q 472 4838 583 4948 
Q 694 5059 856 5059 
Q 1022 5059 1136 4950 
Q 1250 4841 1250 4675 
Q 1250 4513 1136 4405 
Q 1022 4297 856 4297 
Q 691 4297 581 4405 
Q 472 4513 472 4675 
z
M 544 0 
L 544 3456 
L 1156 3456 
L 1156 0 
L 544 0 
z
" transform="scale(0.015625)"/>
      <path id="MicrosoftYaHei-76" d="M 3331 3456 
L 1963 0 
L 1344 0 
L 44 3456 
L 713 3456 
L 1556 988 
Q 1659 691 1678 491 
L 1694 491 
Q 1725 753 1803 975 
L 2688 3456 
L 3331 3456 
z
" transform="scale(0.015625)"/>
      <path id="MicrosoftYaHei-42" d="M 625 0 
L 625 4841 
L 2047 4841 
Q 2684 4841 3065 4536 
Q 3447 4231 3447 3728 
Q 3447 3328 3220 3022 
Q 2994 2716 2597 2588 
L 2597 2575 
Q 3091 2519 3386 2201 
Q 3681 1884 3681 1397 
Q 3681 772 3232 386 
Q 2784 0 2084 0 
L 625 0 
z
M 1250 4294 
L 1250 2778 
L 1819 2778 
Q 2272 2778 2530 2998 
Q 2788 3219 2788 3609 
Q 2788 4294 1875 4294 
L 1250 4294 
z
M 1250 2234 
L 1250 547 
L 2000 547 
Q 2491 547 2758 773 
Q 3025 1000 3025 1403 
Q 3025 2234 1897 2234 
L 1250 2234 
z
" transform="scale(0.015625)"/>
      <path id="MicrosoftYaHei-6e" d="M 3469 0 
L 2859 0 
L 2859 1966 
Q 2859 3031 2081 3031 
Q 1678 3031 1418 2731 
Q 1159 2431 1159 1972 
L 1159 0 
L 547 0 
L 547 3456 
L 1159 3456 
L 1159 2884 
L 1172 2884 
Q 1563 3538 2306 3538 
Q 2875 3538 3172 3173 
Q 3469 2809 3469 2113 
L 3469 0 
z
" transform="scale(0.015625)"/>
      <path id="MicrosoftYaHei-6f" d="M 316 1691 
Q 316 2547 794 3042 
Q 1272 3538 2091 3538 
Q 2869 3538 3311 3061 
Q 3753 2584 3753 1744 
Q 3753 925 3281 422 
Q 2809 -81 2016 -81 
Q 1241 -81 778 406 
Q 316 894 316 1691 
z
M 941 1709 
Q 941 1113 1242 769 
Q 1544 425 2053 425 
Q 2578 425 2853 761 
Q 3128 1097 3128 1725 
Q 3128 2356 2853 2693 
Q 2578 3031 2053 3031 
Q 1538 3031 1239 2678 
Q 941 2325 941 1709 
z
" transform="scale(0.015625)"/>
      <path id="MicrosoftYaHei-6d" d="M 5522 0 
L 4909 0 
L 4909 1984 
Q 4909 2547 4734 2789 
Q 4559 3031 4159 3031 
Q 3822 3031 3581 2715 
Q 3341 2400 3341 1969 
L 3341 0 
L 2728 0 
L 2728 2047 
Q 2728 3031 1969 3031 
Q 1619 3031 1389 2731 
Q 1159 2431 1159 1966 
L 1159 0 
L 547 0 
L 547 3456 
L 1159 3456 
L 1159 2909 
L 1172 2909 
Q 1541 3538 2250 3538 
Q 2597 3538 2862 3347 
Q 3128 3156 3231 2831 
Q 3616 3538 4381 3538 
Q 5522 3538 5522 2131 
L 5522 0 
z
" transform="scale(0.015625)"/>
      <path id="MicrosoftYaHei-6c" d="M 544 0 
L 544 5116 
L 1156 5116 
L 1156 0 
L 544 0 
z
" transform="scale(0.015625)"/>
      <path id="MicrosoftYaHei-7c" d="M 1134 -1628 
L 597 -1628 
L 597 5284 
L 1134 5284 
L 1134 -1628 
z
" transform="scale(0.015625)"/>
      <path id="MicrosoftYaHei-3d" d="M 3972 2497 
L 788 2497 
L 788 2969 
L 3972 2969 
L 3972 2497 
z
M 3972 1053 
L 788 1053 
L 788 1525 
L 3972 1525 
L 3972 1053 
z
" transform="scale(0.015625)"/>
      <path id="MicrosoftYaHei-2c" d="M 1109 778 
L 575 -888 
L 131 -888 
L 519 778 
L 1109 778 
z
" transform="scale(0.015625)"/>
      <path id="MicrosoftYaHei-35" d="M 3294 1494 
Q 3294 784 2823 350 
Q 2353 -84 1559 -84 
Q 878 -84 544 119 
L 544 744 
Q 1034 425 1544 425 
Q 2050 425 2361 704 
Q 2672 984 2672 1447 
Q 2672 1909 2348 2167 
Q 2025 2425 1434 2425 
Q 978 2425 613 2384 
L 791 4841 
L 3053 4841 
L 3053 4303 
L 1306 4303 
L 1206 2931 
L 1647 2950 
Q 2416 2950 2855 2567 
Q 3294 2184 3294 1494 
z
" transform="scale(0.015625)"/>
      <path id="MicrosoftYaHei-33" d="M 447 809 
Q 944 425 1569 425 
Q 2069 425 2361 670 
Q 2653 916 2653 1328 
Q 2653 2247 1338 2247 
L 934 2247 
L 934 2753 
L 1319 2753 
Q 2484 2753 2484 3616 
Q 2484 4413 1594 4413 
Q 1084 4413 634 4069 
L 634 4647 
Q 1109 4922 1744 4922 
Q 2363 4922 2738 4598 
Q 3113 4275 3113 3759 
Q 3113 2809 2144 2538 
L 2144 2525 
Q 2669 2469 2973 2155 
Q 3278 1841 3278 1372 
Q 3278 719 2808 319 
Q 2338 -81 1556 -81 
Q 869 -81 447 175 
L 447 809 
z
" transform="scale(0.015625)"/>
      <path id="MicrosoftYaHei-2e" d="M 372 322 
Q 372 491 487 606 
Q 603 722 775 722 
Q 950 722 1065 605 
Q 1181 488 1181 322 
Q 1181 159 1065 42 
Q 950 -75 772 -75 
Q 600 -75 486 42 
Q 372 159 372 322 
z
" transform="scale(0.015625)"/>
     </defs>
     <use xlink:href="#MicrosoftYaHei-4e"/>
     <use xlink:href="#MicrosoftYaHei-65" x="81.298828"/>
     <use xlink:href="#MicrosoftYaHei-67" x="138.037109"/>
     <use xlink:href="#MicrosoftYaHei-61" x="202.001953"/>
     <use xlink:href="#MicrosoftYaHei-74" x="257.275391"/>
     <use xlink:href="#MicrosoftYaHei-69" x="294.53125"/>
     <use xlink:href="#MicrosoftYaHei-76" x="321.142578"/>
     <use xlink:href="#MicrosoftYaHei-65" x="373.007812"/>
     <use xlink:href="#MicrosoftYaHei-20" x="429.746094"/>
     <use xlink:href="#MicrosoftYaHei-42" x="459.335938"/>
     <use xlink:href="#MicrosoftYaHei-69" x="522.080078"/>
     <use xlink:href="#MicrosoftYaHei-6e" x="548.691406"/>
     <use xlink:href="#MicrosoftYaHei-6f" x="610.3125"/>
     <use xlink:href="#MicrosoftYaHei-6d" x="673.886719"/>
     <use xlink:href="#MicrosoftYaHei-69" x="767.587891"/>
     <use xlink:href="#MicrosoftYaHei-61" x="794.199219"/>
     <use xlink:href="#MicrosoftYaHei-6c" x="849.472656"/>
     <use xlink:href="#MicrosoftYaHei-20" x="876.083984"/>
     <use xlink:href="#MicrosoftYaHei-6700" x="905.673828"/>
     <use xlink:href="#MicrosoftYaHei-4f18" x="1005.673828"/>
     <use xlink:href="#MicrosoftYaHei-20" x="1105.673828"/>
     <use xlink:href="#MicrosoftYaHei-7c" x="1135.263672"/>
     <use xlink:href="#MicrosoftYaHei-20" x="1162.167969"/>
     <use xlink:href="#MicrosoftYaHei-41" x="1191.757812"/>
     <use xlink:href="#MicrosoftYaHei-49" x="1262.119141"/>
     <use xlink:href="#MicrosoftYaHei-43" x="1291.513672"/>
     <use xlink:href="#MicrosoftYaHei-3d" x="1358.408203"/>
     <use xlink:href="#MicrosoftYaHei-32" x="1432.578125"/>
     <use xlink:href="#MicrosoftYaHei-2c" x="1491.220703"/>
     <use xlink:href="#MicrosoftYaHei-35" x="1515.292969"/>
     <use xlink:href="#MicrosoftYaHei-33" x="1573.935547"/>
     <use xlink:href="#MicrosoftYaHei-31" x="1632.578125"/>
     <use xlink:href="#MicrosoftYaHei-2e" x="1691.220703"/>
     <use xlink:href="#MicrosoftYaHei-38" x="1715.292969"/>
    </g>
    <!-- 对比模型 Poisson | ΔAIC=2,172.8 -->
    <g style="fill: #20323b" transform="translate(136.176344 358.046806) scale(0.09 -0.09)">
     <defs>
      <path id="MicrosoftYaHei-6bd4" d="M 3225 5316 
L 3744 5316 
L 3744 2672 
Q 4959 3550 5744 4509 
L 6188 4178 
Q 5175 3063 3744 2056 
L 3744 247 
Q 3744 -166 4106 -166 
L 5175 -166 
Q 5588 -166 5650 203 
Q 5725 678 5763 1247 
Q 6025 1147 6300 1066 
Q 6244 484 6150 22 
Q 6019 -622 5319 -622 
L 3944 -622 
Q 3225 -622 3225 159 
L 3225 5316 
z
M 1063 5153 
L 1063 3278 
L 2825 3278 
L 2825 2809 
L 1063 2809 
L 1063 153 
Q 1713 428 2763 928 
Q 2763 634 2788 366 
Q 1869 -3 1231 -328 
Q 956 -472 725 -672 
L 344 -184 
Q 544 -34 544 272 
L 544 5153 
L 1063 5153 
z
" transform="scale(0.015625)"/>
      <path id="MicrosoftYaHei-50" d="M 1250 1809 
L 1250 0 
L 625 0 
L 625 4841 
L 2000 4841 
Q 2784 4841 3217 4462 
Q 3650 4084 3650 3381 
Q 3650 2669 3144 2226 
Q 2638 1784 1878 1809 
L 1250 1809 
z
M 1250 4291 
L 1250 2359 
L 1828 2359 
Q 2400 2359 2697 2617 
Q 2994 2875 2994 3356 
Q 2994 4291 1888 4291 
L 1250 4291 
z
" transform="scale(0.015625)"/>
      <path id="MicrosoftYaHei-73" d="M 353 747 
Q 816 413 1350 413 
Q 2066 413 2066 881 
Q 2066 1081 1909 1211 
Q 1753 1341 1275 1519 
Q 700 1750 528 1976 
Q 356 2203 356 2525 
Q 356 2984 745 3261 
Q 1134 3538 1703 3538 
Q 2144 3538 2522 3384 
L 2522 2794 
Q 2134 3044 1644 3044 
Q 1350 3044 1165 2916 
Q 981 2788 981 2578 
Q 981 2372 1114 2256 
Q 1247 2141 1703 1959 
Q 2281 1744 2484 1512 
Q 2688 1281 2688 941 
Q 2688 466 2298 192 
Q 1909 -81 1291 -81 
Q 753 -81 353 122 
L 353 747 
z
" transform="scale(0.015625)"/>
      <path id="MicrosoftYaHei-37" d="M 3422 4463 
Q 2659 3131 2223 1998 
Q 1788 866 1684 0 
L 1047 0 
Q 1163 853 1594 1947 
Q 2025 3041 2747 4300 
L 347 4300 
L 347 4841 
L 3422 4841 
L 3422 4463 
z
" transform="scale(0.015625)"/>
     </defs>
     <use xlink:href="#MicrosoftYaHei-5bf9"/>
     <use xlink:href="#MicrosoftYaHei-6bd4" x="100"/>
     <use xlink:href="#MicrosoftYaHei-6a21" x="200"/>
     <use xlink:href="#MicrosoftYaHei-578b" x="300"/>
     <use xlink:href="#MicrosoftYaHei-20" x="400"/>
     <use xlink:href="#MicrosoftYaHei-50" x="429.589844"/>
     <use xlink:href="#MicrosoftYaHei-6f" x="486.771484"/>
     <use xlink:href="#MicrosoftYaHei-69" x="550.345703"/>
     <use xlink:href="#MicrosoftYaHei-73" x="576.957031"/>
     <use xlink:href="#MicrosoftYaHei-73" x="623.246094"/>
     <use xlink:href="#MicrosoftYaHei-6f" x="669.535156"/>
     <use xlink:href="#MicrosoftYaHei-6e" x="733.109375"/>
     <use xlink:href="#MicrosoftYaHei-20" x="794.730469"/>
     <use xlink:href="#MicrosoftYaHei-7c" x="824.320312"/>
     <use xlink:href="#MicrosoftYaHei-20" x="851.224609"/>
     <use xlink:href="#MicrosoftYaHei-394" x="880.814453"/>
     <use xlink:href="#MicrosoftYaHei-41" x="951.175781"/>
     <use xlink:href="#MicrosoftYaHei-49" x="1021.537109"/>
     <use xlink:href="#MicrosoftYaHei-43" x="1050.931641"/>
     <use xlink:href="#MicrosoftYaHei-3d" x="1117.826172"/>
     <use xlink:href="#MicrosoftYaHei-32" x="1191.996094"/>
     <use xlink:href="#MicrosoftYaHei-2c" x="1250.638672"/>
     <use xlink:href="#MicrosoftYaHei-31" x="1274.710938"/>
     <use xlink:href="#MicrosoftYaHei-37" x="1333.353516"/>
     <use xlink:href="#MicrosoftYaHei-32" x="1391.996094"/>
     <use xlink:href="#MicrosoftYaHei-2e" x="1450.638672"/>
     <use xlink:href="#MicrosoftYaHei-38" x="1474.710938"/>
    </g>
   </g>
   <g id="text_18">
    <!-- Negative Binomial 最优 | AIC=3,503.0 -->
    <g style="fill: #20323b" transform="translate(139.265575 289.403453) scale(0.09 -0.09)">
     <use xlink:href="#MicrosoftYaHei-4e"/>
     <use xlink:href="#MicrosoftYaHei-65" x="81.298828"/>
     <use xlink:href="#MicrosoftYaHei-67" x="138.037109"/>
     <use xlink:href="#MicrosoftYaHei-61" x="202.001953"/>
     <use xlink:href="#MicrosoftYaHei-74" x="257.275391"/>
     <use xlink:href="#MicrosoftYaHei-69" x="294.53125"/>
     <use xlink:href="#MicrosoftYaHei-76" x="321.142578"/>
     <use xlink:href="#MicrosoftYaHei-65" x="373.007812"/>
     <use xlink:href="#MicrosoftYaHei-20" x="429.746094"/>
     <use xlink:href="#MicrosoftYaHei-42" x="459.335938"/>
     <use xlink:href="#MicrosoftYaHei-69" x="522.080078"/>
     <use xlink:href="#MicrosoftYaHei-6e" x="548.691406"/>
     <use xlink:href="#MicrosoftYaHei-6f" x="610.3125"/>
     <use xlink:href="#MicrosoftYaHei-6d" x="673.886719"/>
     <use xlink:href="#MicrosoftYaHei-69" x="767.587891"/>
     <use xlink:href="#MicrosoftYaHei-61" x="794.199219"/>
     <use xlink:href="#MicrosoftYaHei-6c" x="849.472656"/>
     <use xlink:href="#MicrosoftYaHei-20" x="876.083984"/>
     <use xlink:href="#MicrosoftYaHei-6700" x="905.673828"/>
     <use xlink:href="#MicrosoftYaHei-4f18" x="1005.673828"/>
     <use xlink:href="#MicrosoftYaHei-20" x="1105.673828"/>
     <use xlink:href="#MicrosoftYaHei-7c" x="1135.263672"/>
     <use xlink:href="#MicrosoftYaHei-20" x="1162.167969"/>
     <use xlink:href="#MicrosoftYaHei-41" x="1191.757812"/>
     <use xlink:href="#MicrosoftYaHei-49" x="1262.119141"/>
     <use xlink:href="#MicrosoftYaHei-43" x="1291.513672"/>
     <use xlink:href="#MicrosoftYaHei-3d" x="1358.408203"/>
     <use xlink:href="#MicrosoftYaHei-33" x="1432.578125"/>
     <use xlink:href="#MicrosoftYaHei-2c" x="1491.220703"/>
     <use xlink:href="#MicrosoftYaHei-35" x="1515.292969"/>
     <use xlink:href="#MicrosoftYaHei-30" x="1573.935547"/>
     <use xlink:href="#MicrosoftYaHei-33" x="1632.578125"/>
     <use xlink:href="#MicrosoftYaHei-2e" x="1691.220703"/>
     <use xlink:href="#MicrosoftYaHei-30" x="1715.292969"/>
    </g>
    <!-- 对比模型 Poisson | ΔAIC=3,246.5 -->
    <g style="fill: #20323b" transform="translate(139.265575 300.663578) scale(0.09 -0.09)">
     <use xlink:href="#MicrosoftYaHei-5bf9"/>
     <use xlink:href="#MicrosoftYaHei-6bd4" x="100"/>
     <use xlink:href="#MicrosoftYaHei-6a21" x="200"/>
     <use xlink:href="#MicrosoftYaHei-578b" x="300"/>
     <use xlink:href="#MicrosoftYaHei-20" x="400"/>
     <use xlink:href="#MicrosoftYaHei-50" x="429.589844"/>
     <use xlink:href="#MicrosoftYaHei-6f" x="486.771484"/>
     <use xlink:href="#MicrosoftYaHei-69" x="550.345703"/>
     <use xlink:href="#MicrosoftYaHei-73" x="576.957031"/>
     <use xlink:href="#MicrosoftYaHei-73" x="623.246094"/>
     <use xlink:href="#MicrosoftYaHei-6f" x="669.535156"/>
     <use xlink:href="#MicrosoftYaHei-6e" x="733.109375"/>
     <use xlink:href="#MicrosoftYaHei-20" x="794.730469"/>
     <use xlink:href="#MicrosoftYaHei-7c" x="824.320312"/>
     <use xlink:href="#MicrosoftYaHei-20" x="851.224609"/>
     <use xlink:href="#MicrosoftYaHei-394" x="880.814453"/>
     <use xlink:href="#MicrosoftYaHei-41" x="951.175781"/>
     <use xlink:href="#MicrosoftYaHei-49" x="1021.537109"/>
     <use xlink:href="#MicrosoftYaHei-43" x="1050.931641"/>
     <use xlink:href="#MicrosoftYaHei-3d" x="1117.826172"/>
     <use xlink:href="#MicrosoftYaHei-33" x="1191.996094"/>
     <use xlink:href="#MicrosoftYaHei-2c" x="1250.638672"/>
     <use xlink:href="#MicrosoftYaHei-32" x="1274.710938"/>
     <use xlink:href="#MicrosoftYaHei-34" x="1333.353516"/>
     <use xlink:href="#MicrosoftYaHei-36" x="1391.996094"/>
     <use xlink:href="#MicrosoftYaHei-2e" x="1450.638672"/>
     <use xlink:href="#MicrosoftYaHei-35" x="1474.710938"/>
    </g>
   </g>
   <g id="text_19">
    <!-- Negative Binomial 最优 | AIC=4,463.3 -->
    <g style="fill: #20323b" transform="translate(244.58222 232.020224) scale(0.09 -0.09)">
     <use xlink:href="#MicrosoftYaHei-4e"/>
     <use xlink:href="#MicrosoftYaHei-65" x="81.298828"/>
     <use xlink:href="#MicrosoftYaHei-67" x="138.037109"/>
     <use xlink:href="#MicrosoftYaHei-61" x="202.001953"/>
     <use xlink:href="#MicrosoftYaHei-74" x="257.275391"/>
     <use xlink:href="#MicrosoftYaHei-69" x="294.53125"/>
     <use xlink:href="#MicrosoftYaHei-76" x="321.142578"/>
     <use xlink:href="#MicrosoftYaHei-65" x="373.007812"/>
     <use xlink:href="#MicrosoftYaHei-20" x="429.746094"/>
     <use xlink:href="#MicrosoftYaHei-42" x="459.335938"/>
     <use xlink:href="#MicrosoftYaHei-69" x="522.080078"/>
     <use xlink:href="#MicrosoftYaHei-6e" x="548.691406"/>
     <use xlink:href="#MicrosoftYaHei-6f" x="610.3125"/>
     <use xlink:href="#MicrosoftYaHei-6d" x="673.886719"/>
     <use xlink:href="#MicrosoftYaHei-69" x="767.587891"/>
     <use xlink:href="#MicrosoftYaHei-61" x="794.199219"/>
     <use xlink:href="#MicrosoftYaHei-6c" x="849.472656"/>
     <use xlink:href="#MicrosoftYaHei-20" x="876.083984"/>
     <use xlink:href="#MicrosoftYaHei-6700" x="905.673828"/>
     <use xlink:href="#MicrosoftYaHei-4f18" x="1005.673828"/>
     <use xlink:href="#MicrosoftYaHei-20" x="1105.673828"/>
     <use xlink:href="#MicrosoftYaHei-7c" x="1135.263672"/>
     <use xlink:href="#MicrosoftYaHei-20" x="1162.167969"/>
     <use xlink:href="#MicrosoftYaHei-41" x="1191.757812"/>
     <use xlink:href="#MicrosoftYaHei-49" x="1262.119141"/>
     <use xlink:href="#MicrosoftYaHei-43" x="1291.513672"/>
     <use xlink:href="#MicrosoftYaHei-3d" x="1358.408203"/>
     <use xlink:href="#MicrosoftYaHei-34" x="1432.578125"/>
     <use xlink:href="#MicrosoftYaHei-2c" x="1491.220703"/>
     <use xlink:href="#MicrosoftYaHei-34" x="1515.292969"/>
     <use xlink:href="#MicrosoftYaHei-36" x="1573.935547"/>
     <use xlink:href="#MicrosoftYaHei-33" x="1632.578125"/>
     <use xlink:href="#MicrosoftYaHei-2e" x="1691.220703"/>
     <use xlink:href="#MicrosoftYaHei-33" x="1715.292969"/>
    </g>
    <!-- 对比模型 Poisson | ΔAIC=39,853.3 -->
    <g style="fill: #20323b" transform="translate(244.58222 243.280349) scale(0.09 -0.09)">
     <defs>
      <path id="MicrosoftYaHei-39" d="M 578 656 
Q 978 425 1441 425 
Q 2091 425 2448 937 
Q 2806 1450 2806 2394 
Q 2800 2388 2794 2394 
Q 2475 1788 1722 1788 
Q 1113 1788 713 2206 
Q 313 2625 313 3294 
Q 313 4006 750 4464 
Q 1188 4922 1884 4922 
Q 2606 4922 3012 4355 
Q 3419 3788 3419 2703 
Q 3419 1363 2894 641 
Q 2369 -81 1441 -81 
Q 931 -81 578 84 
L 578 656 
z
M 931 3372 
Q 931 2884 1181 2598 
Q 1431 2313 1872 2313 
Q 2253 2313 2512 2573 
Q 2772 2834 2772 3206 
Q 2772 3728 2514 4070 
Q 2256 4413 1834 4413 
Q 1444 4413 1187 4116 
Q 931 3819 931 3372 
z
" transform="scale(0.015625)"/>
     </defs>
     <use xlink:href="#MicrosoftYaHei-5bf9"/>
     <use xlink:href="#MicrosoftYaHei-6bd4" x="100"/>
     <use xlink:href="#MicrosoftYaHei-6a21" x="200"/>
     <use xlink:href="#MicrosoftYaHei-578b" x="300"/>
     <use xlink:href="#MicrosoftYaHei-20" x="400"/>
     <use xlink:href="#MicrosoftYaHei-50" x="429.589844"/>
     <use xlink:href="#MicrosoftYaHei-6f" x="486.771484"/>
     <use xlink:href="#MicrosoftYaHei-69" x="550.345703"/>
     <use xlink:href="#MicrosoftYaHei-73" x="576.957031"/>
     <use xlink:href="#MicrosoftYaHei-73" x="623.246094"/>
     <use xlink:href="#MicrosoftYaHei-6f" x="669.535156"/>
     <use xlink:href="#MicrosoftYaHei-6e" x="733.109375"/>
     <use xlink:href="#MicrosoftYaHei-20" x="794.730469"/>
     <use xlink:href="#MicrosoftYaHei-7c" x="824.320312"/>
     <use xlink:href="#MicrosoftYaHei-20" x="851.224609"/>
     <use xlink:href="#MicrosoftYaHei-394" x="880.814453"/>
     <use xlink:href="#MicrosoftYaHei-41" x="951.175781"/>
     <use xlink:href="#MicrosoftYaHei-49" x="1021.537109"/>
     <use xlink:href="#MicrosoftYaHei-43" x="1050.931641"/>
     <use xlink:href="#MicrosoftYaHei-3d" x="1117.826172"/>
     <use xlink:href="#MicrosoftYaHei-33" x="1191.996094"/>
     <use xlink:href="#MicrosoftYaHei-39" x="1250.638672"/>
     <use xlink:href="#MicrosoftYaHei-2c" x="1309.28125"/>
     <use xlink:href="#MicrosoftYaHei-38" x="1333.353516"/>
     <use xlink:href="#MicrosoftYaHei-35" x="1391.996094"/>
     <use xlink:href="#MicrosoftYaHei-33" x="1450.638672"/>
     <use xlink:href="#MicrosoftYaHei-2e" x="1509.28125"/>
     <use xlink:href="#MicrosoftYaHei-33" x="1533.353516"/>
    </g>
   </g>
   <g id="text_20">
    <!-- Negative Binomial 最优 | AIC=6,047.5 -->
    <g style="fill: #20323b" transform="translate(282.58535 174.636995) scale(0.09 -0.09)">
     <use xlink:href="#MicrosoftYaHei-4e"/>
     <use xlink:href="#MicrosoftYaHei-65" x="81.298828"/>
     <use xlink:href="#MicrosoftYaHei-67" x="138.037109"/>
     <use xlink:href="#MicrosoftYaHei-61" x="202.001953"/>
     <use xlink:href="#MicrosoftYaHei-74" x="257.275391"/>
     <use xlink:href="#MicrosoftYaHei-69" x="294.53125"/>
     <use xlink:href="#MicrosoftYaHei-76" x="321.142578"/>
     <use xlink:href="#MicrosoftYaHei-65" x="373.007812"/>
     <use xlink:href="#MicrosoftYaHei-20" x="429.746094"/>
     <use xlink:href="#MicrosoftYaHei-42" x="459.335938"/>
     <use xlink:href="#MicrosoftYaHei-69" x="522.080078"/>
     <use xlink:href="#MicrosoftYaHei-6e" x="548.691406"/>
     <use xlink:href="#MicrosoftYaHei-6f" x="610.3125"/>
     <use xlink:href="#MicrosoftYaHei-6d" x="673.886719"/>
     <use xlink:href="#MicrosoftYaHei-69" x="767.587891"/>
     <use xlink:href="#MicrosoftYaHei-61" x="794.199219"/>
     <use xlink:href="#MicrosoftYaHei-6c" x="849.472656"/>
     <use xlink:href="#MicrosoftYaHei-20" x="876.083984"/>
     <use xlink:href="#MicrosoftYaHei-6700" x="905.673828"/>
     <use xlink:href="#MicrosoftYaHei-4f18" x="1005.673828"/>
     <use xlink:href="#MicrosoftYaHei-20" x="1105.673828"/>
     <use xlink:href="#MicrosoftYaHei-7c" x="1135.263672"/>
     <use xlink:href="#MicrosoftYaHei-20" x="1162.167969"/>
     <use xlink:href="#MicrosoftYaHei-41" x="1191.757812"/>
     <use xlink:href="#MicrosoftYaHei-49" x="1262.119141"/>
     <use xlink:href="#MicrosoftYaHei-43" x="1291.513672"/>
     <use xlink:href="#MicrosoftYaHei-3d" x="1358.408203"/>
     <use xlink:href="#MicrosoftYaHei-36" x="1432.578125"/>
     <use xlink:href="#MicrosoftYaHei-2c" x="1491.220703"/>
     <use xlink:href="#MicrosoftYaHei-30" x="1515.292969"/>
     <use xlink:href="#MicrosoftYaHei-34" x="1573.935547"/>
     <use xlink:href="#MicrosoftYaHei-37" x="1632.578125"/>
     <use xlink:href="#MicrosoftYaHei-2e" x="1691.220703"/>
     <use xlink:href="#MicrosoftYaHei-35" x="1715.292969"/>
    </g>
    <!-- 对比模型 Poisson | ΔAIC=53,062.7 -->
    <g style="fill: #20323b" transform="translate(282.58535 185.89712) scale(0.09 -0.09)">
     <use xlink:href="#MicrosoftYaHei-5bf9"/>
     <use xlink:href="#MicrosoftYaHei-6bd4" x="100"/>
     <use xlink:href="#MicrosoftYaHei-6a21" x="200"/>
     <use xlink:href="#MicrosoftYaHei-578b" x="300"/>
     <use xlink:href="#MicrosoftYaHei-20" x="400"/>
     <use xlink:href="#MicrosoftYaHei-50" x="429.589844"/>
     <use xlink:href="#MicrosoftYaHei-6f" x="486.771484"/>
     <use xlink:href="#MicrosoftYaHei-69" x="550.345703"/>
     <use xlink:href="#MicrosoftYaHei-73" x="576.957031"/>
     <use xlink:href="#MicrosoftYaHei-73" x="623.246094"/>
     <use xlink:href="#MicrosoftYaHei-6f" x="669.535156"/>
     <use xlink:href="#MicrosoftYaHei-6e" x="733.109375"/>
     <use xlink:href="#MicrosoftYaHei-20" x="794.730469"/>
     <use xlink:href="#MicrosoftYaHei-7c" x="824.320312"/>
     <use xlink:href="#MicrosoftYaHei-20" x="851.224609"/>
     <use xlink:href="#MicrosoftYaHei-394" x="880.814453"/>
     <use xlink:href="#MicrosoftYaHei-41" x="951.175781"/>
     <use xlink:href="#MicrosoftYaHei-49" x="1021.537109"/>
     <use xlink:href="#MicrosoftYaHei-43" x="1050.931641"/>
     <use xlink:href="#MicrosoftYaHei-3d" x="1117.826172"/>
     <use xlink:href="#MicrosoftYaHei-35" x="1191.996094"/>
     <use xlink:href="#MicrosoftYaHei-33" x="1250.638672"/>
     <use xlink:href="#MicrosoftYaHei-2c" x="1309.28125"/>
     <use xlink:href="#MicrosoftYaHei-30" x="1333.353516"/>
     <use xlink:href="#MicrosoftYaHei-36" x="1391.996094"/>
     <use xlink:href="#MicrosoftYaHei-32" x="1450.638672"/>
     <use xlink:href="#MicrosoftYaHei-2e" x="1509.28125"/>
     <use xlink:href="#MicrosoftYaHei-37" x="1533.353516"/>
    </g>
   </g>
   <g id="text_21">
    <!-- Negative Binomial 最优 | AIC=6,766.3 -->
    <g style="fill: #20323b" transform="translate(471.360194 117.253766) scale(0.09 -0.09)">
     <use xlink:href="#MicrosoftYaHei-4e"/>
     <use xlink:href="#MicrosoftYaHei-65" x="81.298828"/>
     <use xlink:href="#MicrosoftYaHei-67" x="138.037109"/>
     <use xlink:href="#MicrosoftYaHei-61" x="202.001953"/>
     <use xlink:href="#MicrosoftYaHei-74" x="257.275391"/>
     <use xlink:href="#MicrosoftYaHei-69" x="294.53125"/>
     <use xlink:href="#MicrosoftYaHei-76" x="321.142578"/>
     <use xlink:href="#MicrosoftYaHei-65" x="373.007812"/>
     <use xlink:href="#MicrosoftYaHei-20" x="429.746094"/>
     <use xlink:href="#MicrosoftYaHei-42" x="459.335938"/>
     <use xlink:href="#MicrosoftYaHei-69" x="522.080078"/>
     <use xlink:href="#MicrosoftYaHei-6e" x="548.691406"/>
     <use xlink:href="#MicrosoftYaHei-6f" x="610.3125"/>
     <use xlink:href="#MicrosoftYaHei-6d" x="673.886719"/>
     <use xlink:href="#MicrosoftYaHei-69" x="767.587891"/>
     <use xlink:href="#MicrosoftYaHei-61" x="794.199219"/>
     <use xlink:href="#MicrosoftYaHei-6c" x="849.472656"/>
     <use xlink:href="#MicrosoftYaHei-20" x="876.083984"/>
     <use xlink:href="#MicrosoftYaHei-6700" x="905.673828"/>
     <use xlink:href="#MicrosoftYaHei-4f18" x="1005.673828"/>
     <use xlink:href="#MicrosoftYaHei-20" x="1105.673828"/>
     <use xlink:href="#MicrosoftYaHei-7c" x="1135.263672"/>
     <use xlink:href="#MicrosoftYaHei-20" x="1162.167969"/>
     <use xlink:href="#MicrosoftYaHei-41" x="1191.757812"/>
     <use xlink:href="#MicrosoftYaHei-49" x="1262.119141"/>
     <use xlink:href="#MicrosoftYaHei-43" x="1291.513672"/>
     <use xlink:href="#MicrosoftYaHei-3d" x="1358.408203"/>
     <use xlink:href="#MicrosoftYaHei-36" x="1432.578125"/>
     <use xlink:href="#MicrosoftYaHei-2c" x="1491.220703"/>
     <use xlink:href="#MicrosoftYaHei-37" x="1515.292969"/>
     <use xlink:href="#MicrosoftYaHei-36" x="1573.935547"/>
     <use xlink:href="#MicrosoftYaHei-36" x="1632.578125"/>
     <use xlink:href="#MicrosoftYaHei-2e" x="1691.220703"/>
     <use xlink:href="#MicrosoftYaHei-33" x="1715.292969"/>
    </g>
    <!-- 对比模型 Poisson | ΔAIC=118,678.5 -->
    <g style="fill: #20323b" transform="translate(471.360194 128.513891) scale(0.09 -0.09)">
     <use xlink:href="#MicrosoftYaHei-5bf9"/>
     <use xlink:href="#MicrosoftYaHei-6bd4" x="100"/>
     <use xlink:href="#MicrosoftYaHei-6a21" x="200"/>
     <use xlink:href="#MicrosoftYaHei-578b" x="300"/>
     <use xlink:href="#MicrosoftYaHei-20" x="400"/>
     <use xlink:href="#MicrosoftYaHei-50" x="429.589844"/>
     <use xlink:href="#MicrosoftYaHei-6f" x="486.771484"/>
     <use xlink:href="#MicrosoftYaHei-69" x="550.345703"/>
     <use xlink:href="#MicrosoftYaHei-73" x="576.957031"/>
     <use xlink:href="#MicrosoftYaHei-73" x="623.246094"/>
     <use xlink:href="#MicrosoftYaHei-6f" x="669.535156"/>
     <use xlink:href="#MicrosoftYaHei-6e" x="733.109375"/>
     <use xlink:href="#MicrosoftYaHei-20" x="794.730469"/>
     <use xlink:href="#MicrosoftYaHei-7c" x="824.320312"/>
     <use xlink:href="#MicrosoftYaHei-20" x="851.224609"/>
     <use xlink:href="#MicrosoftYaHei-394" x="880.814453"/>
     <use xlink:href="#MicrosoftYaHei-41" x="951.175781"/>
     <use xlink:href="#MicrosoftYaHei-49" x="1021.537109"/>
     <use xlink:href="#MicrosoftYaHei-43" x="1050.931641"/>
     <use xlink:href="#MicrosoftYaHei-3d" x="1117.826172"/>
     <use xlink:href="#MicrosoftYaHei-31" x="1191.996094"/>
     <use xlink:href="#MicrosoftYaHei-31" x="1250.638672"/>
     <use xlink:href="#MicrosoftYaHei-38" x="1309.28125"/>
     <use xlink:href="#MicrosoftYaHei-2c" x="1367.923828"/>
     <use xlink:href="#MicrosoftYaHei-36" x="1391.996094"/>
     <use xlink:href="#MicrosoftYaHei-37" x="1450.638672"/>
     <use xlink:href="#MicrosoftYaHei-38" x="1509.28125"/>
     <use xlink:href="#MicrosoftYaHei-2e" x="1567.923828"/>
     <use xlink:href="#MicrosoftYaHei-35" x="1591.996094"/>
    </g>
   </g>
   <g id="text_22">
    <!-- Negative Binomial 最优 | AIC=7,290.8 -->
    <g style="fill: #20323b" transform="translate(616.37976 59.870537) scale(0.09 -0.09)">
     <use xlink:href="#MicrosoftYaHei-4e"/>
     <use xlink:href="#MicrosoftYaHei-65" x="81.298828"/>
     <use xlink:href="#MicrosoftYaHei-67" x="138.037109"/>
     <use xlink:href="#MicrosoftYaHei-61" x="202.001953"/>
     <use xlink:href="#MicrosoftYaHei-74" x="257.275391"/>
     <use xlink:href="#MicrosoftYaHei-69" x="294.53125"/>
     <use xlink:href="#MicrosoftYaHei-76" x="321.142578"/>
     <use xlink:href="#MicrosoftYaHei-65" x="373.007812"/>
     <use xlink:href="#MicrosoftYaHei-20" x="429.746094"/>
     <use xlink:href="#MicrosoftYaHei-42" x="459.335938"/>
     <use xlink:href="#MicrosoftYaHei-69" x="522.080078"/>
     <use xlink:href="#MicrosoftYaHei-6e" x="548.691406"/>
     <use xlink:href="#MicrosoftYaHei-6f" x="610.3125"/>
     <use xlink:href="#MicrosoftYaHei-6d" x="673.886719"/>
     <use xlink:href="#MicrosoftYaHei-69" x="767.587891"/>
     <use xlink:href="#MicrosoftYaHei-61" x="794.199219"/>
     <use xlink:href="#MicrosoftYaHei-6c" x="849.472656"/>
     <use xlink:href="#MicrosoftYaHei-20" x="876.083984"/>
     <use xlink:href="#MicrosoftYaHei-6700" x="905.673828"/>
     <use xlink:href="#MicrosoftYaHei-4f18" x="1005.673828"/>
     <use xlink:href="#MicrosoftYaHei-20" x="1105.673828"/>
     <use xlink:href="#MicrosoftYaHei-7c" x="1135.263672"/>
     <use xlink:href="#MicrosoftYaHei-20" x="1162.167969"/>
     <use xlink:href="#MicrosoftYaHei-41" x="1191.757812"/>
     <use xlink:href="#MicrosoftYaHei-49" x="1262.119141"/>
     <use xlink:href="#MicrosoftYaHei-43" x="1291.513672"/>
     <use xlink:href="#MicrosoftYaHei-3d" x="1358.408203"/>
     <use xlink:href="#MicrosoftYaHei-37" x="1432.578125"/>
     <use xlink:href="#MicrosoftYaHei-2c" x="1491.220703"/>
     <use xlink:href="#MicrosoftYaHei-32" x="1515.292969"/>
     <use xlink:href="#MicrosoftYaHei-39" x="1573.935547"/>
     <use xlink:href="#MicrosoftYaHei-30" x="1632.578125"/>
     <use xlink:href="#MicrosoftYaHei-2e" x="1691.220703"/>
     <use xlink:href="#MicrosoftYaHei-38" x="1715.292969"/>
    </g>
    <!-- 对比模型 Poisson | ΔAIC=169,085.5 -->
    <g style="fill: #20323b" transform="translate(616.37976 71.130662) scale(0.09 -0.09)">
     <use xlink:href="#MicrosoftYaHei-5bf9"/>
     <use xlink:href="#MicrosoftYaHei-6bd4" x="100"/>
     <use xlink:href="#MicrosoftYaHei-6a21" x="200"/>
     <use xlink:href="#MicrosoftYaHei-578b" x="300"/>
     <use xlink:href="#MicrosoftYaHei-20" x="400"/>
     <use xlink:href="#MicrosoftYaHei-50" x="429.589844"/>
     <use xlink:href="#MicrosoftYaHei-6f" x="486.771484"/>
     <use xlink:href="#MicrosoftYaHei-69" x="550.345703"/>
     <use xlink:href="#MicrosoftYaHei-73" x="576.957031"/>
     <use xlink:href="#MicrosoftYaHei-73" x="623.246094"/>
     <use xlink:href="#MicrosoftYaHei-6f" x="669.535156"/>
     <use xlink:href="#MicrosoftYaHei-6e" x="733.109375"/>
     <use xlink:href="#MicrosoftYaHei-20" x="794.730469"/>
     <use xlink:href="#MicrosoftYaHei-7c" x="824.320312"/>
     <use xlink:href="#MicrosoftYaHei-20" x="851.224609"/>
     <use xlink:href="#MicrosoftYaHei-394" x="880.814453"/>
     <use xlink:href="#MicrosoftYaHei-41" x="951.175781"/>
     <use xlink:href="#MicrosoftYaHei-49" x="1021.537109"/>
     <use xlink:href="#MicrosoftYaHei-43" x="1050.931641"/>
     <use xlink:href="#MicrosoftYaHei-3d" x="1117.826172"/>
     <use xlink:href="#MicrosoftYaHei-31" x="1191.996094"/>
     <use xlink:href="#MicrosoftYaHei-36" x="1250.638672"/>
     <use xlink:href="#MicrosoftYaHei-39" x="1309.28125"/>
     <use xlink:href="#MicrosoftYaHei-2c" x="1367.923828"/>
     <use xlink:href="#MicrosoftYaHei-30" x="1391.996094"/>
     <use xlink:href="#MicrosoftYaHei-38" x="1450.638672"/>
     <use xlink:href="#MicrosoftYaHei-35" x="1509.28125"/>
     <use xlink:href="#MicrosoftYaHei-2e" x="1567.923828"/>
     <use xlink:href="#MicrosoftYaHei-35" x="1591.996094"/>
    </g>
   </g>
   <g id="text_23">
    <!-- Frequency 候选模型 AIC 差值对比 -->
    <g style="fill: #20323b" transform="translate(282.637321 17.330625) scale(0.12 -0.12)">
     <defs>
      <path id="MicrosoftYaHei-46" d="M 3119 4284 
L 1250 4284 
L 1250 2666 
L 2981 2666 
L 2981 2116 
L 1250 2116 
L 1250 0 
L 625 0 
L 625 4841 
L 3119 4841 
L 3119 4284 
z
" transform="scale(0.015625)"/>
      <path id="MicrosoftYaHei-72" d="M 2400 2850 
Q 2247 2959 1978 2959 
Q 1622 2959 1390 2626 
Q 1159 2294 1159 1750 
L 1159 0 
L 547 0 
L 547 3456 
L 1159 3456 
L 1159 2753 
L 1172 2753 
Q 1434 3516 2078 3516 
Q 2288 3516 2400 3469 
L 2400 2850 
z
" transform="scale(0.015625)"/>
      <path id="MicrosoftYaHei-71" d="M 3547 -1591 
L 2934 -1591 
L 2934 581 
L 2922 581 
Q 2559 -81 1753 -81 
Q 1100 -81 708 380 
Q 316 841 316 1647 
Q 316 2506 747 3022 
Q 1178 3538 1903 3538 
Q 2603 3538 2922 2988 
L 2934 2988 
L 2934 3456 
L 3547 3456 
L 3547 -1591 
z
M 2934 2044 
Q 2938 2453 2673 2742 
Q 2409 3031 1984 3031 
Q 1497 3031 1219 2668 
Q 941 2306 941 1663 
Q 941 1081 1208 753 
Q 1475 425 1909 425 
Q 2384 425 2661 751 
Q 2938 1078 2934 1566 
L 2934 2044 
z
" transform="scale(0.015625)"/>
      <path id="MicrosoftYaHei-75" d="M 3400 0 
L 2784 0 
L 2784 544 
L 2772 544 
Q 2425 -81 1706 -81 
Q 478 -81 478 1388 
L 478 3456 
L 1084 3456 
L 1084 1478 
Q 1084 425 1891 425 
Q 2291 425 2537 720 
Q 2784 1016 2784 1466 
L 2784 3456 
L 3400 3456 
L 3400 0 
z
" transform="scale(0.015625)"/>
      <path id="MicrosoftYaHei-63" d="M 2934 156 
Q 2538 -81 1978 -81 
Q 1228 -81 772 400 
Q 316 881 316 1647 
Q 316 2497 808 3017 
Q 1300 3538 2125 3538 
Q 2600 3538 2938 3369 
L 2938 2763 
Q 2572 3031 2125 3031 
Q 1600 3031 1270 2667 
Q 941 2303 941 1697 
Q 941 1100 1252 762 
Q 1563 425 2091 425 
Q 2538 425 2934 719 
L 2934 156 
z
" transform="scale(0.015625)"/>
      <path id="MicrosoftYaHei-79" d="M 3359 3456 
L 1791 -522 
Q 1353 -1628 556 -1628 
Q 328 -1628 166 -1578 
L 166 -1041 
Q 344 -1109 509 -1109 
Q 925 -1109 1131 -622 
L 1397 6 
L 41 3456 
L 719 3456 
L 1622 859 
L 1697 575 
L 1713 575 
Q 1731 672 1788 853 
L 2731 3456 
L 3359 3456 
z
" transform="scale(0.015625)"/>
      <path id="MicrosoftYaHei-5019" d="M 2456 1453 
L 4088 1453 
Q 4122 1781 4125 2284 
L 3322 2284 
Q 3131 1878 2919 1553 
Q 2725 1678 2500 1809 
Q 2981 2472 3219 3316 
L 3688 3216 
Q 3600 2956 3509 2722 
L 5988 2722 
L 5988 2284 
L 4606 2284 
Q 4600 1797 4572 1453 
L 6300 1453 
L 6300 1016 
L 4628 1016 
Q 5200 -122 6388 -316 
Q 6213 -578 6044 -822 
Q 4925 -500 4356 647 
Q 3972 -313 2344 -884 
Q 2206 -666 2025 -422 
Q 3678 16 4006 1016 
L 2456 1016 
L 2456 1453 
z
M 38 2334 
Q 875 3759 1169 5316 
L 1638 5228 
Q 1475 4528 1256 3903 
L 1256 -847 
L 806 -847 
L 806 2806 
Q 553 2281 250 1816 
Q 156 2059 38 2334 
z
M 2469 3803 
L 4978 3803 
L 5075 4609 
L 2831 4609 
L 2831 5034 
L 5606 5034 
L 5459 3803 
L 6250 3803 
L 6250 3366 
L 2469 3366 
L 2469 3803 
z
M 1763 4422 
L 2225 4422 
L 2225 509 
L 1763 509 
L 1763 4422 
z
" transform="scale(0.015625)"/>
      <path id="MicrosoftYaHei-9009" d="M 1756 2753 
L 3825 2753 
L 3825 3797 
L 2772 3797 
Q 2584 3322 2381 2947 
Q 2219 3053 1944 3172 
Q 2431 4028 2669 5072 
L 3156 4966 
Q 3047 4575 2928 4228 
L 3825 4228 
L 3825 5316 
L 4313 5316 
L 4313 4228 
L 5944 4228 
L 5944 3797 
L 4313 3797 
L 4313 2753 
L 6244 2753 
L 6244 2322 
L 4769 2322 
L 4769 984 
Q 4769 653 5044 653 
L 5344 653 
Q 5631 653 5675 953 
Q 5713 1197 5744 1691 
Q 5938 1603 6219 1509 
Q 6169 1078 6113 784 
Q 6013 228 5400 228 
L 4938 228 
Q 4288 228 4288 934 
L 4288 2322 
L 3447 2322 
Q 3444 2038 3431 1816 
Q 3394 647 2119 84 
Q 1994 266 1806 503 
Q 2906 959 2950 1816 
Q 2963 2003 2972 2322 
L 1756 2322 
L 1756 2753 
z
M 2694 -197 
L 4000 -209 
L 6300 -166 
Q 6231 -372 6125 -659 
L 3947 -684 
L 2638 -666 
Q 1513 -628 1081 91 
Q 825 -147 331 -747 
L 75 -228 
Q 628 306 875 538 
L 875 2641 
L 131 2641 
L 131 3103 
L 1356 3103 
L 1356 431 
Q 1741 -184 2694 -197 
z
M 856 5203 
Q 1175 4816 1731 4022 
L 1288 3709 
Q 781 4503 456 4934 
L 856 5203 
z
" transform="scale(0.015625)"/>
      <path id="MicrosoftYaHei-503c" d="M 1619 -216 
L 2250 -216 
L 2250 3653 
L 3725 3653 
L 3725 4222 
L 1913 4222 
L 1913 4647 
L 3725 4647 
L 3725 5309 
L 4200 5309 
L 4200 4647 
L 6169 4647 
L 6169 4222 
L 4200 4222 
L 4200 3653 
L 5713 3653 
L 5713 -216 
L 6306 -216 
L 6306 -641 
L 1619 -641 
L 1619 -216 
z
M 69 2247 
Q 906 3497 1369 5278 
L 1831 5141 
Q 1581 4334 1288 3628 
L 1288 -816 
L 831 -816 
L 831 2666 
Q 563 2166 263 1734 
Q 175 1997 69 2247 
z
M 2713 -216 
L 5250 -216 
L 5250 353 
L 2713 353 
L 2713 -216 
z
M 5250 3241 
L 2713 3241 
L 2713 2678 
L 5250 2678 
L 5250 3241 
z
M 2713 1716 
L 5250 1716 
L 5250 2278 
L 2713 2278 
L 2713 1716 
z
M 2713 753 
L 5250 753 
L 5250 1316 
L 2713 1316 
L 2713 753 
z
" transform="scale(0.015625)"/>
     </defs>
     <use xlink:href="#MicrosoftYaHei-46"/>
     <use xlink:href="#MicrosoftYaHei-72" x="53.125"/>
     <use xlink:href="#MicrosoftYaHei-65" x="89.933594"/>
     <use xlink:href="#MicrosoftYaHei-71" x="146.671875"/>
     <use xlink:href="#MicrosoftYaHei-75" x="210.636719"/>
     <use xlink:href="#MicrosoftYaHei-65" x="272.257812"/>
     <use xlink:href="#MicrosoftYaHei-6e" x="328.996094"/>
     <use xlink:href="#MicrosoftYaHei-63" x="390.617188"/>
     <use xlink:href="#MicrosoftYaHei-79" x="440.763672"/>
     <use xlink:href="#MicrosoftYaHei-20" x="493.693359"/>
     <use xlink:href="#MicrosoftYaHei-5019" x="523.283203"/>
     <use xlink:href="#MicrosoftYaHei-9009" x="623.283203"/>
     <use xlink:href="#MicrosoftYaHei-6a21" x="723.283203"/>
     <use xlink:href="#MicrosoftYaHei-578b" x="823.283203"/>
     <use xlink:href="#MicrosoftYaHei-20" x="923.283203"/>
     <use xlink:href="#MicrosoftYaHei-41" x="952.873047"/>
     <use xlink:href="#MicrosoftYaHei-49" x="1023.234375"/>
     <use xlink:href="#MicrosoftYaHei-43" x="1052.628906"/>
     <use xlink:href="#MicrosoftYaHei-20" x="1119.523438"/>
     <use xlink:href="#MicrosoftYaHei-5dee" x="1149.113281"/>
     <use xlink:href="#MicrosoftYaHei-503c" x="1249.113281"/>
     <use xlink:href="#MicrosoftYaHei-5bf9" x="1349.113281"/>
     <use xlink:href="#MicrosoftYaHei-6bd4" x="1449.113281"/>
    </g>
   </g>
  </g>
 </g>
 <defs>
  <clipPath id="p1974b5ee82">
   <rect x="120.19625" y="23.330625" width="510.777143" height="366.105"/>
  </clipPath>
 </defs>
</svg>
