<?xml version="1.0" encoding="utf-8" standalone="no"?>
<!DOCTYPE svg PUBLIC "-//W3C//DTD SVG 1.1//EN"
  "http://www.w3.org/Graphics/SVG/1.1/DTD/svg11.dtd">
<svg xmlns:xlink="http://www.w3.org/1999/xlink" width="708.419375pt" height="420.416719pt" viewBox="0 0 708.419375 420.416719" xmlns="http://www.w3.org/2000/svg" version="1.1">
 <metadata>
  <rdf:RDF xmlns:dc="http://purl.org/dc/elements/1.1/" xmlns:cc="http://creativecommons.org/ns#" xmlns:rdf="http://www.w3.org/1999/02/22-rdf-syntax-ns#">
   <cc:Work>
    <dc:type rdf:resource="http://purl.org/dc/dcmitype/StillImage"/>
    <dc:date>2026-04-22T15:29:08.774287</dc:date>
    <dc:format>image/svg+xml</dc:format>
    <dc:creator>
     <cc:Agent>
      <dc:title>Matplotlib v3.10.0, https://matplotlib.org/</dc:title>
     </cc:Agent>
    </dc:creator>
   </cc:Work>
  </rdf:RDF>
 </metadata>
 <defs>
  <style type="text/css">*{stroke-linejoin: round; stroke-linecap: butt}</style>
 </defs>
 <g id="figure_1">
  <g id="patch_1">
   <path d="M -0 420.416719 
L 708.419375 420.416719 
L 708.419375 0 
L -0 0 
z
" style="fill: #f6f2e8"/>
  </g>
  <g id="axes_1">
   <g id="patch_2">
    <path d="M 47.105 378.541875 
L 701.219375 378.541875 
L 701.219375 21.943125 
L 47.105 21.943125 
z
" style="fill: #f6f2e8"/>
   </g>
   <g id="matplotlib.axis_1">
    <g id="xtick_1">
     <g id="line2d_1">
      <path d="M 93.060738 378.541875 
L 93.060738 21.943125 
" clip-path="url(#pb81131a632)" style="fill: none; stroke: #d9d2c3; stroke-linecap: round"/>
     </g>
     <g id="text_1">
      <!-- 1.5 -->
      <g style="fill: #3d405b" transform="translate(85.415738 395.915469) scale(0.11 -0.11)">
       <defs>
        <path id="ArialMT-31" d="M 2384 0 
L 1822 0 
L 1822 3584 
Q 1619 3391 1289 3197 
Q 959 3003 697 2906 
L 697 3450 
Q 1169 3672 1522 3987 
Q 1875 4303 2022 4600 
L 2384 4600 
L 2384 0 
z
" transform="scale(0.015625)"/>
        <path id="ArialMT-2e" d="M 581 0 
L 581 641 
L 1222 641 
L 1222 0 
L 581 0 
z
" transform="scale(0.015625)"/>
        <path id="ArialMT-35" d="M 266 1200 
L 856 1250 
Q 922 819 1161 601 
Q 1400 384 1738 384 
Q 2144 384 2425 690 
Q 2706 997 2706 1503 
Q 2706 1984 2436 2262 
Q 2166 2541 1728 2541 
Q 1456 2541 1237 2417 
Q 1019 2294 894 2097 
L 366 2166 
L 809 4519 
L 3088 4519 
L 3088 3981 
L 1259 3981 
L 1013 2750 
Q 1425 3038 1878 3038 
Q 2478 3038 2890 2622 
Q 3303 2206 3303 1553 
Q 3303 931 2941 478 
Q 2500 -78 1738 -78 
Q 1113 -78 717 272 
Q 322 622 266 1200 
z
" transform="scale(0.015625)"/>
       </defs>
       <use xlink:href="#ArialMT-31"/>
       <use xlink:href="#ArialMT-2e" transform="translate(55.615234 0)"/>
       <use xlink:href="#ArialMT-35" transform="translate(83.398438 0)"/>
      </g>
     </g>
    </g>
    <g id="xtick_2">
     <g id="line2d_2">
      <path d="M 200.224171 378.541875 
L 200.224171 21.943125 
" clip-path="url(#pb81131a632)" style="fill: none; stroke: #d9d2c3; stroke-linecap: round"/>
     </g>
     <g id="text_2">
      <!-- 2.0 -->
      <g style="fill: #3d405b" transform="translate(192.579171 395.915469) scale(0.11 -0.11)">
       <defs>
        <path id="ArialMT-32" d="M 3222 541 
L 3222 0 
L 194 0 
Q 188 203 259 391 
Q 375 700 629 1000 
Q 884 1300 1366 1694 
Q 2113 2306 2375 2664 
Q 2638 3022 2638 3341 
Q 2638 3675 2398 3904 
Q 2159 4134 1775 4134 
Q 1369 4134 1125 3890 
Q 881 3647 878 3216 
L 300 3275 
Q 359 3922 746 4261 
Q 1134 4600 1788 4600 
Q 2447 4600 2831 4234 
Q 3216 3869 3216 3328 
Q 3216 3053 3103 2787 
Q 2991 2522 2730 2228 
Q 2469 1934 1863 1422 
Q 1356 997 1212 845 
Q 1069 694 975 541 
L 3222 541 
z
" transform="scale(0.015625)"/>
        <path id="ArialMT-30" d="M 266 2259 
Q 266 3072 433 3567 
Q 600 4063 929 4331 
Q 1259 4600 1759 4600 
Q 2128 4600 2406 4451 
Q 2684 4303 2865 4023 
Q 3047 3744 3150 3342 
Q 3253 2941 3253 2259 
Q 3253 1453 3087 958 
Q 2922 463 2592 192 
Q 2263 -78 1759 -78 
Q 1097 -78 719 397 
Q 266 969 266 2259 
z
M 844 2259 
Q 844 1131 1108 757 
Q 1372 384 1759 384 
Q 2147 384 2411 759 
Q 2675 1134 2675 2259 
Q 2675 3391 2411 3762 
Q 2147 4134 1753 4134 
Q 1366 4134 1134 3806 
Q 844 3388 844 2259 
z
" transform="scale(0.015625)"/>
       </defs>
       <use xlink:href="#ArialMT-32"/>
       <use xlink:href="#ArialMT-2e" transform="translate(55.615234 0)"/>
       <use xlink:href="#ArialMT-30" transform="translate(83.398438 0)"/>
      </g>
     </g>
    </g>
    <g id="xtick_3">
     <g id="line2d_3">
      <path d="M 307.387604 378.541875 
L 307.387604 21.943125 
" clip-path="url(#pb81131a632)" style="fill: none; stroke: #d9d2c3; stroke-linecap: round"/>
     </g>
     <g id="text_3">
      <!-- 2.5 -->
      <g style="fill: #3d405b" transform="translate(299.742604 395.915469) scale(0.11 -0.11)">
       <use xlink:href="#ArialMT-32"/>
       <use xlink:href="#ArialMT-2e" transform="translate(55.615234 0)"/>
       <use xlink:href="#ArialMT-35" transform="translate(83.398438 0)"/>
      </g>
     </g>
    </g>
    <g id="xtick_4">
     <g id="line2d_4">
      <path d="M 414.551036 378.541875 
L 414.551036 21.943125 
" clip-path="url(#pb81131a632)" style="fill: none; stroke: #d9d2c3; stroke-linecap: round"/>
     </g>
     <g id="text_4">
      <!-- 3.0 -->
      <g style="fill: #3d405b" transform="translate(406.906036 395.915469) scale(0.11 -0.11)">
       <defs>
        <path id="ArialMT-33" d="M 269 1209 
L 831 1284 
Q 928 806 1161 595 
Q 1394 384 1728 384 
Q 2125 384 2398 659 
Q 2672 934 2672 1341 
Q 2672 1728 2419 1979 
Q 2166 2231 1775 2231 
Q 1616 2231 1378 2169 
L 1441 2663 
Q 1497 2656 1531 2656 
Q 1891 2656 2178 2843 
Q 2466 3031 2466 3422 
Q 2466 3731 2256 3934 
Q 2047 4138 1716 4138 
Q 1388 4138 1169 3931 
Q 950 3725 888 3313 
L 325 3413 
Q 428 3978 793 4289 
Q 1159 4600 1703 4600 
Q 2078 4600 2393 4439 
Q 2709 4278 2876 4000 
Q 3044 3722 3044 3409 
Q 3044 3113 2884 2869 
Q 2725 2625 2413 2481 
Q 2819 2388 3044 2092 
Q 3269 1797 3269 1353 
Q 3269 753 2831 336 
Q 2394 -81 1725 -81 
Q 1122 -81 723 278 
Q 325 638 269 1209 
z
" transform="scale(0.015625)"/>
       </defs>
       <use xlink:href="#ArialMT-33"/>
       <use xlink:href="#ArialMT-2e" transform="translate(55.615234 0)"/>
       <use xlink:href="#ArialMT-30" transform="translate(83.398438 0)"/>
      </g>
     </g>
    </g>
    <g id="xtick_5">
     <g id="line2d_5">
      <path d="M 521.714469 378.541875 
L 521.714469 21.943125 
" clip-path="url(#pb81131a632)" style="fill: none; stroke: #d9d2c3; stroke-linecap: round"/>
     </g>
     <g id="text_5">
      <!-- 3.5 -->
      <g style="fill: #3d405b" transform="translate(514.069469 395.915469) scale(0.11 -0.11)">
       <use xlink:href="#ArialMT-33"/>
       <use xlink:href="#ArialMT-2e" transform="translate(55.615234 0)"/>
       <use xlink:href="#ArialMT-35" transform="translate(83.398438 0)"/>
      </g>
     </g>
    </g>
    <g id="xtick_6">
     <g id="line2d_6">
      <path d="M 628.877902 378.541875 
L 628.877902 21.943125 
" clip-path="url(#pb81131a632)" style="fill: none; stroke: #d9d2c3; stroke-linecap: round"/>
     </g>
     <g id="text_6">
      <!-- 4.0 -->
      <g style="fill: #3d405b" transform="translate(621.232902 395.915469) scale(0.11 -0.11)">
       <defs>
        <path id="ArialMT-34" d="M 2069 0 
L 2069 1097 
L 81 1097 
L 81 1613 
L 2172 4581 
L 2631 4581 
L 2631 1613 
L 3250 1613 
L 3250 1097 
L 2631 1097 
L 2631 0 
L 2069 0 
z
M 2069 1613 
L 2069 3678 
L 634 1613 
L 2069 1613 
z
" transform="scale(0.015625)"/>
       </defs>
       <use xlink:href="#ArialMT-34"/>
       <use xlink:href="#ArialMT-2e" transform="translate(55.615234 0)"/>
       <use xlink:href="#ArialMT-30" transform="translate(83.398438 0)"/>
      </g>
     </g>
    </g>
    <g id="text_7">
     <!-- Annual delay-equivalent minutes -->
     <g style="fill: #3d405b" transform="translate(287.44625 410.691094) scale(0.12 -0.12)">
      <defs>
       <path id="ArialMT-41" d="M -9 0 
L 1750 4581 
L 2403 4581 
L 4278 0 
L 3588 0 
L 3053 1388 
L 1138 1388 
L 634 0 
L -9 0 
z
M 1313 1881 
L 2866 1881 
L 2388 3150 
Q 2169 3728 2063 4100 
Q 1975 3659 1816 3225 
L 1313 1881 
z
" transform="scale(0.015625)"/>
       <path id="ArialMT-6e" d="M 422 0 
L 422 3319 
L 928 3319 
L 928 2847 
Q 1294 3394 1984 3394 
Q 2284 3394 2536 3286 
Q 2788 3178 2913 3003 
Q 3038 2828 3088 2588 
Q 3119 2431 3119 2041 
L 3119 0 
L 2556 0 
L 2556 2019 
Q 2556 2363 2490 2533 
Q 2425 2703 2258 2804 
Q 2091 2906 1866 2906 
Q 1506 2906 1245 2678 
Q 984 2450 984 1813 
L 984 0 
L 422 0 
z
" transform="scale(0.015625)"/>
       <path id="ArialMT-75" d="M 2597 0 
L 2597 488 
Q 2209 -75 1544 -75 
Q 1250 -75 995 37 
Q 741 150 617 320 
Q 494 491 444 738 
Q 409 903 409 1263 
L 409 3319 
L 972 3319 
L 972 1478 
Q 972 1038 1006 884 
Q 1059 663 1231 536 
Q 1403 409 1656 409 
Q 1909 409 2131 539 
Q 2353 669 2445 892 
Q 2538 1116 2538 1541 
L 2538 3319 
L 3100 3319 
L 3100 0 
L 2597 0 
z
" transform="scale(0.015625)"/>
       <path id="ArialMT-61" d="M 2588 409 
Q 2275 144 1986 34 
Q 1697 -75 1366 -75 
Q 819 -75 525 192 
Q 231 459 231 875 
Q 231 1119 342 1320 
Q 453 1522 633 1644 
Q 813 1766 1038 1828 
Q 1203 1872 1538 1913 
Q 2219 1994 2541 2106 
Q 2544 2222 2544 2253 
Q 2544 2597 2384 2738 
Q 2169 2928 1744 2928 
Q 1347 2928 1158 2789 
Q 969 2650 878 2297 
L 328 2372 
Q 403 2725 575 2942 
Q 747 3159 1072 3276 
Q 1397 3394 1825 3394 
Q 2250 3394 2515 3294 
Q 2781 3194 2906 3042 
Q 3031 2891 3081 2659 
Q 3109 2516 3109 2141 
L 3109 1391 
Q 3109 606 3145 398 
Q 3181 191 3288 0 
L 2700 0 
Q 2613 175 2588 409 
z
M 2541 1666 
Q 2234 1541 1622 1453 
Q 1275 1403 1131 1340 
Q 988 1278 909 1158 
Q 831 1038 831 891 
Q 831 666 1001 516 
Q 1172 366 1500 366 
Q 1825 366 2078 508 
Q 2331 650 2450 897 
Q 2541 1088 2541 1459 
L 2541 1666 
z
" transform="scale(0.015625)"/>
       <path id="ArialMT-6c" d="M 409 0 
L 409 4581 
L 972 4581 
L 972 0 
L 409 0 
z
" transform="scale(0.015625)"/>
       <path id="ArialMT-20" transform="scale(0.015625)"/>
       <path id="ArialMT-64" d="M 2575 0 
L 2575 419 
Q 2259 -75 1647 -75 
Q 1250 -75 917 144 
Q 584 363 401 755 
Q 219 1147 219 1656 
Q 219 2153 384 2558 
Q 550 2963 881 3178 
Q 1213 3394 1622 3394 
Q 1922 3394 2156 3267 
Q 2391 3141 2538 2938 
L 2538 4581 
L 3097 4581 
L 3097 0 
L 2575 0 
z
M 797 1656 
Q 797 1019 1065 703 
Q 1334 388 1700 388 
Q 2069 388 2326 689 
Q 2584 991 2584 1609 
Q 2584 2291 2321 2609 
Q 2059 2928 1675 2928 
Q 1300 2928 1048 2622 
Q 797 2316 797 1656 
z
" transform="scale(0.015625)"/>
       <path id="ArialMT-65" d="M 2694 1069 
L 3275 997 
Q 3138 488 2766 206 
Q 2394 -75 1816 -75 
Q 1088 -75 661 373 
Q 234 822 234 1631 
Q 234 2469 665 2931 
Q 1097 3394 1784 3394 
Q 2450 3394 2872 2941 
Q 3294 2488 3294 1666 
Q 3294 1616 3291 1516 
L 816 1516 
Q 847 969 1125 678 
Q 1403 388 1819 388 
Q 2128 388 2347 550 
Q 2566 713 2694 1069 
z
M 847 1978 
L 2700 1978 
Q 2663 2397 2488 2606 
Q 2219 2931 1791 2931 
Q 1403 2931 1139 2672 
Q 875 2413 847 1978 
z
" transform="scale(0.015625)"/>
       <path id="ArialMT-79" d="M 397 -1278 
L 334 -750 
Q 519 -800 656 -800 
Q 844 -800 956 -737 
Q 1069 -675 1141 -563 
Q 1194 -478 1313 -144 
Q 1328 -97 1363 -6 
L 103 3319 
L 709 3319 
L 1400 1397 
Q 1534 1031 1641 628 
Q 1738 1016 1872 1384 
L 2581 3319 
L 3144 3319 
L 1881 -56 
Q 1678 -603 1566 -809 
Q 1416 -1088 1222 -1217 
Q 1028 -1347 759 -1347 
Q 597 -1347 397 -1278 
z
" transform="scale(0.015625)"/>
       <path id="ArialMT-2d" d="M 203 1375 
L 203 1941 
L 1931 1941 
L 1931 1375 
L 203 1375 
z
" transform="scale(0.015625)"/>
       <path id="ArialMT-71" d="M 2538 -1272 
L 2538 353 
Q 2406 169 2170 47 
Q 1934 -75 1669 -75 
Q 1078 -75 651 397 
Q 225 869 225 1691 
Q 225 2191 398 2587 
Q 572 2984 901 3189 
Q 1231 3394 1625 3394 
Q 2241 3394 2594 2875 
L 2594 3319 
L 3100 3319 
L 3100 -1272 
L 2538 -1272 
z
M 803 1669 
Q 803 1028 1072 708 
Q 1341 388 1716 388 
Q 2075 388 2334 692 
Q 2594 997 2594 1619 
Q 2594 2281 2320 2615 
Q 2047 2950 1678 2950 
Q 1313 2950 1058 2639 
Q 803 2328 803 1669 
z
" transform="scale(0.015625)"/>
       <path id="ArialMT-69" d="M 425 3934 
L 425 4581 
L 988 4581 
L 988 3934 
L 425 3934 
z
M 425 0 
L 425 3319 
L 988 3319 
L 988 0 
L 425 0 
z
" transform="scale(0.015625)"/>
       <path id="ArialMT-76" d="M 1344 0 
L 81 3319 
L 675 3319 
L 1388 1331 
Q 1503 1009 1600 663 
Q 1675 925 1809 1294 
L 2547 3319 
L 3125 3319 
L 1869 0 
L 1344 0 
z
" transform="scale(0.015625)"/>
       <path id="ArialMT-74" d="M 1650 503 
L 1731 6 
Q 1494 -44 1306 -44 
Q 1000 -44 831 53 
Q 663 150 594 308 
Q 525 466 525 972 
L 525 2881 
L 113 2881 
L 113 3319 
L 525 3319 
L 525 4141 
L 1084 4478 
L 1084 3319 
L 1650 3319 
L 1650 2881 
L 1084 2881 
L 1084 941 
Q 1084 700 1114 631 
Q 1144 563 1211 522 
Q 1278 481 1403 481 
Q 1497 481 1650 503 
z
" transform="scale(0.015625)"/>
       <path id="ArialMT-6d" d="M 422 0 
L 422 3319 
L 925 3319 
L 925 2853 
Q 1081 3097 1340 3245 
Q 1600 3394 1931 3394 
Q 2300 3394 2536 3241 
Q 2772 3088 2869 2813 
Q 3263 3394 3894 3394 
Q 4388 3394 4653 3120 
Q 4919 2847 4919 2278 
L 4919 0 
L 4359 0 
L 4359 2091 
Q 4359 2428 4304 2576 
Q 4250 2725 4106 2815 
Q 3963 2906 3769 2906 
Q 3419 2906 3187 2673 
Q 2956 2441 2956 1928 
L 2956 0 
L 2394 0 
L 2394 2156 
Q 2394 2531 2256 2718 
Q 2119 2906 1806 2906 
Q 1569 2906 1367 2781 
Q 1166 2656 1075 2415 
Q 984 2175 984 1722 
L 984 0 
L 422 0 
z
" transform="scale(0.015625)"/>
       <path id="ArialMT-73" d="M 197 991 
L 753 1078 
Q 800 744 1014 566 
Q 1228 388 1613 388 
Q 2000 388 2187 545 
Q 2375 703 2375 916 
Q 2375 1106 2209 1216 
Q 2094 1291 1634 1406 
Q 1016 1563 777 1677 
Q 538 1791 414 1992 
Q 291 2194 291 2438 
Q 291 2659 392 2848 
Q 494 3038 669 3163 
Q 800 3259 1026 3326 
Q 1253 3394 1513 3394 
Q 1903 3394 2198 3281 
Q 2494 3169 2634 2976 
Q 2775 2784 2828 2463 
L 2278 2388 
Q 2241 2644 2061 2787 
Q 1881 2931 1553 2931 
Q 1166 2931 1000 2803 
Q 834 2675 834 2503 
Q 834 2394 903 2306 
Q 972 2216 1119 2156 
Q 1203 2125 1616 2013 
Q 2213 1853 2448 1751 
Q 2684 1650 2818 1456 
Q 2953 1263 2953 975 
Q 2953 694 2789 445 
Q 2625 197 2315 61 
Q 2006 -75 1616 -75 
Q 969 -75 630 194 
Q 291 463 197 991 
z
" transform="scale(0.015625)"/>
      </defs>
      <use xlink:href="#ArialMT-41"/>
      <use xlink:href="#ArialMT-6e" transform="translate(66.699219 0)"/>
      <use xlink:href="#ArialMT-6e" transform="translate(122.314453 0)"/>
      <use xlink:href="#ArialMT-75" transform="translate(177.929688 0)"/>
      <use xlink:href="#ArialMT-61" transform="translate(233.544922 0)"/>
      <use xlink:href="#ArialMT-6c" transform="translate(289.160156 0)"/>
      <use xlink:href="#ArialMT-20" transform="translate(311.376953 0)"/>
      <use xlink:href="#ArialMT-64" transform="translate(339.160156 0)"/>
      <use xlink:href="#ArialMT-65" transform="translate(394.775391 0)"/>
      <use xlink:href="#ArialMT-6c" transform="translate(450.390625 0)"/>
      <use xlink:href="#ArialMT-61" transform="translate(472.607422 0)"/>
      <use xlink:href="#ArialMT-79" transform="translate(528.222656 0)"/>
      <use xlink:href="#ArialMT-2d" transform="translate(578.222656 0)"/>
      <use xlink:href="#ArialMT-65" transform="translate(611.523438 0)"/>
      <use xlink:href="#ArialMT-71" transform="translate(667.138672 0)"/>
      <use xlink:href="#ArialMT-75" transform="translate(722.753906 0)"/>
      <use xlink:href="#ArialMT-69" transform="translate(778.369141 0)"/>
      <use xlink:href="#ArialMT-76" transform="translate(800.585938 0)"/>
      <use xlink:href="#ArialMT-61" transform="translate(850.585938 0)"/>
      <use xlink:href="#ArialMT-6c" transform="translate(906.201172 0)"/>
      <use xlink:href="#ArialMT-65" transform="translate(928.417969 0)"/>
      <use xlink:href="#ArialMT-6e" transform="translate(984.033203 0)"/>
      <use xlink:href="#ArialMT-74" transform="translate(1039.648438 0)"/>
      <use xlink:href="#ArialMT-20" transform="translate(1067.431641 0)"/>
      <use xlink:href="#ArialMT-6d" transform="translate(1095.214844 0)"/>
      <use xlink:href="#ArialMT-69" transform="translate(1178.515625 0)"/>
      <use xlink:href="#ArialMT-6e" transform="translate(1200.732422 0)"/>
      <use xlink:href="#ArialMT-75" transform="translate(1256.347656 0)"/>
      <use xlink:href="#ArialMT-74" transform="translate(1311.962891 0)"/>
      <use xlink:href="#ArialMT-65" transform="translate(1339.746094 0)"/>
      <use xlink:href="#ArialMT-73" transform="translate(1395.361328 0)"/>
     </g>
    </g>
    <g id="text_8">
     <!-- 1e6 -->
     <g style="fill: #3d405b" transform="translate(682.868281 408.975313) scale(0.11 -0.11)">
      <defs>
       <path id="ArialMT-36" d="M 3184 3459 
L 2625 3416 
Q 2550 3747 2413 3897 
Q 2184 4138 1850 4138 
Q 1581 4138 1378 3988 
Q 1113 3794 959 3422 
Q 806 3050 800 2363 
Q 1003 2672 1297 2822 
Q 1591 2972 1913 2972 
Q 2475 2972 2870 2558 
Q 3266 2144 3266 1488 
Q 3266 1056 3080 686 
Q 2894 316 2569 119 
Q 2244 -78 1831 -78 
Q 1128 -78 684 439 
Q 241 956 241 2144 
Q 241 3472 731 4075 
Q 1159 4600 1884 4600 
Q 2425 4600 2770 4297 
Q 3116 3994 3184 3459 
z
M 888 1484 
Q 888 1194 1011 928 
Q 1134 663 1356 523 
Q 1578 384 1822 384 
Q 2178 384 2434 671 
Q 2691 959 2691 1453 
Q 2691 1928 2437 2201 
Q 2184 2475 1800 2475 
Q 1419 2475 1153 2201 
Q 888 1928 888 1484 
z
" transform="scale(0.015625)"/>
      </defs>
      <use xlink:href="#ArialMT-31"/>
      <use xlink:href="#ArialMT-65" transform="translate(55.615234 0)"/>
      <use xlink:href="#ArialMT-36" transform="translate(111.230469 0)"/>
     </g>
    </g>
   </g>
   <g id="matplotlib.axis_2">
    <g id="ytick_1">
     <g id="line2d_7">
      <path d="M 47.105 378.541875 
L 701.219375 378.541875 
" clip-path="url(#pb81131a632)" style="fill: none; stroke: #d9d2c3; stroke-linecap: round"/>
     </g>
     <g id="text_9">
      <!-- 0.0 -->
      <g style="fill: #3d405b" transform="translate(22.315 382.478672) scale(0.11 -0.11)">
       <use xlink:href="#ArialMT-30"/>
       <use xlink:href="#ArialMT-2e" transform="translate(55.615234 0)"/>
       <use xlink:href="#ArialMT-30" transform="translate(83.398438 0)"/>
      </g>
     </g>
    </g>
    <g id="ytick_2">
     <g id="line2d_8">
      <path d="M 47.105 335.734007 
L 701.219375 335.734007 
" clip-path="url(#pb81131a632)" style="fill: none; stroke: #d9d2c3; stroke-linecap: round"/>
     </g>
     <g id="text_10">
      <!-- 0.2 -->
      <g style="fill: #3d405b" transform="translate(22.315 339.670804) scale(0.11 -0.11)">
       <use xlink:href="#ArialMT-30"/>
       <use xlink:href="#ArialMT-2e" transform="translate(55.615234 0)"/>
       <use xlink:href="#ArialMT-32" transform="translate(83.398438 0)"/>
      </g>
     </g>
    </g>
    <g id="ytick_3">
     <g id="line2d_9">
      <path d="M 47.105 292.926139 
L 701.219375 292.926139 
" clip-path="url(#pb81131a632)" style="fill: none; stroke: #d9d2c3; stroke-linecap: round"/>
     </g>
     <g id="text_11">
      <!-- 0.4 -->
      <g style="fill: #3d405b" transform="translate(22.315 296.862936) scale(0.11 -0.11)">
       <use xlink:href="#ArialMT-30"/>
       <use xlink:href="#ArialMT-2e" transform="translate(55.615234 0)"/>
       <use xlink:href="#ArialMT-34" transform="translate(83.398438 0)"/>
      </g>
     </g>
    </g>
    <g id="ytick_4">
     <g id="line2d_10">
      <path d="M 47.105 250.118271 
L 701.219375 250.118271 
" clip-path="url(#pb81131a632)" style="fill: none; stroke: #d9d2c3; stroke-linecap: round"/>
     </g>
     <g id="text_12">
      <!-- 0.6 -->
      <g style="fill: #3d405b" transform="translate(22.315 254.055068) scale(0.11 -0.11)">
       <use xlink:href="#ArialMT-30"/>
       <use xlink:href="#ArialMT-2e" transform="translate(55.615234 0)"/>
       <use xlink:href="#ArialMT-36" transform="translate(83.398438 0)"/>
      </g>
     </g>
    </g>
    <g id="ytick_5">
     <g id="line2d_11">
      <path d="M 47.105 207.310403 
L 701.219375 207.310403 
" clip-path="url(#pb81131a632)" style="fill: none; stroke: #d9d2c3; stroke-linecap: round"/>
     </g>
     <g id="text_13">
      <!-- 0.8 -->
      <g style="fill: #3d405b" transform="translate(22.315 211.2472) scale(0.11 -0.11)">
       <defs>
        <path id="ArialMT-38" d="M 1131 2484 
Q 781 2613 612 2850 
Q 444 3088 444 3419 
Q 444 3919 803 4259 
Q 1163 4600 1759 4600 
Q 2359 4600 2725 4251 
Q 3091 3903 3091 3403 
Q 3091 3084 2923 2848 
Q 2756 2613 2416 2484 
Q 2838 2347 3058 2040 
Q 3278 1734 3278 1309 
Q 3278 722 2862 322 
Q 2447 -78 1769 -78 
Q 1091 -78 675 323 
Q 259 725 259 1325 
Q 259 1772 486 2073 
Q 713 2375 1131 2484 
z
M 1019 3438 
Q 1019 3113 1228 2906 
Q 1438 2700 1772 2700 
Q 2097 2700 2305 2904 
Q 2513 3109 2513 3406 
Q 2513 3716 2298 3927 
Q 2084 4138 1766 4138 
Q 1444 4138 1231 3931 
Q 1019 3725 1019 3438 
z
M 838 1322 
Q 838 1081 952 856 
Q 1066 631 1291 507 
Q 1516 384 1775 384 
Q 2178 384 2440 643 
Q 2703 903 2703 1303 
Q 2703 1709 2433 1975 
Q 2163 2241 1756 2241 
Q 1359 2241 1098 1978 
Q 838 1716 838 1322 
z
" transform="scale(0.015625)"/>
       </defs>
       <use xlink:href="#ArialMT-30"/>
       <use xlink:href="#ArialMT-2e" transform="translate(55.615234 0)"/>
       <use xlink:href="#ArialMT-38" transform="translate(83.398438 0)"/>
      </g>
     </g>
    </g>
    <g id="ytick_6">
     <g id="line2d_12">
      <path d="M 47.105 164.502535 
L 701.219375 164.502535 
" clip-path="url(#pb81131a632)" style="fill: none; stroke: #d9d2c3; stroke-linecap: round"/>
     </g>
     <g id="text_14">
      <!-- 1.0 -->
      <g style="fill: #3d405b" transform="translate(22.315 168.439332) scale(0.11 -0.11)">
       <use xlink:href="#ArialMT-31"/>
       <use xlink:href="#ArialMT-2e" transform="translate(55.615234 0)"/>
       <use xlink:href="#ArialMT-30" transform="translate(83.398438 0)"/>
      </g>
     </g>
    </g>
    <g id="ytick_7">
     <g id="line2d_13">
      <path d="M 47.105 121.694668 
L 701.219375 121.694668 
" clip-path="url(#pb81131a632)" style="fill: none; stroke: #d9d2c3; stroke-linecap: round"/>
     </g>
     <g id="text_15">
      <!-- 1.2 -->
      <g style="fill: #3d405b" transform="translate(22.315 125.631464) scale(0.11 -0.11)">
       <use xlink:href="#ArialMT-31"/>
       <use xlink:href="#ArialMT-2e" transform="translate(55.615234 0)"/>
       <use xlink:href="#ArialMT-32" transform="translate(83.398438 0)"/>
      </g>
     </g>
    </g>
    <g id="ytick_8">
     <g id="line2d_14">
      <path d="M 47.105 78.8868 
L 701.219375 78.8868 
" clip-path="url(#pb81131a632)" style="fill: none; stroke: #d9d2c3; stroke-linecap: round"/>
     </g>
     <g id="text_16">
      <!-- 1.4 -->
      <g style="fill: #3d405b" transform="translate(22.315 82.823596) scale(0.11 -0.11)">
       <use xlink:href="#ArialMT-31"/>
       <use xlink:href="#ArialMT-2e" transform="translate(55.615234 0)"/>
       <use xlink:href="#ArialMT-34" transform="translate(83.398438 0)"/>
      </g>
     </g>
    </g>
    <g id="ytick_9">
     <g id="line2d_15">
      <path d="M 47.105 36.078932 
L 701.219375 36.078932 
" clip-path="url(#pb81131a632)" style="fill: none; stroke: #d9d2c3; stroke-linecap: round"/>
     </g>
     <g id="text_17">
      <!-- 1.6 -->
      <g style="fill: #3d405b" transform="translate(22.315 40.015729) scale(0.11 -0.11)">
       <use xlink:href="#ArialMT-31"/>
       <use xlink:href="#ArialMT-2e" transform="translate(55.615234 0)"/>
       <use xlink:href="#ArialMT-36" transform="translate(83.398438 0)"/>
      </g>
     </g>
    </g>
    <g id="text_18">
     <!-- Density -->
     <g style="fill: #3d405b" transform="translate(15.789375 220.24875) rotate(-90) scale(0.12 -0.12)">
      <defs>
       <path id="ArialMT-44" d="M 494 0 
L 494 4581 
L 2072 4581 
Q 2606 4581 2888 4516 
Q 3281 4425 3559 4188 
Q 3922 3881 4101 3404 
Q 4281 2928 4281 2316 
Q 4281 1794 4159 1391 
Q 4038 988 3847 723 
Q 3656 459 3429 307 
Q 3203 156 2883 78 
Q 2563 0 2147 0 
L 494 0 
z
M 1100 541 
L 2078 541 
Q 2531 541 2789 625 
Q 3047 709 3200 863 
Q 3416 1078 3536 1442 
Q 3656 1806 3656 2325 
Q 3656 3044 3420 3430 
Q 3184 3816 2847 3947 
Q 2603 4041 2063 4041 
L 1100 4041 
L 1100 541 
z
" transform="scale(0.015625)"/>
      </defs>
      <use xlink:href="#ArialMT-44"/>
      <use xlink:href="#ArialMT-65" transform="translate(72.216797 0)"/>
      <use xlink:href="#ArialMT-6e" transform="translate(127.832031 0)"/>
      <use xlink:href="#ArialMT-73" transform="translate(183.447266 0)"/>
      <use xlink:href="#ArialMT-69" transform="translate(233.447266 0)"/>
      <use xlink:href="#ArialMT-74" transform="translate(255.664062 0)"/>
      <use xlink:href="#ArialMT-79" transform="translate(283.447266 0)"/>
     </g>
    </g>
    <g id="text_19">
     <!-- 1e−6 -->
     <g style="fill: #3d405b" transform="translate(47.105 18.943125) scale(0.11 -0.11)">
      <defs>
       <path id="ArialMT-2212" d="M 3381 1997 
L 356 1997 
L 356 2522 
L 3381 2522 
L 3381 1997 
z
" transform="scale(0.015625)"/>
      </defs>
      <use xlink:href="#ArialMT-31"/>
      <use xlink:href="#ArialMT-65" transform="translate(55.615234 0)"/>
      <use xlink:href="#ArialMT-2212" transform="translate(111.230469 0)"/>
      <use xlink:href="#ArialMT-36" transform="translate(169.628906 0)"/>
     </g>
    </g>
   </g>
   <g id="line2d_16">
    <path d="M 76.837472 378.540593 
L 88.424158 378.459602 
L 100.010845 378.09831 
L 108.70086 377.700099 
L 111.597531 377.457668 
L 114.494203 377.10045 
L 120.287546 376.07537 
L 126.080889 374.785424 
L 128.977561 373.967422 
L 131.874233 372.938332 
L 134.770904 371.665387 
L 137.667576 370.182487 
L 143.460919 366.835466 
L 146.357591 364.959131 
L 149.254263 362.804961 
L 152.150934 360.214697 
L 155.047606 357.025146 
L 157.944278 353.080297 
L 160.840949 348.29688 
L 163.737621 342.783849 
L 172.427636 324.88599 
L 175.324307 318.522772 
L 178.220979 311.296364 
L 181.117651 302.961451 
L 184.014322 293.677891 
L 189.807666 273.6395 
L 201.394352 232.26427 
L 204.291024 221.048366 
L 207.187695 209.122211 
L 218.774382 159.394369 
L 227.464397 123.756084 
L 230.361069 112.635812 
L 233.25774 102.814393 
L 236.154412 94.314417 
L 241.947755 78.384999 
L 244.844427 70.138331 
L 247.741098 62.350731 
L 250.63777 55.816722 
L 253.534442 50.891778 
L 256.431113 47.320377 
L 259.327785 44.480067 
L 262.224457 41.928465 
L 265.121128 39.854534 
L 268.0178 38.924018 
L 270.914471 39.609222 
L 273.811143 41.748364 
L 276.707815 44.802765 
L 279.604486 48.431976 
L 282.501158 52.725592 
L 285.39783 57.961625 
L 288.294501 64.288984 
L 291.191173 71.620729 
L 294.087845 79.667009 
L 302.777859 105.157072 
L 308.571203 123.135085 
L 314.364546 141.049257 
L 320.157889 158.693054 
L 323.054561 168.328708 
L 325.951233 178.924967 
L 334.641248 212.899932 
L 337.537919 222.781749 
L 340.434591 231.634659 
L 346.227934 248.87742 
L 352.021277 266.796158 
L 354.917949 274.820119 
L 357.814621 281.84536 
L 360.711292 288.082279 
L 363.607964 293.814502 
L 366.504636 299.183053 
L 372.297979 309.085489 
L 378.091322 318.958494 
L 383.884665 329.289599 
L 386.781337 334.098476 
L 389.678009 338.328382 
L 392.57468 341.881141 
L 395.471352 344.837222 
L 412.851382 360.328394 
L 415.748053 362.640702 
L 418.644725 364.649711 
L 421.541397 366.280261 
L 424.438068 367.522497 
L 427.33474 368.450114 
L 433.128083 369.842135 
L 438.921427 371.200228 
L 450.508113 374.161588 
L 456.301456 375.115265 
L 467.888143 376.575342 
L 473.681486 376.905954 
L 479.47483 377.147279 
L 493.958188 378.022203 
L 514.234889 378.408333 
L 531.614919 378.442319 
L 560.581635 378.481849 
L 647.481785 378.535016 
L 653.275128 378.541223 
L 653.275128 378.541223 
" clip-path="url(#pb81131a632)" style="fill: none; stroke: #4c72b0; stroke-width: 2; stroke-linecap: round"/>
   </g>
   <g id="line2d_17">
    <path d="M 98.106316 378.54131 
L 121.156792 378.445646 
L 129.800721 378.204878 
L 152.851197 376.995151 
L 155.732506 376.681813 
L 158.613816 376.220547 
L 164.376435 374.922543 
L 170.139054 373.312738 
L 173.020363 372.377732 
L 175.901673 371.293503 
L 178.782982 369.991767 
L 181.664291 368.398616 
L 184.545601 366.452233 
L 187.42691 364.12877 
L 190.30822 361.458724 
L 193.189529 358.513139 
L 198.952148 352.050254 
L 201.833458 348.57456 
L 204.714767 344.917751 
L 207.596077 341.044794 
L 210.477386 336.898019 
L 213.358696 332.40185 
L 216.240005 327.492447 
L 219.121315 322.15033 
L 222.002624 316.402304 
L 224.883934 310.289946 
L 227.765243 303.837773 
L 230.646553 297.046984 
L 233.527862 289.902144 
L 236.409172 282.368155 
L 239.290481 274.389795 
L 242.171791 265.928035 
L 247.93441 247.885007 
L 253.697029 229.95289 
L 259.459647 213.404609 
L 265.222266 196.911095 
L 268.103576 187.970624 
L 270.984885 178.395611 
L 282.510123 138.421303 
L 285.391433 129.702221 
L 288.272742 121.88079 
L 291.154052 114.863284 
L 294.035361 108.453225 
L 296.916671 102.522905 
L 299.79798 97.147085 
L 302.67929 92.563156 
L 305.560599 88.991411 
L 308.441909 86.493181 
L 311.323218 84.989038 
L 314.204528 84.384229 
L 317.085837 84.650951 
L 319.967147 85.778749 
L 322.848456 87.65155 
L 325.729766 89.999503 
L 337.255003 99.985972 
L 340.136313 102.686001 
L 343.017622 105.541086 
L 345.898932 108.602268 
L 348.780241 112.062192 
L 351.661551 116.19268 
L 354.54286 121.184105 
L 357.42417 127.043077 
L 360.305479 133.615528 
L 366.068098 147.956313 
L 371.830717 162.275196 
L 374.712027 168.96116 
L 380.474646 181.430512 
L 386.237265 194.022199 
L 389.118574 200.801295 
L 391.999884 207.962033 
L 394.881193 215.495336 
L 397.762503 223.399269 
L 409.287741 256.255353 
L 412.16905 263.419114 
L 415.05036 269.857637 
L 417.931669 275.74468 
L 423.694288 286.778129 
L 429.456907 297.446849 
L 435.219526 307.457087 
L 440.982145 316.727797 
L 443.863454 321.108537 
L 446.744764 325.193562 
L 449.626073 328.825999 
L 452.507383 331.931049 
L 455.388692 334.601378 
L 461.151311 339.586019 
L 464.032621 342.288284 
L 472.676549 350.764983 
L 475.557859 353.240505 
L 478.439168 355.433927 
L 481.320478 357.375091 
L 484.201787 359.104634 
L 487.083097 360.653111 
L 492.845716 363.347349 
L 501.489644 367.052466 
L 507.252263 369.26224 
L 510.133572 370.168872 
L 513.014882 370.930155 
L 518.777501 372.115201 
L 530.302739 373.981296 
L 538.946667 375.178412 
L 550.471905 376.427755 
L 561.997143 377.421992 
L 567.759762 377.683189 
L 576.403691 377.647973 
L 585.047619 377.683094 
L 628.267261 378.46019 
L 662.842975 378.531637 
L 671.486903 378.541309 
L 671.486903 378.541309 
" clip-path="url(#pb81131a632)" style="fill: none; stroke: #dd8452; stroke-width: 2; stroke-linecap: round"/>
   </g>
   <g id="line2d_18">
    <path d="M 111.149669 378.541297 
L 138.041211 378.431338 
L 148.797827 378.207249 
L 156.86529 377.840241 
L 162.243598 377.349078 
L 173.000215 376.064067 
L 175.689369 375.625347 
L 178.378523 375.065742 
L 181.067677 374.352852 
L 183.756832 373.466898 
L 186.445986 372.39948 
L 189.13514 371.151808 
L 191.824294 369.735528 
L 197.202602 366.491892 
L 202.580911 362.799472 
L 205.270065 360.740065 
L 207.959219 358.485111 
L 210.648373 355.997271 
L 213.337527 353.236863 
L 216.026682 350.154616 
L 218.715836 346.704092 
L 221.40499 342.870308 
L 224.094144 338.688519 
L 229.472452 329.564578 
L 232.161607 324.70523 
L 234.850761 319.607988 
L 237.539915 314.206639 
L 240.229069 308.475852 
L 245.607377 296.189637 
L 248.296532 289.645784 
L 250.985686 282.66196 
L 253.67484 275.035668 
L 256.363994 266.683077 
L 261.742302 248.550726 
L 267.120611 230.53204 
L 277.877227 195.931885 
L 280.566382 187.605252 
L 283.255536 179.777506 
L 285.94469 172.554492 
L 291.322998 159.428221 
L 294.012152 152.919176 
L 296.701307 146.008256 
L 299.390461 138.543782 
L 307.457923 115.026822 
L 310.147077 108.199904 
L 312.836232 102.320093 
L 315.525386 97.282003 
L 318.21454 92.819952 
L 320.903694 88.684067 
L 323.592848 84.768882 
L 326.282002 81.129699 
L 328.971157 77.920453 
L 331.660311 75.332013 
L 334.349465 73.562754 
L 337.038619 72.789995 
L 339.727773 73.114601 
L 342.416927 74.505093 
L 345.106082 76.797348 
L 347.795236 79.77354 
L 350.48439 83.273483 
L 353.173544 87.247998 
L 355.862698 91.704401 
L 358.551852 96.596062 
L 369.308469 117.469801 
L 371.997623 122.95225 
L 374.686777 128.938484 
L 377.375932 135.592626 
L 380.065086 142.904069 
L 393.510857 181.700251 
L 406.956627 218.595843 
L 412.334936 232.098207 
L 420.402398 251.36092 
L 425.780707 263.562229 
L 431.159015 274.945884 
L 439.226477 291.284153 
L 444.604786 301.401951 
L 447.29394 306.097645 
L 452.672248 314.811112 
L 458.050557 322.862191 
L 463.428865 330.513709 
L 468.807173 337.67625 
L 471.496327 340.897213 
L 474.185482 343.76964 
L 476.874636 346.289078 
L 479.56379 348.536017 
L 484.942098 352.663604 
L 490.320407 356.614927 
L 493.009561 358.461815 
L 495.698715 360.172299 
L 501.077023 363.195062 
L 506.455332 365.851824 
L 509.144486 367.017124 
L 511.83364 367.991852 
L 514.522794 368.732079 
L 517.211948 369.261275 
L 525.279411 370.607564 
L 530.657719 372.019099 
L 536.036027 373.531724 
L 538.725182 374.143484 
L 544.10349 374.988343 
L 552.170952 375.769127 
L 560.238415 376.383946 
L 587.129957 377.89137 
L 600.575727 378.195799 
L 611.332344 378.440504 
L 646.291348 378.541213 
L 646.291348 378.541213 
" clip-path="url(#pb81131a632)" style="fill: none; stroke: #55a868; stroke-width: 2; stroke-linecap: round"/>
   </g>
   <g id="line2d_19">
    <path d="M 91.610194 378.540919 
L 104.335263 378.461057 
L 122.150359 378.038466 
L 129.7854 377.574909 
L 137.420442 376.90147 
L 139.965456 376.579435 
L 142.510469 376.134062 
L 145.055483 375.536834 
L 150.145511 373.964194 
L 155.235538 372.075286 
L 157.780552 370.957574 
L 160.325566 369.650928 
L 162.87058 368.128825 
L 165.415594 366.397921 
L 167.960607 364.47777 
L 170.505621 362.380988 
L 173.050635 360.106043 
L 175.595649 357.635946 
L 178.140663 354.935476 
L 180.685676 351.949768 
L 183.23069 348.608829 
L 185.775704 344.837502 
L 188.320718 340.57158 
L 190.865732 335.780764 
L 193.410745 330.485925 
L 195.955759 324.74839 
L 198.500773 318.628003 
L 201.045787 312.139462 
L 203.590801 305.243903 
L 206.135814 297.885526 
L 208.680828 290.04722 
L 213.770856 273.195491 
L 218.860883 255.441232 
L 223.950911 237.119151 
L 229.040939 218.026345 
L 236.67598 188.106198 
L 244.311021 157.448156 
L 249.401049 137.223646 
L 251.946063 128.020914 
L 254.491076 119.644458 
L 257.03609 111.923841 
L 262.126118 97.405045 
L 264.671132 90.516664 
L 267.216145 84.161161 
L 269.761159 78.541908 
L 272.306173 73.599518 
L 282.486228 55.205647 
L 285.031242 51.445547 
L 287.576256 48.955519 
L 290.12127 47.967127 
L 292.666283 48.355662 
L 295.211297 49.769802 
L 297.756311 51.827664 
L 300.301325 54.236434 
L 307.936366 62.089904 
L 310.48138 64.971175 
L 313.026394 68.346353 
L 315.571408 72.512454 
L 318.116421 77.654785 
L 320.661435 83.769341 
L 323.206449 90.661739 
L 328.296477 105.701399 
L 330.84149 113.637831 
L 333.386504 122.012557 
L 338.476532 140.234647 
L 343.566559 158.641724 
L 348.656587 175.632106 
L 353.746614 191.737272 
L 358.836642 206.863589 
L 369.016697 235.382311 
L 371.561711 243.020714 
L 376.651739 259.385231 
L 379.196752 267.680221 
L 381.741766 275.594164 
L 384.28678 282.833485 
L 386.831794 289.256838 
L 389.376808 294.902063 
L 391.921821 299.950673 
L 397.011849 309.153562 
L 402.101877 317.809519 
L 404.64689 321.844795 
L 409.736918 329.331112 
L 414.826946 336.466776 
L 417.371959 339.829591 
L 419.916973 342.924632 
L 422.461987 345.741009 
L 425.007001 348.343509 
L 427.552015 350.780589 
L 430.097028 353.028895 
L 432.642042 355.036943 
L 435.187056 356.806949 
L 442.822097 361.542234 
L 447.912125 364.609994 
L 450.457139 365.968365 
L 453.002153 367.120002 
L 455.547166 368.045983 
L 458.09218 368.777699 
L 463.182208 369.921762 
L 470.817249 371.588263 
L 475.907277 372.887437 
L 483.542318 374.942251 
L 486.087332 375.491898 
L 491.177359 376.249462 
L 496.267387 376.637282 
L 508.992456 377.232074 
L 516.627497 377.66403 
L 526.807553 377.910021 
L 549.712677 378.204333 
L 557.347718 378.262787 
L 570.072787 378.457048 
L 598.067939 378.541239 
L 598.067939 378.541239 
" clip-path="url(#pb81131a632)" style="fill: none; stroke: #c44e52; stroke-width: 2; stroke-linecap: round"/>
   </g>
   <g id="patch_3">
    <path d="M 47.105 378.541875 
L 47.105 21.943125 
" style="fill: none; stroke: #d9d2c3; stroke-width: 1.25; stroke-linejoin: miter; stroke-linecap: square"/>
   </g>
   <g id="patch_4">
    <path d="M 701.219375 378.541875 
L 701.219375 21.943125 
" style="fill: none; stroke: #d9d2c3; stroke-width: 1.25; stroke-linejoin: miter; stroke-linecap: square"/>
   </g>
   <g id="patch_5">
    <path d="M 47.105 378.541875 
L 701.219375 378.541875 
" style="fill: none; stroke: #d9d2c3; stroke-width: 1.25; stroke-linejoin: miter; stroke-linecap: square"/>
   </g>
   <g id="patch_6">
    <path d="M 47.105 21.943125 
L 701.219375 21.943125 
" style="fill: none; stroke: #d9d2c3; stroke-width: 1.25; stroke-linejoin: miter; stroke-linecap: square"/>
   </g>
   <g id="text_20">
    <!-- Annual Aggregate Operational Impact by Scenario -->
    <g style="fill: #3d405b" transform="translate(240.752188 15.943125) scale(0.12 -0.12)">
     <defs>
      <path id="ArialMT-67" d="M 319 -275 
L 866 -356 
Q 900 -609 1056 -725 
Q 1266 -881 1628 -881 
Q 2019 -881 2231 -725 
Q 2444 -569 2519 -288 
Q 2563 -116 2559 434 
Q 2191 0 1641 0 
Q 956 0 581 494 
Q 206 988 206 1678 
Q 206 2153 378 2554 
Q 550 2956 876 3175 
Q 1203 3394 1644 3394 
Q 2231 3394 2613 2919 
L 2613 3319 
L 3131 3319 
L 3131 450 
Q 3131 -325 2973 -648 
Q 2816 -972 2473 -1159 
Q 2131 -1347 1631 -1347 
Q 1038 -1347 672 -1080 
Q 306 -813 319 -275 
z
M 784 1719 
Q 784 1066 1043 766 
Q 1303 466 1694 466 
Q 2081 466 2343 764 
Q 2606 1063 2606 1700 
Q 2606 2309 2336 2618 
Q 2066 2928 1684 2928 
Q 1309 2928 1046 2623 
Q 784 2319 784 1719 
z
" transform="scale(0.015625)"/>
      <path id="ArialMT-72" d="M 416 0 
L 416 3319 
L 922 3319 
L 922 2816 
Q 1116 3169 1280 3281 
Q 1444 3394 1641 3394 
Q 1925 3394 2219 3213 
L 2025 2691 
Q 1819 2813 1613 2813 
Q 1428 2813 1281 2702 
Q 1134 2591 1072 2394 
Q 978 2094 978 1738 
L 978 0 
L 416 0 
z
" transform="scale(0.015625)"/>
      <path id="ArialMT-4f" d="M 309 2231 
Q 309 3372 921 4017 
Q 1534 4663 2503 4663 
Q 3138 4663 3647 4359 
Q 4156 4056 4423 3514 
Q 4691 2972 4691 2284 
Q 4691 1588 4409 1038 
Q 4128 488 3612 205 
Q 3097 -78 2500 -78 
Q 1853 -78 1343 234 
Q 834 547 571 1087 
Q 309 1628 309 2231 
z
M 934 2222 
Q 934 1394 1379 917 
Q 1825 441 2497 441 
Q 3181 441 3623 922 
Q 4066 1403 4066 2288 
Q 4066 2847 3877 3264 
Q 3688 3681 3323 3911 
Q 2959 4141 2506 4141 
Q 1863 4141 1398 3698 
Q 934 3256 934 2222 
z
" transform="scale(0.015625)"/>
      <path id="ArialMT-70" d="M 422 -1272 
L 422 3319 
L 934 3319 
L 934 2888 
Q 1116 3141 1344 3267 
Q 1572 3394 1897 3394 
Q 2322 3394 2647 3175 
Q 2972 2956 3137 2557 
Q 3303 2159 3303 1684 
Q 3303 1175 3120 767 
Q 2938 359 2589 142 
Q 2241 -75 1856 -75 
Q 1575 -75 1351 44 
Q 1128 163 984 344 
L 984 -1272 
L 422 -1272 
z
M 931 1641 
Q 931 1000 1190 694 
Q 1450 388 1819 388 
Q 2194 388 2461 705 
Q 2728 1022 2728 1688 
Q 2728 2322 2467 2637 
Q 2206 2953 1844 2953 
Q 1484 2953 1207 2617 
Q 931 2281 931 1641 
z
" transform="scale(0.015625)"/>
      <path id="ArialMT-6f" d="M 213 1659 
Q 213 2581 725 3025 
Q 1153 3394 1769 3394 
Q 2453 3394 2887 2945 
Q 3322 2497 3322 1706 
Q 3322 1066 3130 698 
Q 2938 331 2570 128 
Q 2203 -75 1769 -75 
Q 1072 -75 642 372 
Q 213 819 213 1659 
z
M 791 1659 
Q 791 1022 1069 705 
Q 1347 388 1769 388 
Q 2188 388 2466 706 
Q 2744 1025 2744 1678 
Q 2744 2294 2464 2611 
Q 2184 2928 1769 2928 
Q 1347 2928 1069 2612 
Q 791 2297 791 1659 
z
" transform="scale(0.015625)"/>
      <path id="ArialMT-49" d="M 597 0 
L 597 4581 
L 1203 4581 
L 1203 0 
L 597 0 
z
" transform="scale(0.015625)"/>
      <path id="ArialMT-63" d="M 2588 1216 
L 3141 1144 
Q 3050 572 2676 248 
Q 2303 -75 1759 -75 
Q 1078 -75 664 370 
Q 250 816 250 1647 
Q 250 2184 428 2587 
Q 606 2991 970 3192 
Q 1334 3394 1763 3394 
Q 2303 3394 2647 3120 
Q 2991 2847 3088 2344 
L 2541 2259 
Q 2463 2594 2264 2762 
Q 2066 2931 1784 2931 
Q 1359 2931 1093 2626 
Q 828 2322 828 1663 
Q 828 994 1084 691 
Q 1341 388 1753 388 
Q 2084 388 2306 591 
Q 2528 794 2588 1216 
z
" transform="scale(0.015625)"/>
      <path id="ArialMT-62" d="M 941 0 
L 419 0 
L 419 4581 
L 981 4581 
L 981 2947 
Q 1338 3394 1891 3394 
Q 2197 3394 2470 3270 
Q 2744 3147 2920 2923 
Q 3097 2700 3197 2384 
Q 3297 2069 3297 1709 
Q 3297 856 2875 390 
Q 2453 -75 1863 -75 
Q 1275 -75 941 416 
L 941 0 
z
M 934 1684 
Q 934 1088 1097 822 
Q 1363 388 1816 388 
Q 2184 388 2453 708 
Q 2722 1028 2722 1663 
Q 2722 2313 2464 2622 
Q 2206 2931 1841 2931 
Q 1472 2931 1203 2611 
Q 934 2291 934 1684 
z
" transform="scale(0.015625)"/>
      <path id="ArialMT-53" d="M 288 1472 
L 859 1522 
Q 900 1178 1048 958 
Q 1197 738 1509 602 
Q 1822 466 2213 466 
Q 2559 466 2825 569 
Q 3091 672 3220 851 
Q 3350 1031 3350 1244 
Q 3350 1459 3225 1620 
Q 3100 1781 2813 1891 
Q 2628 1963 1997 2114 
Q 1366 2266 1113 2400 
Q 784 2572 623 2826 
Q 463 3081 463 3397 
Q 463 3744 659 4045 
Q 856 4347 1234 4503 
Q 1613 4659 2075 4659 
Q 2584 4659 2973 4495 
Q 3363 4331 3572 4012 
Q 3781 3694 3797 3291 
L 3216 3247 
Q 3169 3681 2898 3903 
Q 2628 4125 2100 4125 
Q 1550 4125 1298 3923 
Q 1047 3722 1047 3438 
Q 1047 3191 1225 3031 
Q 1400 2872 2139 2705 
Q 2878 2538 3153 2413 
Q 3553 2228 3743 1945 
Q 3934 1663 3934 1294 
Q 3934 928 3725 604 
Q 3516 281 3123 101 
Q 2731 -78 2241 -78 
Q 1619 -78 1198 103 
Q 778 284 539 648 
Q 300 1013 288 1472 
z
" transform="scale(0.015625)"/>
     </defs>
     <use xlink:href="#ArialMT-41"/>
     <use xlink:href="#ArialMT-6e" transform="translate(66.699219 0)"/>
     <use xlink:href="#ArialMT-6e" transform="translate(122.314453 0)"/>
     <use xlink:href="#ArialMT-75" transform="translate(177.929688 0)"/>
     <use xlink:href="#ArialMT-61" transform="translate(233.544922 0)"/>
     <use xlink:href="#ArialMT-6c" transform="translate(289.160156 0)"/>
     <use xlink:href="#ArialMT-20" transform="translate(311.376953 0)"/>
     <use xlink:href="#ArialMT-41" transform="translate(333.660156 0)"/>
     <use xlink:href="#ArialMT-67" transform="translate(400.359375 0)"/>
     <use xlink:href="#ArialMT-67" transform="translate(455.974609 0)"/>
     <use xlink:href="#ArialMT-72" transform="translate(511.589844 0)"/>
     <use xlink:href="#ArialMT-65" transform="translate(544.890625 0)"/>
     <use xlink:href="#ArialMT-67" transform="translate(600.505859 0)"/>
     <use xlink:href="#ArialMT-61" transform="translate(656.121094 0)"/>
     <use xlink:href="#ArialMT-74" transform="translate(711.736328 0)"/>
     <use xlink:href="#ArialMT-65" transform="translate(739.519531 0)"/>
     <use xlink:href="#ArialMT-20" transform="translate(795.134766 0)"/>
     <use xlink:href="#ArialMT-4f" transform="translate(822.917969 0)"/>
     <use xlink:href="#ArialMT-70" transform="translate(900.701172 0)"/>
     <use xlink:href="#ArialMT-65" transform="translate(956.316406 0)"/>
     <use xlink:href="#ArialMT-72" transform="translate(1011.931641 0)"/>
     <use xlink:href="#ArialMT-61" transform="translate(1045.232422 0)"/>
     <use xlink:href="#ArialMT-74" transform="translate(1100.847656 0)"/>
     <use xlink:href="#ArialMT-69" transform="translate(1128.630859 0)"/>
     <use xlink:href="#ArialMT-6f" transform="translate(1150.847656 0)"/>
     <use xlink:href="#ArialMT-6e" transform="translate(1206.462891 0)"/>
     <use xlink:href="#ArialMT-61" transform="translate(1262.078125 0)"/>
     <use xlink:href="#ArialMT-6c" transform="translate(1317.693359 0)"/>
     <use xlink:href="#ArialMT-20" transform="translate(1339.910156 0)"/>
     <use xlink:href="#ArialMT-49" transform="translate(1367.693359 0)"/>
     <use xlink:href="#ArialMT-6d" transform="translate(1395.476562 0)"/>
     <use xlink:href="#ArialMT-70" transform="translate(1478.777344 0)"/>
     <use xlink:href="#ArialMT-61" transform="translate(1534.392578 0)"/>
     <use xlink:href="#ArialMT-63" transform="translate(1590.007812 0)"/>
     <use xlink:href="#ArialMT-74" transform="translate(1640.007812 0)"/>
     <use xlink:href="#ArialMT-20" transform="translate(1667.791016 0)"/>
     <use xlink:href="#ArialMT-62" transform="translate(1695.574219 0)"/>
     <use xlink:href="#ArialMT-79" transform="translate(1751.189453 0)"/>
     <use xlink:href="#ArialMT-20" transform="translate(1801.189453 0)"/>
     <use xlink:href="#ArialMT-53" transform="translate(1828.972656 0)"/>
     <use xlink:href="#ArialMT-63" transform="translate(1895.671875 0)"/>
     <use xlink:href="#ArialMT-65" transform="translate(1945.671875 0)"/>
     <use xlink:href="#ArialMT-6e" transform="translate(2001.287109 0)"/>
     <use xlink:href="#ArialMT-61" transform="translate(2056.902344 0)"/>
     <use xlink:href="#ArialMT-72" transform="translate(2112.517578 0)"/>
     <use xlink:href="#ArialMT-69" transform="translate(2145.818359 0)"/>
     <use xlink:href="#ArialMT-6f" transform="translate(2168.035156 0)"/>
    </g>
   </g>
   <g id="legend_1">
    <g id="line2d_20">
     <path d="M 577.374844 35.866719 
L 588.374844 35.866719 
L 599.374844 35.866719 
" style="fill: none; stroke: #4c72b0; stroke-width: 2; stroke-linecap: round"/>
    </g>
    <g id="text_21">
     <!-- base -->
     <g style="fill: #3d405b" transform="translate(608.174844 39.716719) scale(0.11 -0.11)">
      <use xlink:href="#ArialMT-62"/>
      <use xlink:href="#ArialMT-61" transform="translate(55.615234 0)"/>
      <use xlink:href="#ArialMT-73" transform="translate(111.230469 0)"/>
      <use xlink:href="#ArialMT-65" transform="translate(161.230469 0)"/>
     </g>
    </g>
    <g id="line2d_21">
     <path d="M 577.374844 51.426563 
L 588.374844 51.426563 
L 599.374844 51.426563 
" style="fill: none; stroke: #dd8452; stroke-width: 2; stroke-linecap: round"/>
    </g>
    <g id="text_22">
     <!-- disruption_stress -->
     <g style="fill: #3d405b" transform="translate(608.174844 55.276563) scale(0.11 -0.11)">
      <defs>
       <path id="ArialMT-5f" d="M -97 -1272 
L -97 -866 
L 3631 -866 
L 3631 -1272 
L -97 -1272 
z
" transform="scale(0.015625)"/>
      </defs>
      <use xlink:href="#ArialMT-64"/>
      <use xlink:href="#ArialMT-69" transform="translate(55.615234 0)"/>
      <use xlink:href="#ArialMT-73" transform="translate(77.832031 0)"/>
      <use xlink:href="#ArialMT-72" transform="translate(127.832031 0)"/>
      <use xlink:href="#ArialMT-75" transform="translate(161.132812 0)"/>
      <use xlink:href="#ArialMT-70" transform="translate(216.748047 0)"/>
      <use xlink:href="#ArialMT-74" transform="translate(272.363281 0)"/>
      <use xlink:href="#ArialMT-69" transform="translate(300.146484 0)"/>
      <use xlink:href="#ArialMT-6f" transform="translate(322.363281 0)"/>
      <use xlink:href="#ArialMT-6e" transform="translate(377.978516 0)"/>
      <use xlink:href="#ArialMT-5f" transform="translate(433.59375 0)"/>
      <use xlink:href="#ArialMT-73" transform="translate(489.208984 0)"/>
      <use xlink:href="#ArialMT-74" transform="translate(539.208984 0)"/>
      <use xlink:href="#ArialMT-72" transform="translate(566.992188 0)"/>
      <use xlink:href="#ArialMT-65" transform="translate(600.292969 0)"/>
      <use xlink:href="#ArialMT-73" transform="translate(655.908203 0)"/>
      <use xlink:href="#ArialMT-73" transform="translate(705.908203 0)"/>
     </g>
    </g>
    <g id="line2d_22">
     <path d="M 577.374844 66.986406 
L 588.374844 66.986406 
L 599.374844 66.986406 
" style="fill: none; stroke: #55a868; stroke-width: 2; stroke-linecap: round"/>
    </g>
    <g id="text_23">
     <!-- holiday_peak -->
     <g style="fill: #3d405b" transform="translate(608.174844 70.836406) scale(0.11 -0.11)">
      <defs>
       <path id="ArialMT-68" d="M 422 0 
L 422 4581 
L 984 4581 
L 984 2938 
Q 1378 3394 1978 3394 
Q 2347 3394 2619 3248 
Q 2891 3103 3008 2847 
Q 3125 2591 3125 2103 
L 3125 0 
L 2563 0 
L 2563 2103 
Q 2563 2525 2380 2717 
Q 2197 2909 1863 2909 
Q 1613 2909 1392 2779 
Q 1172 2650 1078 2428 
Q 984 2206 984 1816 
L 984 0 
L 422 0 
z
" transform="scale(0.015625)"/>
       <path id="ArialMT-6b" d="M 425 0 
L 425 4581 
L 988 4581 
L 988 1969 
L 2319 3319 
L 3047 3319 
L 1778 2088 
L 3175 0 
L 2481 0 
L 1384 1697 
L 988 1316 
L 988 0 
L 425 0 
z
" transform="scale(0.015625)"/>
      </defs>
      <use xlink:href="#ArialMT-68"/>
      <use xlink:href="#ArialMT-6f" transform="translate(55.615234 0)"/>
      <use xlink:href="#ArialMT-6c" transform="translate(111.230469 0)"/>
      <use xlink:href="#ArialMT-69" transform="translate(133.447266 0)"/>
      <use xlink:href="#ArialMT-64" transform="translate(155.664062 0)"/>
      <use xlink:href="#ArialMT-61" transform="translate(211.279297 0)"/>
      <use xlink:href="#ArialMT-79" transform="translate(266.894531 0)"/>
      <use xlink:href="#ArialMT-5f" transform="translate(316.894531 0)"/>
      <use xlink:href="#ArialMT-70" transform="translate(372.509766 0)"/>
      <use xlink:href="#ArialMT-65" transform="translate(428.125 0)"/>
      <use xlink:href="#ArialMT-61" transform="translate(483.740234 0)"/>
      <use xlink:href="#ArialMT-6b" transform="translate(539.355469 0)"/>
     </g>
    </g>
    <g id="line2d_23">
     <path d="M 577.374844 82.675156 
L 588.374844 82.675156 
L 599.374844 82.675156 
" style="fill: none; stroke: #c44e52; stroke-width: 2; stroke-linecap: round"/>
    </g>
    <g id="text_24">
     <!-- weather_shock -->
     <g style="fill: #3d405b" transform="translate(608.174844 86.525156) scale(0.11 -0.11)">
      <defs>
       <path id="ArialMT-77" d="M 1034 0 
L 19 3319 
L 600 3319 
L 1128 1403 
L 1325 691 
Q 1338 744 1497 1375 
L 2025 3319 
L 2603 3319 
L 3100 1394 
L 3266 759 
L 3456 1400 
L 4025 3319 
L 4572 3319 
L 3534 0 
L 2950 0 
L 2422 1988 
L 2294 2553 
L 1622 0 
L 1034 0 
z
" transform="scale(0.015625)"/>
      </defs>
      <use xlink:href="#ArialMT-77"/>
      <use xlink:href="#ArialMT-65" transform="translate(72.216797 0)"/>
      <use xlink:href="#ArialMT-61" transform="translate(127.832031 0)"/>
      <use xlink:href="#ArialMT-74" transform="translate(183.447266 0)"/>
      <use xlink:href="#ArialMT-68" transform="translate(211.230469 0)"/>
      <use xlink:href="#ArialMT-65" transform="translate(266.845703 0)"/>
      <use xlink:href="#ArialMT-72" transform="translate(322.460938 0)"/>
      <use xlink:href="#ArialMT-5f" transform="translate(355.761719 0)"/>
      <use xlink:href="#ArialMT-73" transform="translate(411.376953 0)"/>
      <use xlink:href="#ArialMT-68" transform="translate(461.376953 0)"/>
      <use xlink:href="#ArialMT-6f" transform="translate(516.992188 0)"/>
      <use xlink:href="#ArialMT-63" transform="translate(572.607422 0)"/>
      <use xlink:href="#ArialMT-6b" transform="translate(622.607422 0)"/>
     </g>
    </g>
   </g>
  </g>
 </g>
 <defs>
  <clipPath id="pb81131a632">
   <rect x="47.105" y="21.943125" width="654.114375" height="356.59875"/>
  </clipPath>
 </defs>
</svg>
