<?xml version="1.0" encoding="utf-8" standalone="no"?>
<!DOCTYPE svg PUBLIC "-//W3C//DTD SVG 1.1//EN"
  "http://www.w3.org/Graphics/SVG/1.1/DTD/svg11.dtd">
<svg xmlns:xlink="http://www.w3.org/1999/xlink" width="708.72875pt" height="420.765469pt" viewBox="0 0 708.72875 420.765469" xmlns="http://www.w3.org/2000/svg" version="1.1">
 <metadata>
  <rdf:RDF xmlns:dc="http://purl.org/dc/elements/1.1/" xmlns:cc="http://creativecommons.org/ns#" xmlns:rdf="http://www.w3.org/1999/02/22-rdf-syntax-ns#">
   <cc:Work>
    <dc:type rdf:resource="http://purl.org/dc/dcmitype/StillImage"/>
    <dc:date>2026-04-23T16:57:02.811798</dc:date>
    <dc:format>image/svg+xml</dc:format>
    <dc:creator>
     <cc:Agent>
      <dc:title>Matplotlib v3.9.2, https://matplotlib.org/</dc:title>
     </cc:Agent>
    </dc:creator>
   </cc:Work>
  </rdf:RDF>
 </metadata>
 <defs>
  <style type="text/css">*{stroke-linejoin: round; stroke-linecap: butt}</style>
 </defs>
 <g id="figure_1">
  <g id="patch_1">
   <path d="M 0 420.765469 
L 708.72875 420.765469 
L 708.72875 0 
L 0 0 
z
" style="fill: #f6f2e8"/>
  </g>
  <g id="axes_1">
   <g id="patch_2">
    <path d="M 47.105 378.890625 
L 701.52875 378.890625 
L 701.52875 21.943125 
L 47.105 21.943125 
z
" style="fill: #f6f2e8"/>
   </g>
   <g id="matplotlib.axis_1">
    <g id="xtick_1">
     <g id="line2d_1">
      <path d="M 113.844099 378.890625 
L 113.844099 21.943125 
" clip-path="url(#p69228f4cfe)" style="fill: none; stroke: #d9d2c3; stroke-linecap: round"/>
     </g>
     <g id="text_1">
      <!-- 1.5 -->
      <g style="fill: #3d405b" transform="translate(106.199099 396.264219) scale(0.11 -0.11)">
       <defs>
        <path id="ArialMT-31" d="M 2384 0 
L 1822 0 
L 1822 3584 
Q 1619 3391 1289 3197 
Q 959 3003 697 2906 
L 697 3450 
Q 1169 3672 1522 3987 
Q 1875 4303 2022 4600 
L 2384 4600 
L 2384 0 
z
" transform="scale(0.015625)"/>
        <path id="ArialMT-2e" d="M 581 0 
L 581 641 
L 1222 641 
L 1222 0 
L 581 0 
z
" transform="scale(0.015625)"/>
        <path id="ArialMT-35" d="M 266 1200 
L 856 1250 
Q 922 819 1161 601 
Q 1400 384 1738 384 
Q 2144 384 2425 690 
Q 2706 997 2706 1503 
Q 2706 1984 2436 2262 
Q 2166 2541 1728 2541 
Q 1456 2541 1237 2417 
Q 1019 2294 894 2097 
L 366 2166 
L 809 4519 
L 3088 4519 
L 3088 3981 
L 1259 3981 
L 1013 2750 
Q 1425 3038 1878 3038 
Q 2478 3038 2890 2622 
Q 3303 2206 3303 1553 
Q 3303 931 2941 478 
Q 2500 -78 1738 -78 
Q 1113 -78 717 272 
Q 322 622 266 1200 
z
" transform="scale(0.015625)"/>
       </defs>
       <use xlink:href="#ArialMT-31"/>
       <use xlink:href="#ArialMT-2e" x="55.615234"/>
       <use xlink:href="#ArialMT-35" x="83.398438"/>
      </g>
     </g>
    </g>
    <g id="xtick_2">
     <g id="line2d_2">
      <path d="M 216.606641 378.890625 
L 216.606641 21.943125 
" clip-path="url(#p69228f4cfe)" style="fill: none; stroke: #d9d2c3; stroke-linecap: round"/>
     </g>
     <g id="text_2">
      <!-- 2.0 -->
      <g style="fill: #3d405b" transform="translate(208.961641 396.264219) scale(0.11 -0.11)">
       <defs>
        <path id="ArialMT-32" d="M 3222 541 
L 3222 0 
L 194 0 
Q 188 203 259 391 
Q 375 700 629 1000 
Q 884 1300 1366 1694 
Q 2113 2306 2375 2664 
Q 2638 3022 2638 3341 
Q 2638 3675 2398 3904 
Q 2159 4134 1775 4134 
Q 1369 4134 1125 3890 
Q 881 3647 878 3216 
L 300 3275 
Q 359 3922 746 4261 
Q 1134 4600 1788 4600 
Q 2447 4600 2831 4234 
Q 3216 3869 3216 3328 
Q 3216 3053 3103 2787 
Q 2991 2522 2730 2228 
Q 2469 1934 1863 1422 
Q 1356 997 1212 845 
Q 1069 694 975 541 
L 3222 541 
z
" transform="scale(0.015625)"/>
        <path id="ArialMT-30" d="M 266 2259 
Q 266 3072 433 3567 
Q 600 4063 929 4331 
Q 1259 4600 1759 4600 
Q 2128 4600 2406 4451 
Q 2684 4303 2865 4023 
Q 3047 3744 3150 3342 
Q 3253 2941 3253 2259 
Q 3253 1453 3087 958 
Q 2922 463 2592 192 
Q 2263 -78 1759 -78 
Q 1097 -78 719 397 
Q 266 969 266 2259 
z
M 844 2259 
Q 844 1131 1108 757 
Q 1372 384 1759 384 
Q 2147 384 2411 759 
Q 2675 1134 2675 2259 
Q 2675 3391 2411 3762 
Q 2147 4134 1753 4134 
Q 1366 4134 1134 3806 
Q 844 3388 844 2259 
z
" transform="scale(0.015625)"/>
       </defs>
       <use xlink:href="#ArialMT-32"/>
       <use xlink:href="#ArialMT-2e" x="55.615234"/>
       <use xlink:href="#ArialMT-30" x="83.398438"/>
      </g>
     </g>
    </g>
    <g id="xtick_3">
     <g id="line2d_3">
      <path d="M 319.369183 378.890625 
L 319.369183 21.943125 
" clip-path="url(#p69228f4cfe)" style="fill: none; stroke: #d9d2c3; stroke-linecap: round"/>
     </g>
     <g id="text_3">
      <!-- 2.5 -->
      <g style="fill: #3d405b" transform="translate(311.724183 396.264219) scale(0.11 -0.11)">
       <use xlink:href="#ArialMT-32"/>
       <use xlink:href="#ArialMT-2e" x="55.615234"/>
       <use xlink:href="#ArialMT-35" x="83.398438"/>
      </g>
     </g>
    </g>
    <g id="xtick_4">
     <g id="line2d_4">
      <path d="M 422.131724 378.890625 
L 422.131724 21.943125 
" clip-path="url(#p69228f4cfe)" style="fill: none; stroke: #d9d2c3; stroke-linecap: round"/>
     </g>
     <g id="text_4">
      <!-- 3.0 -->
      <g style="fill: #3d405b" transform="translate(414.486724 396.264219) scale(0.11 -0.11)">
       <defs>
        <path id="ArialMT-33" d="M 269 1209 
L 831 1284 
Q 928 806 1161 595 
Q 1394 384 1728 384 
Q 2125 384 2398 659 
Q 2672 934 2672 1341 
Q 2672 1728 2419 1979 
Q 2166 2231 1775 2231 
Q 1616 2231 1378 2169 
L 1441 2663 
Q 1497 2656 1531 2656 
Q 1891 2656 2178 2843 
Q 2466 3031 2466 3422 
Q 2466 3731 2256 3934 
Q 2047 4138 1716 4138 
Q 1388 4138 1169 3931 
Q 950 3725 888 3313 
L 325 3413 
Q 428 3978 793 4289 
Q 1159 4600 1703 4600 
Q 2078 4600 2393 4439 
Q 2709 4278 2876 4000 
Q 3044 3722 3044 3409 
Q 3044 3113 2884 2869 
Q 2725 2625 2413 2481 
Q 2819 2388 3044 2092 
Q 3269 1797 3269 1353 
Q 3269 753 2831 336 
Q 2394 -81 1725 -81 
Q 1122 -81 723 278 
Q 325 638 269 1209 
z
" transform="scale(0.015625)"/>
       </defs>
       <use xlink:href="#ArialMT-33"/>
       <use xlink:href="#ArialMT-2e" x="55.615234"/>
       <use xlink:href="#ArialMT-30" x="83.398438"/>
      </g>
     </g>
    </g>
    <g id="xtick_5">
     <g id="line2d_5">
      <path d="M 524.894266 378.890625 
L 524.894266 21.943125 
" clip-path="url(#p69228f4cfe)" style="fill: none; stroke: #d9d2c3; stroke-linecap: round"/>
     </g>
     <g id="text_5">
      <!-- 3.5 -->
      <g style="fill: #3d405b" transform="translate(517.249266 396.264219) scale(0.11 -0.11)">
       <use xlink:href="#ArialMT-33"/>
       <use xlink:href="#ArialMT-2e" x="55.615234"/>
       <use xlink:href="#ArialMT-35" x="83.398438"/>
      </g>
     </g>
    </g>
    <g id="xtick_6">
     <g id="line2d_6">
      <path d="M 627.656808 378.890625 
L 627.656808 21.943125 
" clip-path="url(#p69228f4cfe)" style="fill: none; stroke: #d9d2c3; stroke-linecap: round"/>
     </g>
     <g id="text_6">
      <!-- 4.0 -->
      <g style="fill: #3d405b" transform="translate(620.011808 396.264219) scale(0.11 -0.11)">
       <defs>
        <path id="ArialMT-34" d="M 2069 0 
L 2069 1097 
L 81 1097 
L 81 1613 
L 2172 4581 
L 2631 4581 
L 2631 1613 
L 3250 1613 
L 3250 1097 
L 2631 1097 
L 2631 0 
L 2069 0 
z
M 2069 1613 
L 2069 3678 
L 634 1613 
L 2069 1613 
z
" transform="scale(0.015625)"/>
       </defs>
       <use xlink:href="#ArialMT-34"/>
       <use xlink:href="#ArialMT-2e" x="55.615234"/>
       <use xlink:href="#ArialMT-30" x="83.398438"/>
      </g>
     </g>
    </g>
    <g id="text_7">
     <!-- Annual delay-equivalent minutes -->
     <g style="fill: #3d405b" transform="translate(287.600937 411.039844) scale(0.12 -0.12)">
      <defs>
       <path id="ArialMT-41" d="M -9 0 
L 1750 4581 
L 2403 4581 
L 4278 0 
L 3588 0 
L 3053 1388 
L 1138 1388 
L 634 0 
L -9 0 
z
M 1313 1881 
L 2866 1881 
L 2388 3150 
Q 2169 3728 2063 4100 
Q 1975 3659 1816 3225 
L 1313 1881 
z
" transform="scale(0.015625)"/>
       <path id="ArialMT-6e" d="M 422 0 
L 422 3319 
L 928 3319 
L 928 2847 
Q 1294 3394 1984 3394 
Q 2284 3394 2536 3286 
Q 2788 3178 2913 3003 
Q 3038 2828 3088 2588 
Q 3119 2431 3119 2041 
L 3119 0 
L 2556 0 
L 2556 2019 
Q 2556 2363 2490 2533 
Q 2425 2703 2258 2804 
Q 2091 2906 1866 2906 
Q 1506 2906 1245 2678 
Q 984 2450 984 1813 
L 984 0 
L 422 0 
z
" transform="scale(0.015625)"/>
       <path id="ArialMT-75" d="M 2597 0 
L 2597 488 
Q 2209 -75 1544 -75 
Q 1250 -75 995 37 
Q 741 150 617 320 
Q 494 491 444 738 
Q 409 903 409 1263 
L 409 3319 
L 972 3319 
L 972 1478 
Q 972 1038 1006 884 
Q 1059 663 1231 536 
Q 1403 409 1656 409 
Q 1909 409 2131 539 
Q 2353 669 2445 892 
Q 2538 1116 2538 1541 
L 2538 3319 
L 3100 3319 
L 3100 0 
L 2597 0 
z
" transform="scale(0.015625)"/>
       <path id="ArialMT-61" d="M 2588 409 
Q 2275 144 1986 34 
Q 1697 -75 1366 -75 
Q 819 -75 525 192 
Q 231 459 231 875 
Q 231 1119 342 1320 
Q 453 1522 633 1644 
Q 813 1766 1038 1828 
Q 1203 1872 1538 1913 
Q 2219 1994 2541 2106 
Q 2544 2222 2544 2253 
Q 2544 2597 2384 2738 
Q 2169 2928 1744 2928 
Q 1347 2928 1158 2789 
Q 969 2650 878 2297 
L 328 2372 
Q 403 2725 575 2942 
Q 747 3159 1072 3276 
Q 1397 3394 1825 3394 
Q 2250 3394 2515 3294 
Q 2781 3194 2906 3042 
Q 3031 2891 3081 2659 
Q 3109 2516 3109 2141 
L 3109 1391 
Q 3109 606 3145 398 
Q 3181 191 3288 0 
L 2700 0 
Q 2613 175 2588 409 
z
M 2541 1666 
Q 2234 1541 1622 1453 
Q 1275 1403 1131 1340 
Q 988 1278 909 1158 
Q 831 1038 831 891 
Q 831 666 1001 516 
Q 1172 366 1500 366 
Q 1825 366 2078 508 
Q 2331 650 2450 897 
Q 2541 1088 2541 1459 
L 2541 1666 
z
" transform="scale(0.015625)"/>
       <path id="ArialMT-6c" d="M 409 0 
L 409 4581 
L 972 4581 
L 972 0 
L 409 0 
z
" transform="scale(0.015625)"/>
       <path id="ArialMT-20" transform="scale(0.015625)"/>
       <path id="ArialMT-64" d="M 2575 0 
L 2575 419 
Q 2259 -75 1647 -75 
Q 1250 -75 917 144 
Q 584 363 401 755 
Q 219 1147 219 1656 
Q 219 2153 384 2558 
Q 550 2963 881 3178 
Q 1213 3394 1622 3394 
Q 1922 3394 2156 3267 
Q 2391 3141 2538 2938 
L 2538 4581 
L 3097 4581 
L 3097 0 
L 2575 0 
z
M 797 1656 
Q 797 1019 1065 703 
Q 1334 388 1700 388 
Q 2069 388 2326 689 
Q 2584 991 2584 1609 
Q 2584 2291 2321 2609 
Q 2059 2928 1675 2928 
Q 1300 2928 1048 2622 
Q 797 2316 797 1656 
z
" transform="scale(0.015625)"/>
       <path id="ArialMT-65" d="M 2694 1069 
L 3275 997 
Q 3138 488 2766 206 
Q 2394 -75 1816 -75 
Q 1088 -75 661 373 
Q 234 822 234 1631 
Q 234 2469 665 2931 
Q 1097 3394 1784 3394 
Q 2450 3394 2872 2941 
Q 3294 2488 3294 1666 
Q 3294 1616 3291 1516 
L 816 1516 
Q 847 969 1125 678 
Q 1403 388 1819 388 
Q 2128 388 2347 550 
Q 2566 713 2694 1069 
z
M 847 1978 
L 2700 1978 
Q 2663 2397 2488 2606 
Q 2219 2931 1791 2931 
Q 1403 2931 1139 2672 
Q 875 2413 847 1978 
z
" transform="scale(0.015625)"/>
       <path id="ArialMT-79" d="M 397 -1278 
L 334 -750 
Q 519 -800 656 -800 
Q 844 -800 956 -737 
Q 1069 -675 1141 -563 
Q 1194 -478 1313 -144 
Q 1328 -97 1363 -6 
L 103 3319 
L 709 3319 
L 1400 1397 
Q 1534 1031 1641 628 
Q 1738 1016 1872 1384 
L 2581 3319 
L 3144 3319 
L 1881 -56 
Q 1678 -603 1566 -809 
Q 1416 -1088 1222 -1217 
Q 1028 -1347 759 -1347 
Q 597 -1347 397 -1278 
z
" transform="scale(0.015625)"/>
       <path id="ArialMT-2d" d="M 203 1375 
L 203 1941 
L 1931 1941 
L 1931 1375 
L 203 1375 
z
" transform="scale(0.015625)"/>
       <path id="ArialMT-71" d="M 2538 -1272 
L 2538 353 
Q 2406 169 2170 47 
Q 1934 -75 1669 -75 
Q 1078 -75 651 397 
Q 225 869 225 1691 
Q 225 2191 398 2587 
Q 572 2984 901 3189 
Q 1231 3394 1625 3394 
Q 2241 3394 2594 2875 
L 2594 3319 
L 3100 3319 
L 3100 -1272 
L 2538 -1272 
z
M 803 1669 
Q 803 1028 1072 708 
Q 1341 388 1716 388 
Q 2075 388 2334 692 
Q 2594 997 2594 1619 
Q 2594 2281 2320 2615 
Q 2047 2950 1678 2950 
Q 1313 2950 1058 2639 
Q 803 2328 803 1669 
z
" transform="scale(0.015625)"/>
       <path id="ArialMT-69" d="M 425 3934 
L 425 4581 
L 988 4581 
L 988 3934 
L 425 3934 
z
M 425 0 
L 425 3319 
L 988 3319 
L 988 0 
L 425 0 
z
" transform="scale(0.015625)"/>
       <path id="ArialMT-76" d="M 1344 0 
L 81 3319 
L 675 3319 
L 1388 1331 
Q 1503 1009 1600 663 
Q 1675 925 1809 1294 
L 2547 3319 
L 3125 3319 
L 1869 0 
L 1344 0 
z
" transform="scale(0.015625)"/>
       <path id="ArialMT-74" d="M 1650 503 
L 1731 6 
Q 1494 -44 1306 -44 
Q 1000 -44 831 53 
Q 663 150 594 308 
Q 525 466 525 972 
L 525 2881 
L 113 2881 
L 113 3319 
L 525 3319 
L 525 4141 
L 1084 4478 
L 1084 3319 
L 1650 3319 
L 1650 2881 
L 1084 2881 
L 1084 941 
Q 1084 700 1114 631 
Q 1144 563 1211 522 
Q 1278 481 1403 481 
Q 1497 481 1650 503 
z
" transform="scale(0.015625)"/>
       <path id="ArialMT-6d" d="M 422 0 
L 422 3319 
L 925 3319 
L 925 2853 
Q 1081 3097 1340 3245 
Q 1600 3394 1931 3394 
Q 2300 3394 2536 3241 
Q 2772 3088 2869 2813 
Q 3263 3394 3894 3394 
Q 4388 3394 4653 3120 
Q 4919 2847 4919 2278 
L 4919 0 
L 4359 0 
L 4359 2091 
Q 4359 2428 4304 2576 
Q 4250 2725 4106 2815 
Q 3963 2906 3769 2906 
Q 3419 2906 3187 2673 
Q 2956 2441 2956 1928 
L 2956 0 
L 2394 0 
L 2394 2156 
Q 2394 2531 2256 2718 
Q 2119 2906 1806 2906 
Q 1569 2906 1367 2781 
Q 1166 2656 1075 2415 
Q 984 2175 984 1722 
L 984 0 
L 422 0 
z
" transform="scale(0.015625)"/>
       <path id="ArialMT-73" d="M 197 991 
L 753 1078 
Q 800 744 1014 566 
Q 1228 388 1613 388 
Q 2000 388 2187 545 
Q 2375 703 2375 916 
Q 2375 1106 2209 1216 
Q 2094 1291 1634 1406 
Q 1016 1563 777 1677 
Q 538 1791 414 1992 
Q 291 2194 291 2438 
Q 291 2659 392 2848 
Q 494 3038 669 3163 
Q 800 3259 1026 3326 
Q 1253 3394 1513 3394 
Q 1903 3394 2198 3281 
Q 2494 3169 2634 2976 
Q 2775 2784 2828 2463 
L 2278 2388 
Q 2241 2644 2061 2787 
Q 1881 2931 1553 2931 
Q 1166 2931 1000 2803 
Q 834 2675 834 2503 
Q 834 2394 903 2306 
Q 972 2216 1119 2156 
Q 1203 2125 1616 2013 
Q 2213 1853 2448 1751 
Q 2684 1650 2818 1456 
Q 2953 1263 2953 975 
Q 2953 694 2789 445 
Q 2625 197 2315 61 
Q 2006 -75 1616 -75 
Q 969 -75 630 194 
Q 291 463 197 991 
z
" transform="scale(0.015625)"/>
      </defs>
      <use xlink:href="#ArialMT-41"/>
      <use xlink:href="#ArialMT-6e" x="66.699219"/>
      <use xlink:href="#ArialMT-6e" x="122.314453"/>
      <use xlink:href="#ArialMT-75" x="177.929688"/>
      <use xlink:href="#ArialMT-61" x="233.544922"/>
      <use xlink:href="#ArialMT-6c" x="289.160156"/>
      <use xlink:href="#ArialMT-20" x="311.376953"/>
      <use xlink:href="#ArialMT-64" x="339.160156"/>
      <use xlink:href="#ArialMT-65" x="394.775391"/>
      <use xlink:href="#ArialMT-6c" x="450.390625"/>
      <use xlink:href="#ArialMT-61" x="472.607422"/>
      <use xlink:href="#ArialMT-79" x="528.222656"/>
      <use xlink:href="#ArialMT-2d" x="578.222656"/>
      <use xlink:href="#ArialMT-65" x="611.523438"/>
      <use xlink:href="#ArialMT-71" x="667.138672"/>
      <use xlink:href="#ArialMT-75" x="722.753906"/>
      <use xlink:href="#ArialMT-69" x="778.369141"/>
      <use xlink:href="#ArialMT-76" x="800.585938"/>
      <use xlink:href="#ArialMT-61" x="850.585938"/>
      <use xlink:href="#ArialMT-6c" x="906.201172"/>
      <use xlink:href="#ArialMT-65" x="928.417969"/>
      <use xlink:href="#ArialMT-6e" x="984.033203"/>
      <use xlink:href="#ArialMT-74" x="1039.648438"/>
      <use xlink:href="#ArialMT-20" x="1067.431641"/>
      <use xlink:href="#ArialMT-6d" x="1095.214844"/>
      <use xlink:href="#ArialMT-69" x="1178.515625"/>
      <use xlink:href="#ArialMT-6e" x="1200.732422"/>
      <use xlink:href="#ArialMT-75" x="1256.347656"/>
      <use xlink:href="#ArialMT-74" x="1311.962891"/>
      <use xlink:href="#ArialMT-65" x="1339.746094"/>
      <use xlink:href="#ArialMT-73" x="1395.361328"/>
     </g>
    </g>
    <g id="text_8">
     <!-- 1e6 -->
     <g style="fill: #3d405b" transform="translate(683.177656 409.324062) scale(0.11 -0.11)">
      <defs>
       <path id="ArialMT-36" d="M 3184 3459 
L 2625 3416 
Q 2550 3747 2413 3897 
Q 2184 4138 1850 4138 
Q 1581 4138 1378 3988 
Q 1113 3794 959 3422 
Q 806 3050 800 2363 
Q 1003 2672 1297 2822 
Q 1591 2972 1913 2972 
Q 2475 2972 2870 2558 
Q 3266 2144 3266 1488 
Q 3266 1056 3080 686 
Q 2894 316 2569 119 
Q 2244 -78 1831 -78 
Q 1128 -78 684 439 
Q 241 956 241 2144 
Q 241 3472 731 4075 
Q 1159 4600 1884 4600 
Q 2425 4600 2770 4297 
Q 3116 3994 3184 3459 
z
M 888 1484 
Q 888 1194 1011 928 
Q 1134 663 1356 523 
Q 1578 384 1822 384 
Q 2178 384 2434 671 
Q 2691 959 2691 1453 
Q 2691 1928 2437 2201 
Q 2184 2475 1800 2475 
Q 1419 2475 1153 2201 
Q 888 1928 888 1484 
z
" transform="scale(0.015625)"/>
      </defs>
      <use xlink:href="#ArialMT-31"/>
      <use xlink:href="#ArialMT-65" x="55.615234"/>
      <use xlink:href="#ArialMT-36" x="111.230469"/>
     </g>
    </g>
   </g>
   <g id="matplotlib.axis_2">
    <g id="ytick_1">
     <g id="line2d_7">
      <path d="M 47.105 378.890625 
L 701.52875 378.890625 
" clip-path="url(#p69228f4cfe)" style="fill: none; stroke: #d9d2c3; stroke-linecap: round"/>
     </g>
     <g id="text_9">
      <!-- 0.0 -->
      <g style="fill: #3d405b" transform="translate(22.315 382.827422) scale(0.11 -0.11)">
       <use xlink:href="#ArialMT-30"/>
       <use xlink:href="#ArialMT-2e" x="55.615234"/>
       <use xlink:href="#ArialMT-30" x="83.398438"/>
      </g>
     </g>
    </g>
    <g id="ytick_2">
     <g id="line2d_8">
      <path d="M 47.105 336.149929 
L 701.52875 336.149929 
" clip-path="url(#p69228f4cfe)" style="fill: none; stroke: #d9d2c3; stroke-linecap: round"/>
     </g>
     <g id="text_10">
      <!-- 0.2 -->
      <g style="fill: #3d405b" transform="translate(22.315 340.086726) scale(0.11 -0.11)">
       <use xlink:href="#ArialMT-30"/>
       <use xlink:href="#ArialMT-2e" x="55.615234"/>
       <use xlink:href="#ArialMT-32" x="83.398438"/>
      </g>
     </g>
    </g>
    <g id="ytick_3">
     <g id="line2d_9">
      <path d="M 47.105 293.409233 
L 701.52875 293.409233 
" clip-path="url(#p69228f4cfe)" style="fill: none; stroke: #d9d2c3; stroke-linecap: round"/>
     </g>
     <g id="text_11">
      <!-- 0.4 -->
      <g style="fill: #3d405b" transform="translate(22.315 297.34603) scale(0.11 -0.11)">
       <use xlink:href="#ArialMT-30"/>
       <use xlink:href="#ArialMT-2e" x="55.615234"/>
       <use xlink:href="#ArialMT-34" x="83.398438"/>
      </g>
     </g>
    </g>
    <g id="ytick_4">
     <g id="line2d_10">
      <path d="M 47.105 250.668537 
L 701.52875 250.668537 
" clip-path="url(#p69228f4cfe)" style="fill: none; stroke: #d9d2c3; stroke-linecap: round"/>
     </g>
     <g id="text_12">
      <!-- 0.6 -->
      <g style="fill: #3d405b" transform="translate(22.315 254.605333) scale(0.11 -0.11)">
       <use xlink:href="#ArialMT-30"/>
       <use xlink:href="#ArialMT-2e" x="55.615234"/>
       <use xlink:href="#ArialMT-36" x="83.398438"/>
      </g>
     </g>
    </g>
    <g id="ytick_5">
     <g id="line2d_11">
      <path d="M 47.105 207.92784 
L 701.52875 207.92784 
" clip-path="url(#p69228f4cfe)" style="fill: none; stroke: #d9d2c3; stroke-linecap: round"/>
     </g>
     <g id="text_13">
      <!-- 0.8 -->
      <g style="fill: #3d405b" transform="translate(22.315 211.864637) scale(0.11 -0.11)">
       <defs>
        <path id="ArialMT-38" d="M 1131 2484 
Q 781 2613 612 2850 
Q 444 3088 444 3419 
Q 444 3919 803 4259 
Q 1163 4600 1759 4600 
Q 2359 4600 2725 4251 
Q 3091 3903 3091 3403 
Q 3091 3084 2923 2848 
Q 2756 2613 2416 2484 
Q 2838 2347 3058 2040 
Q 3278 1734 3278 1309 
Q 3278 722 2862 322 
Q 2447 -78 1769 -78 
Q 1091 -78 675 323 
Q 259 725 259 1325 
Q 259 1772 486 2073 
Q 713 2375 1131 2484 
z
M 1019 3438 
Q 1019 3113 1228 2906 
Q 1438 2700 1772 2700 
Q 2097 2700 2305 2904 
Q 2513 3109 2513 3406 
Q 2513 3716 2298 3927 
Q 2084 4138 1766 4138 
Q 1444 4138 1231 3931 
Q 1019 3725 1019 3438 
z
M 838 1322 
Q 838 1081 952 856 
Q 1066 631 1291 507 
Q 1516 384 1775 384 
Q 2178 384 2440 643 
Q 2703 903 2703 1303 
Q 2703 1709 2433 1975 
Q 2163 2241 1756 2241 
Q 1359 2241 1098 1978 
Q 838 1716 838 1322 
z
" transform="scale(0.015625)"/>
       </defs>
       <use xlink:href="#ArialMT-30"/>
       <use xlink:href="#ArialMT-2e" x="55.615234"/>
       <use xlink:href="#ArialMT-38" x="83.398438"/>
      </g>
     </g>
    </g>
    <g id="ytick_6">
     <g id="line2d_12">
      <path d="M 47.105 165.187144 
L 701.52875 165.187144 
" clip-path="url(#p69228f4cfe)" style="fill: none; stroke: #d9d2c3; stroke-linecap: round"/>
     </g>
     <g id="text_14">
      <!-- 1.0 -->
      <g style="fill: #3d405b" transform="translate(22.315 169.123941) scale(0.11 -0.11)">
       <use xlink:href="#ArialMT-31"/>
       <use xlink:href="#ArialMT-2e" x="55.615234"/>
       <use xlink:href="#ArialMT-30" x="83.398438"/>
      </g>
     </g>
    </g>
    <g id="ytick_7">
     <g id="line2d_13">
      <path d="M 47.105 122.446448 
L 701.52875 122.446448 
" clip-path="url(#p69228f4cfe)" style="fill: none; stroke: #d9d2c3; stroke-linecap: round"/>
     </g>
     <g id="text_15">
      <!-- 1.2 -->
      <g style="fill: #3d405b" transform="translate(22.315 126.383245) scale(0.11 -0.11)">
       <use xlink:href="#ArialMT-31"/>
       <use xlink:href="#ArialMT-2e" x="55.615234"/>
       <use xlink:href="#ArialMT-32" x="83.398438"/>
      </g>
     </g>
    </g>
    <g id="ytick_8">
     <g id="line2d_14">
      <path d="M 47.105 79.705752 
L 701.52875 79.705752 
" clip-path="url(#p69228f4cfe)" style="fill: none; stroke: #d9d2c3; stroke-linecap: round"/>
     </g>
     <g id="text_16">
      <!-- 1.4 -->
      <g style="fill: #3d405b" transform="translate(22.315 83.642549) scale(0.11 -0.11)">
       <use xlink:href="#ArialMT-31"/>
       <use xlink:href="#ArialMT-2e" x="55.615234"/>
       <use xlink:href="#ArialMT-34" x="83.398438"/>
      </g>
     </g>
    </g>
    <g id="ytick_9">
     <g id="line2d_15">
      <path d="M 47.105 36.965056 
L 701.52875 36.965056 
" clip-path="url(#p69228f4cfe)" style="fill: none; stroke: #d9d2c3; stroke-linecap: round"/>
     </g>
     <g id="text_17">
      <!-- 1.6 -->
      <g style="fill: #3d405b" transform="translate(22.315 40.901853) scale(0.11 -0.11)">
       <use xlink:href="#ArialMT-31"/>
       <use xlink:href="#ArialMT-2e" x="55.615234"/>
       <use xlink:href="#ArialMT-36" x="83.398438"/>
      </g>
     </g>
    </g>
    <g id="text_18">
     <!-- Density -->
     <g style="fill: #3d405b" transform="translate(15.789375 220.423125) rotate(-90) scale(0.12 -0.12)">
      <defs>
       <path id="ArialMT-44" d="M 494 0 
L 494 4581 
L 2072 4581 
Q 2606 4581 2888 4516 
Q 3281 4425 3559 4188 
Q 3922 3881 4101 3404 
Q 4281 2928 4281 2316 
Q 4281 1794 4159 1391 
Q 4038 988 3847 723 
Q 3656 459 3429 307 
Q 3203 156 2883 78 
Q 2563 0 2147 0 
L 494 0 
z
M 1100 541 
L 2078 541 
Q 2531 541 2789 625 
Q 3047 709 3200 863 
Q 3416 1078 3536 1442 
Q 3656 1806 3656 2325 
Q 3656 3044 3420 3430 
Q 3184 3816 2847 3947 
Q 2603 4041 2063 4041 
L 1100 4041 
L 1100 541 
z
" transform="scale(0.015625)"/>
      </defs>
      <use xlink:href="#ArialMT-44"/>
      <use xlink:href="#ArialMT-65" x="72.216797"/>
      <use xlink:href="#ArialMT-6e" x="127.832031"/>
      <use xlink:href="#ArialMT-73" x="183.447266"/>
      <use xlink:href="#ArialMT-69" x="233.447266"/>
      <use xlink:href="#ArialMT-74" x="255.664062"/>
      <use xlink:href="#ArialMT-79" x="283.447266"/>
     </g>
    </g>
    <g id="text_19">
     <!-- 1e−6 -->
     <g style="fill: #3d405b" transform="translate(47.105 18.943125) scale(0.11 -0.11)">
      <defs>
       <path id="ArialMT-2212" d="M 3381 1997 
L 356 1997 
L 356 2522 
L 3381 2522 
L 3381 1997 
z
" transform="scale(0.015625)"/>
      </defs>
      <use xlink:href="#ArialMT-31"/>
      <use xlink:href="#ArialMT-65" x="55.615234"/>
      <use xlink:href="#ArialMT-2212" x="111.230469"/>
      <use xlink:href="#ArialMT-36" x="169.628906"/>
     </g>
    </g>
   </g>
   <g id="line2d_16">
    <path d="M 76.851534 378.889974 
L 117.668849 378.781946 
L 124.871904 378.553144 
L 129.673941 378.190791 
L 134.475978 377.637827 
L 139.278015 376.848012 
L 141.679034 376.308511 
L 144.080052 375.636903 
L 146.481071 374.823943 
L 151.283108 372.863543 
L 156.085145 370.64333 
L 158.486163 369.369916 
L 160.887182 367.861991 
L 163.2882 366.028687 
L 165.689219 363.831379 
L 168.090237 361.284305 
L 170.491256 358.418658 
L 172.892274 355.241965 
L 175.293293 351.725076 
L 177.694311 347.824546 
L 180.09533 343.523107 
L 182.496348 338.864098 
L 192.100422 319.013211 
L 194.501441 313.815716 
L 196.902459 308.057859 
L 199.303478 301.432666 
L 201.704496 293.848189 
L 206.506533 276.817724 
L 211.30857 259.733736 
L 216.110607 242.547847 
L 218.511626 233.050861 
L 220.912644 222.750026 
L 230.516718 179.774277 
L 237.719774 149.102683 
L 242.521811 129.963407 
L 256.927922 76.306459 
L 259.32894 67.774795 
L 261.729959 60.107258 
L 264.130977 53.574112 
L 266.531996 48.282351 
L 268.933014 44.227799 
L 271.334033 41.362345 
L 273.735051 39.624763 
L 276.13607 38.940597 
L 278.537088 39.209558 
L 280.938107 40.284784 
L 283.339125 41.95804 
L 285.740144 43.989594 
L 288.141162 46.211852 
L 290.542181 48.664563 
L 292.943199 51.628877 
L 295.344218 55.449862 
L 297.745236 60.244948 
L 300.146255 65.782932 
L 304.948292 77.722147 
L 307.34931 83.951021 
L 309.750329 90.550207 
L 312.151347 97.661292 
L 314.552366 105.313855 
L 319.354403 121.75353 
L 324.15644 138.157819 
L 336.161532 177.698258 
L 348.166625 218.747278 
L 352.968662 234.470724 
L 357.770699 249.613246 
L 360.171718 256.958099 
L 362.572736 263.930527 
L 364.973755 270.352049 
L 367.374773 276.215357 
L 376.978847 298.252317 
L 381.780884 309.844837 
L 384.181903 315.3454 
L 386.582921 320.320956 
L 388.98394 324.649331 
L 391.384958 328.381684 
L 393.785977 331.686488 
L 398.588014 337.676005 
L 408.192088 349.317267 
L 412.994125 355.227988 
L 415.395143 357.826802 
L 417.796162 359.937915 
L 420.19718 361.496606 
L 422.598199 362.601007 
L 427.400236 364.337532 
L 429.801254 365.365833 
L 432.202273 366.592356 
L 439.405328 370.560071 
L 441.806347 371.60244 
L 444.207365 372.414116 
L 446.608384 373.024852 
L 451.410421 373.915377 
L 456.212458 374.786843 
L 465.816532 376.768312 
L 470.618569 377.281963 
L 487.425698 378.167993 
L 523.440976 378.572642 
L 535.446068 378.767451 
L 554.654216 378.889928 
L 554.654216 378.889928 
" clip-path="url(#p69228f4cfe)" style="fill: none; stroke: #4c72b0; stroke-width: 2; stroke-linecap: round"/>
   </g>
   <g id="line2d_17">
    <path d="M 117.583568 378.890043 
L 136.341013 378.79086 
L 147.059552 378.499801 
L 168.496632 377.546346 
L 173.855902 376.956438 
L 176.535536 376.529543 
L 179.215171 375.975661 
L 181.894806 375.257843 
L 184.574441 374.355565 
L 187.254076 373.280341 
L 192.613346 370.761789 
L 195.292981 369.359931 
L 197.972616 367.828817 
L 200.652251 366.11678 
L 203.331886 364.19412 
L 206.01152 362.069553 
L 208.691155 359.767994 
L 211.37079 357.288914 
L 214.050425 354.583683 
L 216.73006 351.571242 
L 219.409695 348.174146 
L 222.08933 344.343467 
L 224.768965 340.063979 
L 227.4486 335.355854 
L 230.128235 330.281697 
L 235.487505 319.440058 
L 240.846774 307.999998 
L 243.526409 301.838394 
L 246.206044 295.18552 
L 248.885679 288.023963 
L 259.604219 257.633643 
L 262.283854 249.815617 
L 264.963489 241.61114 
L 283.720933 181.551878 
L 289.080203 162.924381 
L 294.439473 143.700907 
L 297.119108 134.70785 
L 299.798742 126.619347 
L 302.478377 119.683235 
L 305.158012 113.955281 
L 307.837647 109.28126 
L 310.517282 105.366414 
L 313.196917 101.89831 
L 318.556187 95.56773 
L 321.235822 92.71774 
L 323.915457 90.299036 
L 326.595092 88.520517 
L 329.274727 87.521277 
L 331.954361 87.355079 
L 334.633996 88.023722 
L 337.313631 89.47229 
L 339.993266 91.529218 
L 345.352536 96.24607 
L 350.711806 100.697438 
L 353.391441 103.312021 
L 356.071076 106.622081 
L 358.750711 110.708345 
L 361.430345 115.415606 
L 364.10998 120.533642 
L 366.789615 125.986124 
L 369.46925 131.861764 
L 372.148885 138.275424 
L 377.508155 152.363546 
L 380.18779 159.421768 
L 382.867425 166.065289 
L 385.54706 172.20626 
L 393.585964 189.669148 
L 396.265599 196.079519 
L 398.945234 203.06492 
L 401.624869 210.619602 
L 409.663774 234.499823 
L 412.343409 241.827123 
L 415.023044 248.585836 
L 423.061948 267.715786 
L 428.421218 281.711478 
L 431.100853 288.763067 
L 433.780488 295.354356 
L 436.460123 301.235826 
L 439.139758 306.384983 
L 441.819393 310.954144 
L 444.499028 315.132396 
L 447.178663 319.024847 
L 449.858298 322.625108 
L 452.537933 325.885434 
L 455.217567 328.816494 
L 468.615742 342.5123 
L 473.975012 347.876208 
L 476.654647 350.329946 
L 479.334282 352.598589 
L 482.013917 354.657193 
L 484.693551 356.490008 
L 487.373186 358.112315 
L 492.732456 360.960275 
L 506.130631 367.776282 
L 508.810266 368.904918 
L 514.169536 370.744713 
L 519.528805 372.27256 
L 524.888075 373.586763 
L 530.247345 374.600315 
L 535.606615 375.309774 
L 540.965885 375.775382 
L 559.723329 377.189208 
L 567.762234 377.801139 
L 573.121504 377.995015 
L 599.917853 378.425248 
L 610.636392 378.728035 
L 618.675297 378.727885 
L 629.393837 378.686326 
L 650.830916 378.88942 
L 650.830916 378.88942 
" clip-path="url(#p69228f4cfe)" style="fill: none; stroke: #dd8452; stroke-width: 2; stroke-linecap: round"/>
   </g>
   <g id="line2d_18">
    <path d="M 134.262127 378.889823 
L 150.468763 378.774168 
L 166.675399 378.377029 
L 172.077611 378.093065 
L 180.180929 377.368444 
L 188.284247 376.425751 
L 193.686459 375.499235 
L 199.088671 374.242908 
L 204.490883 372.660708 
L 207.191989 371.672453 
L 209.893095 370.455516 
L 212.594201 368.934459 
L 215.295307 367.064125 
L 217.996413 364.829081 
L 220.697519 362.223049 
L 223.398625 359.238998 
L 226.09973 355.884865 
L 228.800836 352.206393 
L 234.203048 344.261389 
L 239.60526 336.28354 
L 245.007472 328.410115 
L 247.708578 324.08139 
L 250.409684 319.172049 
L 253.11079 313.578461 
L 255.811896 307.374037 
L 261.214108 293.90403 
L 266.61632 279.708636 
L 269.317426 272.146142 
L 272.018532 264.101507 
L 274.719638 255.553675 
L 280.12185 237.320432 
L 296.328486 180.860446 
L 304.431804 150.428219 
L 307.13291 141.153437 
L 309.834016 132.9444 
L 312.535122 125.957871 
L 315.236228 120.061839 
L 328.741757 94.040697 
L 331.442863 89.974086 
L 334.143969 87.042711 
L 336.845075 85.174195 
L 339.546181 84.156889 
L 342.247287 83.769911 
L 344.948393 83.810546 
L 347.649499 84.112731 
L 350.350605 84.613184 
L 353.051711 85.378766 
L 355.752817 86.516522 
L 358.453923 88.05445 
L 361.155029 89.949995 
L 363.856135 92.228374 
L 366.557241 95.073812 
L 369.258347 98.735965 
L 371.959453 103.331588 
L 374.660559 108.754203 
L 377.361665 114.785404 
L 380.062771 121.265539 
L 385.464983 135.2716 
L 407.073831 193.210576 
L 412.476043 207.032229 
L 415.177149 214.366321 
L 425.981572 245.029454 
L 431.383784 258.98442 
L 436.785996 272.388281 
L 439.487102 278.752186 
L 442.188208 284.790002 
L 447.59042 296.131553 
L 452.992632 307.080415 
L 455.693738 312.355065 
L 458.394844 317.340008 
L 461.09595 321.926468 
L 463.797056 326.04982 
L 466.498162 329.709857 
L 469.199268 332.996475 
L 477.302586 342.174145 
L 480.003692 345.152824 
L 482.704798 347.894622 
L 485.405904 350.284993 
L 488.10701 352.325742 
L 493.509222 355.774974 
L 501.61254 360.454791 
L 507.014752 363.362237 
L 512.416964 365.98682 
L 515.11807 367.095974 
L 520.520281 368.909995 
L 534.025811 372.799329 
L 539.428023 374.193115 
L 547.531341 375.976458 
L 552.933553 377.038735 
L 555.634659 377.437815 
L 558.335765 377.705081 
L 563.737977 377.901171 
L 577.243507 378.022745 
L 593.450143 378.270361 
L 609.656779 378.376001 
L 620.461202 378.748212 
L 636.667838 378.808821 
L 660.977792 378.852541 
L 671.782216 378.889696 
L 671.782216 378.889696 
" clip-path="url(#p69228f4cfe)" style="fill: none; stroke: #55a868; stroke-width: 2; stroke-linecap: round"/>
   </g>
   <g id="line2d_19">
    <path d="M 106.731914 378.889568 
L 124.170531 378.762387 
L 134.135456 378.597837 
L 144.10038 378.0852 
L 154.065304 377.516774 
L 159.047766 376.964847 
L 161.538997 376.509858 
L 164.030228 375.881917 
L 166.521459 375.058619 
L 171.503921 372.961458 
L 176.486383 370.794734 
L 181.468845 368.6894 
L 183.960077 367.402294 
L 186.451308 365.774101 
L 188.942539 363.719813 
L 191.43377 361.228769 
L 193.925001 358.355027 
L 196.416232 355.181248 
L 198.907463 351.772844 
L 201.398694 348.142552 
L 203.889925 344.239134 
L 206.381156 339.960304 
L 208.872387 335.177719 
L 211.363618 329.761835 
L 213.854849 323.606823 
L 216.34608 316.664344 
L 218.837311 308.984689 
L 223.819773 292.194609 
L 231.293466 266.748948 
L 236.275929 249.818795 
L 241.258391 231.992943 
L 246.240853 212.744272 
L 251.223315 192.097907 
L 261.188239 149.612675 
L 268.661932 116.497076 
L 271.153163 106.301142 
L 273.644394 97.324769 
L 276.135625 89.90229 
L 278.626856 84.047755 
L 281.118087 79.418269 
L 288.591781 67.613827 
L 291.083012 63.251164 
L 296.065474 54.143346 
L 298.556705 50.21225 
L 301.047936 47.465387 
L 303.539167 46.412979 
L 306.030398 47.219758 
L 308.521629 49.564121 
L 311.01286 52.769671 
L 315.995322 59.395101 
L 318.486553 62.562296 
L 320.977784 66.016573 
L 323.469015 70.098734 
L 325.960246 74.918062 
L 328.451477 80.327677 
L 330.942708 86.117992 
L 333.433939 92.275411 
L 335.92517 99.04272 
L 338.416402 106.676134 
L 343.398864 123.94598 
L 345.890095 132.604748 
L 348.381326 140.786919 
L 358.34625 171.93978 
L 360.837481 180.496922 
L 365.819943 198.950049 
L 370.802405 217.299061 
L 373.293636 225.640318 
L 375.784867 233.331873 
L 380.767329 247.452966 
L 390.732254 274.924111 
L 393.223485 281.383042 
L 395.714716 287.385199 
L 398.205947 292.901389 
L 400.697178 298.002526 
L 405.67964 307.50829 
L 410.662102 316.557513 
L 413.153333 320.729559 
L 415.644564 324.559945 
L 428.100719 342.272234 
L 430.59195 345.619047 
L 433.083181 348.627721 
L 435.574412 351.293978 
L 440.556874 356.001443 
L 445.539337 360.253698 
L 448.030568 362.095116 
L 450.521799 363.657397 
L 453.01303 364.934743 
L 455.504261 365.978146 
L 460.486723 367.695898 
L 470.451647 370.84094 
L 475.434109 372.194513 
L 480.416571 373.346937 
L 490.381495 375.290259 
L 497.855189 376.541864 
L 502.837651 377.19359 
L 507.820113 377.614204 
L 515.293806 377.890797 
L 532.732423 378.329823 
L 542.697347 378.658916 
L 560.135965 378.804815 
L 580.065813 378.844056 
L 597.504431 378.885402 
L 602.486893 378.88999 
L 602.486893 378.88999 
" clip-path="url(#p69228f4cfe)" style="fill: none; stroke: #c44e52; stroke-width: 2; stroke-linecap: round"/>
   </g>
   <g id="patch_3">
    <path d="M 47.105 378.890625 
L 47.105 21.943125 
" style="fill: none; stroke: #d9d2c3; stroke-width: 1.25; stroke-linejoin: miter; stroke-linecap: square"/>
   </g>
   <g id="patch_4">
    <path d="M 701.52875 378.890625 
L 701.52875 21.943125 
" style="fill: none; stroke: #d9d2c3; stroke-width: 1.25; stroke-linejoin: miter; stroke-linecap: square"/>
   </g>
   <g id="patch_5">
    <path d="M 47.105 378.890625 
L 701.52875 378.890625 
" style="fill: none; stroke: #d9d2c3; stroke-width: 1.25; stroke-linejoin: miter; stroke-linecap: square"/>
   </g>
   <g id="patch_6">
    <path d="M 47.105 21.943125 
L 701.52875 21.943125 
" style="fill: none; stroke: #d9d2c3; stroke-width: 1.25; stroke-linejoin: miter; stroke-linecap: square"/>
   </g>
   <g id="text_20">
    <!-- Annual Aggregate Operational Impact by Scenario -->
    <g style="fill: #3d405b" transform="translate(240.906875 15.943125) scale(0.12 -0.12)">
     <defs>
      <path id="ArialMT-67" d="M 319 -275 
L 866 -356 
Q 900 -609 1056 -725 
Q 1266 -881 1628 -881 
Q 2019 -881 2231 -725 
Q 2444 -569 2519 -288 
Q 2563 -116 2559 434 
Q 2191 0 1641 0 
Q 956 0 581 494 
Q 206 988 206 1678 
Q 206 2153 378 2554 
Q 550 2956 876 3175 
Q 1203 3394 1644 3394 
Q 2231 3394 2613 2919 
L 2613 3319 
L 3131 3319 
L 3131 450 
Q 3131 -325 2973 -648 
Q 2816 -972 2473 -1159 
Q 2131 -1347 1631 -1347 
Q 1038 -1347 672 -1080 
Q 306 -813 319 -275 
z
M 784 1719 
Q 784 1066 1043 766 
Q 1303 466 1694 466 
Q 2081 466 2343 764 
Q 2606 1063 2606 1700 
Q 2606 2309 2336 2618 
Q 2066 2928 1684 2928 
Q 1309 2928 1046 2623 
Q 784 2319 784 1719 
z
" transform="scale(0.015625)"/>
      <path id="ArialMT-72" d="M 416 0 
L 416 3319 
L 922 3319 
L 922 2816 
Q 1116 3169 1280 3281 
Q 1444 3394 1641 3394 
Q 1925 3394 2219 3213 
L 2025 2691 
Q 1819 2813 1613 2813 
Q 1428 2813 1281 2702 
Q 1134 2591 1072 2394 
Q 978 2094 978 1738 
L 978 0 
L 416 0 
z
" transform="scale(0.015625)"/>
      <path id="ArialMT-4f" d="M 309 2231 
Q 309 3372 921 4017 
Q 1534 4663 2503 4663 
Q 3138 4663 3647 4359 
Q 4156 4056 4423 3514 
Q 4691 2972 4691 2284 
Q 4691 1588 4409 1038 
Q 4128 488 3612 205 
Q 3097 -78 2500 -78 
Q 1853 -78 1343 234 
Q 834 547 571 1087 
Q 309 1628 309 2231 
z
M 934 2222 
Q 934 1394 1379 917 
Q 1825 441 2497 441 
Q 3181 441 3623 922 
Q 4066 1403 4066 2288 
Q 4066 2847 3877 3264 
Q 3688 3681 3323 3911 
Q 2959 4141 2506 4141 
Q 1863 4141 1398 3698 
Q 934 3256 934 2222 
z
" transform="scale(0.015625)"/>
      <path id="ArialMT-70" d="M 422 -1272 
L 422 3319 
L 934 3319 
L 934 2888 
Q 1116 3141 1344 3267 
Q 1572 3394 1897 3394 
Q 2322 3394 2647 3175 
Q 2972 2956 3137 2557 
Q 3303 2159 3303 1684 
Q 3303 1175 3120 767 
Q 2938 359 2589 142 
Q 2241 -75 1856 -75 
Q 1575 -75 1351 44 
Q 1128 163 984 344 
L 984 -1272 
L 422 -1272 
z
M 931 1641 
Q 931 1000 1190 694 
Q 1450 388 1819 388 
Q 2194 388 2461 705 
Q 2728 1022 2728 1688 
Q 2728 2322 2467 2637 
Q 2206 2953 1844 2953 
Q 1484 2953 1207 2617 
Q 931 2281 931 1641 
z
" transform="scale(0.015625)"/>
      <path id="ArialMT-6f" d="M 213 1659 
Q 213 2581 725 3025 
Q 1153 3394 1769 3394 
Q 2453 3394 2887 2945 
Q 3322 2497 3322 1706 
Q 3322 1066 3130 698 
Q 2938 331 2570 128 
Q 2203 -75 1769 -75 
Q 1072 -75 642 372 
Q 213 819 213 1659 
z
M 791 1659 
Q 791 1022 1069 705 
Q 1347 388 1769 388 
Q 2188 388 2466 706 
Q 2744 1025 2744 1678 
Q 2744 2294 2464 2611 
Q 2184 2928 1769 2928 
Q 1347 2928 1069 2612 
Q 791 2297 791 1659 
z
" transform="scale(0.015625)"/>
      <path id="ArialMT-49" d="M 597 0 
L 597 4581 
L 1203 4581 
L 1203 0 
L 597 0 
z
" transform="scale(0.015625)"/>
      <path id="ArialMT-63" d="M 2588 1216 
L 3141 1144 
Q 3050 572 2676 248 
Q 2303 -75 1759 -75 
Q 1078 -75 664 370 
Q 250 816 250 1647 
Q 250 2184 428 2587 
Q 606 2991 970 3192 
Q 1334 3394 1763 3394 
Q 2303 3394 2647 3120 
Q 2991 2847 3088 2344 
L 2541 2259 
Q 2463 2594 2264 2762 
Q 2066 2931 1784 2931 
Q 1359 2931 1093 2626 
Q 828 2322 828 1663 
Q 828 994 1084 691 
Q 1341 388 1753 388 
Q 2084 388 2306 591 
Q 2528 794 2588 1216 
z
" transform="scale(0.015625)"/>
      <path id="ArialMT-62" d="M 941 0 
L 419 0 
L 419 4581 
L 981 4581 
L 981 2947 
Q 1338 3394 1891 3394 
Q 2197 3394 2470 3270 
Q 2744 3147 2920 2923 
Q 3097 2700 3197 2384 
Q 3297 2069 3297 1709 
Q 3297 856 2875 390 
Q 2453 -75 1863 -75 
Q 1275 -75 941 416 
L 941 0 
z
M 934 1684 
Q 934 1088 1097 822 
Q 1363 388 1816 388 
Q 2184 388 2453 708 
Q 2722 1028 2722 1663 
Q 2722 2313 2464 2622 
Q 2206 2931 1841 2931 
Q 1472 2931 1203 2611 
Q 934 2291 934 1684 
z
" transform="scale(0.015625)"/>
      <path id="ArialMT-53" d="M 288 1472 
L 859 1522 
Q 900 1178 1048 958 
Q 1197 738 1509 602 
Q 1822 466 2213 466 
Q 2559 466 2825 569 
Q 3091 672 3220 851 
Q 3350 1031 3350 1244 
Q 3350 1459 3225 1620 
Q 3100 1781 2813 1891 
Q 2628 1963 1997 2114 
Q 1366 2266 1113 2400 
Q 784 2572 623 2826 
Q 463 3081 463 3397 
Q 463 3744 659 4045 
Q 856 4347 1234 4503 
Q 1613 4659 2075 4659 
Q 2584 4659 2973 4495 
Q 3363 4331 3572 4012 
Q 3781 3694 3797 3291 
L 3216 3247 
Q 3169 3681 2898 3903 
Q 2628 4125 2100 4125 
Q 1550 4125 1298 3923 
Q 1047 3722 1047 3438 
Q 1047 3191 1225 3031 
Q 1400 2872 2139 2705 
Q 2878 2538 3153 2413 
Q 3553 2228 3743 1945 
Q 3934 1663 3934 1294 
Q 3934 928 3725 604 
Q 3516 281 3123 101 
Q 2731 -78 2241 -78 
Q 1619 -78 1198 103 
Q 778 284 539 648 
Q 300 1013 288 1472 
z
" transform="scale(0.015625)"/>
     </defs>
     <use xlink:href="#ArialMT-41"/>
     <use xlink:href="#ArialMT-6e" x="66.699219"/>
     <use xlink:href="#ArialMT-6e" x="122.314453"/>
     <use xlink:href="#ArialMT-75" x="177.929688"/>
     <use xlink:href="#ArialMT-61" x="233.544922"/>
     <use xlink:href="#ArialMT-6c" x="289.160156"/>
     <use xlink:href="#ArialMT-20" x="311.376953"/>
     <use xlink:href="#ArialMT-41" x="333.660156"/>
     <use xlink:href="#ArialMT-67" x="400.359375"/>
     <use xlink:href="#ArialMT-67" x="455.974609"/>
     <use xlink:href="#ArialMT-72" x="511.589844"/>
     <use xlink:href="#ArialMT-65" x="544.890625"/>
     <use xlink:href="#ArialMT-67" x="600.505859"/>
     <use xlink:href="#ArialMT-61" x="656.121094"/>
     <use xlink:href="#ArialMT-74" x="711.736328"/>
     <use xlink:href="#ArialMT-65" x="739.519531"/>
     <use xlink:href="#ArialMT-20" x="795.134766"/>
     <use xlink:href="#ArialMT-4f" x="822.917969"/>
     <use xlink:href="#ArialMT-70" x="900.701172"/>
     <use xlink:href="#ArialMT-65" x="956.316406"/>
     <use xlink:href="#ArialMT-72" x="1011.931641"/>
     <use xlink:href="#ArialMT-61" x="1045.232422"/>
     <use xlink:href="#ArialMT-74" x="1100.847656"/>
     <use xlink:href="#ArialMT-69" x="1128.630859"/>
     <use xlink:href="#ArialMT-6f" x="1150.847656"/>
     <use xlink:href="#ArialMT-6e" x="1206.462891"/>
     <use xlink:href="#ArialMT-61" x="1262.078125"/>
     <use xlink:href="#ArialMT-6c" x="1317.693359"/>
     <use xlink:href="#ArialMT-20" x="1339.910156"/>
     <use xlink:href="#ArialMT-49" x="1367.693359"/>
     <use xlink:href="#ArialMT-6d" x="1395.476562"/>
     <use xlink:href="#ArialMT-70" x="1478.777344"/>
     <use xlink:href="#ArialMT-61" x="1534.392578"/>
     <use xlink:href="#ArialMT-63" x="1590.007812"/>
     <use xlink:href="#ArialMT-74" x="1640.007812"/>
     <use xlink:href="#ArialMT-20" x="1667.791016"/>
     <use xlink:href="#ArialMT-62" x="1695.574219"/>
     <use xlink:href="#ArialMT-79" x="1751.189453"/>
     <use xlink:href="#ArialMT-20" x="1801.189453"/>
     <use xlink:href="#ArialMT-53" x="1828.972656"/>
     <use xlink:href="#ArialMT-63" x="1895.671875"/>
     <use xlink:href="#ArialMT-65" x="1945.671875"/>
     <use xlink:href="#ArialMT-6e" x="2001.287109"/>
     <use xlink:href="#ArialMT-61" x="2056.902344"/>
     <use xlink:href="#ArialMT-72" x="2112.517578"/>
     <use xlink:href="#ArialMT-69" x="2145.818359"/>
     <use xlink:href="#ArialMT-6f" x="2168.035156"/>
    </g>
   </g>
   <g id="legend_1">
    <g id="line2d_20">
     <path d="M 577.684219 35.866719 
L 588.684219 35.866719 
L 599.684219 35.866719 
" style="fill: none; stroke: #4c72b0; stroke-width: 2; stroke-linecap: round"/>
    </g>
    <g id="text_21">
     <!-- base -->
     <g style="fill: #3d405b" transform="translate(608.484219 39.716719) scale(0.11 -0.11)">
      <use xlink:href="#ArialMT-62"/>
      <use xlink:href="#ArialMT-61" x="55.615234"/>
      <use xlink:href="#ArialMT-73" x="111.230469"/>
      <use xlink:href="#ArialMT-65" x="161.230469"/>
     </g>
    </g>
    <g id="line2d_21">
     <path d="M 577.684219 51.426562 
L 588.684219 51.426562 
L 599.684219 51.426562 
" style="fill: none; stroke: #dd8452; stroke-width: 2; stroke-linecap: round"/>
    </g>
    <g id="text_22">
     <!-- disruption_stress -->
     <g style="fill: #3d405b" transform="translate(608.484219 55.276562) scale(0.11 -0.11)">
      <defs>
       <path id="ArialMT-5f" d="M -97 -1272 
L -97 -866 
L 3631 -866 
L 3631 -1272 
L -97 -1272 
z
" transform="scale(0.015625)"/>
      </defs>
      <use xlink:href="#ArialMT-64"/>
      <use xlink:href="#ArialMT-69" x="55.615234"/>
      <use xlink:href="#ArialMT-73" x="77.832031"/>
      <use xlink:href="#ArialMT-72" x="127.832031"/>
      <use xlink:href="#ArialMT-75" x="161.132812"/>
      <use xlink:href="#ArialMT-70" x="216.748047"/>
      <use xlink:href="#ArialMT-74" x="272.363281"/>
      <use xlink:href="#ArialMT-69" x="300.146484"/>
      <use xlink:href="#ArialMT-6f" x="322.363281"/>
      <use xlink:href="#ArialMT-6e" x="377.978516"/>
      <use xlink:href="#ArialMT-5f" x="433.59375"/>
      <use xlink:href="#ArialMT-73" x="489.208984"/>
      <use xlink:href="#ArialMT-74" x="539.208984"/>
      <use xlink:href="#ArialMT-72" x="566.992188"/>
      <use xlink:href="#ArialMT-65" x="600.292969"/>
      <use xlink:href="#ArialMT-73" x="655.908203"/>
      <use xlink:href="#ArialMT-73" x="705.908203"/>
     </g>
    </g>
    <g id="line2d_22">
     <path d="M 577.684219 66.986406 
L 588.684219 66.986406 
L 599.684219 66.986406 
" style="fill: none; stroke: #55a868; stroke-width: 2; stroke-linecap: round"/>
    </g>
    <g id="text_23">
     <!-- holiday_peak -->
     <g style="fill: #3d405b" transform="translate(608.484219 70.836406) scale(0.11 -0.11)">
      <defs>
       <path id="ArialMT-68" d="M 422 0 
L 422 4581 
L 984 4581 
L 984 2938 
Q 1378 3394 1978 3394 
Q 2347 3394 2619 3248 
Q 2891 3103 3008 2847 
Q 3125 2591 3125 2103 
L 3125 0 
L 2563 0 
L 2563 2103 
Q 2563 2525 2380 2717 
Q 2197 2909 1863 2909 
Q 1613 2909 1392 2779 
Q 1172 2650 1078 2428 
Q 984 2206 984 1816 
L 984 0 
L 422 0 
z
" transform="scale(0.015625)"/>
       <path id="ArialMT-6b" d="M 425 0 
L 425 4581 
L 988 4581 
L 988 1969 
L 2319 3319 
L 3047 3319 
L 1778 2088 
L 3175 0 
L 2481 0 
L 1384 1697 
L 988 1316 
L 988 0 
L 425 0 
z
" transform="scale(0.015625)"/>
      </defs>
      <use xlink:href="#ArialMT-68"/>
      <use xlink:href="#ArialMT-6f" x="55.615234"/>
      <use xlink:href="#ArialMT-6c" x="111.230469"/>
      <use xlink:href="#ArialMT-69" x="133.447266"/>
      <use xlink:href="#ArialMT-64" x="155.664062"/>
      <use xlink:href="#ArialMT-61" x="211.279297"/>
      <use xlink:href="#ArialMT-79" x="266.894531"/>
      <use xlink:href="#ArialMT-5f" x="316.894531"/>
      <use xlink:href="#ArialMT-70" x="372.509766"/>
      <use xlink:href="#ArialMT-65" x="428.125"/>
      <use xlink:href="#ArialMT-61" x="483.740234"/>
      <use xlink:href="#ArialMT-6b" x="539.355469"/>
     </g>
    </g>
    <g id="line2d_23">
     <path d="M 577.684219 82.675156 
L 588.684219 82.675156 
L 599.684219 82.675156 
" style="fill: none; stroke: #c44e52; stroke-width: 2; stroke-linecap: round"/>
    </g>
    <g id="text_24">
     <!-- weather_shock -->
     <g style="fill: #3d405b" transform="translate(608.484219 86.525156) scale(0.11 -0.11)">
      <defs>
       <path id="ArialMT-77" d="M 1034 0 
L 19 3319 
L 600 3319 
L 1128 1403 
L 1325 691 
Q 1338 744 1497 1375 
L 2025 3319 
L 2603 3319 
L 3100 1394 
L 3266 759 
L 3456 1400 
L 4025 3319 
L 4572 3319 
L 3534 0 
L 2950 0 
L 2422 1988 
L 2294 2553 
L 1622 0 
L 1034 0 
z
" transform="scale(0.015625)"/>
      </defs>
      <use xlink:href="#ArialMT-77"/>
      <use xlink:href="#ArialMT-65" x="72.216797"/>
      <use xlink:href="#ArialMT-61" x="127.832031"/>
      <use xlink:href="#ArialMT-74" x="183.447266"/>
      <use xlink:href="#ArialMT-68" x="211.230469"/>
      <use xlink:href="#ArialMT-65" x="266.845703"/>
      <use xlink:href="#ArialMT-72" x="322.460938"/>
      <use xlink:href="#ArialMT-5f" x="355.761719"/>
      <use xlink:href="#ArialMT-73" x="411.376953"/>
      <use xlink:href="#ArialMT-68" x="461.376953"/>
      <use xlink:href="#ArialMT-6f" x="516.992188"/>
      <use xlink:href="#ArialMT-63" x="572.607422"/>
      <use xlink:href="#ArialMT-6b" x="622.607422"/>
     </g>
    </g>
   </g>
  </g>
 </g>
 <defs>
  <clipPath id="p69228f4cfe">
   <rect x="47.105" y="21.943125" width="654.42375" height="356.9475"/>
  </clipPath>
 </defs>
</svg>
