<?xml version="1.0" encoding="utf-8" standalone="no"?>
<!DOCTYPE svg PUBLIC "-//W3C//DTD SVG 1.1//EN"
  "http://www.w3.org/Graphics/SVG/1.1/DTD/svg11.dtd">
<svg xmlns:xlink="http://www.w3.org/1999/xlink" width="996.726875pt" height="420.673594pt" viewBox="0 0 996.726875 420.673594" xmlns="http://www.w3.org/2000/svg" version="1.1">
 <metadata>
  <rdf:RDF xmlns:dc="http://purl.org/dc/elements/1.1/" xmlns:cc="http://creativecommons.org/ns#" xmlns:rdf="http://www.w3.org/1999/02/22-rdf-syntax-ns#">
   <cc:Work>
    <dc:type rdf:resource="http://purl.org/dc/dcmitype/StillImage"/>
    <dc:date>2026-04-23T16:56:58.894915</dc:date>
    <dc:format>image/svg+xml</dc:format>
    <dc:creator>
     <cc:Agent>
      <dc:title>Matplotlib v3.9.2, https://matplotlib.org/</dc:title>
     </cc:Agent>
    </dc:creator>
   </cc:Work>
  </rdf:RDF>
 </metadata>
 <defs>
  <style type="text/css">*{stroke-linejoin: round; stroke-linecap: butt}</style>
 </defs>
 <g id="figure_1">
  <g id="patch_1">
   <path d="M 0 420.673594 
L 996.726875 420.673594 
L 996.726875 0 
L 0 0 
z
" style="fill: #f6f2e8"/>
  </g>
  <g id="axes_1">
   <g id="patch_2">
    <path d="M 56.283125 378.939375 
L 989.526875 378.939375 
L 989.526875 21.935625 
L 56.283125 21.935625 
z
" style="fill: #f6f2e8"/>
   </g>
   <g id="matplotlib.axis_1">
    <g id="xtick_1">
     <g id="line2d_1">
      <path d="M 98.703295 378.939375 
L 98.703295 21.935625 
" clip-path="url(#p64090d4aa2)" style="fill: none; stroke: #d9d2c3; stroke-linecap: round"/>
     </g>
     <g id="text_1">
      <!-- 2020 -->
      <g style="fill: #3d405b" transform="translate(86.469233 396.312969) scale(0.11 -0.11)">
       <defs>
        <path id="ArialMT-32" d="M 3222 541 
L 3222 0 
L 194 0 
Q 188 203 259 391 
Q 375 700 629 1000 
Q 884 1300 1366 1694 
Q 2113 2306 2375 2664 
Q 2638 3022 2638 3341 
Q 2638 3675 2398 3904 
Q 2159 4134 1775 4134 
Q 1369 4134 1125 3890 
Q 881 3647 878 3216 
L 300 3275 
Q 359 3922 746 4261 
Q 1134 4600 1788 4600 
Q 2447 4600 2831 4234 
Q 3216 3869 3216 3328 
Q 3216 3053 3103 2787 
Q 2991 2522 2730 2228 
Q 2469 1934 1863 1422 
Q 1356 997 1212 845 
Q 1069 694 975 541 
L 3222 541 
z
" transform="scale(0.015625)"/>
        <path id="ArialMT-30" d="M 266 2259 
Q 266 3072 433 3567 
Q 600 4063 929 4331 
Q 1259 4600 1759 4600 
Q 2128 4600 2406 4451 
Q 2684 4303 2865 4023 
Q 3047 3744 3150 3342 
Q 3253 2941 3253 2259 
Q 3253 1453 3087 958 
Q 2922 463 2592 192 
Q 2263 -78 1759 -78 
Q 1097 -78 719 397 
Q 266 969 266 2259 
z
M 844 2259 
Q 844 1131 1108 757 
Q 1372 384 1759 384 
Q 2147 384 2411 759 
Q 2675 1134 2675 2259 
Q 2675 3391 2411 3762 
Q 2147 4134 1753 4134 
Q 1366 4134 1134 3806 
Q 844 3388 844 2259 
z
" transform="scale(0.015625)"/>
       </defs>
       <use xlink:href="#ArialMT-32"/>
       <use xlink:href="#ArialMT-30" x="55.615234"/>
       <use xlink:href="#ArialMT-32" x="111.230469"/>
       <use xlink:href="#ArialMT-30" x="166.845703"/>
      </g>
     </g>
    </g>
    <g id="xtick_2">
     <g id="line2d_2">
      <path d="M 242.394016 378.939375 
L 242.394016 21.935625 
" clip-path="url(#p64090d4aa2)" style="fill: none; stroke: #d9d2c3; stroke-linecap: round"/>
     </g>
     <g id="text_2">
      <!-- 2021 -->
      <g style="fill: #3d405b" transform="translate(230.159954 396.312969) scale(0.11 -0.11)">
       <defs>
        <path id="ArialMT-31" d="M 2384 0 
L 1822 0 
L 1822 3584 
Q 1619 3391 1289 3197 
Q 959 3003 697 2906 
L 697 3450 
Q 1169 3672 1522 3987 
Q 1875 4303 2022 4600 
L 2384 4600 
L 2384 0 
z
" transform="scale(0.015625)"/>
       </defs>
       <use xlink:href="#ArialMT-32"/>
       <use xlink:href="#ArialMT-30" x="55.615234"/>
       <use xlink:href="#ArialMT-32" x="111.230469"/>
       <use xlink:href="#ArialMT-31" x="166.845703"/>
      </g>
     </g>
    </g>
    <g id="xtick_3">
     <g id="line2d_3">
      <path d="M 385.69214 378.939375 
L 385.69214 21.935625 
" clip-path="url(#p64090d4aa2)" style="fill: none; stroke: #d9d2c3; stroke-linecap: round"/>
     </g>
     <g id="text_3">
      <!-- 2022 -->
      <g style="fill: #3d405b" transform="translate(373.458077 396.312969) scale(0.11 -0.11)">
       <use xlink:href="#ArialMT-32"/>
       <use xlink:href="#ArialMT-30" x="55.615234"/>
       <use xlink:href="#ArialMT-32" x="111.230469"/>
       <use xlink:href="#ArialMT-32" x="166.845703"/>
      </g>
     </g>
    </g>
    <g id="xtick_4">
     <g id="line2d_4">
      <path d="M 528.990263 378.939375 
L 528.990263 21.935625 
" clip-path="url(#p64090d4aa2)" style="fill: none; stroke: #d9d2c3; stroke-linecap: round"/>
     </g>
     <g id="text_4">
      <!-- 2023 -->
      <g style="fill: #3d405b" transform="translate(516.7562 396.312969) scale(0.11 -0.11)">
       <defs>
        <path id="ArialMT-33" d="M 269 1209 
L 831 1284 
Q 928 806 1161 595 
Q 1394 384 1728 384 
Q 2125 384 2398 659 
Q 2672 934 2672 1341 
Q 2672 1728 2419 1979 
Q 2166 2231 1775 2231 
Q 1616 2231 1378 2169 
L 1441 2663 
Q 1497 2656 1531 2656 
Q 1891 2656 2178 2843 
Q 2466 3031 2466 3422 
Q 2466 3731 2256 3934 
Q 2047 4138 1716 4138 
Q 1388 4138 1169 3931 
Q 950 3725 888 3313 
L 325 3413 
Q 428 3978 793 4289 
Q 1159 4600 1703 4600 
Q 2078 4600 2393 4439 
Q 2709 4278 2876 4000 
Q 3044 3722 3044 3409 
Q 3044 3113 2884 2869 
Q 2725 2625 2413 2481 
Q 2819 2388 3044 2092 
Q 3269 1797 3269 1353 
Q 3269 753 2831 336 
Q 2394 -81 1725 -81 
Q 1122 -81 723 278 
Q 325 638 269 1209 
z
" transform="scale(0.015625)"/>
       </defs>
       <use xlink:href="#ArialMT-32"/>
       <use xlink:href="#ArialMT-30" x="55.615234"/>
       <use xlink:href="#ArialMT-32" x="111.230469"/>
       <use xlink:href="#ArialMT-33" x="166.845703"/>
      </g>
     </g>
    </g>
    <g id="xtick_5">
     <g id="line2d_5">
      <path d="M 672.288386 378.939375 
L 672.288386 21.935625 
" clip-path="url(#p64090d4aa2)" style="fill: none; stroke: #d9d2c3; stroke-linecap: round"/>
     </g>
     <g id="text_5">
      <!-- 2024 -->
      <g style="fill: #3d405b" transform="translate(660.054324 396.312969) scale(0.11 -0.11)">
       <defs>
        <path id="ArialMT-34" d="M 2069 0 
L 2069 1097 
L 81 1097 
L 81 1613 
L 2172 4581 
L 2631 4581 
L 2631 1613 
L 3250 1613 
L 3250 1097 
L 2631 1097 
L 2631 0 
L 2069 0 
z
M 2069 1613 
L 2069 3678 
L 634 1613 
L 2069 1613 
z
" transform="scale(0.015625)"/>
       </defs>
       <use xlink:href="#ArialMT-32"/>
       <use xlink:href="#ArialMT-30" x="55.615234"/>
       <use xlink:href="#ArialMT-32" x="111.230469"/>
       <use xlink:href="#ArialMT-34" x="166.845703"/>
      </g>
     </g>
    </g>
    <g id="xtick_6">
     <g id="line2d_6">
      <path d="M 815.979107 378.939375 
L 815.979107 21.935625 
" clip-path="url(#p64090d4aa2)" style="fill: none; stroke: #d9d2c3; stroke-linecap: round"/>
     </g>
     <g id="text_6">
      <!-- 2025 -->
      <g style="fill: #3d405b" transform="translate(803.745044 396.312969) scale(0.11 -0.11)">
       <defs>
        <path id="ArialMT-35" d="M 266 1200 
L 856 1250 
Q 922 819 1161 601 
Q 1400 384 1738 384 
Q 2144 384 2425 690 
Q 2706 997 2706 1503 
Q 2706 1984 2436 2262 
Q 2166 2541 1728 2541 
Q 1456 2541 1237 2417 
Q 1019 2294 894 2097 
L 366 2166 
L 809 4519 
L 3088 4519 
L 3088 3981 
L 1259 3981 
L 1013 2750 
Q 1425 3038 1878 3038 
Q 2478 3038 2890 2622 
Q 3303 2206 3303 1553 
Q 3303 931 2941 478 
Q 2500 -78 1738 -78 
Q 1113 -78 717 272 
Q 322 622 266 1200 
z
" transform="scale(0.015625)"/>
       </defs>
       <use xlink:href="#ArialMT-32"/>
       <use xlink:href="#ArialMT-30" x="55.615234"/>
       <use xlink:href="#ArialMT-32" x="111.230469"/>
       <use xlink:href="#ArialMT-35" x="166.845703"/>
      </g>
     </g>
    </g>
    <g id="xtick_7">
     <g id="line2d_7">
      <path d="M 959.27723 378.939375 
L 959.27723 21.935625 
" clip-path="url(#p64090d4aa2)" style="fill: none; stroke: #d9d2c3; stroke-linecap: round"/>
     </g>
     <g id="text_7">
      <!-- 2026 -->
      <g style="fill: #3d405b" transform="translate(947.043168 396.312969) scale(0.11 -0.11)">
       <defs>
        <path id="ArialMT-36" d="M 3184 3459 
L 2625 3416 
Q 2550 3747 2413 3897 
Q 2184 4138 1850 4138 
Q 1581 4138 1378 3988 
Q 1113 3794 959 3422 
Q 806 3050 800 2363 
Q 1003 2672 1297 2822 
Q 1591 2972 1913 2972 
Q 2475 2972 2870 2558 
Q 3266 2144 3266 1488 
Q 3266 1056 3080 686 
Q 2894 316 2569 119 
Q 2244 -78 1831 -78 
Q 1128 -78 684 439 
Q 241 956 241 2144 
Q 241 3472 731 4075 
Q 1159 4600 1884 4600 
Q 2425 4600 2770 4297 
Q 3116 3994 3184 3459 
z
M 888 1484 
Q 888 1194 1011 928 
Q 1134 663 1356 523 
Q 1578 384 1822 384 
Q 2178 384 2434 671 
Q 2691 959 2691 1453 
Q 2691 1928 2437 2201 
Q 2184 2475 1800 2475 
Q 1419 2475 1153 2201 
Q 888 1928 888 1484 
z
" transform="scale(0.015625)"/>
       </defs>
       <use xlink:href="#ArialMT-32"/>
       <use xlink:href="#ArialMT-30" x="55.615234"/>
       <use xlink:href="#ArialMT-32" x="111.230469"/>
       <use xlink:href="#ArialMT-36" x="166.845703"/>
      </g>
     </g>
    </g>
    <g id="text_8">
     <!-- Month -->
     <g style="fill: #3d405b" transform="translate(506.230625 411.088594) scale(0.12 -0.12)">
      <defs>
       <path id="ArialMT-4d" d="M 475 0 
L 475 4581 
L 1388 4581 
L 2472 1338 
Q 2622 884 2691 659 
Q 2769 909 2934 1394 
L 4031 4581 
L 4847 4581 
L 4847 0 
L 4263 0 
L 4263 3834 
L 2931 0 
L 2384 0 
L 1059 3900 
L 1059 0 
L 475 0 
z
" transform="scale(0.015625)"/>
       <path id="ArialMT-6f" d="M 213 1659 
Q 213 2581 725 3025 
Q 1153 3394 1769 3394 
Q 2453 3394 2887 2945 
Q 3322 2497 3322 1706 
Q 3322 1066 3130 698 
Q 2938 331 2570 128 
Q 2203 -75 1769 -75 
Q 1072 -75 642 372 
Q 213 819 213 1659 
z
M 791 1659 
Q 791 1022 1069 705 
Q 1347 388 1769 388 
Q 2188 388 2466 706 
Q 2744 1025 2744 1678 
Q 2744 2294 2464 2611 
Q 2184 2928 1769 2928 
Q 1347 2928 1069 2612 
Q 791 2297 791 1659 
z
" transform="scale(0.015625)"/>
       <path id="ArialMT-6e" d="M 422 0 
L 422 3319 
L 928 3319 
L 928 2847 
Q 1294 3394 1984 3394 
Q 2284 3394 2536 3286 
Q 2788 3178 2913 3003 
Q 3038 2828 3088 2588 
Q 3119 2431 3119 2041 
L 3119 0 
L 2556 0 
L 2556 2019 
Q 2556 2363 2490 2533 
Q 2425 2703 2258 2804 
Q 2091 2906 1866 2906 
Q 1506 2906 1245 2678 
Q 984 2450 984 1813 
L 984 0 
L 422 0 
z
" transform="scale(0.015625)"/>
       <path id="ArialMT-74" d="M 1650 503 
L 1731 6 
Q 1494 -44 1306 -44 
Q 1000 -44 831 53 
Q 663 150 594 308 
Q 525 466 525 972 
L 525 2881 
L 113 2881 
L 113 3319 
L 525 3319 
L 525 4141 
L 1084 4478 
L 1084 3319 
L 1650 3319 
L 1650 2881 
L 1084 2881 
L 1084 941 
Q 1084 700 1114 631 
Q 1144 563 1211 522 
Q 1278 481 1403 481 
Q 1497 481 1650 503 
z
" transform="scale(0.015625)"/>
       <path id="ArialMT-68" d="M 422 0 
L 422 4581 
L 984 4581 
L 984 2938 
Q 1378 3394 1978 3394 
Q 2347 3394 2619 3248 
Q 2891 3103 3008 2847 
Q 3125 2591 3125 2103 
L 3125 0 
L 2563 0 
L 2563 2103 
Q 2563 2525 2380 2717 
Q 2197 2909 1863 2909 
Q 1613 2909 1392 2779 
Q 1172 2650 1078 2428 
Q 984 2206 984 1816 
L 984 0 
L 422 0 
z
" transform="scale(0.015625)"/>
      </defs>
      <use xlink:href="#ArialMT-4d"/>
      <use xlink:href="#ArialMT-6f" x="83.300781"/>
      <use xlink:href="#ArialMT-6e" x="138.916016"/>
      <use xlink:href="#ArialMT-74" x="194.53125"/>
      <use xlink:href="#ArialMT-68" x="222.314453"/>
     </g>
    </g>
   </g>
   <g id="matplotlib.axis_2">
    <g id="ytick_1">
     <g id="line2d_8">
      <path d="M 56.283125 363.06731 
L 989.526875 363.06731 
" clip-path="url(#p64090d4aa2)" style="fill: none; stroke: #d9d2c3; stroke-linecap: round"/>
     </g>
     <g id="text_9">
      <!-- 0 -->
      <g style="fill: #3d405b" transform="translate(40.666094 367.004107) scale(0.11 -0.11)">
       <use xlink:href="#ArialMT-30"/>
      </g>
     </g>
    </g>
    <g id="ytick_2">
     <g id="line2d_9">
      <path d="M 56.283125 318.645073 
L 989.526875 318.645073 
" clip-path="url(#p64090d4aa2)" style="fill: none; stroke: #d9d2c3; stroke-linecap: round"/>
     </g>
     <g id="text_10">
      <!-- 500 -->
      <g style="fill: #3d405b" transform="translate(28.432031 322.58187) scale(0.11 -0.11)">
       <use xlink:href="#ArialMT-35"/>
       <use xlink:href="#ArialMT-30" x="55.615234"/>
       <use xlink:href="#ArialMT-30" x="111.230469"/>
      </g>
     </g>
    </g>
    <g id="ytick_3">
     <g id="line2d_10">
      <path d="M 56.283125 274.222836 
L 989.526875 274.222836 
" clip-path="url(#p64090d4aa2)" style="fill: none; stroke: #d9d2c3; stroke-linecap: round"/>
     </g>
     <g id="text_11">
      <!-- 1000 -->
      <g style="fill: #3d405b" transform="translate(22.315 278.159633) scale(0.11 -0.11)">
       <use xlink:href="#ArialMT-31"/>
       <use xlink:href="#ArialMT-30" x="55.615234"/>
       <use xlink:href="#ArialMT-30" x="111.230469"/>
       <use xlink:href="#ArialMT-30" x="166.845703"/>
      </g>
     </g>
    </g>
    <g id="ytick_4">
     <g id="line2d_11">
      <path d="M 56.283125 229.800599 
L 989.526875 229.800599 
" clip-path="url(#p64090d4aa2)" style="fill: none; stroke: #d9d2c3; stroke-linecap: round"/>
     </g>
     <g id="text_12">
      <!-- 1500 -->
      <g style="fill: #3d405b" transform="translate(22.315 233.737396) scale(0.11 -0.11)">
       <use xlink:href="#ArialMT-31"/>
       <use xlink:href="#ArialMT-35" x="55.615234"/>
       <use xlink:href="#ArialMT-30" x="111.230469"/>
       <use xlink:href="#ArialMT-30" x="166.845703"/>
      </g>
     </g>
    </g>
    <g id="ytick_5">
     <g id="line2d_12">
      <path d="M 56.283125 185.378362 
L 989.526875 185.378362 
" clip-path="url(#p64090d4aa2)" style="fill: none; stroke: #d9d2c3; stroke-linecap: round"/>
     </g>
     <g id="text_13">
      <!-- 2000 -->
      <g style="fill: #3d405b" transform="translate(22.315 189.315159) scale(0.11 -0.11)">
       <use xlink:href="#ArialMT-32"/>
       <use xlink:href="#ArialMT-30" x="55.615234"/>
       <use xlink:href="#ArialMT-30" x="111.230469"/>
       <use xlink:href="#ArialMT-30" x="166.845703"/>
      </g>
     </g>
    </g>
    <g id="ytick_6">
     <g id="line2d_13">
      <path d="M 56.283125 140.956125 
L 989.526875 140.956125 
" clip-path="url(#p64090d4aa2)" style="fill: none; stroke: #d9d2c3; stroke-linecap: round"/>
     </g>
     <g id="text_14">
      <!-- 2500 -->
      <g style="fill: #3d405b" transform="translate(22.315 144.892922) scale(0.11 -0.11)">
       <use xlink:href="#ArialMT-32"/>
       <use xlink:href="#ArialMT-35" x="55.615234"/>
       <use xlink:href="#ArialMT-30" x="111.230469"/>
       <use xlink:href="#ArialMT-30" x="166.845703"/>
      </g>
     </g>
    </g>
    <g id="ytick_7">
     <g id="line2d_14">
      <path d="M 56.283125 96.533888 
L 989.526875 96.533888 
" clip-path="url(#p64090d4aa2)" style="fill: none; stroke: #d9d2c3; stroke-linecap: round"/>
     </g>
     <g id="text_15">
      <!-- 3000 -->
      <g style="fill: #3d405b" transform="translate(22.315 100.470684) scale(0.11 -0.11)">
       <use xlink:href="#ArialMT-33"/>
       <use xlink:href="#ArialMT-30" x="55.615234"/>
       <use xlink:href="#ArialMT-30" x="111.230469"/>
       <use xlink:href="#ArialMT-30" x="166.845703"/>
      </g>
     </g>
    </g>
    <g id="ytick_8">
     <g id="line2d_15">
      <path d="M 56.283125 52.111651 
L 989.526875 52.111651 
" clip-path="url(#p64090d4aa2)" style="fill: none; stroke: #d9d2c3; stroke-linecap: round"/>
     </g>
     <g id="text_16">
      <!-- 3500 -->
      <g style="fill: #3d405b" transform="translate(22.315 56.048447) scale(0.11 -0.11)">
       <use xlink:href="#ArialMT-33"/>
       <use xlink:href="#ArialMT-35" x="55.615234"/>
       <use xlink:href="#ArialMT-30" x="111.230469"/>
       <use xlink:href="#ArialMT-30" x="166.845703"/>
      </g>
     </g>
    </g>
    <g id="text_17">
     <!-- Flights -->
     <g style="fill: #3d405b" transform="translate(15.789375 218.108437) rotate(-90) scale(0.12 -0.12)">
      <defs>
       <path id="ArialMT-46" d="M 525 0 
L 525 4581 
L 3616 4581 
L 3616 4041 
L 1131 4041 
L 1131 2622 
L 3281 2622 
L 3281 2081 
L 1131 2081 
L 1131 0 
L 525 0 
z
" transform="scale(0.015625)"/>
       <path id="ArialMT-6c" d="M 409 0 
L 409 4581 
L 972 4581 
L 972 0 
L 409 0 
z
" transform="scale(0.015625)"/>
       <path id="ArialMT-69" d="M 425 3934 
L 425 4581 
L 988 4581 
L 988 3934 
L 425 3934 
z
M 425 0 
L 425 3319 
L 988 3319 
L 988 0 
L 425 0 
z
" transform="scale(0.015625)"/>
       <path id="ArialMT-67" d="M 319 -275 
L 866 -356 
Q 900 -609 1056 -725 
Q 1266 -881 1628 -881 
Q 2019 -881 2231 -725 
Q 2444 -569 2519 -288 
Q 2563 -116 2559 434 
Q 2191 0 1641 0 
Q 956 0 581 494 
Q 206 988 206 1678 
Q 206 2153 378 2554 
Q 550 2956 876 3175 
Q 1203 3394 1644 3394 
Q 2231 3394 2613 2919 
L 2613 3319 
L 3131 3319 
L 3131 450 
Q 3131 -325 2973 -648 
Q 2816 -972 2473 -1159 
Q 2131 -1347 1631 -1347 
Q 1038 -1347 672 -1080 
Q 306 -813 319 -275 
z
M 784 1719 
Q 784 1066 1043 766 
Q 1303 466 1694 466 
Q 2081 466 2343 764 
Q 2606 1063 2606 1700 
Q 2606 2309 2336 2618 
Q 2066 2928 1684 2928 
Q 1309 2928 1046 2623 
Q 784 2319 784 1719 
z
" transform="scale(0.015625)"/>
       <path id="ArialMT-73" d="M 197 991 
L 753 1078 
Q 800 744 1014 566 
Q 1228 388 1613 388 
Q 2000 388 2187 545 
Q 2375 703 2375 916 
Q 2375 1106 2209 1216 
Q 2094 1291 1634 1406 
Q 1016 1563 777 1677 
Q 538 1791 414 1992 
Q 291 2194 291 2438 
Q 291 2659 392 2848 
Q 494 3038 669 3163 
Q 800 3259 1026 3326 
Q 1253 3394 1513 3394 
Q 1903 3394 2198 3281 
Q 2494 3169 2634 2976 
Q 2775 2784 2828 2463 
L 2278 2388 
Q 2241 2644 2061 2787 
Q 1881 2931 1553 2931 
Q 1166 2931 1000 2803 
Q 834 2675 834 2503 
Q 834 2394 903 2306 
Q 972 2216 1119 2156 
Q 1203 2125 1616 2013 
Q 2213 1853 2448 1751 
Q 2684 1650 2818 1456 
Q 2953 1263 2953 975 
Q 2953 694 2789 445 
Q 2625 197 2315 61 
Q 2006 -75 1616 -75 
Q 969 -75 630 194 
Q 291 463 197 991 
z
" transform="scale(0.015625)"/>
      </defs>
      <use xlink:href="#ArialMT-46"/>
      <use xlink:href="#ArialMT-6c" x="61.083984"/>
      <use xlink:href="#ArialMT-69" x="83.300781"/>
      <use xlink:href="#ArialMT-67" x="105.517578"/>
      <use xlink:href="#ArialMT-68" x="161.132812"/>
      <use xlink:href="#ArialMT-74" x="216.748047"/>
      <use xlink:href="#ArialMT-73" x="244.53125"/>
     </g>
    </g>
   </g>
   <g id="line2d_16">
    <path d="M 98.703295 238.418513 
L 110.873821 259.741186 
L 122.259151 298.299688 
L 134.429677 358.003175 
L 146.207605 358.536242 
L 158.37813 353.916329 
L 170.156058 335.969745 
L 182.326584 338.013168 
L 194.497109 352.672506 
L 206.275037 345.564948 
L 218.445563 339.079302 
L 230.223491 310.293692 
L 242.394016 325.574942 
L 254.564542 321.932318 
L 265.557275 330.994455 
L 277.7278 309.316403 
L 289.505728 291.280975 
L 301.676254 197.638899 
L 313.454182 151.439773 
L 325.624707 190.264808 
L 337.795233 244.193403 
L 349.573161 264.18341 
L 361.743686 203.41379 
L 373.521614 177.382359 
L 385.69214 160.768442 
L 397.862665 146.642171 
L 408.855398 131.716299 
L 421.025923 134.1151 
L 432.803851 99.998822 
L 444.974377 82.496461 
L 456.752305 92.002819 
L 468.92283 83.47375 
L 481.093356 143.887992 
L 492.871284 120.521896 
L 505.041809 144.865281 
L 516.819737 72.723569 
L 528.990263 110.571315 
L 541.160788 173.206669 
L 552.153521 102.664156 
L 564.324047 79.120371 
L 576.101975 168.409067 
L 588.2725 83.740283 
L 600.050428 38.163068 
L 612.220954 133.848567 
L 624.391479 121.676874 
L 636.169407 204.124546 
L 648.339933 227.312953 
L 660.11786 181.824583 
L 672.288386 179.692315 
L 684.458912 223.492641 
L 695.844242 162.012265 
L 708.014767 187.599474 
L 719.792695 149.39635 
L 731.963221 124.875275 
L 743.741149 81.163794 
L 755.911674 105.507179 
L 768.0822 230.155977 
L 779.860128 245.614915 
L 792.030653 256.542785 
L 803.808581 138.201946 
L 815.979107 211.498637 
L 828.149632 200.0377 
L 839.142365 172.229379 
L 851.312891 199.948855 
L 863.090819 108.527892 
L 875.261344 81.69686 
L 887.039272 76.277348 
L 899.209798 171.607468 
L 911.380323 231.044421 
L 923.158251 186.444495 
L 935.328777 185.644895 
L 947.106705 103.996823 
" clip-path="url(#p64090d4aa2)" style="fill: none; stroke: #0f4c5c; stroke-width: 2.5; stroke-linecap: round"/>
   </g>
   <g id="line2d_17">
    <path d="M 98.703295 361.379265 
L 110.873821 361.023887 
L 122.259151 194.262809 
L 134.429677 258.408519 
L 146.207605 356.581663 
L 158.37813 360.935042 
L 170.156058 352.228284 
L 182.326584 356.137441 
L 194.497109 361.645798 
L 206.275037 362.711932 
L 218.445563 360.135442 
L 230.223491 354.449396 
L 242.394016 359.069308 
L 254.564542 343.432681 
L 265.557275 362.001176 
L 277.7278 359.957753 
L 289.505728 362.623087 
L 301.676254 357.470108 
L 313.454182 348.496816 
L 325.624707 353.73864 
L 337.795233 349.296416 
L 349.573161 359.513531 
L 361.743686 359.158153 
L 373.521614 343.61037 
L 385.69214 262.406521 
L 397.862665 333.393255 
L 408.855398 348.319127 
L 421.025923 316.068583 
L 432.803851 318.467384 
L 444.974377 297.233554 
L 456.752305 324.597652 
L 468.92283 321.043873 
L 481.093356 343.254992 
L 492.871284 354.094018 
L 505.041809 354.893618 
L 516.819737 335.525523 
L 528.990263 355.33784 
L 541.160788 349.918328 
L 552.153521 345.831482 
L 564.324047 331.260988 
L 576.101975 357.11473 
L 588.2725 316.157427 
L 600.050428 280.530793 
L 612.220954 344.854193 
L 624.391479 312.337115 
L 636.169407 362.09002 
L 648.339933 362.534243 
L 660.11786 358.269708 
L 672.288386 337.480101 
L 684.458912 351.784062 
L 695.844242 355.959752 
L 708.014767 353.383262 
L 719.792695 354.53824 
L 731.963221 331.083299 
L 743.741149 324.242275 
L 755.911674 300.876178 
L 768.0822 360.49082 
L 779.860128 356.670508 
L 792.030653 362.445398 
L 803.808581 358.447397 
L 815.979107 347.341838 
L 828.149632 344.676504 
L 839.142365 354.53824 
L 851.312891 358.536242 
L 863.090819 352.050595 
L 875.261344 329.839476 
L 887.039272 285.417239 
L 899.209798 352.405973 
L 911.380323 355.693218 
L 923.158251 348.407971 
L 935.328777 336.325123 
L 947.106705 324.775341 
" clip-path="url(#p64090d4aa2)" style="fill: none; stroke: #e36414; stroke-width: 2.5; stroke-linecap: round"/>
   </g>
   <g id="patch_3">
    <path d="M 56.283125 378.939375 
L 56.283125 21.935625 
" style="fill: none; stroke: #d9d2c3; stroke-width: 1.25; stroke-linejoin: miter; stroke-linecap: square"/>
   </g>
   <g id="patch_4">
    <path d="M 989.526875 378.939375 
L 989.526875 21.935625 
" style="fill: none; stroke: #d9d2c3; stroke-width: 1.25; stroke-linejoin: miter; stroke-linecap: square"/>
   </g>
   <g id="patch_5">
    <path d="M 56.283125 378.939375 
L 989.526875 378.939375 
" style="fill: none; stroke: #d9d2c3; stroke-width: 1.25; stroke-linejoin: miter; stroke-linecap: square"/>
   </g>
   <g id="patch_6">
    <path d="M 56.283125 21.935625 
L 989.526875 21.935625 
" style="fill: none; stroke: #d9d2c3; stroke-width: 1.25; stroke-linejoin: miter; stroke-linecap: square"/>
   </g>
   <g id="text_18">
    <!-- JFK Multi-Year Delay and Cancellation Trend -->
    <g style="fill: #3d405b" transform="translate(403.402812 15.935625) scale(0.12 -0.12)">
     <defs>
      <path id="ArialMT-4a" d="M 184 1300 
L 731 1375 
Q 753 850 928 656 
Q 1103 463 1413 463 
Q 1641 463 1806 567 
Q 1972 672 2034 851 
Q 2097 1031 2097 1425 
L 2097 4581 
L 2703 4581 
L 2703 1459 
Q 2703 884 2564 568 
Q 2425 253 2123 87 
Q 1822 -78 1416 -78 
Q 813 -78 492 269 
Q 172 616 184 1300 
z
" transform="scale(0.015625)"/>
      <path id="ArialMT-4b" d="M 469 0 
L 469 4581 
L 1075 4581 
L 1075 2309 
L 3350 4581 
L 4172 4581 
L 2250 2725 
L 4256 0 
L 3456 0 
L 1825 2319 
L 1075 1588 
L 1075 0 
L 469 0 
z
" transform="scale(0.015625)"/>
      <path id="ArialMT-20" transform="scale(0.015625)"/>
      <path id="ArialMT-75" d="M 2597 0 
L 2597 488 
Q 2209 -75 1544 -75 
Q 1250 -75 995 37 
Q 741 150 617 320 
Q 494 491 444 738 
Q 409 903 409 1263 
L 409 3319 
L 972 3319 
L 972 1478 
Q 972 1038 1006 884 
Q 1059 663 1231 536 
Q 1403 409 1656 409 
Q 1909 409 2131 539 
Q 2353 669 2445 892 
Q 2538 1116 2538 1541 
L 2538 3319 
L 3100 3319 
L 3100 0 
L 2597 0 
z
" transform="scale(0.015625)"/>
      <path id="ArialMT-2d" d="M 203 1375 
L 203 1941 
L 1931 1941 
L 1931 1375 
L 203 1375 
z
" transform="scale(0.015625)"/>
      <path id="ArialMT-59" d="M 1784 0 
L 1784 1941 
L 19 4581 
L 756 4581 
L 1659 3200 
Q 1909 2813 2125 2425 
Q 2331 2784 2625 3234 
L 3513 4581 
L 4219 4581 
L 2391 1941 
L 2391 0 
L 1784 0 
z
" transform="scale(0.015625)"/>
      <path id="ArialMT-65" d="M 2694 1069 
L 3275 997 
Q 3138 488 2766 206 
Q 2394 -75 1816 -75 
Q 1088 -75 661 373 
Q 234 822 234 1631 
Q 234 2469 665 2931 
Q 1097 3394 1784 3394 
Q 2450 3394 2872 2941 
Q 3294 2488 3294 1666 
Q 3294 1616 3291 1516 
L 816 1516 
Q 847 969 1125 678 
Q 1403 388 1819 388 
Q 2128 388 2347 550 
Q 2566 713 2694 1069 
z
M 847 1978 
L 2700 1978 
Q 2663 2397 2488 2606 
Q 2219 2931 1791 2931 
Q 1403 2931 1139 2672 
Q 875 2413 847 1978 
z
" transform="scale(0.015625)"/>
      <path id="ArialMT-61" d="M 2588 409 
Q 2275 144 1986 34 
Q 1697 -75 1366 -75 
Q 819 -75 525 192 
Q 231 459 231 875 
Q 231 1119 342 1320 
Q 453 1522 633 1644 
Q 813 1766 1038 1828 
Q 1203 1872 1538 1913 
Q 2219 1994 2541 2106 
Q 2544 2222 2544 2253 
Q 2544 2597 2384 2738 
Q 2169 2928 1744 2928 
Q 1347 2928 1158 2789 
Q 969 2650 878 2297 
L 328 2372 
Q 403 2725 575 2942 
Q 747 3159 1072 3276 
Q 1397 3394 1825 3394 
Q 2250 3394 2515 3294 
Q 2781 3194 2906 3042 
Q 3031 2891 3081 2659 
Q 3109 2516 3109 2141 
L 3109 1391 
Q 3109 606 3145 398 
Q 3181 191 3288 0 
L 2700 0 
Q 2613 175 2588 409 
z
M 2541 1666 
Q 2234 1541 1622 1453 
Q 1275 1403 1131 1340 
Q 988 1278 909 1158 
Q 831 1038 831 891 
Q 831 666 1001 516 
Q 1172 366 1500 366 
Q 1825 366 2078 508 
Q 2331 650 2450 897 
Q 2541 1088 2541 1459 
L 2541 1666 
z
" transform="scale(0.015625)"/>
      <path id="ArialMT-72" d="M 416 0 
L 416 3319 
L 922 3319 
L 922 2816 
Q 1116 3169 1280 3281 
Q 1444 3394 1641 3394 
Q 1925 3394 2219 3213 
L 2025 2691 
Q 1819 2813 1613 2813 
Q 1428 2813 1281 2702 
Q 1134 2591 1072 2394 
Q 978 2094 978 1738 
L 978 0 
L 416 0 
z
" transform="scale(0.015625)"/>
      <path id="ArialMT-44" d="M 494 0 
L 494 4581 
L 2072 4581 
Q 2606 4581 2888 4516 
Q 3281 4425 3559 4188 
Q 3922 3881 4101 3404 
Q 4281 2928 4281 2316 
Q 4281 1794 4159 1391 
Q 4038 988 3847 723 
Q 3656 459 3429 307 
Q 3203 156 2883 78 
Q 2563 0 2147 0 
L 494 0 
z
M 1100 541 
L 2078 541 
Q 2531 541 2789 625 
Q 3047 709 3200 863 
Q 3416 1078 3536 1442 
Q 3656 1806 3656 2325 
Q 3656 3044 3420 3430 
Q 3184 3816 2847 3947 
Q 2603 4041 2063 4041 
L 1100 4041 
L 1100 541 
z
" transform="scale(0.015625)"/>
      <path id="ArialMT-79" d="M 397 -1278 
L 334 -750 
Q 519 -800 656 -800 
Q 844 -800 956 -737 
Q 1069 -675 1141 -563 
Q 1194 -478 1313 -144 
Q 1328 -97 1363 -6 
L 103 3319 
L 709 3319 
L 1400 1397 
Q 1534 1031 1641 628 
Q 1738 1016 1872 1384 
L 2581 3319 
L 3144 3319 
L 1881 -56 
Q 1678 -603 1566 -809 
Q 1416 -1088 1222 -1217 
Q 1028 -1347 759 -1347 
Q 597 -1347 397 -1278 
z
" transform="scale(0.015625)"/>
      <path id="ArialMT-64" d="M 2575 0 
L 2575 419 
Q 2259 -75 1647 -75 
Q 1250 -75 917 144 
Q 584 363 401 755 
Q 219 1147 219 1656 
Q 219 2153 384 2558 
Q 550 2963 881 3178 
Q 1213 3394 1622 3394 
Q 1922 3394 2156 3267 
Q 2391 3141 2538 2938 
L 2538 4581 
L 3097 4581 
L 3097 0 
L 2575 0 
z
M 797 1656 
Q 797 1019 1065 703 
Q 1334 388 1700 388 
Q 2069 388 2326 689 
Q 2584 991 2584 1609 
Q 2584 2291 2321 2609 
Q 2059 2928 1675 2928 
Q 1300 2928 1048 2622 
Q 797 2316 797 1656 
z
" transform="scale(0.015625)"/>
      <path id="ArialMT-43" d="M 3763 1606 
L 4369 1453 
Q 4178 706 3683 314 
Q 3188 -78 2472 -78 
Q 1731 -78 1267 223 
Q 803 525 561 1097 
Q 319 1669 319 2325 
Q 319 3041 592 3573 
Q 866 4106 1370 4382 
Q 1875 4659 2481 4659 
Q 3169 4659 3637 4309 
Q 4106 3959 4291 3325 
L 3694 3184 
Q 3534 3684 3231 3912 
Q 2928 4141 2469 4141 
Q 1941 4141 1586 3887 
Q 1231 3634 1087 3207 
Q 944 2781 944 2328 
Q 944 1744 1114 1308 
Q 1284 872 1643 656 
Q 2003 441 2422 441 
Q 2931 441 3284 734 
Q 3638 1028 3763 1606 
z
" transform="scale(0.015625)"/>
      <path id="ArialMT-63" d="M 2588 1216 
L 3141 1144 
Q 3050 572 2676 248 
Q 2303 -75 1759 -75 
Q 1078 -75 664 370 
Q 250 816 250 1647 
Q 250 2184 428 2587 
Q 606 2991 970 3192 
Q 1334 3394 1763 3394 
Q 2303 3394 2647 3120 
Q 2991 2847 3088 2344 
L 2541 2259 
Q 2463 2594 2264 2762 
Q 2066 2931 1784 2931 
Q 1359 2931 1093 2626 
Q 828 2322 828 1663 
Q 828 994 1084 691 
Q 1341 388 1753 388 
Q 2084 388 2306 591 
Q 2528 794 2588 1216 
z
" transform="scale(0.015625)"/>
      <path id="ArialMT-54" d="M 1659 0 
L 1659 4041 
L 150 4041 
L 150 4581 
L 3781 4581 
L 3781 4041 
L 2266 4041 
L 2266 0 
L 1659 0 
z
" transform="scale(0.015625)"/>
     </defs>
     <use xlink:href="#ArialMT-4a"/>
     <use xlink:href="#ArialMT-46" x="50"/>
     <use xlink:href="#ArialMT-4b" x="111.083984"/>
     <use xlink:href="#ArialMT-20" x="177.783203"/>
     <use xlink:href="#ArialMT-4d" x="205.566406"/>
     <use xlink:href="#ArialMT-75" x="288.867188"/>
     <use xlink:href="#ArialMT-6c" x="344.482422"/>
     <use xlink:href="#ArialMT-74" x="366.699219"/>
     <use xlink:href="#ArialMT-69" x="394.482422"/>
     <use xlink:href="#ArialMT-2d" x="416.699219"/>
     <use xlink:href="#ArialMT-59" x="450"/>
     <use xlink:href="#ArialMT-65" x="507.574219"/>
     <use xlink:href="#ArialMT-61" x="563.189453"/>
     <use xlink:href="#ArialMT-72" x="618.804688"/>
     <use xlink:href="#ArialMT-20" x="652.105469"/>
     <use xlink:href="#ArialMT-44" x="679.888672"/>
     <use xlink:href="#ArialMT-65" x="752.105469"/>
     <use xlink:href="#ArialMT-6c" x="807.720703"/>
     <use xlink:href="#ArialMT-61" x="829.9375"/>
     <use xlink:href="#ArialMT-79" x="885.552734"/>
     <use xlink:href="#ArialMT-20" x="935.552734"/>
     <use xlink:href="#ArialMT-61" x="963.335938"/>
     <use xlink:href="#ArialMT-6e" x="1018.951172"/>
     <use xlink:href="#ArialMT-64" x="1074.566406"/>
     <use xlink:href="#ArialMT-20" x="1130.181641"/>
     <use xlink:href="#ArialMT-43" x="1157.964844"/>
     <use xlink:href="#ArialMT-61" x="1230.181641"/>
     <use xlink:href="#ArialMT-6e" x="1285.796875"/>
     <use xlink:href="#ArialMT-63" x="1341.412109"/>
     <use xlink:href="#ArialMT-65" x="1391.412109"/>
     <use xlink:href="#ArialMT-6c" x="1447.027344"/>
     <use xlink:href="#ArialMT-6c" x="1469.244141"/>
     <use xlink:href="#ArialMT-61" x="1491.460938"/>
     <use xlink:href="#ArialMT-74" x="1547.076172"/>
     <use xlink:href="#ArialMT-69" x="1574.859375"/>
     <use xlink:href="#ArialMT-6f" x="1597.076172"/>
     <use xlink:href="#ArialMT-6e" x="1652.691406"/>
     <use xlink:href="#ArialMT-20" x="1708.306641"/>
     <use xlink:href="#ArialMT-54" x="1734.339844"/>
     <use xlink:href="#ArialMT-72" x="1791.673828"/>
     <use xlink:href="#ArialMT-65" x="1824.974609"/>
     <use xlink:href="#ArialMT-6e" x="1880.589844"/>
     <use xlink:href="#ArialMT-64" x="1936.205078"/>
    </g>
   </g>
   <g id="legend_1">
    <g id="line2d_18">
     <path d="M 861.406094 35.859219 
L 872.406094 35.859219 
L 883.406094 35.859219 
" style="fill: none; stroke: #0f4c5c; stroke-width: 2.5; stroke-linecap: round"/>
    </g>
    <g id="text_19">
     <!-- Delayed arrivals -->
     <g style="fill: #3d405b" transform="translate(892.206094 39.709219) scale(0.11 -0.11)">
      <defs>
       <path id="ArialMT-76" d="M 1344 0 
L 81 3319 
L 675 3319 
L 1388 1331 
Q 1503 1009 1600 663 
Q 1675 925 1809 1294 
L 2547 3319 
L 3125 3319 
L 1869 0 
L 1344 0 
z
" transform="scale(0.015625)"/>
      </defs>
      <use xlink:href="#ArialMT-44"/>
      <use xlink:href="#ArialMT-65" x="72.216797"/>
      <use xlink:href="#ArialMT-6c" x="127.832031"/>
      <use xlink:href="#ArialMT-61" x="150.048828"/>
      <use xlink:href="#ArialMT-79" x="205.664062"/>
      <use xlink:href="#ArialMT-65" x="255.664062"/>
      <use xlink:href="#ArialMT-64" x="311.279297"/>
      <use xlink:href="#ArialMT-20" x="366.894531"/>
      <use xlink:href="#ArialMT-61" x="394.677734"/>
      <use xlink:href="#ArialMT-72" x="450.292969"/>
      <use xlink:href="#ArialMT-72" x="483.59375"/>
      <use xlink:href="#ArialMT-69" x="516.894531"/>
      <use xlink:href="#ArialMT-76" x="539.111328"/>
      <use xlink:href="#ArialMT-61" x="589.111328"/>
      <use xlink:href="#ArialMT-6c" x="644.726562"/>
      <use xlink:href="#ArialMT-73" x="666.943359"/>
     </g>
    </g>
    <g id="line2d_19">
     <path d="M 861.406094 51.547969 
L 872.406094 51.547969 
L 883.406094 51.547969 
" style="fill: none; stroke: #e36414; stroke-width: 2.5; stroke-linecap: round"/>
    </g>
    <g id="text_20">
     <!-- Cancelled arrivals -->
     <g style="fill: #3d405b" transform="translate(892.206094 55.397969) scale(0.11 -0.11)">
      <use xlink:href="#ArialMT-43"/>
      <use xlink:href="#ArialMT-61" x="72.216797"/>
      <use xlink:href="#ArialMT-6e" x="127.832031"/>
      <use xlink:href="#ArialMT-63" x="183.447266"/>
      <use xlink:href="#ArialMT-65" x="233.447266"/>
      <use xlink:href="#ArialMT-6c" x="289.0625"/>
      <use xlink:href="#ArialMT-6c" x="311.279297"/>
      <use xlink:href="#ArialMT-65" x="333.496094"/>
      <use xlink:href="#ArialMT-64" x="389.111328"/>
      <use xlink:href="#ArialMT-20" x="444.726562"/>
      <use xlink:href="#ArialMT-61" x="472.509766"/>
      <use xlink:href="#ArialMT-72" x="528.125"/>
      <use xlink:href="#ArialMT-72" x="561.425781"/>
      <use xlink:href="#ArialMT-69" x="594.726562"/>
      <use xlink:href="#ArialMT-76" x="616.943359"/>
      <use xlink:href="#ArialMT-61" x="666.943359"/>
      <use xlink:href="#ArialMT-6c" x="722.558594"/>
      <use xlink:href="#ArialMT-73" x="744.775391"/>
     </g>
    </g>
   </g>
  </g>
 </g>
 <defs>
  <clipPath id="p64090d4aa2">
   <rect x="56.283125" y="21.935625" width="933.24375" height="357.00375"/>
  </clipPath>
 </defs>
</svg>
