<?xml version="1.0" encoding="utf-8" standalone="no"?>
<!DOCTYPE svg PUBLIC "-//W3C//DTD SVG 1.1//EN"
  "http://www.w3.org/Graphics/SVG/1.1/DTD/svg11.dtd">
<svg xmlns:xlink="http://www.w3.org/1999/xlink" width="904.50875pt" height="412.556875pt" viewBox="0 0 904.50875 412.556875" xmlns="http://www.w3.org/2000/svg" version="1.1">
 <metadata>
  <rdf:RDF xmlns:dc="http://purl.org/dc/elements/1.1/" xmlns:cc="http://creativecommons.org/ns#" xmlns:rdf="http://www.w3.org/1999/02/22-rdf-syntax-ns#">
   <cc:Work>
    <dc:type rdf:resource="http://purl.org/dc/dcmitype/StillImage"/>
    <dc:date>2026-04-19T14:52:31.176343</dc:date>
    <dc:format>image/svg+xml</dc:format>
    <dc:creator>
     <cc:Agent>
      <dc:title>Matplotlib v3.10.8, https://matplotlib.org/</dc:title>
     </cc:Agent>
    </dc:creator>
   </cc:Work>
  </rdf:RDF>
 </metadata>
 <defs>
  <style type="text/css">*{stroke-linejoin: round; stroke-linecap: butt}</style>
 </defs>
 <g id="figure_1">
  <g id="patch_1">
   <path d="M 0 412.556875 
L 904.50875 412.556875 
L 904.50875 0 
L 0 0 
z
" style="fill: #f6f2e8"/>
  </g>
  <g id="axes_1">
   <g id="patch_2">
    <path d="M 60.30875 369.597187 
L 897.30875 369.597187 
L 897.30875 26.877187 
L 60.30875 26.877187 
z
" style="fill: #f6f2e8"/>
   </g>
   <g id="matplotlib.axis_1">
    <g id="xtick_1">
     <g id="line2d_1">
      <path d="M 60.30875 369.597187 
L 60.30875 26.877187 
" clip-path="url(#p8e1cddd248)" style="fill: none; stroke: #d9d2c3; stroke-linecap: round"/>
     </g>
     <g id="text_1">
      <!-- 2020 -->
      <g style="fill: #3d405b" transform="translate(32.31375 387.455469) scale(0.11 -0.11)">
       <defs>
        <path id="DejaVuSans-32" d="M 1228 531 
L 3431 531 
L 3431 0 
L 469 0 
L 469 531 
Q 828 903 1448 1529 
Q 2069 2156 2228 2338 
Q 2531 2678 2651 2914 
Q 2772 3150 2772 3378 
Q 2772 3750 2511 3984 
Q 2250 4219 1831 4219 
Q 1534 4219 1204 4116 
Q 875 4013 500 3803 
L 500 4441 
Q 881 4594 1212 4672 
Q 1544 4750 1819 4750 
Q 2544 4750 2975 4387 
Q 3406 4025 3406 3419 
Q 3406 3131 3298 2873 
Q 3191 2616 2906 2266 
Q 2828 2175 2409 1742 
Q 1991 1309 1228 531 
z
" transform="scale(0.015625)"/>
        <path id="DejaVuSans-30" d="M 2034 4250 
Q 1547 4250 1301 3770 
Q 1056 3291 1056 2328 
Q 1056 1369 1301 889 
Q 1547 409 2034 409 
Q 2525 409 2770 889 
Q 3016 1369 3016 2328 
Q 3016 3291 2770 3770 
Q 2525 4250 2034 4250 
z
M 2034 4750 
Q 2819 4750 3233 4129 
Q 3647 3509 3647 2328 
Q 3647 1150 3233 529 
Q 2819 -91 2034 -91 
Q 1250 -91 836 529 
Q 422 1150 422 2328 
Q 422 3509 836 4129 
Q 1250 4750 2034 4750 
z
" transform="scale(0.015625)"/>
       </defs>
       <use xlink:href="#DejaVuSans-32"/>
       <use xlink:href="#DejaVuSans-30" transform="translate(63.623047 0)"/>
       <use xlink:href="#DejaVuSans-32" transform="translate(127.246094 0)"/>
       <use xlink:href="#DejaVuSans-30" transform="translate(190.869141 0)"/>
      </g>
     </g>
    </g>
    <g id="xtick_2">
     <g id="line2d_2">
      <path d="M 202.068121 369.597187 
L 202.068121 26.877187 
" clip-path="url(#p8e1cddd248)" style="fill: none; stroke: #d9d2c3; stroke-linecap: round"/>
     </g>
     <g id="text_2">
      <!-- 2021 -->
      <g style="fill: #3d405b" transform="translate(174.073121 387.455469) scale(0.11 -0.11)">
       <defs>
        <path id="DejaVuSans-31" d="M 794 531 
L 1825 531 
L 1825 4091 
L 703 3866 
L 703 4441 
L 1819 4666 
L 2450 4666 
L 2450 531 
L 3481 531 
L 3481 0 
L 794 0 
L 794 531 
z
" transform="scale(0.015625)"/>
       </defs>
       <use xlink:href="#DejaVuSans-32"/>
       <use xlink:href="#DejaVuSans-30" transform="translate(63.623047 0)"/>
       <use xlink:href="#DejaVuSans-32" transform="translate(127.246094 0)"/>
       <use xlink:href="#DejaVuSans-31" transform="translate(190.869141 0)"/>
      </g>
     </g>
    </g>
    <g id="xtick_3">
     <g id="line2d_3">
      <path d="M 343.440171 369.597187 
L 343.440171 26.877187 
" clip-path="url(#p8e1cddd248)" style="fill: none; stroke: #d9d2c3; stroke-linecap: round"/>
     </g>
     <g id="text_3">
      <!-- 2022 -->
      <g style="fill: #3d405b" transform="translate(315.445171 387.455469) scale(0.11 -0.11)">
       <use xlink:href="#DejaVuSans-32"/>
       <use xlink:href="#DejaVuSans-30" transform="translate(63.623047 0)"/>
       <use xlink:href="#DejaVuSans-32" transform="translate(127.246094 0)"/>
       <use xlink:href="#DejaVuSans-32" transform="translate(190.869141 0)"/>
      </g>
     </g>
    </g>
    <g id="xtick_4">
     <g id="line2d_4">
      <path d="M 484.812221 369.597187 
L 484.812221 26.877187 
" clip-path="url(#p8e1cddd248)" style="fill: none; stroke: #d9d2c3; stroke-linecap: round"/>
     </g>
     <g id="text_4">
      <!-- 2023 -->
      <g style="fill: #3d405b" transform="translate(456.817221 387.455469) scale(0.11 -0.11)">
       <defs>
        <path id="DejaVuSans-33" d="M 2597 2516 
Q 3050 2419 3304 2112 
Q 3559 1806 3559 1356 
Q 3559 666 3084 287 
Q 2609 -91 1734 -91 
Q 1441 -91 1130 -33 
Q 819 25 488 141 
L 488 750 
Q 750 597 1062 519 
Q 1375 441 1716 441 
Q 2309 441 2620 675 
Q 2931 909 2931 1356 
Q 2931 1769 2642 2001 
Q 2353 2234 1838 2234 
L 1294 2234 
L 1294 2753 
L 1863 2753 
Q 2328 2753 2575 2939 
Q 2822 3125 2822 3475 
Q 2822 3834 2567 4026 
Q 2313 4219 1838 4219 
Q 1578 4219 1281 4162 
Q 984 4106 628 3988 
L 628 4550 
Q 988 4650 1302 4700 
Q 1616 4750 1894 4750 
Q 2613 4750 3031 4423 
Q 3450 4097 3450 3541 
Q 3450 3153 3228 2886 
Q 3006 2619 2597 2516 
z
" transform="scale(0.015625)"/>
       </defs>
       <use xlink:href="#DejaVuSans-32"/>
       <use xlink:href="#DejaVuSans-30" transform="translate(63.623047 0)"/>
       <use xlink:href="#DejaVuSans-32" transform="translate(127.246094 0)"/>
       <use xlink:href="#DejaVuSans-33" transform="translate(190.869141 0)"/>
      </g>
     </g>
    </g>
    <g id="xtick_5">
     <g id="line2d_5">
      <path d="M 626.184271 369.597187 
L 626.184271 26.877187 
" clip-path="url(#p8e1cddd248)" style="fill: none; stroke: #d9d2c3; stroke-linecap: round"/>
     </g>
     <g id="text_5">
      <!-- 2024 -->
      <g style="fill: #3d405b" transform="translate(598.189271 387.455469) scale(0.11 -0.11)">
       <defs>
        <path id="DejaVuSans-34" d="M 2419 4116 
L 825 1625 
L 2419 1625 
L 2419 4116 
z
M 2253 4666 
L 3047 4666 
L 3047 1625 
L 3713 1625 
L 3713 1100 
L 3047 1100 
L 3047 0 
L 2419 0 
L 2419 1100 
L 313 1100 
L 313 1709 
L 2253 4666 
z
" transform="scale(0.015625)"/>
       </defs>
       <use xlink:href="#DejaVuSans-32"/>
       <use xlink:href="#DejaVuSans-30" transform="translate(63.623047 0)"/>
       <use xlink:href="#DejaVuSans-32" transform="translate(127.246094 0)"/>
       <use xlink:href="#DejaVuSans-34" transform="translate(190.869141 0)"/>
      </g>
     </g>
    </g>
    <g id="xtick_6">
     <g id="line2d_6">
      <path d="M 767.943641 369.597187 
L 767.943641 26.877187 
" clip-path="url(#p8e1cddd248)" style="fill: none; stroke: #d9d2c3; stroke-linecap: round"/>
     </g>
     <g id="text_6">
      <!-- 2025 -->
      <g style="fill: #3d405b" transform="translate(739.948641 387.455469) scale(0.11 -0.11)">
       <defs>
        <path id="DejaVuSans-35" d="M 691 4666 
L 3169 4666 
L 3169 4134 
L 1269 4134 
L 1269 2991 
Q 1406 3038 1543 3061 
Q 1681 3084 1819 3084 
Q 2600 3084 3056 2656 
Q 3513 2228 3513 1497 
Q 3513 744 3044 326 
Q 2575 -91 1722 -91 
Q 1428 -91 1123 -41 
Q 819 9 494 109 
L 494 744 
Q 775 591 1075 516 
Q 1375 441 1709 441 
Q 2250 441 2565 725 
Q 2881 1009 2881 1497 
Q 2881 1984 2565 2268 
Q 2250 2553 1709 2553 
Q 1456 2553 1204 2497 
Q 953 2441 691 2322 
L 691 4666 
z
" transform="scale(0.015625)"/>
       </defs>
       <use xlink:href="#DejaVuSans-32"/>
       <use xlink:href="#DejaVuSans-30" transform="translate(63.623047 0)"/>
       <use xlink:href="#DejaVuSans-32" transform="translate(127.246094 0)"/>
       <use xlink:href="#DejaVuSans-35" transform="translate(190.869141 0)"/>
      </g>
     </g>
    </g>
    <g id="xtick_7"/>
    <g id="xtick_8"/>
    <g id="xtick_9"/>
    <g id="xtick_10"/>
    <g id="xtick_11"/>
    <g id="xtick_12"/>
    <g id="xtick_13"/>
    <g id="xtick_14"/>
    <g id="xtick_15"/>
    <g id="xtick_16"/>
    <g id="xtick_17"/>
    <g id="xtick_18"/>
    <g id="xtick_19"/>
    <g id="xtick_20"/>
    <g id="xtick_21"/>
    <g id="xtick_22"/>
    <g id="xtick_23"/>
    <g id="xtick_24"/>
    <g id="xtick_25"/>
    <g id="xtick_26"/>
    <g id="xtick_27"/>
    <g id="xtick_28"/>
    <g id="xtick_29"/>
    <g id="xtick_30"/>
    <g id="text_7">
     <!-- Year-Month -->
     <g style="fill: #3d405b" transform="translate(445.51625 402.86125) scale(0.12 -0.12)">
      <defs>
       <path id="DejaVuSans-59" d="M -13 4666 
L 666 4666 
L 1959 2747 
L 3244 4666 
L 3922 4666 
L 2272 2222 
L 2272 0 
L 1638 0 
L 1638 2222 
L -13 4666 
z
" transform="scale(0.015625)"/>
       <path id="DejaVuSans-65" d="M 3597 1894 
L 3597 1613 
L 953 1613 
Q 991 1019 1311 708 
Q 1631 397 2203 397 
Q 2534 397 2845 478 
Q 3156 559 3463 722 
L 3463 178 
Q 3153 47 2828 -22 
Q 2503 -91 2169 -91 
Q 1331 -91 842 396 
Q 353 884 353 1716 
Q 353 2575 817 3079 
Q 1281 3584 2069 3584 
Q 2775 3584 3186 3129 
Q 3597 2675 3597 1894 
z
M 3022 2063 
Q 3016 2534 2758 2815 
Q 2500 3097 2075 3097 
Q 1594 3097 1305 2825 
Q 1016 2553 972 2059 
L 3022 2063 
z
" transform="scale(0.015625)"/>
       <path id="DejaVuSans-61" d="M 2194 1759 
Q 1497 1759 1228 1600 
Q 959 1441 959 1056 
Q 959 750 1161 570 
Q 1363 391 1709 391 
Q 2188 391 2477 730 
Q 2766 1069 2766 1631 
L 2766 1759 
L 2194 1759 
z
M 3341 1997 
L 3341 0 
L 2766 0 
L 2766 531 
Q 2569 213 2275 61 
Q 1981 -91 1556 -91 
Q 1019 -91 701 211 
Q 384 513 384 1019 
Q 384 1609 779 1909 
Q 1175 2209 1959 2209 
L 2766 2209 
L 2766 2266 
Q 2766 2663 2505 2880 
Q 2244 3097 1772 3097 
Q 1472 3097 1187 3025 
Q 903 2953 641 2809 
L 641 3341 
Q 956 3463 1253 3523 
Q 1550 3584 1831 3584 
Q 2591 3584 2966 3190 
Q 3341 2797 3341 1997 
z
" transform="scale(0.015625)"/>
       <path id="DejaVuSans-72" d="M 2631 2963 
Q 2534 3019 2420 3045 
Q 2306 3072 2169 3072 
Q 1681 3072 1420 2755 
Q 1159 2438 1159 1844 
L 1159 0 
L 581 0 
L 581 3500 
L 1159 3500 
L 1159 2956 
Q 1341 3275 1631 3429 
Q 1922 3584 2338 3584 
Q 2397 3584 2469 3576 
Q 2541 3569 2628 3553 
L 2631 2963 
z
" transform="scale(0.015625)"/>
       <path id="DejaVuSans-2d" d="M 313 2009 
L 1997 2009 
L 1997 1497 
L 313 1497 
L 313 2009 
z
" transform="scale(0.015625)"/>
       <path id="DejaVuSans-4d" d="M 628 4666 
L 1569 4666 
L 2759 1491 
L 3956 4666 
L 4897 4666 
L 4897 0 
L 4281 0 
L 4281 4097 
L 3078 897 
L 2444 897 
L 1241 4097 
L 1241 0 
L 628 0 
L 628 4666 
z
" transform="scale(0.015625)"/>
       <path id="DejaVuSans-6f" d="M 1959 3097 
Q 1497 3097 1228 2736 
Q 959 2375 959 1747 
Q 959 1119 1226 758 
Q 1494 397 1959 397 
Q 2419 397 2687 759 
Q 2956 1122 2956 1747 
Q 2956 2369 2687 2733 
Q 2419 3097 1959 3097 
z
M 1959 3584 
Q 2709 3584 3137 3096 
Q 3566 2609 3566 1747 
Q 3566 888 3137 398 
Q 2709 -91 1959 -91 
Q 1206 -91 779 398 
Q 353 888 353 1747 
Q 353 2609 779 3096 
Q 1206 3584 1959 3584 
z
" transform="scale(0.015625)"/>
       <path id="DejaVuSans-6e" d="M 3513 2113 
L 3513 0 
L 2938 0 
L 2938 2094 
Q 2938 2591 2744 2837 
Q 2550 3084 2163 3084 
Q 1697 3084 1428 2787 
Q 1159 2491 1159 1978 
L 1159 0 
L 581 0 
L 581 3500 
L 1159 3500 
L 1159 2956 
Q 1366 3272 1645 3428 
Q 1925 3584 2291 3584 
Q 2894 3584 3203 3211 
Q 3513 2838 3513 2113 
z
" transform="scale(0.015625)"/>
       <path id="DejaVuSans-74" d="M 1172 4494 
L 1172 3500 
L 2356 3500 
L 2356 3053 
L 1172 3053 
L 1172 1153 
Q 1172 725 1289 603 
Q 1406 481 1766 481 
L 2356 481 
L 2356 0 
L 1766 0 
Q 1100 0 847 248 
Q 594 497 594 1153 
L 594 3053 
L 172 3053 
L 172 3500 
L 594 3500 
L 594 4494 
L 1172 4494 
z
" transform="scale(0.015625)"/>
       <path id="DejaVuSans-68" d="M 3513 2113 
L 3513 0 
L 2938 0 
L 2938 2094 
Q 2938 2591 2744 2837 
Q 2550 3084 2163 3084 
Q 1697 3084 1428 2787 
Q 1159 2491 1159 1978 
L 1159 0 
L 581 0 
L 581 4863 
L 1159 4863 
L 1159 2956 
Q 1366 3272 1645 3428 
Q 1925 3584 2291 3584 
Q 2894 3584 3203 3211 
Q 3513 2838 3513 2113 
z
" transform="scale(0.015625)"/>
      </defs>
      <use xlink:href="#DejaVuSans-59"/>
      <use xlink:href="#DejaVuSans-65" transform="translate(47.833984 0)"/>
      <use xlink:href="#DejaVuSans-61" transform="translate(109.357422 0)"/>
      <use xlink:href="#DejaVuSans-72" transform="translate(170.636719 0)"/>
      <use xlink:href="#DejaVuSans-2d" transform="translate(205.375 0)"/>
      <use xlink:href="#DejaVuSans-4d" transform="translate(241.458984 0)"/>
      <use xlink:href="#DejaVuSans-6f" transform="translate(327.738281 0)"/>
      <use xlink:href="#DejaVuSans-6e" transform="translate(388.919922 0)"/>
      <use xlink:href="#DejaVuSans-74" transform="translate(452.298828 0)"/>
      <use xlink:href="#DejaVuSans-68" transform="translate(491.507812 0)"/>
     </g>
    </g>
   </g>
   <g id="matplotlib.axis_2">
    <g id="ytick_1">
     <g id="line2d_7">
      <path d="M 60.30875 354.019006 
L 897.30875 354.019006 
" clip-path="url(#p8e1cddd248)" style="fill: none; stroke: #d9d2c3; stroke-linecap: round"/>
     </g>
     <g id="text_8">
      <!-- 0 -->
      <g style="fill: #3d405b" transform="translate(43.81 358.198146) scale(0.11 -0.11)">
       <use xlink:href="#DejaVuSans-30"/>
      </g>
     </g>
    </g>
    <g id="ytick_2">
     <g id="line2d_8">
      <path d="M 60.30875 311.420751 
L 897.30875 311.420751 
" clip-path="url(#p8e1cddd248)" style="fill: none; stroke: #d9d2c3; stroke-linecap: round"/>
     </g>
     <g id="text_9">
      <!-- 500 -->
      <g style="fill: #3d405b" transform="translate(29.8125 315.599891) scale(0.11 -0.11)">
       <use xlink:href="#DejaVuSans-35"/>
       <use xlink:href="#DejaVuSans-30" transform="translate(63.623047 0)"/>
       <use xlink:href="#DejaVuSans-30" transform="translate(127.246094 0)"/>
      </g>
     </g>
    </g>
    <g id="ytick_3">
     <g id="line2d_9">
      <path d="M 60.30875 268.822496 
L 897.30875 268.822496 
" clip-path="url(#p8e1cddd248)" style="fill: none; stroke: #d9d2c3; stroke-linecap: round"/>
     </g>
     <g id="text_10">
      <!-- 1000 -->
      <g style="fill: #3d405b" transform="translate(22.81375 273.001636) scale(0.11 -0.11)">
       <use xlink:href="#DejaVuSans-31"/>
       <use xlink:href="#DejaVuSans-30" transform="translate(63.623047 0)"/>
       <use xlink:href="#DejaVuSans-30" transform="translate(127.246094 0)"/>
       <use xlink:href="#DejaVuSans-30" transform="translate(190.869141 0)"/>
      </g>
     </g>
    </g>
    <g id="ytick_4">
     <g id="line2d_10">
      <path d="M 60.30875 226.224241 
L 897.30875 226.224241 
" clip-path="url(#p8e1cddd248)" style="fill: none; stroke: #d9d2c3; stroke-linecap: round"/>
     </g>
     <g id="text_11">
      <!-- 1500 -->
      <g style="fill: #3d405b" transform="translate(22.81375 230.403382) scale(0.11 -0.11)">
       <use xlink:href="#DejaVuSans-31"/>
       <use xlink:href="#DejaVuSans-35" transform="translate(63.623047 0)"/>
       <use xlink:href="#DejaVuSans-30" transform="translate(127.246094 0)"/>
       <use xlink:href="#DejaVuSans-30" transform="translate(190.869141 0)"/>
      </g>
     </g>
    </g>
    <g id="ytick_5">
     <g id="line2d_11">
      <path d="M 60.30875 183.625986 
L 897.30875 183.625986 
" clip-path="url(#p8e1cddd248)" style="fill: none; stroke: #d9d2c3; stroke-linecap: round"/>
     </g>
     <g id="text_12">
      <!-- 2000 -->
      <g style="fill: #3d405b" transform="translate(22.81375 187.805127) scale(0.11 -0.11)">
       <use xlink:href="#DejaVuSans-32"/>
       <use xlink:href="#DejaVuSans-30" transform="translate(63.623047 0)"/>
       <use xlink:href="#DejaVuSans-30" transform="translate(127.246094 0)"/>
       <use xlink:href="#DejaVuSans-30" transform="translate(190.869141 0)"/>
      </g>
     </g>
    </g>
    <g id="ytick_6">
     <g id="line2d_12">
      <path d="M 60.30875 141.027731 
L 897.30875 141.027731 
" clip-path="url(#p8e1cddd248)" style="fill: none; stroke: #d9d2c3; stroke-linecap: round"/>
     </g>
     <g id="text_13">
      <!-- 2500 -->
      <g style="fill: #3d405b" transform="translate(22.81375 145.206872) scale(0.11 -0.11)">
       <use xlink:href="#DejaVuSans-32"/>
       <use xlink:href="#DejaVuSans-35" transform="translate(63.623047 0)"/>
       <use xlink:href="#DejaVuSans-30" transform="translate(127.246094 0)"/>
       <use xlink:href="#DejaVuSans-30" transform="translate(190.869141 0)"/>
      </g>
     </g>
    </g>
    <g id="ytick_7">
     <g id="line2d_13">
      <path d="M 60.30875 98.429476 
L 897.30875 98.429476 
" clip-path="url(#p8e1cddd248)" style="fill: none; stroke: #d9d2c3; stroke-linecap: round"/>
     </g>
     <g id="text_14">
      <!-- 3000 -->
      <g style="fill: #3d405b" transform="translate(22.81375 102.608617) scale(0.11 -0.11)">
       <use xlink:href="#DejaVuSans-33"/>
       <use xlink:href="#DejaVuSans-30" transform="translate(63.623047 0)"/>
       <use xlink:href="#DejaVuSans-30" transform="translate(127.246094 0)"/>
       <use xlink:href="#DejaVuSans-30" transform="translate(190.869141 0)"/>
      </g>
     </g>
    </g>
    <g id="ytick_8">
     <g id="line2d_14">
      <path d="M 60.30875 55.831221 
L 897.30875 55.831221 
" clip-path="url(#p8e1cddd248)" style="fill: none; stroke: #d9d2c3; stroke-linecap: round"/>
     </g>
     <g id="text_15">
      <!-- 3500 -->
      <g style="fill: #3d405b" transform="translate(22.81375 60.010362) scale(0.11 -0.11)">
       <use xlink:href="#DejaVuSans-33"/>
       <use xlink:href="#DejaVuSans-35" transform="translate(63.623047 0)"/>
       <use xlink:href="#DejaVuSans-30" transform="translate(127.246094 0)"/>
       <use xlink:href="#DejaVuSans-30" transform="translate(190.869141 0)"/>
      </g>
     </g>
    </g>
    <g id="text_16">
     <!-- Flights -->
     <g style="fill: #3d405b" transform="translate(16.318125 218.11125) rotate(-90) scale(0.12 -0.12)">
      <defs>
       <path id="DejaVuSans-46" d="M 628 4666 
L 3309 4666 
L 3309 4134 
L 1259 4134 
L 1259 2759 
L 3109 2759 
L 3109 2228 
L 1259 2228 
L 1259 0 
L 628 0 
L 628 4666 
z
" transform="scale(0.015625)"/>
       <path id="DejaVuSans-6c" d="M 603 4863 
L 1178 4863 
L 1178 0 
L 603 0 
L 603 4863 
z
" transform="scale(0.015625)"/>
       <path id="DejaVuSans-69" d="M 603 3500 
L 1178 3500 
L 1178 0 
L 603 0 
L 603 3500 
z
M 603 4863 
L 1178 4863 
L 1178 4134 
L 603 4134 
L 603 4863 
z
" transform="scale(0.015625)"/>
       <path id="DejaVuSans-67" d="M 2906 1791 
Q 2906 2416 2648 2759 
Q 2391 3103 1925 3103 
Q 1463 3103 1205 2759 
Q 947 2416 947 1791 
Q 947 1169 1205 825 
Q 1463 481 1925 481 
Q 2391 481 2648 825 
Q 2906 1169 2906 1791 
z
M 3481 434 
Q 3481 -459 3084 -895 
Q 2688 -1331 1869 -1331 
Q 1566 -1331 1297 -1286 
Q 1028 -1241 775 -1147 
L 775 -588 
Q 1028 -725 1275 -790 
Q 1522 -856 1778 -856 
Q 2344 -856 2625 -561 
Q 2906 -266 2906 331 
L 2906 616 
Q 2728 306 2450 153 
Q 2172 0 1784 0 
Q 1141 0 747 490 
Q 353 981 353 1791 
Q 353 2603 747 3093 
Q 1141 3584 1784 3584 
Q 2172 3584 2450 3431 
Q 2728 3278 2906 2969 
L 2906 3500 
L 3481 3500 
L 3481 434 
z
" transform="scale(0.015625)"/>
       <path id="DejaVuSans-73" d="M 2834 3397 
L 2834 2853 
Q 2591 2978 2328 3040 
Q 2066 3103 1784 3103 
Q 1356 3103 1142 2972 
Q 928 2841 928 2578 
Q 928 2378 1081 2264 
Q 1234 2150 1697 2047 
L 1894 2003 
Q 2506 1872 2764 1633 
Q 3022 1394 3022 966 
Q 3022 478 2636 193 
Q 2250 -91 1575 -91 
Q 1294 -91 989 -36 
Q 684 19 347 128 
L 347 722 
Q 666 556 975 473 
Q 1284 391 1588 391 
Q 1994 391 2212 530 
Q 2431 669 2431 922 
Q 2431 1156 2273 1281 
Q 2116 1406 1581 1522 
L 1381 1569 
Q 847 1681 609 1914 
Q 372 2147 372 2553 
Q 372 3047 722 3315 
Q 1072 3584 1716 3584 
Q 2034 3584 2315 3537 
Q 2597 3491 2834 3397 
z
" transform="scale(0.015625)"/>
      </defs>
      <use xlink:href="#DejaVuSans-46"/>
      <use xlink:href="#DejaVuSans-6c" transform="translate(57.519531 0)"/>
      <use xlink:href="#DejaVuSans-69" transform="translate(85.302734 0)"/>
      <use xlink:href="#DejaVuSans-67" transform="translate(113.085938 0)"/>
      <use xlink:href="#DejaVuSans-68" transform="translate(176.5625 0)"/>
      <use xlink:href="#DejaVuSans-74" transform="translate(239.941406 0)"/>
      <use xlink:href="#DejaVuSans-73" transform="translate(279.150391 0)"/>
     </g>
    </g>
   </g>
   <g id="FillBetweenPolyCollection_1">
    <defs>
     <path id="mce58eaece7" d="M 60.30875 -58.537869 
L 60.30875 -178.068573 
L 72.315691 -157.62141 
L 83.547991 -120.646125 
L 95.554932 -63.39407 
L 107.174553 -62.882891 
L 119.181494 -67.31311 
L 130.801115 -84.522805 
L 142.808056 -82.563285 
L 154.814997 -68.505861 
L 166.434618 -75.321582 
L 178.441559 -81.540927 
L 190.061179 -109.144596 
L 202.068121 -94.490796 
L 214.075062 -97.983853 
L 224.920041 -89.293809 
L 236.926982 -110.081758 
L 248.546603 -127.376649 
L 260.553544 -217.173771 
L 272.173165 -261.475956 
L 284.180106 -224.245081 
L 296.187047 -172.530799 
L 307.806668 -153.361585 
L 319.813609 -211.635997 
L 331.433229 -236.598575 
L 343.440171 -252.530322 
L 355.447112 -266.076567 
L 366.292091 -280.389581 
L 378.299032 -278.089275 
L 389.918653 -310.804735 
L 401.925594 -327.588447 
L 413.545215 -318.472421 
L 425.552156 -326.651286 
L 437.559097 -268.717659 
L 449.178718 -291.124341 
L 461.185659 -267.780497 
L 472.805279 -336.960063 
L 484.812221 -300.66635 
L 496.819162 -240.602811 
L 507.664141 -308.24884 
L 519.671082 -330.825915 
L 531.290703 -245.203422 
L 543.297644 -326.395696 
L 554.917265 -370.101506 
L 566.924206 -278.344865 
L 578.931147 -290.016786 
L 590.550768 -210.954425 
L 602.557709 -188.718136 
L 614.177329 -232.338749 
L 626.184271 -234.383466 
L 638.191212 -192.381586 
L 649.423512 -251.337571 
L 661.430453 -226.800976 
L 673.050073 -263.435475 
L 685.057015 -286.949712 
L 696.676635 -328.866395 
L 708.683576 -305.522551 
L 720.690518 -185.991848 
L 732.310138 -171.167655 
L 744.317079 -160.688485 
L 755.9367 -274.170236 
L 767.943641 -203.883115 
L 779.950582 -214.873465 
L 790.795562 -241.539972 
L 802.802503 -214.958661 
L 814.422123 -302.62587 
L 826.429065 -328.355216 
L 838.048685 -333.552203 
L 850.055626 -242.136348 
L 862.062568 -185.139883 
L 873.682188 -227.908531 
L 885.689129 -228.675299 
L 897.30875 -306.970892 
L 897.30875 -58.537869 
L 897.30875 -58.537869 
L 885.689129 -58.537869 
L 873.682188 -58.537869 
L 862.062568 -58.537869 
L 850.055626 -58.537869 
L 838.048685 -58.537869 
L 826.429065 -58.537869 
L 814.422123 -58.537869 
L 802.802503 -58.537869 
L 790.795562 -58.537869 
L 779.950582 -58.537869 
L 767.943641 -58.537869 
L 755.9367 -58.537869 
L 744.317079 -58.537869 
L 732.310138 -58.537869 
L 720.690518 -58.537869 
L 708.683576 -58.537869 
L 696.676635 -58.537869 
L 685.057015 -58.537869 
L 673.050073 -58.537869 
L 661.430453 -58.537869 
L 649.423512 -58.537869 
L 638.191212 -58.537869 
L 626.184271 -58.537869 
L 614.177329 -58.537869 
L 602.557709 -58.537869 
L 590.550768 -58.537869 
L 578.931147 -58.537869 
L 566.924206 -58.537869 
L 554.917265 -58.537869 
L 543.297644 -58.537869 
L 531.290703 -58.537869 
L 519.671082 -58.537869 
L 507.664141 -58.537869 
L 496.819162 -58.537869 
L 484.812221 -58.537869 
L 472.805279 -58.537869 
L 461.185659 -58.537869 
L 449.178718 -58.537869 
L 437.559097 -58.537869 
L 425.552156 -58.537869 
L 413.545215 -58.537869 
L 401.925594 -58.537869 
L 389.918653 -58.537869 
L 378.299032 -58.537869 
L 366.292091 -58.537869 
L 355.447112 -58.537869 
L 343.440171 -58.537869 
L 331.433229 -58.537869 
L 319.813609 -58.537869 
L 307.806668 -58.537869 
L 296.187047 -58.537869 
L 284.180106 -58.537869 
L 272.173165 -58.537869 
L 260.553544 -58.537869 
L 248.546603 -58.537869 
L 236.926982 -58.537869 
L 224.920041 -58.537869 
L 214.075062 -58.537869 
L 202.068121 -58.537869 
L 190.061179 -58.537869 
L 178.441559 -58.537869 
L 166.434618 -58.537869 
L 154.814997 -58.537869 
L 142.808056 -58.537869 
L 130.801115 -58.537869 
L 119.181494 -58.537869 
L 107.174553 -58.537869 
L 95.554932 -58.537869 
L 83.547991 -58.537869 
L 72.315691 -58.537869 
L 60.30875 -58.537869 
z
" style="stroke: #0f4c5c; stroke-opacity: 0.1"/>
    </defs>
    <g clip-path="url(#p8e1cddd248)">
     <use xlink:href="#mce58eaece7" x="0" y="412.556875" style="fill: #0f4c5c; fill-opacity: 0.1; stroke: #0f4c5c; stroke-opacity: 0.1"/>
    </g>
   </g>
   <g id="FillBetweenPolyCollection_2">
    <defs>
     <path id="mbaae74391b" d="M 60.30875 -58.537869 
L 60.30875 -60.156603 
L 72.315691 -60.497389 
L 83.547991 -220.411238 
L 95.554932 -158.899358 
L 107.174553 -64.757215 
L 119.181494 -60.582586 
L 130.801115 -68.931844 
L 142.808056 -65.183197 
L 154.814997 -59.901013 
L 166.434618 -58.878655 
L 178.441559 -61.349354 
L 190.061179 -66.801931 
L 202.068121 -62.371712 
L 214.075062 -77.366298 
L 224.920041 -59.560227 
L 236.926982 -61.519747 
L 248.546603 -58.963852 
L 260.553544 -63.905249 
L 272.173165 -72.510097 
L 284.180106 -67.483503 
L 296.187047 -71.743328 
L 307.806668 -61.94573 
L 319.813609 -62.286516 
L 331.433229 -77.195905 
L 343.440171 -155.065515 
L 355.447112 -86.993504 
L 366.292091 -72.68049 
L 378.299032 -103.606823 
L 389.918653 -101.306517 
L 401.925594 -121.668483 
L 413.545215 -95.427958 
L 425.552156 -98.835818 
L 437.559097 -77.536691 
L 449.178718 -67.142717 
L 461.185659 -66.375948 
L 472.805279 -84.948787 
L 484.812221 -65.949966 
L 496.819162 -71.146953 
L 507.664141 -75.065992 
L 519.671082 -89.03822 
L 531.290703 -64.246035 
L 543.297644 -103.521626 
L 554.917265 -137.685427 
L 566.924206 -76.003154 
L 578.931147 -107.185076 
L 590.550768 -59.475031 
L 602.557709 -59.049048 
L 614.177329 -63.138481 
L 626.184271 -83.074464 
L 638.191212 -69.357826 
L 649.423512 -65.35359 
L 661.430453 -67.824289 
L 673.050073 -66.716734 
L 685.057015 -89.208613 
L 696.676635 -95.768744 
L 708.683576 -118.175426 
L 720.690518 -61.008568 
L 732.310138 -64.672018 
L 744.317079 -59.134245 
L 755.9367 -62.968088 
L 767.943641 -73.617652 
L 779.950582 -76.173547 
L 790.795562 -66.716734 
L 802.802503 -62.882891 
L 814.422123 -69.102237 
L 826.429065 -90.401364 
L 838.048685 -132.999619 
L 850.055626 -68.76145 
L 862.062568 -65.60918 
L 873.682188 -72.595293 
L 885.689129 -84.182019 
L 897.30875 -95.257565 
L 897.30875 -58.537869 
L 897.30875 -58.537869 
L 885.689129 -58.537869 
L 873.682188 -58.537869 
L 862.062568 -58.537869 
L 850.055626 -58.537869 
L 838.048685 -58.537869 
L 826.429065 -58.537869 
L 814.422123 -58.537869 
L 802.802503 -58.537869 
L 790.795562 -58.537869 
L 779.950582 -58.537869 
L 767.943641 -58.537869 
L 755.9367 -58.537869 
L 744.317079 -58.537869 
L 732.310138 -58.537869 
L 720.690518 -58.537869 
L 708.683576 -58.537869 
L 696.676635 -58.537869 
L 685.057015 -58.537869 
L 673.050073 -58.537869 
L 661.430453 -58.537869 
L 649.423512 -58.537869 
L 638.191212 -58.537869 
L 626.184271 -58.537869 
L 614.177329 -58.537869 
L 602.557709 -58.537869 
L 590.550768 -58.537869 
L 578.931147 -58.537869 
L 566.924206 -58.537869 
L 554.917265 -58.537869 
L 543.297644 -58.537869 
L 531.290703 -58.537869 
L 519.671082 -58.537869 
L 507.664141 -58.537869 
L 496.819162 -58.537869 
L 484.812221 -58.537869 
L 472.805279 -58.537869 
L 461.185659 -58.537869 
L 449.178718 -58.537869 
L 437.559097 -58.537869 
L 425.552156 -58.537869 
L 413.545215 -58.537869 
L 401.925594 -58.537869 
L 389.918653 -58.537869 
L 378.299032 -58.537869 
L 366.292091 -58.537869 
L 355.447112 -58.537869 
L 343.440171 -58.537869 
L 331.433229 -58.537869 
L 319.813609 -58.537869 
L 307.806668 -58.537869 
L 296.187047 -58.537869 
L 284.180106 -58.537869 
L 272.173165 -58.537869 
L 260.553544 -58.537869 
L 248.546603 -58.537869 
L 236.926982 -58.537869 
L 224.920041 -58.537869 
L 214.075062 -58.537869 
L 202.068121 -58.537869 
L 190.061179 -58.537869 
L 178.441559 -58.537869 
L 166.434618 -58.537869 
L 154.814997 -58.537869 
L 142.808056 -58.537869 
L 130.801115 -58.537869 
L 119.181494 -58.537869 
L 107.174553 -58.537869 
L 95.554932 -58.537869 
L 83.547991 -58.537869 
L 72.315691 -58.537869 
L 60.30875 -58.537869 
z
" style="stroke: #e36414; stroke-opacity: 0.12"/>
    </defs>
    <g clip-path="url(#p8e1cddd248)">
     <use xlink:href="#mbaae74391b" x="0" y="412.556875" style="fill: #e36414; fill-opacity: 0.12; stroke: #e36414; stroke-opacity: 0.12"/>
    </g>
   </g>
   <g id="line2d_15">
    <path d="M 60.30875 234.488302 
L 72.315691 254.935465 
L 83.547991 291.91075 
L 95.554932 349.162805 
L 107.174553 349.673984 
L 119.181494 345.243765 
L 130.801115 328.03407 
L 142.808056 329.99359 
L 154.814997 344.051014 
L 166.434618 337.235293 
L 178.441559 331.015948 
L 190.061179 303.412279 
L 202.068121 318.066079 
L 214.075062 314.573022 
L 224.920041 323.263066 
L 236.926982 302.475117 
L 248.546603 285.180226 
L 260.553544 195.383104 
L 272.173165 151.080919 
L 284.180106 188.311794 
L 296.187047 240.026076 
L 307.806668 259.19529 
L 319.813609 200.920878 
L 331.433229 175.9583 
L 343.440171 160.026553 
L 355.447112 146.480308 
L 366.292091 132.167294 
L 378.299032 134.4676 
L 389.918653 101.75214 
L 401.925594 84.968428 
L 413.545215 94.084454 
L 425.552156 85.905589 
L 437.559097 143.839216 
L 449.178718 121.432534 
L 461.185659 144.776378 
L 472.805279 75.596812 
L 484.812221 111.890525 
L 496.819162 171.954064 
L 507.664141 104.308035 
L 519.671082 81.73096 
L 531.290703 167.353453 
L 543.297644 86.161179 
L 554.917265 42.455369 
L 566.924206 134.21201 
L 578.931147 122.540089 
L 590.550768 201.60245 
L 602.557709 223.838739 
L 614.177329 180.218126 
L 626.184271 178.173409 
L 638.191212 220.175289 
L 649.423512 161.219304 
L 661.430453 185.755899 
L 673.050073 149.1214 
L 685.057015 125.607163 
L 696.676635 83.69048 
L 708.683576 107.034324 
L 720.690518 226.565027 
L 732.310138 241.38922 
L 744.317079 251.86839 
L 755.9367 138.386639 
L 767.943641 208.67376 
L 779.950582 197.68341 
L 790.795562 171.016903 
L 802.802503 197.598214 
L 814.422123 109.931005 
L 826.429065 84.201659 
L 838.048685 79.004672 
L 850.055626 170.420527 
L 862.062568 227.416992 
L 873.682188 184.648344 
L 885.689129 183.881576 
L 897.30875 105.585983 
" clip-path="url(#p8e1cddd248)" style="fill: none; stroke: #0f4c5c; stroke-width: 2.6; stroke-linecap: round"/>
    <defs>
     <path id="mb2a57378b4" d="M 0 2.25 
C 0.596707 2.25 1.169055 2.012926 1.59099 1.59099 
C 2.012926 1.169055 2.25 0.596707 2.25 0 
C 2.25 -0.596707 2.012926 -1.169055 1.59099 -1.59099 
C 1.169055 -2.012926 0.596707 -2.25 0 -2.25 
C -0.596707 -2.25 -1.169055 -2.012926 -1.59099 -1.59099 
C -2.012926 -1.169055 -2.25 -0.596707 -2.25 0 
C -2.25 0.596707 -2.012926 1.169055 -1.59099 1.59099 
C -1.169055 2.012926 -0.596707 2.25 0 2.25 
z
" style="stroke: #0f4c5c"/>
    </defs>
    <g clip-path="url(#p8e1cddd248)">
     <use xlink:href="#mb2a57378b4" x="60.30875" y="234.488302" style="fill: #0f4c5c; stroke: #0f4c5c"/>
     <use xlink:href="#mb2a57378b4" x="72.315691" y="254.935465" style="fill: #0f4c5c; stroke: #0f4c5c"/>
     <use xlink:href="#mb2a57378b4" x="83.547991" y="291.91075" style="fill: #0f4c5c; stroke: #0f4c5c"/>
     <use xlink:href="#mb2a57378b4" x="95.554932" y="349.162805" style="fill: #0f4c5c; stroke: #0f4c5c"/>
     <use xlink:href="#mb2a57378b4" x="107.174553" y="349.673984" style="fill: #0f4c5c; stroke: #0f4c5c"/>
     <use xlink:href="#mb2a57378b4" x="119.181494" y="345.243765" style="fill: #0f4c5c; stroke: #0f4c5c"/>
     <use xlink:href="#mb2a57378b4" x="130.801115" y="328.03407" style="fill: #0f4c5c; stroke: #0f4c5c"/>
     <use xlink:href="#mb2a57378b4" x="142.808056" y="329.99359" style="fill: #0f4c5c; stroke: #0f4c5c"/>
     <use xlink:href="#mb2a57378b4" x="154.814997" y="344.051014" style="fill: #0f4c5c; stroke: #0f4c5c"/>
     <use xlink:href="#mb2a57378b4" x="166.434618" y="337.235293" style="fill: #0f4c5c; stroke: #0f4c5c"/>
     <use xlink:href="#mb2a57378b4" x="178.441559" y="331.015948" style="fill: #0f4c5c; stroke: #0f4c5c"/>
     <use xlink:href="#mb2a57378b4" x="190.061179" y="303.412279" style="fill: #0f4c5c; stroke: #0f4c5c"/>
     <use xlink:href="#mb2a57378b4" x="202.068121" y="318.066079" style="fill: #0f4c5c; stroke: #0f4c5c"/>
     <use xlink:href="#mb2a57378b4" x="214.075062" y="314.573022" style="fill: #0f4c5c; stroke: #0f4c5c"/>
     <use xlink:href="#mb2a57378b4" x="224.920041" y="323.263066" style="fill: #0f4c5c; stroke: #0f4c5c"/>
     <use xlink:href="#mb2a57378b4" x="236.926982" y="302.475117" style="fill: #0f4c5c; stroke: #0f4c5c"/>
     <use xlink:href="#mb2a57378b4" x="248.546603" y="285.180226" style="fill: #0f4c5c; stroke: #0f4c5c"/>
     <use xlink:href="#mb2a57378b4" x="260.553544" y="195.383104" style="fill: #0f4c5c; stroke: #0f4c5c"/>
     <use xlink:href="#mb2a57378b4" x="272.173165" y="151.080919" style="fill: #0f4c5c; stroke: #0f4c5c"/>
     <use xlink:href="#mb2a57378b4" x="284.180106" y="188.311794" style="fill: #0f4c5c; stroke: #0f4c5c"/>
     <use xlink:href="#mb2a57378b4" x="296.187047" y="240.026076" style="fill: #0f4c5c; stroke: #0f4c5c"/>
     <use xlink:href="#mb2a57378b4" x="307.806668" y="259.19529" style="fill: #0f4c5c; stroke: #0f4c5c"/>
     <use xlink:href="#mb2a57378b4" x="319.813609" y="200.920878" style="fill: #0f4c5c; stroke: #0f4c5c"/>
     <use xlink:href="#mb2a57378b4" x="331.433229" y="175.9583" style="fill: #0f4c5c; stroke: #0f4c5c"/>
     <use xlink:href="#mb2a57378b4" x="343.440171" y="160.026553" style="fill: #0f4c5c; stroke: #0f4c5c"/>
     <use xlink:href="#mb2a57378b4" x="355.447112" y="146.480308" style="fill: #0f4c5c; stroke: #0f4c5c"/>
     <use xlink:href="#mb2a57378b4" x="366.292091" y="132.167294" style="fill: #0f4c5c; stroke: #0f4c5c"/>
     <use xlink:href="#mb2a57378b4" x="378.299032" y="134.4676" style="fill: #0f4c5c; stroke: #0f4c5c"/>
     <use xlink:href="#mb2a57378b4" x="389.918653" y="101.75214" style="fill: #0f4c5c; stroke: #0f4c5c"/>
     <use xlink:href="#mb2a57378b4" x="401.925594" y="84.968428" style="fill: #0f4c5c; stroke: #0f4c5c"/>
     <use xlink:href="#mb2a57378b4" x="413.545215" y="94.084454" style="fill: #0f4c5c; stroke: #0f4c5c"/>
     <use xlink:href="#mb2a57378b4" x="425.552156" y="85.905589" style="fill: #0f4c5c; stroke: #0f4c5c"/>
     <use xlink:href="#mb2a57378b4" x="437.559097" y="143.839216" style="fill: #0f4c5c; stroke: #0f4c5c"/>
     <use xlink:href="#mb2a57378b4" x="449.178718" y="121.432534" style="fill: #0f4c5c; stroke: #0f4c5c"/>
     <use xlink:href="#mb2a57378b4" x="461.185659" y="144.776378" style="fill: #0f4c5c; stroke: #0f4c5c"/>
     <use xlink:href="#mb2a57378b4" x="472.805279" y="75.596812" style="fill: #0f4c5c; stroke: #0f4c5c"/>
     <use xlink:href="#mb2a57378b4" x="484.812221" y="111.890525" style="fill: #0f4c5c; stroke: #0f4c5c"/>
     <use xlink:href="#mb2a57378b4" x="496.819162" y="171.954064" style="fill: #0f4c5c; stroke: #0f4c5c"/>
     <use xlink:href="#mb2a57378b4" x="507.664141" y="104.308035" style="fill: #0f4c5c; stroke: #0f4c5c"/>
     <use xlink:href="#mb2a57378b4" x="519.671082" y="81.73096" style="fill: #0f4c5c; stroke: #0f4c5c"/>
     <use xlink:href="#mb2a57378b4" x="531.290703" y="167.353453" style="fill: #0f4c5c; stroke: #0f4c5c"/>
     <use xlink:href="#mb2a57378b4" x="543.297644" y="86.161179" style="fill: #0f4c5c; stroke: #0f4c5c"/>
     <use xlink:href="#mb2a57378b4" x="554.917265" y="42.455369" style="fill: #0f4c5c; stroke: #0f4c5c"/>
     <use xlink:href="#mb2a57378b4" x="566.924206" y="134.21201" style="fill: #0f4c5c; stroke: #0f4c5c"/>
     <use xlink:href="#mb2a57378b4" x="578.931147" y="122.540089" style="fill: #0f4c5c; stroke: #0f4c5c"/>
     <use xlink:href="#mb2a57378b4" x="590.550768" y="201.60245" style="fill: #0f4c5c; stroke: #0f4c5c"/>
     <use xlink:href="#mb2a57378b4" x="602.557709" y="223.838739" style="fill: #0f4c5c; stroke: #0f4c5c"/>
     <use xlink:href="#mb2a57378b4" x="614.177329" y="180.218126" style="fill: #0f4c5c; stroke: #0f4c5c"/>
     <use xlink:href="#mb2a57378b4" x="626.184271" y="178.173409" style="fill: #0f4c5c; stroke: #0f4c5c"/>
     <use xlink:href="#mb2a57378b4" x="638.191212" y="220.175289" style="fill: #0f4c5c; stroke: #0f4c5c"/>
     <use xlink:href="#mb2a57378b4" x="649.423512" y="161.219304" style="fill: #0f4c5c; stroke: #0f4c5c"/>
     <use xlink:href="#mb2a57378b4" x="661.430453" y="185.755899" style="fill: #0f4c5c; stroke: #0f4c5c"/>
     <use xlink:href="#mb2a57378b4" x="673.050073" y="149.1214" style="fill: #0f4c5c; stroke: #0f4c5c"/>
     <use xlink:href="#mb2a57378b4" x="685.057015" y="125.607163" style="fill: #0f4c5c; stroke: #0f4c5c"/>
     <use xlink:href="#mb2a57378b4" x="696.676635" y="83.69048" style="fill: #0f4c5c; stroke: #0f4c5c"/>
     <use xlink:href="#mb2a57378b4" x="708.683576" y="107.034324" style="fill: #0f4c5c; stroke: #0f4c5c"/>
     <use xlink:href="#mb2a57378b4" x="720.690518" y="226.565027" style="fill: #0f4c5c; stroke: #0f4c5c"/>
     <use xlink:href="#mb2a57378b4" x="732.310138" y="241.38922" style="fill: #0f4c5c; stroke: #0f4c5c"/>
     <use xlink:href="#mb2a57378b4" x="744.317079" y="251.86839" style="fill: #0f4c5c; stroke: #0f4c5c"/>
     <use xlink:href="#mb2a57378b4" x="755.9367" y="138.386639" style="fill: #0f4c5c; stroke: #0f4c5c"/>
     <use xlink:href="#mb2a57378b4" x="767.943641" y="208.67376" style="fill: #0f4c5c; stroke: #0f4c5c"/>
     <use xlink:href="#mb2a57378b4" x="779.950582" y="197.68341" style="fill: #0f4c5c; stroke: #0f4c5c"/>
     <use xlink:href="#mb2a57378b4" x="790.795562" y="171.016903" style="fill: #0f4c5c; stroke: #0f4c5c"/>
     <use xlink:href="#mb2a57378b4" x="802.802503" y="197.598214" style="fill: #0f4c5c; stroke: #0f4c5c"/>
     <use xlink:href="#mb2a57378b4" x="814.422123" y="109.931005" style="fill: #0f4c5c; stroke: #0f4c5c"/>
     <use xlink:href="#mb2a57378b4" x="826.429065" y="84.201659" style="fill: #0f4c5c; stroke: #0f4c5c"/>
     <use xlink:href="#mb2a57378b4" x="838.048685" y="79.004672" style="fill: #0f4c5c; stroke: #0f4c5c"/>
     <use xlink:href="#mb2a57378b4" x="850.055626" y="170.420527" style="fill: #0f4c5c; stroke: #0f4c5c"/>
     <use xlink:href="#mb2a57378b4" x="862.062568" y="227.416992" style="fill: #0f4c5c; stroke: #0f4c5c"/>
     <use xlink:href="#mb2a57378b4" x="873.682188" y="184.648344" style="fill: #0f4c5c; stroke: #0f4c5c"/>
     <use xlink:href="#mb2a57378b4" x="885.689129" y="183.881576" style="fill: #0f4c5c; stroke: #0f4c5c"/>
     <use xlink:href="#mb2a57378b4" x="897.30875" y="105.585983" style="fill: #0f4c5c; stroke: #0f4c5c"/>
    </g>
   </g>
   <g id="line2d_16">
    <path d="M 60.30875 352.400272 
L 72.315691 352.059486 
L 83.547991 192.145637 
L 95.554932 253.657517 
L 107.174553 347.79966 
L 119.181494 351.974289 
L 130.801115 343.625031 
L 142.808056 347.373678 
L 154.814997 352.655862 
L 166.434618 353.67822 
L 178.441559 351.207521 
L 190.061179 345.754944 
L 202.068121 350.185163 
L 214.075062 335.190577 
L 224.920041 352.996648 
L 236.926982 351.037128 
L 248.546603 353.593023 
L 260.553544 348.651626 
L 272.173165 340.046778 
L 284.180106 345.073372 
L 296.187047 340.813547 
L 307.806668 350.611145 
L 319.813609 350.270359 
L 331.433229 335.36097 
L 343.440171 257.49136 
L 355.447112 325.563371 
L 366.292091 339.876385 
L 378.299032 308.950052 
L 389.918653 311.250358 
L 401.925594 290.888392 
L 413.545215 317.128917 
L 425.552156 313.721057 
L 437.559097 335.020184 
L 449.178718 345.414158 
L 461.185659 346.180927 
L 472.805279 327.608088 
L 484.812221 346.606909 
L 496.819162 341.409922 
L 507.664141 337.490883 
L 519.671082 323.518655 
L 531.290703 348.31084 
L 543.297644 309.035249 
L 554.917265 274.871448 
L 566.924206 336.553721 
L 578.931147 305.371799 
L 590.550768 353.081844 
L 602.557709 353.507827 
L 614.177329 349.418394 
L 626.184271 329.482411 
L 638.191212 343.199049 
L 649.423512 347.203285 
L 661.430453 344.732586 
L 673.050073 345.840141 
L 685.057015 323.348262 
L 696.676635 316.788131 
L 708.683576 294.381449 
L 720.690518 351.548307 
L 732.310138 347.884857 
L 744.317079 353.42263 
L 755.9367 349.588787 
L 767.943641 338.939223 
L 779.950582 336.383328 
L 790.795562 345.840141 
L 802.802503 349.673984 
L 814.422123 343.454638 
L 826.429065 322.155511 
L 838.048685 279.557256 
L 850.055626 343.795425 
L 862.062568 346.947695 
L 873.682188 339.961582 
L 885.689129 328.374856 
L 897.30875 317.29931 
" clip-path="url(#p8e1cddd248)" style="fill: none; stroke: #e36414; stroke-width: 2.6; stroke-linecap: round"/>
    <defs>
     <path id="m31db774de9" d="M 0 2.25 
C 0.596707 2.25 1.169055 2.012926 1.59099 1.59099 
C 2.012926 1.169055 2.25 0.596707 2.25 0 
C 2.25 -0.596707 2.012926 -1.169055 1.59099 -1.59099 
C 1.169055 -2.012926 0.596707 -2.25 0 -2.25 
C -0.596707 -2.25 -1.169055 -2.012926 -1.59099 -1.59099 
C -2.012926 -1.169055 -2.25 -0.596707 -2.25 0 
C -2.25 0.596707 -2.012926 1.169055 -1.59099 1.59099 
C -1.169055 2.012926 -0.596707 2.25 0 2.25 
z
" style="stroke: #e36414"/>
    </defs>
    <g clip-path="url(#p8e1cddd248)">
     <use xlink:href="#m31db774de9" x="60.30875" y="352.400272" style="fill: #e36414; stroke: #e36414"/>
     <use xlink:href="#m31db774de9" x="72.315691" y="352.059486" style="fill: #e36414; stroke: #e36414"/>
     <use xlink:href="#m31db774de9" x="83.547991" y="192.145637" style="fill: #e36414; stroke: #e36414"/>
     <use xlink:href="#m31db774de9" x="95.554932" y="253.657517" style="fill: #e36414; stroke: #e36414"/>
     <use xlink:href="#m31db774de9" x="107.174553" y="347.79966" style="fill: #e36414; stroke: #e36414"/>
     <use xlink:href="#m31db774de9" x="119.181494" y="351.974289" style="fill: #e36414; stroke: #e36414"/>
     <use xlink:href="#m31db774de9" x="130.801115" y="343.625031" style="fill: #e36414; stroke: #e36414"/>
     <use xlink:href="#m31db774de9" x="142.808056" y="347.373678" style="fill: #e36414; stroke: #e36414"/>
     <use xlink:href="#m31db774de9" x="154.814997" y="352.655862" style="fill: #e36414; stroke: #e36414"/>
     <use xlink:href="#m31db774de9" x="166.434618" y="353.67822" style="fill: #e36414; stroke: #e36414"/>
     <use xlink:href="#m31db774de9" x="178.441559" y="351.207521" style="fill: #e36414; stroke: #e36414"/>
     <use xlink:href="#m31db774de9" x="190.061179" y="345.754944" style="fill: #e36414; stroke: #e36414"/>
     <use xlink:href="#m31db774de9" x="202.068121" y="350.185163" style="fill: #e36414; stroke: #e36414"/>
     <use xlink:href="#m31db774de9" x="214.075062" y="335.190577" style="fill: #e36414; stroke: #e36414"/>
     <use xlink:href="#m31db774de9" x="224.920041" y="352.996648" style="fill: #e36414; stroke: #e36414"/>
     <use xlink:href="#m31db774de9" x="236.926982" y="351.037128" style="fill: #e36414; stroke: #e36414"/>
     <use xlink:href="#m31db774de9" x="248.546603" y="353.593023" style="fill: #e36414; stroke: #e36414"/>
     <use xlink:href="#m31db774de9" x="260.553544" y="348.651626" style="fill: #e36414; stroke: #e36414"/>
     <use xlink:href="#m31db774de9" x="272.173165" y="340.046778" style="fill: #e36414; stroke: #e36414"/>
     <use xlink:href="#m31db774de9" x="284.180106" y="345.073372" style="fill: #e36414; stroke: #e36414"/>
     <use xlink:href="#m31db774de9" x="296.187047" y="340.813547" style="fill: #e36414; stroke: #e36414"/>
     <use xlink:href="#m31db774de9" x="307.806668" y="350.611145" style="fill: #e36414; stroke: #e36414"/>
     <use xlink:href="#m31db774de9" x="319.813609" y="350.270359" style="fill: #e36414; stroke: #e36414"/>
     <use xlink:href="#m31db774de9" x="331.433229" y="335.36097" style="fill: #e36414; stroke: #e36414"/>
     <use xlink:href="#m31db774de9" x="343.440171" y="257.49136" style="fill: #e36414; stroke: #e36414"/>
     <use xlink:href="#m31db774de9" x="355.447112" y="325.563371" style="fill: #e36414; stroke: #e36414"/>
     <use xlink:href="#m31db774de9" x="366.292091" y="339.876385" style="fill: #e36414; stroke: #e36414"/>
     <use xlink:href="#m31db774de9" x="378.299032" y="308.950052" style="fill: #e36414; stroke: #e36414"/>
     <use xlink:href="#m31db774de9" x="389.918653" y="311.250358" style="fill: #e36414; stroke: #e36414"/>
     <use xlink:href="#m31db774de9" x="401.925594" y="290.888392" style="fill: #e36414; stroke: #e36414"/>
     <use xlink:href="#m31db774de9" x="413.545215" y="317.128917" style="fill: #e36414; stroke: #e36414"/>
     <use xlink:href="#m31db774de9" x="425.552156" y="313.721057" style="fill: #e36414; stroke: #e36414"/>
     <use xlink:href="#m31db774de9" x="437.559097" y="335.020184" style="fill: #e36414; stroke: #e36414"/>
     <use xlink:href="#m31db774de9" x="449.178718" y="345.414158" style="fill: #e36414; stroke: #e36414"/>
     <use xlink:href="#m31db774de9" x="461.185659" y="346.180927" style="fill: #e36414; stroke: #e36414"/>
     <use xlink:href="#m31db774de9" x="472.805279" y="327.608088" style="fill: #e36414; stroke: #e36414"/>
     <use xlink:href="#m31db774de9" x="484.812221" y="346.606909" style="fill: #e36414; stroke: #e36414"/>
     <use xlink:href="#m31db774de9" x="496.819162" y="341.409922" style="fill: #e36414; stroke: #e36414"/>
     <use xlink:href="#m31db774de9" x="507.664141" y="337.490883" style="fill: #e36414; stroke: #e36414"/>
     <use xlink:href="#m31db774de9" x="519.671082" y="323.518655" style="fill: #e36414; stroke: #e36414"/>
     <use xlink:href="#m31db774de9" x="531.290703" y="348.31084" style="fill: #e36414; stroke: #e36414"/>
     <use xlink:href="#m31db774de9" x="543.297644" y="309.035249" style="fill: #e36414; stroke: #e36414"/>
     <use xlink:href="#m31db774de9" x="554.917265" y="274.871448" style="fill: #e36414; stroke: #e36414"/>
     <use xlink:href="#m31db774de9" x="566.924206" y="336.553721" style="fill: #e36414; stroke: #e36414"/>
     <use xlink:href="#m31db774de9" x="578.931147" y="305.371799" style="fill: #e36414; stroke: #e36414"/>
     <use xlink:href="#m31db774de9" x="590.550768" y="353.081844" style="fill: #e36414; stroke: #e36414"/>
     <use xlink:href="#m31db774de9" x="602.557709" y="353.507827" style="fill: #e36414; stroke: #e36414"/>
     <use xlink:href="#m31db774de9" x="614.177329" y="349.418394" style="fill: #e36414; stroke: #e36414"/>
     <use xlink:href="#m31db774de9" x="626.184271" y="329.482411" style="fill: #e36414; stroke: #e36414"/>
     <use xlink:href="#m31db774de9" x="638.191212" y="343.199049" style="fill: #e36414; stroke: #e36414"/>
     <use xlink:href="#m31db774de9" x="649.423512" y="347.203285" style="fill: #e36414; stroke: #e36414"/>
     <use xlink:href="#m31db774de9" x="661.430453" y="344.732586" style="fill: #e36414; stroke: #e36414"/>
     <use xlink:href="#m31db774de9" x="673.050073" y="345.840141" style="fill: #e36414; stroke: #e36414"/>
     <use xlink:href="#m31db774de9" x="685.057015" y="323.348262" style="fill: #e36414; stroke: #e36414"/>
     <use xlink:href="#m31db774de9" x="696.676635" y="316.788131" style="fill: #e36414; stroke: #e36414"/>
     <use xlink:href="#m31db774de9" x="708.683576" y="294.381449" style="fill: #e36414; stroke: #e36414"/>
     <use xlink:href="#m31db774de9" x="720.690518" y="351.548307" style="fill: #e36414; stroke: #e36414"/>
     <use xlink:href="#m31db774de9" x="732.310138" y="347.884857" style="fill: #e36414; stroke: #e36414"/>
     <use xlink:href="#m31db774de9" x="744.317079" y="353.42263" style="fill: #e36414; stroke: #e36414"/>
     <use xlink:href="#m31db774de9" x="755.9367" y="349.588787" style="fill: #e36414; stroke: #e36414"/>
     <use xlink:href="#m31db774de9" x="767.943641" y="338.939223" style="fill: #e36414; stroke: #e36414"/>
     <use xlink:href="#m31db774de9" x="779.950582" y="336.383328" style="fill: #e36414; stroke: #e36414"/>
     <use xlink:href="#m31db774de9" x="790.795562" y="345.840141" style="fill: #e36414; stroke: #e36414"/>
     <use xlink:href="#m31db774de9" x="802.802503" y="349.673984" style="fill: #e36414; stroke: #e36414"/>
     <use xlink:href="#m31db774de9" x="814.422123" y="343.454638" style="fill: #e36414; stroke: #e36414"/>
     <use xlink:href="#m31db774de9" x="826.429065" y="322.155511" style="fill: #e36414; stroke: #e36414"/>
     <use xlink:href="#m31db774de9" x="838.048685" y="279.557256" style="fill: #e36414; stroke: #e36414"/>
     <use xlink:href="#m31db774de9" x="850.055626" y="343.795425" style="fill: #e36414; stroke: #e36414"/>
     <use xlink:href="#m31db774de9" x="862.062568" y="346.947695" style="fill: #e36414; stroke: #e36414"/>
     <use xlink:href="#m31db774de9" x="873.682188" y="339.961582" style="fill: #e36414; stroke: #e36414"/>
     <use xlink:href="#m31db774de9" x="885.689129" y="328.374856" style="fill: #e36414; stroke: #e36414"/>
     <use xlink:href="#m31db774de9" x="897.30875" y="317.29931" style="fill: #e36414; stroke: #e36414"/>
    </g>
   </g>
   <g id="patch_3">
    <path d="M 60.30875 369.597187 
L 60.30875 26.877187 
" style="fill: none; stroke: #d9d2c3; stroke-width: 1.25; stroke-linejoin: miter; stroke-linecap: square"/>
   </g>
   <g id="patch_4">
    <path d="M 60.30875 369.597187 
L 897.30875 369.597187 
" style="fill: none; stroke: #d9d2c3; stroke-width: 1.25; stroke-linejoin: miter; stroke-linecap: square"/>
   </g>
   <g id="patch_5">
    <path d="M 436.909096 75.025844 
Q 494.949826 59.006494 551.589497 43.373839 
" style="fill: none; stroke: #3d405b; stroke-width: 1.3; stroke-linecap: round"/>
    <path d="M 546.762762 42.42377 
L 551.589497 43.373839 
L 547.933401 46.665186 
" style="fill: none; stroke: #3d405b; stroke-width: 1.3; stroke-linecap: round"/>
   </g>
   <g id="text_17">
    <g id="patch_6">
     <path d="M 316.356171 107.818901 
L 434.917265 107.818901 
Q 439.317265 107.818901 439.317265 103.418901 
L 439.317265 80.455369 
Q 439.317265 76.055369 434.917265 76.055369 
L 316.356171 76.055369 
Q 311.956171 76.055369 311.956171 80.455369 
L 311.956171 103.418901 
Q 311.956171 107.818901 316.356171 107.818901 
z
" style="fill: #ffffff; stroke: #d9d2c3; stroke-linejoin: miter"/>
    </g>
    <!-- Peak delays: 2023-07 -->
    <g style="fill: #3d405b" transform="translate(316.356171 88.813651) scale(0.11 -0.11)">
     <defs>
      <path id="DejaVuSans-50" d="M 1259 4147 
L 1259 2394 
L 2053 2394 
Q 2494 2394 2734 2622 
Q 2975 2850 2975 3272 
Q 2975 3691 2734 3919 
Q 2494 4147 2053 4147 
L 1259 4147 
z
M 628 4666 
L 2053 4666 
Q 2838 4666 3239 4311 
Q 3641 3956 3641 3272 
Q 3641 2581 3239 2228 
Q 2838 1875 2053 1875 
L 1259 1875 
L 1259 0 
L 628 0 
L 628 4666 
z
" transform="scale(0.015625)"/>
      <path id="DejaVuSans-6b" d="M 581 4863 
L 1159 4863 
L 1159 1991 
L 2875 3500 
L 3609 3500 
L 1753 1863 
L 3688 0 
L 2938 0 
L 1159 1709 
L 1159 0 
L 581 0 
L 581 4863 
z
" transform="scale(0.015625)"/>
      <path id="DejaVuSans-20" transform="scale(0.015625)"/>
      <path id="DejaVuSans-64" d="M 2906 2969 
L 2906 4863 
L 3481 4863 
L 3481 0 
L 2906 0 
L 2906 525 
Q 2725 213 2448 61 
Q 2172 -91 1784 -91 
Q 1150 -91 751 415 
Q 353 922 353 1747 
Q 353 2572 751 3078 
Q 1150 3584 1784 3584 
Q 2172 3584 2448 3432 
Q 2725 3281 2906 2969 
z
M 947 1747 
Q 947 1113 1208 752 
Q 1469 391 1925 391 
Q 2381 391 2643 752 
Q 2906 1113 2906 1747 
Q 2906 2381 2643 2742 
Q 2381 3103 1925 3103 
Q 1469 3103 1208 2742 
Q 947 2381 947 1747 
z
" transform="scale(0.015625)"/>
      <path id="DejaVuSans-79" d="M 2059 -325 
Q 1816 -950 1584 -1140 
Q 1353 -1331 966 -1331 
L 506 -1331 
L 506 -850 
L 844 -850 
Q 1081 -850 1212 -737 
Q 1344 -625 1503 -206 
L 1606 56 
L 191 3500 
L 800 3500 
L 1894 763 
L 2988 3500 
L 3597 3500 
L 2059 -325 
z
" transform="scale(0.015625)"/>
      <path id="DejaVuSans-3a" d="M 750 794 
L 1409 794 
L 1409 0 
L 750 0 
L 750 794 
z
M 750 3309 
L 1409 3309 
L 1409 2516 
L 750 2516 
L 750 3309 
z
" transform="scale(0.015625)"/>
      <path id="DejaVuSans-37" d="M 525 4666 
L 3525 4666 
L 3525 4397 
L 1831 0 
L 1172 0 
L 2766 4134 
L 525 4134 
L 525 4666 
z
" transform="scale(0.015625)"/>
     </defs>
     <use xlink:href="#DejaVuSans-50"/>
     <use xlink:href="#DejaVuSans-65" transform="translate(56.677734 0)"/>
     <use xlink:href="#DejaVuSans-61" transform="translate(118.201172 0)"/>
     <use xlink:href="#DejaVuSans-6b" transform="translate(179.480469 0)"/>
     <use xlink:href="#DejaVuSans-20" transform="translate(237.390625 0)"/>
     <use xlink:href="#DejaVuSans-64" transform="translate(269.177734 0)"/>
     <use xlink:href="#DejaVuSans-65" transform="translate(332.654297 0)"/>
     <use xlink:href="#DejaVuSans-6c" transform="translate(394.177734 0)"/>
     <use xlink:href="#DejaVuSans-61" transform="translate(421.960938 0)"/>
     <use xlink:href="#DejaVuSans-79" transform="translate(483.240234 0)"/>
     <use xlink:href="#DejaVuSans-73" transform="translate(542.419922 0)"/>
     <use xlink:href="#DejaVuSans-3a" transform="translate(594.519531 0)"/>
     <use xlink:href="#DejaVuSans-20" transform="translate(628.210938 0)"/>
     <use xlink:href="#DejaVuSans-32" transform="translate(659.998047 0)"/>
     <use xlink:href="#DejaVuSans-30" transform="translate(723.621094 0)"/>
     <use xlink:href="#DejaVuSans-32" transform="translate(787.244141 0)"/>
     <use xlink:href="#DejaVuSans-33" transform="translate(850.867188 0)"/>
     <use xlink:href="#DejaVuSans-2d" transform="translate(914.490234 0)"/>
     <use xlink:href="#DejaVuSans-30" transform="translate(950.574219 0)"/>
     <use xlink:href="#DejaVuSans-37" transform="translate(1014.197266 0)"/>
    </g>
    <!-- 3,657 -->
    <g style="fill: #3d405b" transform="translate(403.426327 101.131244) scale(0.11 -0.11)">
     <defs>
      <path id="DejaVuSans-2c" d="M 750 794 
L 1409 794 
L 1409 256 
L 897 -744 
L 494 -744 
L 750 256 
L 750 794 
z
" transform="scale(0.015625)"/>
      <path id="DejaVuSans-36" d="M 2113 2584 
Q 1688 2584 1439 2293 
Q 1191 2003 1191 1497 
Q 1191 994 1439 701 
Q 1688 409 2113 409 
Q 2538 409 2786 701 
Q 3034 994 3034 1497 
Q 3034 2003 2786 2293 
Q 2538 2584 2113 2584 
z
M 3366 4563 
L 3366 3988 
Q 3128 4100 2886 4159 
Q 2644 4219 2406 4219 
Q 1781 4219 1451 3797 
Q 1122 3375 1075 2522 
Q 1259 2794 1537 2939 
Q 1816 3084 2150 3084 
Q 2853 3084 3261 2657 
Q 3669 2231 3669 1497 
Q 3669 778 3244 343 
Q 2819 -91 2113 -91 
Q 1303 -91 875 529 
Q 447 1150 447 2328 
Q 447 3434 972 4092 
Q 1497 4750 2381 4750 
Q 2619 4750 2861 4703 
Q 3103 4656 3366 4563 
z
" transform="scale(0.015625)"/>
     </defs>
     <use xlink:href="#DejaVuSans-33"/>
     <use xlink:href="#DejaVuSans-2c" transform="translate(63.623047 0)"/>
     <use xlink:href="#DejaVuSans-36" transform="translate(95.410156 0)"/>
     <use xlink:href="#DejaVuSans-35" transform="translate(159.033203 0)"/>
     <use xlink:href="#DejaVuSans-37" transform="translate(222.65625 0)"/>
    </g>
   </g>
   <g id="text_18">
    <!-- Chart 1. Monthly Delay and Cancellation Trend at JFK -->
    <g style="fill: #3d405b" transform="translate(60.30875 20.877187) scale(0.18 -0.18)">
     <defs>
      <path id="DejaVuSans-Bold-43" d="M 4288 256 
Q 3956 84 3597 -3 
Q 3238 -91 2847 -91 
Q 1681 -91 1000 561 
Q 319 1213 319 2328 
Q 319 3447 1000 4098 
Q 1681 4750 2847 4750 
Q 3238 4750 3597 4662 
Q 3956 4575 4288 4403 
L 4288 3438 
Q 3953 3666 3628 3772 
Q 3303 3878 2944 3878 
Q 2300 3878 1931 3465 
Q 1563 3053 1563 2328 
Q 1563 1606 1931 1193 
Q 2300 781 2944 781 
Q 3303 781 3628 887 
Q 3953 994 4288 1222 
L 4288 256 
z
" transform="scale(0.015625)"/>
      <path id="DejaVuSans-Bold-68" d="M 4056 2131 
L 4056 0 
L 2931 0 
L 2931 347 
L 2931 1625 
Q 2931 2084 2911 2256 
Q 2891 2428 2841 2509 
Q 2775 2619 2662 2680 
Q 2550 2741 2406 2741 
Q 2056 2741 1856 2470 
Q 1656 2200 1656 1722 
L 1656 0 
L 538 0 
L 538 4863 
L 1656 4863 
L 1656 2988 
Q 1909 3294 2193 3439 
Q 2478 3584 2822 3584 
Q 3428 3584 3742 3212 
Q 4056 2841 4056 2131 
z
" transform="scale(0.015625)"/>
      <path id="DejaVuSans-Bold-61" d="M 2106 1575 
Q 1756 1575 1579 1456 
Q 1403 1338 1403 1106 
Q 1403 894 1545 773 
Q 1688 653 1941 653 
Q 2256 653 2472 879 
Q 2688 1106 2688 1447 
L 2688 1575 
L 2106 1575 
z
M 3816 1997 
L 3816 0 
L 2688 0 
L 2688 519 
Q 2463 200 2181 54 
Q 1900 -91 1497 -91 
Q 953 -91 614 226 
Q 275 544 275 1050 
Q 275 1666 698 1953 
Q 1122 2241 2028 2241 
L 2688 2241 
L 2688 2328 
Q 2688 2594 2478 2717 
Q 2269 2841 1825 2841 
Q 1466 2841 1156 2769 
Q 847 2697 581 2553 
L 581 3406 
Q 941 3494 1303 3539 
Q 1666 3584 2028 3584 
Q 2975 3584 3395 3211 
Q 3816 2838 3816 1997 
z
" transform="scale(0.015625)"/>
      <path id="DejaVuSans-Bold-72" d="M 3138 2547 
Q 2991 2616 2845 2648 
Q 2700 2681 2553 2681 
Q 2122 2681 1889 2404 
Q 1656 2128 1656 1613 
L 1656 0 
L 538 0 
L 538 3500 
L 1656 3500 
L 1656 2925 
Q 1872 3269 2151 3426 
Q 2431 3584 2822 3584 
Q 2878 3584 2943 3579 
Q 3009 3575 3134 3559 
L 3138 2547 
z
" transform="scale(0.015625)"/>
      <path id="DejaVuSans-Bold-74" d="M 1759 4494 
L 1759 3500 
L 2913 3500 
L 2913 2700 
L 1759 2700 
L 1759 1216 
Q 1759 972 1856 886 
Q 1953 800 2241 800 
L 2816 800 
L 2816 0 
L 1856 0 
Q 1194 0 917 276 
Q 641 553 641 1216 
L 641 2700 
L 84 2700 
L 84 3500 
L 641 3500 
L 641 4494 
L 1759 4494 
z
" transform="scale(0.015625)"/>
      <path id="DejaVuSans-Bold-20" transform="scale(0.015625)"/>
      <path id="DejaVuSans-Bold-31" d="M 750 831 
L 1813 831 
L 1813 3847 
L 722 3622 
L 722 4441 
L 1806 4666 
L 2950 4666 
L 2950 831 
L 4013 831 
L 4013 0 
L 750 0 
L 750 831 
z
" transform="scale(0.015625)"/>
      <path id="DejaVuSans-Bold-2e" d="M 653 1209 
L 1778 1209 
L 1778 0 
L 653 0 
L 653 1209 
z
" transform="scale(0.015625)"/>
      <path id="DejaVuSans-Bold-4d" d="M 588 4666 
L 2119 4666 
L 3181 2169 
L 4250 4666 
L 5778 4666 
L 5778 0 
L 4641 0 
L 4641 3413 
L 3566 897 
L 2803 897 
L 1728 3413 
L 1728 0 
L 588 0 
L 588 4666 
z
" transform="scale(0.015625)"/>
      <path id="DejaVuSans-Bold-6f" d="M 2203 2784 
Q 1831 2784 1636 2517 
Q 1441 2250 1441 1747 
Q 1441 1244 1636 976 
Q 1831 709 2203 709 
Q 2569 709 2762 976 
Q 2956 1244 2956 1747 
Q 2956 2250 2762 2517 
Q 2569 2784 2203 2784 
z
M 2203 3584 
Q 3106 3584 3614 3096 
Q 4122 2609 4122 1747 
Q 4122 884 3614 396 
Q 3106 -91 2203 -91 
Q 1297 -91 786 396 
Q 275 884 275 1747 
Q 275 2609 786 3096 
Q 1297 3584 2203 3584 
z
" transform="scale(0.015625)"/>
      <path id="DejaVuSans-Bold-6e" d="M 4056 2131 
L 4056 0 
L 2931 0 
L 2931 347 
L 2931 1631 
Q 2931 2084 2911 2256 
Q 2891 2428 2841 2509 
Q 2775 2619 2662 2680 
Q 2550 2741 2406 2741 
Q 2056 2741 1856 2470 
Q 1656 2200 1656 1722 
L 1656 0 
L 538 0 
L 538 3500 
L 1656 3500 
L 1656 2988 
Q 1909 3294 2193 3439 
Q 2478 3584 2822 3584 
Q 3428 3584 3742 3212 
Q 4056 2841 4056 2131 
z
" transform="scale(0.015625)"/>
      <path id="DejaVuSans-Bold-6c" d="M 538 4863 
L 1656 4863 
L 1656 0 
L 538 0 
L 538 4863 
z
" transform="scale(0.015625)"/>
      <path id="DejaVuSans-Bold-79" d="M 78 3500 
L 1197 3500 
L 2138 1125 
L 2938 3500 
L 4056 3500 
L 2584 -331 
Q 2363 -916 2067 -1148 
Q 1772 -1381 1288 -1381 
L 641 -1381 
L 641 -647 
L 991 -647 
Q 1275 -647 1404 -556 
Q 1534 -466 1606 -231 
L 1638 -134 
L 78 3500 
z
" transform="scale(0.015625)"/>
      <path id="DejaVuSans-Bold-44" d="M 1791 3756 
L 1791 909 
L 2222 909 
Q 2959 909 3348 1275 
Q 3738 1641 3738 2338 
Q 3738 3031 3350 3393 
Q 2963 3756 2222 3756 
L 1791 3756 
z
M 588 4666 
L 1856 4666 
Q 2919 4666 3439 4514 
Q 3959 4363 4331 4000 
Q 4659 3684 4818 3271 
Q 4978 2859 4978 2338 
Q 4978 1809 4818 1395 
Q 4659 981 4331 666 
Q 3956 303 3431 151 
Q 2906 0 1856 0 
L 588 0 
L 588 4666 
z
" transform="scale(0.015625)"/>
      <path id="DejaVuSans-Bold-65" d="M 4031 1759 
L 4031 1441 
L 1416 1441 
Q 1456 1047 1700 850 
Q 1944 653 2381 653 
Q 2734 653 3104 758 
Q 3475 863 3866 1075 
L 3866 213 
Q 3469 63 3072 -14 
Q 2675 -91 2278 -91 
Q 1328 -91 801 392 
Q 275 875 275 1747 
Q 275 2603 792 3093 
Q 1309 3584 2216 3584 
Q 3041 3584 3536 3087 
Q 4031 2591 4031 1759 
z
M 2881 2131 
Q 2881 2450 2695 2645 
Q 2509 2841 2209 2841 
Q 1884 2841 1681 2658 
Q 1478 2475 1428 2131 
L 2881 2131 
z
" transform="scale(0.015625)"/>
      <path id="DejaVuSans-Bold-64" d="M 2919 2988 
L 2919 4863 
L 4044 4863 
L 4044 0 
L 2919 0 
L 2919 506 
Q 2688 197 2409 53 
Q 2131 -91 1766 -91 
Q 1119 -91 703 423 
Q 288 938 288 1747 
Q 288 2556 703 3070 
Q 1119 3584 1766 3584 
Q 2128 3584 2408 3439 
Q 2688 3294 2919 2988 
z
M 2181 722 
Q 2541 722 2730 984 
Q 2919 1247 2919 1747 
Q 2919 2247 2730 2509 
Q 2541 2772 2181 2772 
Q 1825 2772 1636 2509 
Q 1447 2247 1447 1747 
Q 1447 1247 1636 984 
Q 1825 722 2181 722 
z
" transform="scale(0.015625)"/>
      <path id="DejaVuSans-Bold-63" d="M 3366 3391 
L 3366 2478 
Q 3138 2634 2908 2709 
Q 2678 2784 2431 2784 
Q 1963 2784 1702 2511 
Q 1441 2238 1441 1747 
Q 1441 1256 1702 982 
Q 1963 709 2431 709 
Q 2694 709 2930 787 
Q 3166 866 3366 1019 
L 3366 103 
Q 3103 6 2833 -42 
Q 2563 -91 2291 -91 
Q 1344 -91 809 395 
Q 275 881 275 1747 
Q 275 2613 809 3098 
Q 1344 3584 2291 3584 
Q 2566 3584 2833 3536 
Q 3100 3488 3366 3391 
z
" transform="scale(0.015625)"/>
      <path id="DejaVuSans-Bold-69" d="M 538 3500 
L 1656 3500 
L 1656 0 
L 538 0 
L 538 3500 
z
M 538 4863 
L 1656 4863 
L 1656 3950 
L 538 3950 
L 538 4863 
z
" transform="scale(0.015625)"/>
      <path id="DejaVuSans-Bold-54" d="M 31 4666 
L 4331 4666 
L 4331 3756 
L 2784 3756 
L 2784 0 
L 1581 0 
L 1581 3756 
L 31 3756 
L 31 4666 
z
" transform="scale(0.015625)"/>
      <path id="DejaVuSans-Bold-4a" d="M 588 4666 
L 1791 4666 
L 1791 453 
Q 1791 -419 1317 -850 
Q 844 -1281 -116 -1281 
L -359 -1281 
L -359 -372 
L -172 -372 
Q 203 -372 395 -162 
Q 588 47 588 453 
L 588 4666 
z
" transform="scale(0.015625)"/>
      <path id="DejaVuSans-Bold-46" d="M 588 4666 
L 3834 4666 
L 3834 3756 
L 1791 3756 
L 1791 2888 
L 3713 2888 
L 3713 1978 
L 1791 1978 
L 1791 0 
L 588 0 
L 588 4666 
z
" transform="scale(0.015625)"/>
      <path id="DejaVuSans-Bold-4b" d="M 588 4666 
L 1791 4666 
L 1791 2963 
L 3525 4666 
L 4922 4666 
L 2675 2456 
L 5153 0 
L 3647 0 
L 1791 1838 
L 1791 0 
L 588 0 
L 588 4666 
z
" transform="scale(0.015625)"/>
     </defs>
     <use xlink:href="#DejaVuSans-Bold-43"/>
     <use xlink:href="#DejaVuSans-Bold-68" transform="translate(73.388672 0)"/>
     <use xlink:href="#DejaVuSans-Bold-61" transform="translate(144.580078 0)"/>
     <use xlink:href="#DejaVuSans-Bold-72" transform="translate(212.060547 0)"/>
     <use xlink:href="#DejaVuSans-Bold-74" transform="translate(261.376953 0)"/>
     <use xlink:href="#DejaVuSans-Bold-20" transform="translate(309.179688 0)"/>
     <use xlink:href="#DejaVuSans-Bold-31" transform="translate(343.994141 0)"/>
     <use xlink:href="#DejaVuSans-Bold-2e" transform="translate(413.574219 0)"/>
     <use xlink:href="#DejaVuSans-Bold-20" transform="translate(451.5625 0)"/>
     <use xlink:href="#DejaVuSans-Bold-4d" transform="translate(486.376953 0)"/>
     <use xlink:href="#DejaVuSans-Bold-6f" transform="translate(585.888672 0)"/>
     <use xlink:href="#DejaVuSans-Bold-6e" transform="translate(654.589844 0)"/>
     <use xlink:href="#DejaVuSans-Bold-74" transform="translate(725.78125 0)"/>
     <use xlink:href="#DejaVuSans-Bold-68" transform="translate(773.583984 0)"/>
     <use xlink:href="#DejaVuSans-Bold-6c" transform="translate(844.775391 0)"/>
     <use xlink:href="#DejaVuSans-Bold-79" transform="translate(879.052734 0)"/>
     <use xlink:href="#DejaVuSans-Bold-20" transform="translate(944.238281 0)"/>
     <use xlink:href="#DejaVuSans-Bold-44" transform="translate(979.052734 0)"/>
     <use xlink:href="#DejaVuSans-Bold-65" transform="translate(1062.060547 0)"/>
     <use xlink:href="#DejaVuSans-Bold-6c" transform="translate(1129.882812 0)"/>
     <use xlink:href="#DejaVuSans-Bold-61" transform="translate(1164.160156 0)"/>
     <use xlink:href="#DejaVuSans-Bold-79" transform="translate(1228.515625 0)"/>
     <use xlink:href="#DejaVuSans-Bold-20" transform="translate(1293.701172 0)"/>
     <use xlink:href="#DejaVuSans-Bold-61" transform="translate(1328.515625 0)"/>
     <use xlink:href="#DejaVuSans-Bold-6e" transform="translate(1395.996094 0)"/>
     <use xlink:href="#DejaVuSans-Bold-64" transform="translate(1467.1875 0)"/>
     <use xlink:href="#DejaVuSans-Bold-20" transform="translate(1538.769531 0)"/>
     <use xlink:href="#DejaVuSans-Bold-43" transform="translate(1573.583984 0)"/>
     <use xlink:href="#DejaVuSans-Bold-61" transform="translate(1646.972656 0)"/>
     <use xlink:href="#DejaVuSans-Bold-6e" transform="translate(1714.453125 0)"/>
     <use xlink:href="#DejaVuSans-Bold-63" transform="translate(1785.644531 0)"/>
     <use xlink:href="#DejaVuSans-Bold-65" transform="translate(1844.921875 0)"/>
     <use xlink:href="#DejaVuSans-Bold-6c" transform="translate(1912.744141 0)"/>
     <use xlink:href="#DejaVuSans-Bold-6c" transform="translate(1947.021484 0)"/>
     <use xlink:href="#DejaVuSans-Bold-61" transform="translate(1981.298828 0)"/>
     <use xlink:href="#DejaVuSans-Bold-74" transform="translate(2048.779297 0)"/>
     <use xlink:href="#DejaVuSans-Bold-69" transform="translate(2096.582031 0)"/>
     <use xlink:href="#DejaVuSans-Bold-6f" transform="translate(2130.859375 0)"/>
     <use xlink:href="#DejaVuSans-Bold-6e" transform="translate(2199.560547 0)"/>
     <use xlink:href="#DejaVuSans-Bold-20" transform="translate(2270.751953 0)"/>
     <use xlink:href="#DejaVuSans-Bold-54" transform="translate(2305.566406 0)"/>
     <use xlink:href="#DejaVuSans-Bold-72" transform="translate(2362.779297 0)"/>
     <use xlink:href="#DejaVuSans-Bold-65" transform="translate(2412.095703 0)"/>
     <use xlink:href="#DejaVuSans-Bold-6e" transform="translate(2479.917969 0)"/>
     <use xlink:href="#DejaVuSans-Bold-64" transform="translate(2551.109375 0)"/>
     <use xlink:href="#DejaVuSans-Bold-20" transform="translate(2622.691406 0)"/>
     <use xlink:href="#DejaVuSans-Bold-61" transform="translate(2657.505859 0)"/>
     <use xlink:href="#DejaVuSans-Bold-74" transform="translate(2724.986328 0)"/>
     <use xlink:href="#DejaVuSans-Bold-20" transform="translate(2772.789062 0)"/>
     <use xlink:href="#DejaVuSans-Bold-4a" transform="translate(2807.603516 0)"/>
     <use xlink:href="#DejaVuSans-Bold-46" transform="translate(2844.810547 0)"/>
     <use xlink:href="#DejaVuSans-Bold-4b" transform="translate(2913.121094 0)"/>
    </g>
   </g>
   <g id="legend_1">
    <g id="line2d_17">
     <path d="M 70.20875 41.285469 
L 81.20875 41.285469 
L 92.20875 41.285469 
" style="fill: none; stroke: #0f4c5c; stroke-width: 2.6; stroke-linecap: round"/>
     <g>
      <use xlink:href="#mb2a57378b4" x="81.20875" y="41.285469" style="fill: #0f4c5c; stroke: #0f4c5c"/>
     </g>
    </g>
    <g id="text_19">
     <!-- Delayed arrivals (15+ min) -->
     <g style="fill: #3d405b" transform="translate(101.00875 45.135469) scale(0.11 -0.11)">
      <defs>
       <path id="DejaVuSans-44" d="M 1259 4147 
L 1259 519 
L 2022 519 
Q 2988 519 3436 956 
Q 3884 1394 3884 2338 
Q 3884 3275 3436 3711 
Q 2988 4147 2022 4147 
L 1259 4147 
z
M 628 4666 
L 1925 4666 
Q 3281 4666 3915 4102 
Q 4550 3538 4550 2338 
Q 4550 1131 3912 565 
Q 3275 0 1925 0 
L 628 0 
L 628 4666 
z
" transform="scale(0.015625)"/>
       <path id="DejaVuSans-76" d="M 191 3500 
L 800 3500 
L 1894 563 
L 2988 3500 
L 3597 3500 
L 2284 0 
L 1503 0 
L 191 3500 
z
" transform="scale(0.015625)"/>
       <path id="DejaVuSans-28" d="M 1984 4856 
Q 1566 4138 1362 3434 
Q 1159 2731 1159 2009 
Q 1159 1288 1364 580 
Q 1569 -128 1984 -844 
L 1484 -844 
Q 1016 -109 783 600 
Q 550 1309 550 2009 
Q 550 2706 781 3412 
Q 1013 4119 1484 4856 
L 1984 4856 
z
" transform="scale(0.015625)"/>
       <path id="DejaVuSans-2b" d="M 2944 4013 
L 2944 2272 
L 4684 2272 
L 4684 1741 
L 2944 1741 
L 2944 0 
L 2419 0 
L 2419 1741 
L 678 1741 
L 678 2272 
L 2419 2272 
L 2419 4013 
L 2944 4013 
z
" transform="scale(0.015625)"/>
       <path id="DejaVuSans-6d" d="M 3328 2828 
Q 3544 3216 3844 3400 
Q 4144 3584 4550 3584 
Q 5097 3584 5394 3201 
Q 5691 2819 5691 2113 
L 5691 0 
L 5113 0 
L 5113 2094 
Q 5113 2597 4934 2840 
Q 4756 3084 4391 3084 
Q 3944 3084 3684 2787 
Q 3425 2491 3425 1978 
L 3425 0 
L 2847 0 
L 2847 2094 
Q 2847 2600 2669 2842 
Q 2491 3084 2119 3084 
Q 1678 3084 1418 2786 
Q 1159 2488 1159 1978 
L 1159 0 
L 581 0 
L 581 3500 
L 1159 3500 
L 1159 2956 
Q 1356 3278 1631 3431 
Q 1906 3584 2284 3584 
Q 2666 3584 2933 3390 
Q 3200 3197 3328 2828 
z
" transform="scale(0.015625)"/>
       <path id="DejaVuSans-29" d="M 513 4856 
L 1013 4856 
Q 1481 4119 1714 3412 
Q 1947 2706 1947 2009 
Q 1947 1309 1714 600 
Q 1481 -109 1013 -844 
L 513 -844 
Q 928 -128 1133 580 
Q 1338 1288 1338 2009 
Q 1338 2731 1133 3434 
Q 928 4138 513 4856 
z
" transform="scale(0.015625)"/>
      </defs>
      <use xlink:href="#DejaVuSans-44"/>
      <use xlink:href="#DejaVuSans-65" transform="translate(77.001953 0)"/>
      <use xlink:href="#DejaVuSans-6c" transform="translate(138.525391 0)"/>
      <use xlink:href="#DejaVuSans-61" transform="translate(166.308594 0)"/>
      <use xlink:href="#DejaVuSans-79" transform="translate(227.587891 0)"/>
      <use xlink:href="#DejaVuSans-65" transform="translate(286.767578 0)"/>
      <use xlink:href="#DejaVuSans-64" transform="translate(348.291016 0)"/>
      <use xlink:href="#DejaVuSans-20" transform="translate(411.767578 0)"/>
      <use xlink:href="#DejaVuSans-61" transform="translate(443.554688 0)"/>
      <use xlink:href="#DejaVuSans-72" transform="translate(504.833984 0)"/>
      <use xlink:href="#DejaVuSans-72" transform="translate(544.197266 0)"/>
      <use xlink:href="#DejaVuSans-69" transform="translate(585.310547 0)"/>
      <use xlink:href="#DejaVuSans-76" transform="translate(613.09375 0)"/>
      <use xlink:href="#DejaVuSans-61" transform="translate(672.273438 0)"/>
      <use xlink:href="#DejaVuSans-6c" transform="translate(733.552734 0)"/>
      <use xlink:href="#DejaVuSans-73" transform="translate(761.335938 0)"/>
      <use xlink:href="#DejaVuSans-20" transform="translate(813.435547 0)"/>
      <use xlink:href="#DejaVuSans-28" transform="translate(845.222656 0)"/>
      <use xlink:href="#DejaVuSans-31" transform="translate(884.236328 0)"/>
      <use xlink:href="#DejaVuSans-35" transform="translate(947.859375 0)"/>
      <use xlink:href="#DejaVuSans-2b" transform="translate(1011.482422 0)"/>
      <use xlink:href="#DejaVuSans-20" transform="translate(1095.271484 0)"/>
      <use xlink:href="#DejaVuSans-6d" transform="translate(1127.058594 0)"/>
      <use xlink:href="#DejaVuSans-69" transform="translate(1224.470703 0)"/>
      <use xlink:href="#DejaVuSans-6e" transform="translate(1252.253906 0)"/>
      <use xlink:href="#DejaVuSans-29" transform="translate(1315.632812 0)"/>
     </g>
    </g>
    <g id="line2d_18">
     <path d="M 70.20875 57.431406 
L 81.20875 57.431406 
L 92.20875 57.431406 
" style="fill: none; stroke: #e36414; stroke-width: 2.6; stroke-linecap: round"/>
     <g>
      <use xlink:href="#m31db774de9" x="81.20875" y="57.431406" style="fill: #e36414; stroke: #e36414"/>
     </g>
    </g>
    <g id="text_20">
     <!-- Cancelled arrivals -->
     <g style="fill: #3d405b" transform="translate(101.00875 61.281406) scale(0.11 -0.11)">
      <defs>
       <path id="DejaVuSans-43" d="M 4122 4306 
L 4122 3641 
Q 3803 3938 3442 4084 
Q 3081 4231 2675 4231 
Q 1875 4231 1450 3742 
Q 1025 3253 1025 2328 
Q 1025 1406 1450 917 
Q 1875 428 2675 428 
Q 3081 428 3442 575 
Q 3803 722 4122 1019 
L 4122 359 
Q 3791 134 3420 21 
Q 3050 -91 2638 -91 
Q 1578 -91 968 557 
Q 359 1206 359 2328 
Q 359 3453 968 4101 
Q 1578 4750 2638 4750 
Q 3056 4750 3426 4639 
Q 3797 4528 4122 4306 
z
" transform="scale(0.015625)"/>
       <path id="DejaVuSans-63" d="M 3122 3366 
L 3122 2828 
Q 2878 2963 2633 3030 
Q 2388 3097 2138 3097 
Q 1578 3097 1268 2742 
Q 959 2388 959 1747 
Q 959 1106 1268 751 
Q 1578 397 2138 397 
Q 2388 397 2633 464 
Q 2878 531 3122 666 
L 3122 134 
Q 2881 22 2623 -34 
Q 2366 -91 2075 -91 
Q 1284 -91 818 406 
Q 353 903 353 1747 
Q 353 2603 823 3093 
Q 1294 3584 2113 3584 
Q 2378 3584 2631 3529 
Q 2884 3475 3122 3366 
z
" transform="scale(0.015625)"/>
      </defs>
      <use xlink:href="#DejaVuSans-43"/>
      <use xlink:href="#DejaVuSans-61" transform="translate(69.824219 0)"/>
      <use xlink:href="#DejaVuSans-6e" transform="translate(131.103516 0)"/>
      <use xlink:href="#DejaVuSans-63" transform="translate(194.482422 0)"/>
      <use xlink:href="#DejaVuSans-65" transform="translate(249.462891 0)"/>
      <use xlink:href="#DejaVuSans-6c" transform="translate(310.986328 0)"/>
      <use xlink:href="#DejaVuSans-6c" transform="translate(338.769531 0)"/>
      <use xlink:href="#DejaVuSans-65" transform="translate(366.552734 0)"/>
      <use xlink:href="#DejaVuSans-64" transform="translate(428.076172 0)"/>
      <use xlink:href="#DejaVuSans-20" transform="translate(491.552734 0)"/>
      <use xlink:href="#DejaVuSans-61" transform="translate(523.339844 0)"/>
      <use xlink:href="#DejaVuSans-72" transform="translate(584.619141 0)"/>
      <use xlink:href="#DejaVuSans-72" transform="translate(623.982422 0)"/>
      <use xlink:href="#DejaVuSans-69" transform="translate(665.095703 0)"/>
      <use xlink:href="#DejaVuSans-76" transform="translate(692.878906 0)"/>
      <use xlink:href="#DejaVuSans-61" transform="translate(752.058594 0)"/>
      <use xlink:href="#DejaVuSans-6c" transform="translate(813.337891 0)"/>
      <use xlink:href="#DejaVuSans-73" transform="translate(841.121094 0)"/>
     </g>
    </g>
   </g>
  </g>
 </g>
 <defs>
  <clipPath id="p8e1cddd248">
   <rect x="60.30875" y="26.877187" width="837" height="342.72"/>
  </clipPath>
 </defs>
</svg>
