<?xml version="1.0" encoding="utf-8" standalone="no"?>
<!DOCTYPE svg PUBLIC "-//W3C//DTD SVG 1.1//EN"
  "http://www.w3.org/Graphics/SVG/1.1/DTD/svg11.dtd">
<svg xmlns:xlink="http://www.w3.org/1999/xlink" width="564.295pt" height="334.369688pt" viewBox="0 0 564.295 334.369688" xmlns="http://www.w3.org/2000/svg" version="1.1">
 <metadata>
  <rdf:RDF xmlns:dc="http://purl.org/dc/elements/1.1/" xmlns:cc="http://creativecommons.org/ns#" xmlns:rdf="http://www.w3.org/1999/02/22-rdf-syntax-ns#">
   <cc:Work>
    <dc:type rdf:resource="http://purl.org/dc/dcmitype/StillImage"/>
    <dc:date>2026-04-19T15:30:13.537820</dc:date>
    <dc:format>image/svg+xml</dc:format>
    <dc:creator>
     <cc:Agent>
      <dc:title>Matplotlib v3.9.2, https://matplotlib.org/</dc:title>
     </cc:Agent>
    </dc:creator>
   </cc:Work>
  </rdf:RDF>
 </metadata>
 <defs>
  <style type="text/css">*{stroke-linejoin: round; stroke-linecap: butt}</style>
 </defs>
 <g id="figure_1">
  <g id="patch_1">
   <path d="M 0 334.369688 
L 564.295 334.369688 
L 564.295 0 
L 0 0 
z
" style="fill: #f6f2e8"/>
  </g>
  <g id="axes_1">
   <g id="patch_2">
    <path d="M 194.625 307.346875 
L 557.095 307.346875 
L 557.095 21.943125 
L 194.625 21.943125 
z
" style="fill: #f6f2e8"/>
   </g>
   <g id="matplotlib.axis_1">
    <g id="xtick_1">
     <g id="line2d_1">
      <path d="M 285.2425 307.346875 
L 285.2425 21.943125 
" clip-path="url(#p1ff331be60)" style="fill: none; stroke: #d9d2c3; stroke-linecap: round"/>
     </g>
     <g id="text_1">
      <!-- Frequency -->
      <g style="fill: #3d405b" transform="translate(259.259297 324.720469) scale(0.11 -0.11)">
       <defs>
        <path id="ArialMT-46" d="M 525 0 
L 525 4581 
L 3616 4581 
L 3616 4041 
L 1131 4041 
L 1131 2622 
L 3281 2622 
L 3281 2081 
L 1131 2081 
L 1131 0 
L 525 0 
z
" transform="scale(0.015625)"/>
        <path id="ArialMT-72" d="M 416 0 
L 416 3319 
L 922 3319 
L 922 2816 
Q 1116 3169 1280 3281 
Q 1444 3394 1641 3394 
Q 1925 3394 2219 3213 
L 2025 2691 
Q 1819 2813 1613 2813 
Q 1428 2813 1281 2702 
Q 1134 2591 1072 2394 
Q 978 2094 978 1738 
L 978 0 
L 416 0 
z
" transform="scale(0.015625)"/>
        <path id="ArialMT-65" d="M 2694 1069 
L 3275 997 
Q 3138 488 2766 206 
Q 2394 -75 1816 -75 
Q 1088 -75 661 373 
Q 234 822 234 1631 
Q 234 2469 665 2931 
Q 1097 3394 1784 3394 
Q 2450 3394 2872 2941 
Q 3294 2488 3294 1666 
Q 3294 1616 3291 1516 
L 816 1516 
Q 847 969 1125 678 
Q 1403 388 1819 388 
Q 2128 388 2347 550 
Q 2566 713 2694 1069 
z
M 847 1978 
L 2700 1978 
Q 2663 2397 2488 2606 
Q 2219 2931 1791 2931 
Q 1403 2931 1139 2672 
Q 875 2413 847 1978 
z
" transform="scale(0.015625)"/>
        <path id="ArialMT-71" d="M 2538 -1272 
L 2538 353 
Q 2406 169 2170 47 
Q 1934 -75 1669 -75 
Q 1078 -75 651 397 
Q 225 869 225 1691 
Q 225 2191 398 2587 
Q 572 2984 901 3189 
Q 1231 3394 1625 3394 
Q 2241 3394 2594 2875 
L 2594 3319 
L 3100 3319 
L 3100 -1272 
L 2538 -1272 
z
M 803 1669 
Q 803 1028 1072 708 
Q 1341 388 1716 388 
Q 2075 388 2334 692 
Q 2594 997 2594 1619 
Q 2594 2281 2320 2615 
Q 2047 2950 1678 2950 
Q 1313 2950 1058 2639 
Q 803 2328 803 1669 
z
" transform="scale(0.015625)"/>
        <path id="ArialMT-75" d="M 2597 0 
L 2597 488 
Q 2209 -75 1544 -75 
Q 1250 -75 995 37 
Q 741 150 617 320 
Q 494 491 444 738 
Q 409 903 409 1263 
L 409 3319 
L 972 3319 
L 972 1478 
Q 972 1038 1006 884 
Q 1059 663 1231 536 
Q 1403 409 1656 409 
Q 1909 409 2131 539 
Q 2353 669 2445 892 
Q 2538 1116 2538 1541 
L 2538 3319 
L 3100 3319 
L 3100 0 
L 2597 0 
z
" transform="scale(0.015625)"/>
        <path id="ArialMT-6e" d="M 422 0 
L 422 3319 
L 928 3319 
L 928 2847 
Q 1294 3394 1984 3394 
Q 2284 3394 2536 3286 
Q 2788 3178 2913 3003 
Q 3038 2828 3088 2588 
Q 3119 2431 3119 2041 
L 3119 0 
L 2556 0 
L 2556 2019 
Q 2556 2363 2490 2533 
Q 2425 2703 2258 2804 
Q 2091 2906 1866 2906 
Q 1506 2906 1245 2678 
Q 984 2450 984 1813 
L 984 0 
L 422 0 
z
" transform="scale(0.015625)"/>
        <path id="ArialMT-63" d="M 2588 1216 
L 3141 1144 
Q 3050 572 2676 248 
Q 2303 -75 1759 -75 
Q 1078 -75 664 370 
Q 250 816 250 1647 
Q 250 2184 428 2587 
Q 606 2991 970 3192 
Q 1334 3394 1763 3394 
Q 2303 3394 2647 3120 
Q 2991 2847 3088 2344 
L 2541 2259 
Q 2463 2594 2264 2762 
Q 2066 2931 1784 2931 
Q 1359 2931 1093 2626 
Q 828 2322 828 1663 
Q 828 994 1084 691 
Q 1341 388 1753 388 
Q 2084 388 2306 591 
Q 2528 794 2588 1216 
z
" transform="scale(0.015625)"/>
        <path id="ArialMT-79" d="M 397 -1278 
L 334 -750 
Q 519 -800 656 -800 
Q 844 -800 956 -737 
Q 1069 -675 1141 -563 
Q 1194 -478 1313 -144 
Q 1328 -97 1363 -6 
L 103 3319 
L 709 3319 
L 1400 1397 
Q 1534 1031 1641 628 
Q 1738 1016 1872 1384 
L 2581 3319 
L 3144 3319 
L 1881 -56 
Q 1678 -603 1566 -809 
Q 1416 -1088 1222 -1217 
Q 1028 -1347 759 -1347 
Q 597 -1347 397 -1278 
z
" transform="scale(0.015625)"/>
       </defs>
       <use xlink:href="#ArialMT-46"/>
       <use xlink:href="#ArialMT-72" x="61.083984"/>
       <use xlink:href="#ArialMT-65" x="94.384766"/>
       <use xlink:href="#ArialMT-71" x="150"/>
       <use xlink:href="#ArialMT-75" x="205.615234"/>
       <use xlink:href="#ArialMT-65" x="261.230469"/>
       <use xlink:href="#ArialMT-6e" x="316.845703"/>
       <use xlink:href="#ArialMT-63" x="372.460938"/>
       <use xlink:href="#ArialMT-79" x="422.460938"/>
      </g>
     </g>
    </g>
    <g id="xtick_2">
     <g id="line2d_2">
      <path d="M 466.4775 307.346875 
L 466.4775 21.943125 
" clip-path="url(#p1ff331be60)" style="fill: none; stroke: #d9d2c3; stroke-linecap: round"/>
     </g>
     <g id="text_2">
      <!-- Severity -->
      <g style="fill: #3d405b" transform="translate(446.610469 324.854531) scale(0.11 -0.11)">
       <defs>
        <path id="ArialMT-53" d="M 288 1472 
L 859 1522 
Q 900 1178 1048 958 
Q 1197 738 1509 602 
Q 1822 466 2213 466 
Q 2559 466 2825 569 
Q 3091 672 3220 851 
Q 3350 1031 3350 1244 
Q 3350 1459 3225 1620 
Q 3100 1781 2813 1891 
Q 2628 1963 1997 2114 
Q 1366 2266 1113 2400 
Q 784 2572 623 2826 
Q 463 3081 463 3397 
Q 463 3744 659 4045 
Q 856 4347 1234 4503 
Q 1613 4659 2075 4659 
Q 2584 4659 2973 4495 
Q 3363 4331 3572 4012 
Q 3781 3694 3797 3291 
L 3216 3247 
Q 3169 3681 2898 3903 
Q 2628 4125 2100 4125 
Q 1550 4125 1298 3923 
Q 1047 3722 1047 3438 
Q 1047 3191 1225 3031 
Q 1400 2872 2139 2705 
Q 2878 2538 3153 2413 
Q 3553 2228 3743 1945 
Q 3934 1663 3934 1294 
Q 3934 928 3725 604 
Q 3516 281 3123 101 
Q 2731 -78 2241 -78 
Q 1619 -78 1198 103 
Q 778 284 539 648 
Q 300 1013 288 1472 
z
" transform="scale(0.015625)"/>
        <path id="ArialMT-76" d="M 1344 0 
L 81 3319 
L 675 3319 
L 1388 1331 
Q 1503 1009 1600 663 
Q 1675 925 1809 1294 
L 2547 3319 
L 3125 3319 
L 1869 0 
L 1344 0 
z
" transform="scale(0.015625)"/>
        <path id="ArialMT-69" d="M 425 3934 
L 425 4581 
L 988 4581 
L 988 3934 
L 425 3934 
z
M 425 0 
L 425 3319 
L 988 3319 
L 988 0 
L 425 0 
z
" transform="scale(0.015625)"/>
        <path id="ArialMT-74" d="M 1650 503 
L 1731 6 
Q 1494 -44 1306 -44 
Q 1000 -44 831 53 
Q 663 150 594 308 
Q 525 466 525 972 
L 525 2881 
L 113 2881 
L 113 3319 
L 525 3319 
L 525 4141 
L 1084 4478 
L 1084 3319 
L 1650 3319 
L 1650 2881 
L 1084 2881 
L 1084 941 
Q 1084 700 1114 631 
Q 1144 563 1211 522 
Q 1278 481 1403 481 
Q 1497 481 1650 503 
z
" transform="scale(0.015625)"/>
       </defs>
       <use xlink:href="#ArialMT-53"/>
       <use xlink:href="#ArialMT-65" x="66.699219"/>
       <use xlink:href="#ArialMT-76" x="122.314453"/>
       <use xlink:href="#ArialMT-65" x="172.314453"/>
       <use xlink:href="#ArialMT-72" x="227.929688"/>
       <use xlink:href="#ArialMT-69" x="261.230469"/>
       <use xlink:href="#ArialMT-74" x="283.447266"/>
       <use xlink:href="#ArialMT-79" x="311.230469"/>
      </g>
     </g>
    </g>
   </g>
   <g id="matplotlib.axis_2">
    <g id="ytick_1">
     <g id="line2d_3">
      <path d="M 194.625 69.510417 
L 557.095 69.510417 
" clip-path="url(#p1ff331be60)" style="fill: none; stroke: #d9d2c3; stroke-linecap: round"/>
     </g>
     <g id="text_3">
      <!-- Internal airline-operational disruption -->
      <g style="fill: #3d405b" transform="translate(7.2 72.354089) scale(0.11 -0.11)">
       <defs>
        <path id="ArialMT-49" d="M 597 0 
L 597 4581 
L 1203 4581 
L 1203 0 
L 597 0 
z
" transform="scale(0.015625)"/>
        <path id="ArialMT-61" d="M 2588 409 
Q 2275 144 1986 34 
Q 1697 -75 1366 -75 
Q 819 -75 525 192 
Q 231 459 231 875 
Q 231 1119 342 1320 
Q 453 1522 633 1644 
Q 813 1766 1038 1828 
Q 1203 1872 1538 1913 
Q 2219 1994 2541 2106 
Q 2544 2222 2544 2253 
Q 2544 2597 2384 2738 
Q 2169 2928 1744 2928 
Q 1347 2928 1158 2789 
Q 969 2650 878 2297 
L 328 2372 
Q 403 2725 575 2942 
Q 747 3159 1072 3276 
Q 1397 3394 1825 3394 
Q 2250 3394 2515 3294 
Q 2781 3194 2906 3042 
Q 3031 2891 3081 2659 
Q 3109 2516 3109 2141 
L 3109 1391 
Q 3109 606 3145 398 
Q 3181 191 3288 0 
L 2700 0 
Q 2613 175 2588 409 
z
M 2541 1666 
Q 2234 1541 1622 1453 
Q 1275 1403 1131 1340 
Q 988 1278 909 1158 
Q 831 1038 831 891 
Q 831 666 1001 516 
Q 1172 366 1500 366 
Q 1825 366 2078 508 
Q 2331 650 2450 897 
Q 2541 1088 2541 1459 
L 2541 1666 
z
" transform="scale(0.015625)"/>
        <path id="ArialMT-6c" d="M 409 0 
L 409 4581 
L 972 4581 
L 972 0 
L 409 0 
z
" transform="scale(0.015625)"/>
        <path id="ArialMT-20" transform="scale(0.015625)"/>
        <path id="ArialMT-2d" d="M 203 1375 
L 203 1941 
L 1931 1941 
L 1931 1375 
L 203 1375 
z
" transform="scale(0.015625)"/>
        <path id="ArialMT-6f" d="M 213 1659 
Q 213 2581 725 3025 
Q 1153 3394 1769 3394 
Q 2453 3394 2887 2945 
Q 3322 2497 3322 1706 
Q 3322 1066 3130 698 
Q 2938 331 2570 128 
Q 2203 -75 1769 -75 
Q 1072 -75 642 372 
Q 213 819 213 1659 
z
M 791 1659 
Q 791 1022 1069 705 
Q 1347 388 1769 388 
Q 2188 388 2466 706 
Q 2744 1025 2744 1678 
Q 2744 2294 2464 2611 
Q 2184 2928 1769 2928 
Q 1347 2928 1069 2612 
Q 791 2297 791 1659 
z
" transform="scale(0.015625)"/>
        <path id="ArialMT-70" d="M 422 -1272 
L 422 3319 
L 934 3319 
L 934 2888 
Q 1116 3141 1344 3267 
Q 1572 3394 1897 3394 
Q 2322 3394 2647 3175 
Q 2972 2956 3137 2557 
Q 3303 2159 3303 1684 
Q 3303 1175 3120 767 
Q 2938 359 2589 142 
Q 2241 -75 1856 -75 
Q 1575 -75 1351 44 
Q 1128 163 984 344 
L 984 -1272 
L 422 -1272 
z
M 931 1641 
Q 931 1000 1190 694 
Q 1450 388 1819 388 
Q 2194 388 2461 705 
Q 2728 1022 2728 1688 
Q 2728 2322 2467 2637 
Q 2206 2953 1844 2953 
Q 1484 2953 1207 2617 
Q 931 2281 931 1641 
z
" transform="scale(0.015625)"/>
        <path id="ArialMT-64" d="M 2575 0 
L 2575 419 
Q 2259 -75 1647 -75 
Q 1250 -75 917 144 
Q 584 363 401 755 
Q 219 1147 219 1656 
Q 219 2153 384 2558 
Q 550 2963 881 3178 
Q 1213 3394 1622 3394 
Q 1922 3394 2156 3267 
Q 2391 3141 2538 2938 
L 2538 4581 
L 3097 4581 
L 3097 0 
L 2575 0 
z
M 797 1656 
Q 797 1019 1065 703 
Q 1334 388 1700 388 
Q 2069 388 2326 689 
Q 2584 991 2584 1609 
Q 2584 2291 2321 2609 
Q 2059 2928 1675 2928 
Q 1300 2928 1048 2622 
Q 797 2316 797 1656 
z
" transform="scale(0.015625)"/>
        <path id="ArialMT-73" d="M 197 991 
L 753 1078 
Q 800 744 1014 566 
Q 1228 388 1613 388 
Q 2000 388 2187 545 
Q 2375 703 2375 916 
Q 2375 1106 2209 1216 
Q 2094 1291 1634 1406 
Q 1016 1563 777 1677 
Q 538 1791 414 1992 
Q 291 2194 291 2438 
Q 291 2659 392 2848 
Q 494 3038 669 3163 
Q 800 3259 1026 3326 
Q 1253 3394 1513 3394 
Q 1903 3394 2198 3281 
Q 2494 3169 2634 2976 
Q 2775 2784 2828 2463 
L 2278 2388 
Q 2241 2644 2061 2787 
Q 1881 2931 1553 2931 
Q 1166 2931 1000 2803 
Q 834 2675 834 2503 
Q 834 2394 903 2306 
Q 972 2216 1119 2156 
Q 1203 2125 1616 2013 
Q 2213 1853 2448 1751 
Q 2684 1650 2818 1456 
Q 2953 1263 2953 975 
Q 2953 694 2789 445 
Q 2625 197 2315 61 
Q 2006 -75 1616 -75 
Q 969 -75 630 194 
Q 291 463 197 991 
z
" transform="scale(0.015625)"/>
       </defs>
       <use xlink:href="#ArialMT-49"/>
       <use xlink:href="#ArialMT-6e" x="27.783203"/>
       <use xlink:href="#ArialMT-74" x="83.398438"/>
       <use xlink:href="#ArialMT-65" x="111.181641"/>
       <use xlink:href="#ArialMT-72" x="166.796875"/>
       <use xlink:href="#ArialMT-6e" x="200.097656"/>
       <use xlink:href="#ArialMT-61" x="255.712891"/>
       <use xlink:href="#ArialMT-6c" x="311.328125"/>
       <use xlink:href="#ArialMT-20" x="333.544922"/>
       <use xlink:href="#ArialMT-61" x="361.328125"/>
       <use xlink:href="#ArialMT-69" x="416.943359"/>
       <use xlink:href="#ArialMT-72" x="439.160156"/>
       <use xlink:href="#ArialMT-6c" x="472.460938"/>
       <use xlink:href="#ArialMT-69" x="494.677734"/>
       <use xlink:href="#ArialMT-6e" x="516.894531"/>
       <use xlink:href="#ArialMT-65" x="572.509766"/>
       <use xlink:href="#ArialMT-2d" x="628.125"/>
       <use xlink:href="#ArialMT-6f" x="661.425781"/>
       <use xlink:href="#ArialMT-70" x="717.041016"/>
       <use xlink:href="#ArialMT-65" x="772.65625"/>
       <use xlink:href="#ArialMT-72" x="828.271484"/>
       <use xlink:href="#ArialMT-61" x="861.572266"/>
       <use xlink:href="#ArialMT-74" x="917.1875"/>
       <use xlink:href="#ArialMT-69" x="944.970703"/>
       <use xlink:href="#ArialMT-6f" x="967.1875"/>
       <use xlink:href="#ArialMT-6e" x="1022.802734"/>
       <use xlink:href="#ArialMT-61" x="1078.417969"/>
       <use xlink:href="#ArialMT-6c" x="1134.033203"/>
       <use xlink:href="#ArialMT-20" x="1156.25"/>
       <use xlink:href="#ArialMT-64" x="1184.033203"/>
       <use xlink:href="#ArialMT-69" x="1239.648438"/>
       <use xlink:href="#ArialMT-73" x="1261.865234"/>
       <use xlink:href="#ArialMT-72" x="1311.865234"/>
       <use xlink:href="#ArialMT-75" x="1345.166016"/>
       <use xlink:href="#ArialMT-70" x="1400.78125"/>
       <use xlink:href="#ArialMT-74" x="1456.396484"/>
       <use xlink:href="#ArialMT-69" x="1484.179688"/>
       <use xlink:href="#ArialMT-6f" x="1506.396484"/>
       <use xlink:href="#ArialMT-6e" x="1562.011719"/>
      </g>
     </g>
    </g>
    <g id="ytick_2">
     <g id="line2d_4">
      <path d="M 194.625 164.645 
L 557.095 164.645 
" clip-path="url(#p1ff331be60)" style="fill: none; stroke: #d9d2c3; stroke-linecap: round"/>
     </g>
     <g id="text_4">
      <!-- System/NAS disruption -->
      <g style="fill: #3d405b" transform="translate(72.029531 167.49125) scale(0.11 -0.11)">
       <defs>
        <path id="ArialMT-6d" d="M 422 0 
L 422 3319 
L 925 3319 
L 925 2853 
Q 1081 3097 1340 3245 
Q 1600 3394 1931 3394 
Q 2300 3394 2536 3241 
Q 2772 3088 2869 2813 
Q 3263 3394 3894 3394 
Q 4388 3394 4653 3120 
Q 4919 2847 4919 2278 
L 4919 0 
L 4359 0 
L 4359 2091 
Q 4359 2428 4304 2576 
Q 4250 2725 4106 2815 
Q 3963 2906 3769 2906 
Q 3419 2906 3187 2673 
Q 2956 2441 2956 1928 
L 2956 0 
L 2394 0 
L 2394 2156 
Q 2394 2531 2256 2718 
Q 2119 2906 1806 2906 
Q 1569 2906 1367 2781 
Q 1166 2656 1075 2415 
Q 984 2175 984 1722 
L 984 0 
L 422 0 
z
" transform="scale(0.015625)"/>
        <path id="ArialMT-2f" d="M 0 -78 
L 1328 4659 
L 1778 4659 
L 453 -78 
L 0 -78 
z
" transform="scale(0.015625)"/>
        <path id="ArialMT-4e" d="M 488 0 
L 488 4581 
L 1109 4581 
L 3516 984 
L 3516 4581 
L 4097 4581 
L 4097 0 
L 3475 0 
L 1069 3600 
L 1069 0 
L 488 0 
z
" transform="scale(0.015625)"/>
        <path id="ArialMT-41" d="M -9 0 
L 1750 4581 
L 2403 4581 
L 4278 0 
L 3588 0 
L 3053 1388 
L 1138 1388 
L 634 0 
L -9 0 
z
M 1313 1881 
L 2866 1881 
L 2388 3150 
Q 2169 3728 2063 4100 
Q 1975 3659 1816 3225 
L 1313 1881 
z
" transform="scale(0.015625)"/>
       </defs>
       <use xlink:href="#ArialMT-53"/>
       <use xlink:href="#ArialMT-79" x="66.699219"/>
       <use xlink:href="#ArialMT-73" x="116.699219"/>
       <use xlink:href="#ArialMT-74" x="166.699219"/>
       <use xlink:href="#ArialMT-65" x="194.482422"/>
       <use xlink:href="#ArialMT-6d" x="250.097656"/>
       <use xlink:href="#ArialMT-2f" x="333.398438"/>
       <use xlink:href="#ArialMT-4e" x="361.181641"/>
       <use xlink:href="#ArialMT-41" x="433.398438"/>
       <use xlink:href="#ArialMT-53" x="500.097656"/>
       <use xlink:href="#ArialMT-20" x="566.796875"/>
       <use xlink:href="#ArialMT-64" x="594.580078"/>
       <use xlink:href="#ArialMT-69" x="650.195312"/>
       <use xlink:href="#ArialMT-73" x="672.412109"/>
       <use xlink:href="#ArialMT-72" x="722.412109"/>
       <use xlink:href="#ArialMT-75" x="755.712891"/>
       <use xlink:href="#ArialMT-70" x="811.328125"/>
       <use xlink:href="#ArialMT-74" x="866.943359"/>
       <use xlink:href="#ArialMT-69" x="894.726562"/>
       <use xlink:href="#ArialMT-6f" x="916.943359"/>
       <use xlink:href="#ArialMT-6e" x="972.558594"/>
      </g>
     </g>
    </g>
    <g id="ytick_3">
     <g id="line2d_5">
      <path d="M 194.625 259.779583 
L 557.095 259.779583 
" clip-path="url(#p1ff331be60)" style="fill: none; stroke: #d9d2c3; stroke-linecap: round"/>
     </g>
     <g id="text_5">
      <!-- External shock disruption -->
      <g style="fill: #3d405b" transform="translate(62.236094 262.623255) scale(0.11 -0.11)">
       <defs>
        <path id="ArialMT-45" d="M 506 0 
L 506 4581 
L 3819 4581 
L 3819 4041 
L 1113 4041 
L 1113 2638 
L 3647 2638 
L 3647 2100 
L 1113 2100 
L 1113 541 
L 3925 541 
L 3925 0 
L 506 0 
z
" transform="scale(0.015625)"/>
        <path id="ArialMT-78" d="M 47 0 
L 1259 1725 
L 138 3319 
L 841 3319 
L 1350 2541 
Q 1494 2319 1581 2169 
Q 1719 2375 1834 2534 
L 2394 3319 
L 3066 3319 
L 1919 1756 
L 3153 0 
L 2463 0 
L 1781 1031 
L 1600 1309 
L 728 0 
L 47 0 
z
" transform="scale(0.015625)"/>
        <path id="ArialMT-68" d="M 422 0 
L 422 4581 
L 984 4581 
L 984 2938 
Q 1378 3394 1978 3394 
Q 2347 3394 2619 3248 
Q 2891 3103 3008 2847 
Q 3125 2591 3125 2103 
L 3125 0 
L 2563 0 
L 2563 2103 
Q 2563 2525 2380 2717 
Q 2197 2909 1863 2909 
Q 1613 2909 1392 2779 
Q 1172 2650 1078 2428 
Q 984 2206 984 1816 
L 984 0 
L 422 0 
z
" transform="scale(0.015625)"/>
        <path id="ArialMT-6b" d="M 425 0 
L 425 4581 
L 988 4581 
L 988 1969 
L 2319 3319 
L 3047 3319 
L 1778 2088 
L 3175 0 
L 2481 0 
L 1384 1697 
L 988 1316 
L 988 0 
L 425 0 
z
" transform="scale(0.015625)"/>
       </defs>
       <use xlink:href="#ArialMT-45"/>
       <use xlink:href="#ArialMT-78" x="66.699219"/>
       <use xlink:href="#ArialMT-74" x="116.699219"/>
       <use xlink:href="#ArialMT-65" x="144.482422"/>
       <use xlink:href="#ArialMT-72" x="200.097656"/>
       <use xlink:href="#ArialMT-6e" x="233.398438"/>
       <use xlink:href="#ArialMT-61" x="289.013672"/>
       <use xlink:href="#ArialMT-6c" x="344.628906"/>
       <use xlink:href="#ArialMT-20" x="366.845703"/>
       <use xlink:href="#ArialMT-73" x="394.628906"/>
       <use xlink:href="#ArialMT-68" x="444.628906"/>
       <use xlink:href="#ArialMT-6f" x="500.244141"/>
       <use xlink:href="#ArialMT-63" x="555.859375"/>
       <use xlink:href="#ArialMT-6b" x="605.859375"/>
       <use xlink:href="#ArialMT-20" x="655.859375"/>
       <use xlink:href="#ArialMT-64" x="683.642578"/>
       <use xlink:href="#ArialMT-69" x="739.257812"/>
       <use xlink:href="#ArialMT-73" x="761.474609"/>
       <use xlink:href="#ArialMT-72" x="811.474609"/>
       <use xlink:href="#ArialMT-75" x="844.775391"/>
       <use xlink:href="#ArialMT-70" x="900.390625"/>
       <use xlink:href="#ArialMT-74" x="956.005859"/>
       <use xlink:href="#ArialMT-69" x="983.789062"/>
       <use xlink:href="#ArialMT-6f" x="1006.005859"/>
       <use xlink:href="#ArialMT-6e" x="1061.621094"/>
      </g>
     </g>
    </g>
   </g>
   <g id="QuadMesh_1">
    <path d="M 194.625 21.943125 
L 375.86 21.943125 
L 375.86 117.077708 
L 194.625 117.077708 
L 194.625 21.943125 
" clip-path="url(#p1ff331be60)" style="fill: #800026; stroke: #ffffff; stroke-width: 0.5"/>
    <path d="M 375.86 21.943125 
L 557.095 21.943125 
L 557.095 117.077708 
L 375.86 117.077708 
L 375.86 21.943125 
" clip-path="url(#p1ff331be60)" style="fill: #800026; stroke: #ffffff; stroke-width: 0.5"/>
    <path d="M 194.625 117.077708 
L 375.86 117.077708 
L 375.86 212.212292 
L 194.625 212.212292 
L 194.625 117.077708 
" clip-path="url(#p1ff331be60)" style="fill: #fd8c3c; stroke: #ffffff; stroke-width: 0.5"/>
    <path d="M 375.86 117.077708 
L 557.095 117.077708 
L 557.095 212.212292 
L 375.86 212.212292 
L 375.86 117.077708 
" clip-path="url(#p1ff331be60)" style="fill: #fd8c3c; stroke: #ffffff; stroke-width: 0.5"/>
    <path d="M 194.625 212.212292 
L 375.86 212.212292 
L 375.86 307.346875 
L 194.625 307.346875 
L 194.625 212.212292 
" clip-path="url(#p1ff331be60)" style="fill: #ffffcc; stroke: #ffffff; stroke-width: 0.5"/>
    <path d="M 375.86 212.212292 
L 557.095 212.212292 
L 557.095 307.346875 
L 375.86 307.346875 
L 375.86 212.212292 
" clip-path="url(#p1ff331be60)" style="fill: #ffffcc; stroke: #ffffff; stroke-width: 0.5"/>
   </g>
   <g id="text_6">
    <!-- High -->
    <g style="fill: #ffffff" transform="translate(272.903125 72.542292) scale(0.12 -0.12)">
     <defs>
      <path id="ArialMT-48" d="M 513 0 
L 513 4581 
L 1119 4581 
L 1119 2700 
L 3500 2700 
L 3500 4581 
L 4106 4581 
L 4106 0 
L 3500 0 
L 3500 2159 
L 1119 2159 
L 1119 0 
L 513 0 
z
" transform="scale(0.015625)"/>
      <path id="ArialMT-67" d="M 319 -275 
L 866 -356 
Q 900 -609 1056 -725 
Q 1266 -881 1628 -881 
Q 2019 -881 2231 -725 
Q 2444 -569 2519 -288 
Q 2563 -116 2559 434 
Q 2191 0 1641 0 
Q 956 0 581 494 
Q 206 988 206 1678 
Q 206 2153 378 2554 
Q 550 2956 876 3175 
Q 1203 3394 1644 3394 
Q 2231 3394 2613 2919 
L 2613 3319 
L 3131 3319 
L 3131 450 
Q 3131 -325 2973 -648 
Q 2816 -972 2473 -1159 
Q 2131 -1347 1631 -1347 
Q 1038 -1347 672 -1080 
Q 306 -813 319 -275 
z
M 784 1719 
Q 784 1066 1043 766 
Q 1303 466 1694 466 
Q 2081 466 2343 764 
Q 2606 1063 2606 1700 
Q 2606 2309 2336 2618 
Q 2066 2928 1684 2928 
Q 1309 2928 1046 2623 
Q 784 2319 784 1719 
z
" transform="scale(0.015625)"/>
     </defs>
     <use xlink:href="#ArialMT-48"/>
     <use xlink:href="#ArialMT-69" x="72.216797"/>
     <use xlink:href="#ArialMT-67" x="94.433594"/>
     <use xlink:href="#ArialMT-68" x="150.048828"/>
    </g>
   </g>
   <g id="text_7">
    <!-- High -->
    <g style="fill: #ffffff" transform="translate(454.138125 72.542292) scale(0.12 -0.12)">
     <use xlink:href="#ArialMT-48"/>
     <use xlink:href="#ArialMT-69" x="72.216797"/>
     <use xlink:href="#ArialMT-67" x="94.433594"/>
     <use xlink:href="#ArialMT-68" x="150.048828"/>
    </g>
   </g>
   <g id="text_8">
    <!-- Medium -->
    <g style="fill: #ffffff" transform="translate(263.904062 167.747188) scale(0.12 -0.12)">
     <defs>
      <path id="ArialMT-4d" d="M 475 0 
L 475 4581 
L 1388 4581 
L 2472 1338 
Q 2622 884 2691 659 
Q 2769 909 2934 1394 
L 4031 4581 
L 4847 4581 
L 4847 0 
L 4263 0 
L 4263 3834 
L 2931 0 
L 2384 0 
L 1059 3900 
L 1059 0 
L 475 0 
z
" transform="scale(0.015625)"/>
     </defs>
     <use xlink:href="#ArialMT-4d"/>
     <use xlink:href="#ArialMT-65" x="83.300781"/>
     <use xlink:href="#ArialMT-64" x="138.916016"/>
     <use xlink:href="#ArialMT-69" x="194.53125"/>
     <use xlink:href="#ArialMT-75" x="216.748047"/>
     <use xlink:href="#ArialMT-6d" x="272.363281"/>
    </g>
   </g>
   <g id="text_9">
    <!-- Medium -->
    <g style="fill: #ffffff" transform="translate(445.139062 167.747188) scale(0.12 -0.12)">
     <use xlink:href="#ArialMT-4d"/>
     <use xlink:href="#ArialMT-65" x="83.300781"/>
     <use xlink:href="#ArialMT-64" x="138.916016"/>
     <use xlink:href="#ArialMT-69" x="194.53125"/>
     <use xlink:href="#ArialMT-75" x="216.748047"/>
     <use xlink:href="#ArialMT-6d" x="272.363281"/>
    </g>
   </g>
   <g id="text_10">
    <!-- Low -->
    <g style="fill: #262626" transform="translate(274.23625 262.881771) scale(0.12 -0.12)">
     <defs>
      <path id="ArialMT-4c" d="M 469 0 
L 469 4581 
L 1075 4581 
L 1075 541 
L 3331 541 
L 3331 0 
L 469 0 
z
" transform="scale(0.015625)"/>
      <path id="ArialMT-77" d="M 1034 0 
L 19 3319 
L 600 3319 
L 1128 1403 
L 1325 691 
Q 1338 744 1497 1375 
L 2025 3319 
L 2603 3319 
L 3100 1394 
L 3266 759 
L 3456 1400 
L 4025 3319 
L 4572 3319 
L 3534 0 
L 2950 0 
L 2422 1988 
L 2294 2553 
L 1622 0 
L 1034 0 
z
" transform="scale(0.015625)"/>
     </defs>
     <use xlink:href="#ArialMT-4c"/>
     <use xlink:href="#ArialMT-6f" x="55.615234"/>
     <use xlink:href="#ArialMT-77" x="111.230469"/>
    </g>
   </g>
   <g id="text_11">
    <!-- Low -->
    <g style="fill: #262626" transform="translate(455.47125 262.881771) scale(0.12 -0.12)">
     <use xlink:href="#ArialMT-4c"/>
     <use xlink:href="#ArialMT-6f" x="55.615234"/>
     <use xlink:href="#ArialMT-77" x="111.230469"/>
    </g>
   </g>
   <g id="text_12">
    <!-- Operational Risk Heat Map -->
    <g style="fill: #3d405b" transform="translate(303.831875 15.943125) scale(0.12 -0.12)">
     <defs>
      <path id="ArialMT-4f" d="M 309 2231 
Q 309 3372 921 4017 
Q 1534 4663 2503 4663 
Q 3138 4663 3647 4359 
Q 4156 4056 4423 3514 
Q 4691 2972 4691 2284 
Q 4691 1588 4409 1038 
Q 4128 488 3612 205 
Q 3097 -78 2500 -78 
Q 1853 -78 1343 234 
Q 834 547 571 1087 
Q 309 1628 309 2231 
z
M 934 2222 
Q 934 1394 1379 917 
Q 1825 441 2497 441 
Q 3181 441 3623 922 
Q 4066 1403 4066 2288 
Q 4066 2847 3877 3264 
Q 3688 3681 3323 3911 
Q 2959 4141 2506 4141 
Q 1863 4141 1398 3698 
Q 934 3256 934 2222 
z
" transform="scale(0.015625)"/>
      <path id="ArialMT-52" d="M 503 0 
L 503 4581 
L 2534 4581 
Q 3147 4581 3465 4457 
Q 3784 4334 3975 4021 
Q 4166 3709 4166 3331 
Q 4166 2844 3850 2509 
Q 3534 2175 2875 2084 
Q 3116 1969 3241 1856 
Q 3506 1613 3744 1247 
L 4541 0 
L 3778 0 
L 3172 953 
Q 2906 1366 2734 1584 
Q 2563 1803 2427 1890 
Q 2291 1978 2150 2013 
Q 2047 2034 1813 2034 
L 1109 2034 
L 1109 0 
L 503 0 
z
M 1109 2559 
L 2413 2559 
Q 2828 2559 3062 2645 
Q 3297 2731 3419 2920 
Q 3541 3109 3541 3331 
Q 3541 3656 3305 3865 
Q 3069 4075 2559 4075 
L 1109 4075 
L 1109 2559 
z
" transform="scale(0.015625)"/>
     </defs>
     <use xlink:href="#ArialMT-4f"/>
     <use xlink:href="#ArialMT-70" x="77.783203"/>
     <use xlink:href="#ArialMT-65" x="133.398438"/>
     <use xlink:href="#ArialMT-72" x="189.013672"/>
     <use xlink:href="#ArialMT-61" x="222.314453"/>
     <use xlink:href="#ArialMT-74" x="277.929688"/>
     <use xlink:href="#ArialMT-69" x="305.712891"/>
     <use xlink:href="#ArialMT-6f" x="327.929688"/>
     <use xlink:href="#ArialMT-6e" x="383.544922"/>
     <use xlink:href="#ArialMT-61" x="439.160156"/>
     <use xlink:href="#ArialMT-6c" x="494.775391"/>
     <use xlink:href="#ArialMT-20" x="516.992188"/>
     <use xlink:href="#ArialMT-52" x="544.775391"/>
     <use xlink:href="#ArialMT-69" x="616.992188"/>
     <use xlink:href="#ArialMT-73" x="639.208984"/>
     <use xlink:href="#ArialMT-6b" x="689.208984"/>
     <use xlink:href="#ArialMT-20" x="739.208984"/>
     <use xlink:href="#ArialMT-48" x="766.992188"/>
     <use xlink:href="#ArialMT-65" x="839.208984"/>
     <use xlink:href="#ArialMT-61" x="894.824219"/>
     <use xlink:href="#ArialMT-74" x="950.439453"/>
     <use xlink:href="#ArialMT-20" x="978.222656"/>
     <use xlink:href="#ArialMT-4d" x="1006.005859"/>
     <use xlink:href="#ArialMT-61" x="1089.306641"/>
     <use xlink:href="#ArialMT-70" x="1144.921875"/>
    </g>
   </g>
  </g>
 </g>
 <defs>
  <clipPath id="p1ff331be60">
   <rect x="194.625" y="21.943125" width="362.47" height="285.40375"/>
  </clipPath>
 </defs>
</svg>
