<?xml version="1.0" encoding="utf-8" standalone="no"?>
<!DOCTYPE svg PUBLIC "-//W3C//DTD SVG 1.1//EN"
  "http://www.w3.org/Graphics/SVG/1.1/DTD/svg11.dtd">
<svg xmlns:xlink="http://www.w3.org/1999/xlink" width="996.3725pt" height="420.319219pt" viewBox="0 0 996.3725 420.319219" xmlns="http://www.w3.org/2000/svg" version="1.1">
 <metadata>
  <rdf:RDF xmlns:dc="http://purl.org/dc/elements/1.1/" xmlns:cc="http://creativecommons.org/ns#" xmlns:rdf="http://www.w3.org/1999/02/22-rdf-syntax-ns#">
   <cc:Work>
    <dc:type rdf:resource="http://purl.org/dc/dcmitype/StillImage"/>
    <dc:date>2026-04-22T15:29:07.368708</dc:date>
    <dc:format>image/svg+xml</dc:format>
    <dc:creator>
     <cc:Agent>
      <dc:title>Matplotlib v3.10.0, https://matplotlib.org/</dc:title>
     </cc:Agent>
    </dc:creator>
   </cc:Work>
  </rdf:RDF>
 </metadata>
 <defs>
  <style type="text/css">*{stroke-linejoin: round; stroke-linecap: butt}</style>
 </defs>
 <g id="figure_1">
  <g id="patch_1">
   <path d="M 0 420.319219 
L 996.3725 420.319219 
L 996.3725 0 
L 0 0 
z
" style="fill: #f6f2e8"/>
  </g>
  <g id="axes_1">
   <g id="patch_2">
    <path d="M 56.283125 378.585 
L 989.1725 378.585 
L 989.1725 21.935625 
L 56.283125 21.935625 
z
" style="fill: #f6f2e8"/>
   </g>
   <g id="matplotlib.axis_1">
    <g id="xtick_1">
     <g id="line2d_1">
      <path d="M 98.687187 378.585 
L 98.687187 21.935625 
" clip-path="url(#pd832cb276d)" style="fill: none; stroke: #d9d2c3; stroke-linecap: round"/>
     </g>
     <g id="text_1">
      <!-- 2020 -->
      <g style="fill: #3d405b" transform="translate(86.453125 395.958594) scale(0.11 -0.11)">
       <defs>
        <path id="ArialMT-32" d="M 3222 541 
L 3222 0 
L 194 0 
Q 188 203 259 391 
Q 375 700 629 1000 
Q 884 1300 1366 1694 
Q 2113 2306 2375 2664 
Q 2638 3022 2638 3341 
Q 2638 3675 2398 3904 
Q 2159 4134 1775 4134 
Q 1369 4134 1125 3890 
Q 881 3647 878 3216 
L 300 3275 
Q 359 3922 746 4261 
Q 1134 4600 1788 4600 
Q 2447 4600 2831 4234 
Q 3216 3869 3216 3328 
Q 3216 3053 3103 2787 
Q 2991 2522 2730 2228 
Q 2469 1934 1863 1422 
Q 1356 997 1212 845 
Q 1069 694 975 541 
L 3222 541 
z
" transform="scale(0.015625)"/>
        <path id="ArialMT-30" d="M 266 2259 
Q 266 3072 433 3567 
Q 600 4063 929 4331 
Q 1259 4600 1759 4600 
Q 2128 4600 2406 4451 
Q 2684 4303 2865 4023 
Q 3047 3744 3150 3342 
Q 3253 2941 3253 2259 
Q 3253 1453 3087 958 
Q 2922 463 2592 192 
Q 2263 -78 1759 -78 
Q 1097 -78 719 397 
Q 266 969 266 2259 
z
M 844 2259 
Q 844 1131 1108 757 
Q 1372 384 1759 384 
Q 2147 384 2411 759 
Q 2675 1134 2675 2259 
Q 2675 3391 2411 3762 
Q 2147 4134 1753 4134 
Q 1366 4134 1134 3806 
Q 844 3388 844 2259 
z
" transform="scale(0.015625)"/>
       </defs>
       <use xlink:href="#ArialMT-32"/>
       <use xlink:href="#ArialMT-30" transform="translate(55.615234 0)"/>
       <use xlink:href="#ArialMT-32" transform="translate(111.230469 0)"/>
       <use xlink:href="#ArialMT-30" transform="translate(166.845703 0)"/>
      </g>
     </g>
    </g>
    <g id="xtick_2">
     <g id="line2d_2">
      <path d="M 242.323346 378.585 
L 242.323346 21.935625 
" clip-path="url(#pd832cb276d)" style="fill: none; stroke: #d9d2c3; stroke-linecap: round"/>
     </g>
     <g id="text_2">
      <!-- 2021 -->
      <g style="fill: #3d405b" transform="translate(230.089283 395.958594) scale(0.11 -0.11)">
       <defs>
        <path id="ArialMT-31" d="M 2384 0 
L 1822 0 
L 1822 3584 
Q 1619 3391 1289 3197 
Q 959 3003 697 2906 
L 697 3450 
Q 1169 3672 1522 3987 
Q 1875 4303 2022 4600 
L 2384 4600 
L 2384 0 
z
" transform="scale(0.015625)"/>
       </defs>
       <use xlink:href="#ArialMT-32"/>
       <use xlink:href="#ArialMT-30" transform="translate(55.615234 0)"/>
       <use xlink:href="#ArialMT-32" transform="translate(111.230469 0)"/>
       <use xlink:href="#ArialMT-31" transform="translate(166.845703 0)"/>
      </g>
     </g>
    </g>
    <g id="xtick_3">
     <g id="line2d_3">
      <path d="M 385.567055 378.585 
L 385.567055 21.935625 
" clip-path="url(#pd832cb276d)" style="fill: none; stroke: #d9d2c3; stroke-linecap: round"/>
     </g>
     <g id="text_3">
      <!-- 2022 -->
      <g style="fill: #3d405b" transform="translate(373.332993 395.958594) scale(0.11 -0.11)">
       <use xlink:href="#ArialMT-32"/>
       <use xlink:href="#ArialMT-30" transform="translate(55.615234 0)"/>
       <use xlink:href="#ArialMT-32" transform="translate(111.230469 0)"/>
       <use xlink:href="#ArialMT-32" transform="translate(166.845703 0)"/>
      </g>
     </g>
    </g>
    <g id="xtick_4">
     <g id="line2d_4">
      <path d="M 528.810765 378.585 
L 528.810765 21.935625 
" clip-path="url(#pd832cb276d)" style="fill: none; stroke: #d9d2c3; stroke-linecap: round"/>
     </g>
     <g id="text_4">
      <!-- 2023 -->
      <g style="fill: #3d405b" transform="translate(516.576702 395.958594) scale(0.11 -0.11)">
       <defs>
        <path id="ArialMT-33" d="M 269 1209 
L 831 1284 
Q 928 806 1161 595 
Q 1394 384 1728 384 
Q 2125 384 2398 659 
Q 2672 934 2672 1341 
Q 2672 1728 2419 1979 
Q 2166 2231 1775 2231 
Q 1616 2231 1378 2169 
L 1441 2663 
Q 1497 2656 1531 2656 
Q 1891 2656 2178 2843 
Q 2466 3031 2466 3422 
Q 2466 3731 2256 3934 
Q 2047 4138 1716 4138 
Q 1388 4138 1169 3931 
Q 950 3725 888 3313 
L 325 3413 
Q 428 3978 793 4289 
Q 1159 4600 1703 4600 
Q 2078 4600 2393 4439 
Q 2709 4278 2876 4000 
Q 3044 3722 3044 3409 
Q 3044 3113 2884 2869 
Q 2725 2625 2413 2481 
Q 2819 2388 3044 2092 
Q 3269 1797 3269 1353 
Q 3269 753 2831 336 
Q 2394 -81 1725 -81 
Q 1122 -81 723 278 
Q 325 638 269 1209 
z
" transform="scale(0.015625)"/>
       </defs>
       <use xlink:href="#ArialMT-32"/>
       <use xlink:href="#ArialMT-30" transform="translate(55.615234 0)"/>
       <use xlink:href="#ArialMT-32" transform="translate(111.230469 0)"/>
       <use xlink:href="#ArialMT-33" transform="translate(166.845703 0)"/>
      </g>
     </g>
    </g>
    <g id="xtick_5">
     <g id="line2d_5">
      <path d="M 672.054474 378.585 
L 672.054474 21.935625 
" clip-path="url(#pd832cb276d)" style="fill: none; stroke: #d9d2c3; stroke-linecap: round"/>
     </g>
     <g id="text_5">
      <!-- 2024 -->
      <g style="fill: #3d405b" transform="translate(659.820412 395.958594) scale(0.11 -0.11)">
       <defs>
        <path id="ArialMT-34" d="M 2069 0 
L 2069 1097 
L 81 1097 
L 81 1613 
L 2172 4581 
L 2631 4581 
L 2631 1613 
L 3250 1613 
L 3250 1097 
L 2631 1097 
L 2631 0 
L 2069 0 
z
M 2069 1613 
L 2069 3678 
L 634 1613 
L 2069 1613 
z
" transform="scale(0.015625)"/>
       </defs>
       <use xlink:href="#ArialMT-32"/>
       <use xlink:href="#ArialMT-30" transform="translate(55.615234 0)"/>
       <use xlink:href="#ArialMT-32" transform="translate(111.230469 0)"/>
       <use xlink:href="#ArialMT-34" transform="translate(166.845703 0)"/>
      </g>
     </g>
    </g>
    <g id="xtick_6">
     <g id="line2d_6">
      <path d="M 815.690632 378.585 
L 815.690632 21.935625 
" clip-path="url(#pd832cb276d)" style="fill: none; stroke: #d9d2c3; stroke-linecap: round"/>
     </g>
     <g id="text_6">
      <!-- 2025 -->
      <g style="fill: #3d405b" transform="translate(803.45657 395.958594) scale(0.11 -0.11)">
       <defs>
        <path id="ArialMT-35" d="M 266 1200 
L 856 1250 
Q 922 819 1161 601 
Q 1400 384 1738 384 
Q 2144 384 2425 690 
Q 2706 997 2706 1503 
Q 2706 1984 2436 2262 
Q 2166 2541 1728 2541 
Q 1456 2541 1237 2417 
Q 1019 2294 894 2097 
L 366 2166 
L 809 4519 
L 3088 4519 
L 3088 3981 
L 1259 3981 
L 1013 2750 
Q 1425 3038 1878 3038 
Q 2478 3038 2890 2622 
Q 3303 2206 3303 1553 
Q 3303 931 2941 478 
Q 2500 -78 1738 -78 
Q 1113 -78 717 272 
Q 322 622 266 1200 
z
" transform="scale(0.015625)"/>
       </defs>
       <use xlink:href="#ArialMT-32"/>
       <use xlink:href="#ArialMT-30" transform="translate(55.615234 0)"/>
       <use xlink:href="#ArialMT-32" transform="translate(111.230469 0)"/>
       <use xlink:href="#ArialMT-35" transform="translate(166.845703 0)"/>
      </g>
     </g>
    </g>
    <g id="xtick_7">
     <g id="line2d_7">
      <path d="M 958.934342 378.585 
L 958.934342 21.935625 
" clip-path="url(#pd832cb276d)" style="fill: none; stroke: #d9d2c3; stroke-linecap: round"/>
     </g>
     <g id="text_7">
      <!-- 2026 -->
      <g style="fill: #3d405b" transform="translate(946.700279 395.958594) scale(0.11 -0.11)">
       <defs>
        <path id="ArialMT-36" d="M 3184 3459 
L 2625 3416 
Q 2550 3747 2413 3897 
Q 2184 4138 1850 4138 
Q 1581 4138 1378 3988 
Q 1113 3794 959 3422 
Q 806 3050 800 2363 
Q 1003 2672 1297 2822 
Q 1591 2972 1913 2972 
Q 2475 2972 2870 2558 
Q 3266 2144 3266 1488 
Q 3266 1056 3080 686 
Q 2894 316 2569 119 
Q 2244 -78 1831 -78 
Q 1128 -78 684 439 
Q 241 956 241 2144 
Q 241 3472 731 4075 
Q 1159 4600 1884 4600 
Q 2425 4600 2770 4297 
Q 3116 3994 3184 3459 
z
M 888 1484 
Q 888 1194 1011 928 
Q 1134 663 1356 523 
Q 1578 384 1822 384 
Q 2178 384 2434 671 
Q 2691 959 2691 1453 
Q 2691 1928 2437 2201 
Q 2184 2475 1800 2475 
Q 1419 2475 1153 2201 
Q 888 1928 888 1484 
z
" transform="scale(0.015625)"/>
       </defs>
       <use xlink:href="#ArialMT-32"/>
       <use xlink:href="#ArialMT-30" transform="translate(55.615234 0)"/>
       <use xlink:href="#ArialMT-32" transform="translate(111.230469 0)"/>
       <use xlink:href="#ArialMT-36" transform="translate(166.845703 0)"/>
      </g>
     </g>
    </g>
    <g id="text_8">
     <!-- Month -->
     <g style="fill: #3d405b" transform="translate(506.053438 410.734219) scale(0.12 -0.12)">
      <defs>
       <path id="ArialMT-4d" d="M 475 0 
L 475 4581 
L 1388 4581 
L 2472 1338 
Q 2622 884 2691 659 
Q 2769 909 2934 1394 
L 4031 4581 
L 4847 4581 
L 4847 0 
L 4263 0 
L 4263 3834 
L 2931 0 
L 2384 0 
L 1059 3900 
L 1059 0 
L 475 0 
z
" transform="scale(0.015625)"/>
       <path id="ArialMT-6f" d="M 213 1659 
Q 213 2581 725 3025 
Q 1153 3394 1769 3394 
Q 2453 3394 2887 2945 
Q 3322 2497 3322 1706 
Q 3322 1066 3130 698 
Q 2938 331 2570 128 
Q 2203 -75 1769 -75 
Q 1072 -75 642 372 
Q 213 819 213 1659 
z
M 791 1659 
Q 791 1022 1069 705 
Q 1347 388 1769 388 
Q 2188 388 2466 706 
Q 2744 1025 2744 1678 
Q 2744 2294 2464 2611 
Q 2184 2928 1769 2928 
Q 1347 2928 1069 2612 
Q 791 2297 791 1659 
z
" transform="scale(0.015625)"/>
       <path id="ArialMT-6e" d="M 422 0 
L 422 3319 
L 928 3319 
L 928 2847 
Q 1294 3394 1984 3394 
Q 2284 3394 2536 3286 
Q 2788 3178 2913 3003 
Q 3038 2828 3088 2588 
Q 3119 2431 3119 2041 
L 3119 0 
L 2556 0 
L 2556 2019 
Q 2556 2363 2490 2533 
Q 2425 2703 2258 2804 
Q 2091 2906 1866 2906 
Q 1506 2906 1245 2678 
Q 984 2450 984 1813 
L 984 0 
L 422 0 
z
" transform="scale(0.015625)"/>
       <path id="ArialMT-74" d="M 1650 503 
L 1731 6 
Q 1494 -44 1306 -44 
Q 1000 -44 831 53 
Q 663 150 594 308 
Q 525 466 525 972 
L 525 2881 
L 113 2881 
L 113 3319 
L 525 3319 
L 525 4141 
L 1084 4478 
L 1084 3319 
L 1650 3319 
L 1650 2881 
L 1084 2881 
L 1084 941 
Q 1084 700 1114 631 
Q 1144 563 1211 522 
Q 1278 481 1403 481 
Q 1497 481 1650 503 
z
" transform="scale(0.015625)"/>
       <path id="ArialMT-68" d="M 422 0 
L 422 4581 
L 984 4581 
L 984 2938 
Q 1378 3394 1978 3394 
Q 2347 3394 2619 3248 
Q 2891 3103 3008 2847 
Q 3125 2591 3125 2103 
L 3125 0 
L 2563 0 
L 2563 2103 
Q 2563 2525 2380 2717 
Q 2197 2909 1863 2909 
Q 1613 2909 1392 2779 
Q 1172 2650 1078 2428 
Q 984 2206 984 1816 
L 984 0 
L 422 0 
z
" transform="scale(0.015625)"/>
      </defs>
      <use xlink:href="#ArialMT-4d"/>
      <use xlink:href="#ArialMT-6f" transform="translate(83.300781 0)"/>
      <use xlink:href="#ArialMT-6e" transform="translate(138.916016 0)"/>
      <use xlink:href="#ArialMT-74" transform="translate(194.53125 0)"/>
      <use xlink:href="#ArialMT-68" transform="translate(222.314453 0)"/>
     </g>
    </g>
   </g>
   <g id="matplotlib.axis_2">
    <g id="ytick_1">
     <g id="line2d_8">
      <path d="M 56.283125 362.72869 
L 989.1725 362.72869 
" clip-path="url(#pd832cb276d)" style="fill: none; stroke: #d9d2c3; stroke-linecap: round"/>
     </g>
     <g id="text_9">
      <!-- 0 -->
      <g style="fill: #3d405b" transform="translate(40.666094 366.665487) scale(0.11 -0.11)">
       <use xlink:href="#ArialMT-30"/>
      </g>
     </g>
    </g>
    <g id="ytick_2">
     <g id="line2d_9">
      <path d="M 56.283125 318.350548 
L 989.1725 318.350548 
" clip-path="url(#pd832cb276d)" style="fill: none; stroke: #d9d2c3; stroke-linecap: round"/>
     </g>
     <g id="text_10">
      <!-- 500 -->
      <g style="fill: #3d405b" transform="translate(28.432031 322.287345) scale(0.11 -0.11)">
       <use xlink:href="#ArialMT-35"/>
       <use xlink:href="#ArialMT-30" transform="translate(55.615234 0)"/>
       <use xlink:href="#ArialMT-30" transform="translate(111.230469 0)"/>
      </g>
     </g>
    </g>
    <g id="ytick_3">
     <g id="line2d_10">
      <path d="M 56.283125 273.972406 
L 989.1725 273.972406 
" clip-path="url(#pd832cb276d)" style="fill: none; stroke: #d9d2c3; stroke-linecap: round"/>
     </g>
     <g id="text_11">
      <!-- 1000 -->
      <g style="fill: #3d405b" transform="translate(22.315 277.909203) scale(0.11 -0.11)">
       <use xlink:href="#ArialMT-31"/>
       <use xlink:href="#ArialMT-30" transform="translate(55.615234 0)"/>
       <use xlink:href="#ArialMT-30" transform="translate(111.230469 0)"/>
       <use xlink:href="#ArialMT-30" transform="translate(166.845703 0)"/>
      </g>
     </g>
    </g>
    <g id="ytick_4">
     <g id="line2d_11">
      <path d="M 56.283125 229.594264 
L 989.1725 229.594264 
" clip-path="url(#pd832cb276d)" style="fill: none; stroke: #d9d2c3; stroke-linecap: round"/>
     </g>
     <g id="text_12">
      <!-- 1500 -->
      <g style="fill: #3d405b" transform="translate(22.315 233.531061) scale(0.11 -0.11)">
       <use xlink:href="#ArialMT-31"/>
       <use xlink:href="#ArialMT-35" transform="translate(55.615234 0)"/>
       <use xlink:href="#ArialMT-30" transform="translate(111.230469 0)"/>
       <use xlink:href="#ArialMT-30" transform="translate(166.845703 0)"/>
      </g>
     </g>
    </g>
    <g id="ytick_5">
     <g id="line2d_12">
      <path d="M 56.283125 185.216122 
L 989.1725 185.216122 
" clip-path="url(#pd832cb276d)" style="fill: none; stroke: #d9d2c3; stroke-linecap: round"/>
     </g>
     <g id="text_13">
      <!-- 2000 -->
      <g style="fill: #3d405b" transform="translate(22.315 189.152919) scale(0.11 -0.11)">
       <use xlink:href="#ArialMT-32"/>
       <use xlink:href="#ArialMT-30" transform="translate(55.615234 0)"/>
       <use xlink:href="#ArialMT-30" transform="translate(111.230469 0)"/>
       <use xlink:href="#ArialMT-30" transform="translate(166.845703 0)"/>
      </g>
     </g>
    </g>
    <g id="ytick_6">
     <g id="line2d_13">
      <path d="M 56.283125 140.837981 
L 989.1725 140.837981 
" clip-path="url(#pd832cb276d)" style="fill: none; stroke: #d9d2c3; stroke-linecap: round"/>
     </g>
     <g id="text_14">
      <!-- 2500 -->
      <g style="fill: #3d405b" transform="translate(22.315 144.774777) scale(0.11 -0.11)">
       <use xlink:href="#ArialMT-32"/>
       <use xlink:href="#ArialMT-35" transform="translate(55.615234 0)"/>
       <use xlink:href="#ArialMT-30" transform="translate(111.230469 0)"/>
       <use xlink:href="#ArialMT-30" transform="translate(166.845703 0)"/>
      </g>
     </g>
    </g>
    <g id="ytick_7">
     <g id="line2d_14">
      <path d="M 56.283125 96.459839 
L 989.1725 96.459839 
" clip-path="url(#pd832cb276d)" style="fill: none; stroke: #d9d2c3; stroke-linecap: round"/>
     </g>
     <g id="text_15">
      <!-- 3000 -->
      <g style="fill: #3d405b" transform="translate(22.315 100.396636) scale(0.11 -0.11)">
       <use xlink:href="#ArialMT-33"/>
       <use xlink:href="#ArialMT-30" transform="translate(55.615234 0)"/>
       <use xlink:href="#ArialMT-30" transform="translate(111.230469 0)"/>
       <use xlink:href="#ArialMT-30" transform="translate(166.845703 0)"/>
      </g>
     </g>
    </g>
    <g id="ytick_8">
     <g id="line2d_15">
      <path d="M 56.283125 52.081697 
L 989.1725 52.081697 
" clip-path="url(#pd832cb276d)" style="fill: none; stroke: #d9d2c3; stroke-linecap: round"/>
     </g>
     <g id="text_16">
      <!-- 3500 -->
      <g style="fill: #3d405b" transform="translate(22.315 56.018494) scale(0.11 -0.11)">
       <use xlink:href="#ArialMT-33"/>
       <use xlink:href="#ArialMT-35" transform="translate(55.615234 0)"/>
       <use xlink:href="#ArialMT-30" transform="translate(111.230469 0)"/>
       <use xlink:href="#ArialMT-30" transform="translate(166.845703 0)"/>
      </g>
     </g>
    </g>
    <g id="text_17">
     <!-- Flights -->
     <g style="fill: #3d405b" transform="translate(15.789375 217.93125) rotate(-90) scale(0.12 -0.12)">
      <defs>
       <path id="ArialMT-46" d="M 525 0 
L 525 4581 
L 3616 4581 
L 3616 4041 
L 1131 4041 
L 1131 2622 
L 3281 2622 
L 3281 2081 
L 1131 2081 
L 1131 0 
L 525 0 
z
" transform="scale(0.015625)"/>
       <path id="ArialMT-6c" d="M 409 0 
L 409 4581 
L 972 4581 
L 972 0 
L 409 0 
z
" transform="scale(0.015625)"/>
       <path id="ArialMT-69" d="M 425 3934 
L 425 4581 
L 988 4581 
L 988 3934 
L 425 3934 
z
M 425 0 
L 425 3319 
L 988 3319 
L 988 0 
L 425 0 
z
" transform="scale(0.015625)"/>
       <path id="ArialMT-67" d="M 319 -275 
L 866 -356 
Q 900 -609 1056 -725 
Q 1266 -881 1628 -881 
Q 2019 -881 2231 -725 
Q 2444 -569 2519 -288 
Q 2563 -116 2559 434 
Q 2191 0 1641 0 
Q 956 0 581 494 
Q 206 988 206 1678 
Q 206 2153 378 2554 
Q 550 2956 876 3175 
Q 1203 3394 1644 3394 
Q 2231 3394 2613 2919 
L 2613 3319 
L 3131 3319 
L 3131 450 
Q 3131 -325 2973 -648 
Q 2816 -972 2473 -1159 
Q 2131 -1347 1631 -1347 
Q 1038 -1347 672 -1080 
Q 306 -813 319 -275 
z
M 784 1719 
Q 784 1066 1043 766 
Q 1303 466 1694 466 
Q 2081 466 2343 764 
Q 2606 1063 2606 1700 
Q 2606 2309 2336 2618 
Q 2066 2928 1684 2928 
Q 1309 2928 1046 2623 
Q 784 2319 784 1719 
z
" transform="scale(0.015625)"/>
       <path id="ArialMT-73" d="M 197 991 
L 753 1078 
Q 800 744 1014 566 
Q 1228 388 1613 388 
Q 2000 388 2187 545 
Q 2375 703 2375 916 
Q 2375 1106 2209 1216 
Q 2094 1291 1634 1406 
Q 1016 1563 777 1677 
Q 538 1791 414 1992 
Q 291 2194 291 2438 
Q 291 2659 392 2848 
Q 494 3038 669 3163 
Q 800 3259 1026 3326 
Q 1253 3394 1513 3394 
Q 1903 3394 2198 3281 
Q 2494 3169 2634 2976 
Q 2775 2784 2828 2463 
L 2278 2388 
Q 2241 2644 2061 2787 
Q 1881 2931 1553 2931 
Q 1166 2931 1000 2803 
Q 834 2675 834 2503 
Q 834 2394 903 2306 
Q 972 2216 1119 2156 
Q 1203 2125 1616 2013 
Q 2213 1853 2448 1751 
Q 2684 1650 2818 1456 
Q 2953 1263 2953 975 
Q 2953 694 2789 445 
Q 2625 197 2315 61 
Q 2006 -75 1616 -75 
Q 969 -75 630 194 
Q 291 463 197 991 
z
" transform="scale(0.015625)"/>
      </defs>
      <use xlink:href="#ArialMT-46"/>
      <use xlink:href="#ArialMT-6c" transform="translate(61.083984 0)"/>
      <use xlink:href="#ArialMT-69" transform="translate(83.300781 0)"/>
      <use xlink:href="#ArialMT-67" transform="translate(105.517578 0)"/>
      <use xlink:href="#ArialMT-68" transform="translate(161.132812 0)"/>
      <use xlink:href="#ArialMT-74" transform="translate(216.748047 0)"/>
      <use xlink:href="#ArialMT-73" transform="translate(244.53125 0)"/>
     </g>
    </g>
   </g>
   <g id="line2d_16">
    <path d="M 98.687187 238.203624 
L 110.853092 259.505132 
L 122.234099 298.025359 
L 134.400003 357.669582 
L 146.173458 358.202119 
L 158.339362 353.586793 
L 170.112818 335.658023 
L 182.278722 337.699418 
L 194.444626 352.344205 
L 206.218082 345.243702 
L 218.383986 338.764493 
L 230.157441 310.007457 
L 242.323346 325.273538 
L 254.48925 321.634531 
L 265.477808 330.687671 
L 277.643712 309.031138 
L 289.417168 291.013613 
L 301.583072 197.46449 
L 313.356528 151.311222 
L 325.522432 190.097718 
L 337.688336 243.972782 
L 349.461791 263.942946 
L 361.627695 203.233648 
L 373.401151 177.228057 
L 385.567055 160.630632 
L 397.732959 146.518383 
L 408.721518 131.607327 
L 420.887422 134.003747 
L 432.660877 99.921334 
L 444.826781 82.436346 
L 456.600237 91.933268 
L 468.766141 83.412665 
L 480.932045 143.766938 
L 492.705501 120.424035 
L 504.871405 144.743257 
L 516.64486 72.673155 
L 528.810765 110.483331 
L 540.976669 173.056512 
L 551.965227 102.584022 
L 564.131131 79.063607 
L 575.904587 168.263672 
L 588.070491 83.678934 
L 599.843947 38.14696 
L 612.009851 133.737478 
L 624.175755 121.577867 
L 635.94921 203.943698 
L 648.115114 227.109088 
L 659.88857 181.665871 
L 672.054474 179.53572 
L 684.220378 223.292568 
L 695.601385 161.87322 
L 707.767289 187.435029 
L 719.540745 149.269827 
L 731.706649 124.773093 
L 743.480105 81.105002 
L 755.646009 105.424223 
L 767.811913 229.949289 
L 779.585368 245.392883 
L 791.751272 256.309906 
L 803.524728 138.086536 
L 815.690632 211.31047 
L 827.856536 199.860909 
L 838.845095 172.080192 
L 851.010999 199.772153 
L 862.784454 108.441937 
L 874.950358 81.637539 
L 886.723814 76.223406 
L 898.889718 171.458898 
L 911.055622 230.836852 
L 922.829078 186.281198 
L 934.994982 185.482391 
L 946.768437 103.915366 
" clip-path="url(#pd832cb276d)" style="fill: none; stroke: #0f4c5c; stroke-width: 2.5; stroke-linecap: round"/>
   </g>
   <g id="line2d_17">
    <path d="M 98.687187 361.042321 
L 110.853092 360.687295 
L 122.234099 194.091751 
L 134.400003 258.173788 
L 146.173458 356.249481 
L 158.339362 360.598539 
L 170.112818 351.900423 
L 182.278722 355.8057 
L 194.444626 361.308589 
L 206.218082 362.373665 
L 218.383986 359.799733 
L 230.157441 354.11933 
L 242.323346 358.734657 
L 254.48925 343.113551 
L 265.477808 361.663615 
L 277.643712 359.62222 
L 289.417168 362.284908 
L 301.583072 357.137044 
L 313.356528 348.172659 
L 325.522432 353.40928 
L 337.688336 348.971466 
L 349.461791 359.178439 
L 361.627695 358.823413 
L 373.401151 343.291064 
L 385.567055 262.16782 
L 397.732959 333.084091 
L 408.721518 347.995147 
L 420.887422 315.776616 
L 432.660877 318.173035 
L 444.826781 296.960284 
L 456.600237 324.297219 
L 468.766141 320.746968 
L 480.932045 342.936039 
L 492.705501 353.764305 
L 504.871405 354.563112 
L 516.64486 335.214242 
L 528.810765 355.006893 
L 540.976669 349.59276 
L 551.965227 345.509971 
L 564.131131 330.95394 
L 575.904587 356.782019 
L 588.070491 315.865372 
L 599.843947 280.274102 
L 612.009851 344.533652 
L 624.175755 312.048852 
L 635.94921 361.752371 
L 648.115114 362.196152 
L 659.88857 357.935851 
L 672.054474 337.16688 
L 684.220378 351.456642 
L 695.601385 355.628187 
L 707.767289 353.054255 
L 719.540745 354.208087 
L 731.706649 330.776428 
L 743.480105 323.942194 
L 755.646009 300.599291 
L 767.811913 360.154758 
L 779.585368 356.338237 
L 791.751272 362.107396 
L 803.524728 358.113363 
L 815.690632 347.018828 
L 827.856536 344.356139 
L 838.845095 354.208087 
L 851.010999 358.202119 
L 862.784454 351.722911 
L 874.950358 329.53384 
L 886.723814 285.155698 
L 898.889718 352.077936 
L 911.055622 355.361918 
L 922.829078 348.083903 
L 934.994982 336.013048 
L 946.768437 324.474732 
" clip-path="url(#pd832cb276d)" style="fill: none; stroke: #e36414; stroke-width: 2.5; stroke-linecap: round"/>
   </g>
   <g id="patch_3">
    <path d="M 56.283125 378.585 
L 56.283125 21.935625 
" style="fill: none; stroke: #d9d2c3; stroke-width: 1.25; stroke-linejoin: miter; stroke-linecap: square"/>
   </g>
   <g id="patch_4">
    <path d="M 989.1725 378.585 
L 989.1725 21.935625 
" style="fill: none; stroke: #d9d2c3; stroke-width: 1.25; stroke-linejoin: miter; stroke-linecap: square"/>
   </g>
   <g id="patch_5">
    <path d="M 56.283125 378.585 
L 989.1725 378.585 
" style="fill: none; stroke: #d9d2c3; stroke-width: 1.25; stroke-linejoin: miter; stroke-linecap: square"/>
   </g>
   <g id="patch_6">
    <path d="M 56.283125 21.935625 
L 989.1725 21.935625 
" style="fill: none; stroke: #d9d2c3; stroke-width: 1.25; stroke-linejoin: miter; stroke-linecap: square"/>
   </g>
   <g id="text_18">
    <!-- JFK Multi-Year Delay and Cancellation Trend -->
    <g style="fill: #3d405b" transform="translate(403.225625 15.935625) scale(0.12 -0.12)">
     <defs>
      <path id="ArialMT-4a" d="M 184 1300 
L 731 1375 
Q 753 850 928 656 
Q 1103 463 1413 463 
Q 1641 463 1806 567 
Q 1972 672 2034 851 
Q 2097 1031 2097 1425 
L 2097 4581 
L 2703 4581 
L 2703 1459 
Q 2703 884 2564 568 
Q 2425 253 2123 87 
Q 1822 -78 1416 -78 
Q 813 -78 492 269 
Q 172 616 184 1300 
z
" transform="scale(0.015625)"/>
      <path id="ArialMT-4b" d="M 469 0 
L 469 4581 
L 1075 4581 
L 1075 2309 
L 3350 4581 
L 4172 4581 
L 2250 2725 
L 4256 0 
L 3456 0 
L 1825 2319 
L 1075 1588 
L 1075 0 
L 469 0 
z
" transform="scale(0.015625)"/>
      <path id="ArialMT-20" transform="scale(0.015625)"/>
      <path id="ArialMT-75" d="M 2597 0 
L 2597 488 
Q 2209 -75 1544 -75 
Q 1250 -75 995 37 
Q 741 150 617 320 
Q 494 491 444 738 
Q 409 903 409 1263 
L 409 3319 
L 972 3319 
L 972 1478 
Q 972 1038 1006 884 
Q 1059 663 1231 536 
Q 1403 409 1656 409 
Q 1909 409 2131 539 
Q 2353 669 2445 892 
Q 2538 1116 2538 1541 
L 2538 3319 
L 3100 3319 
L 3100 0 
L 2597 0 
z
" transform="scale(0.015625)"/>
      <path id="ArialMT-2d" d="M 203 1375 
L 203 1941 
L 1931 1941 
L 1931 1375 
L 203 1375 
z
" transform="scale(0.015625)"/>
      <path id="ArialMT-59" d="M 1784 0 
L 1784 1941 
L 19 4581 
L 756 4581 
L 1659 3200 
Q 1909 2813 2125 2425 
Q 2331 2784 2625 3234 
L 3513 4581 
L 4219 4581 
L 2391 1941 
L 2391 0 
L 1784 0 
z
" transform="scale(0.015625)"/>
      <path id="ArialMT-65" d="M 2694 1069 
L 3275 997 
Q 3138 488 2766 206 
Q 2394 -75 1816 -75 
Q 1088 -75 661 373 
Q 234 822 234 1631 
Q 234 2469 665 2931 
Q 1097 3394 1784 3394 
Q 2450 3394 2872 2941 
Q 3294 2488 3294 1666 
Q 3294 1616 3291 1516 
L 816 1516 
Q 847 969 1125 678 
Q 1403 388 1819 388 
Q 2128 388 2347 550 
Q 2566 713 2694 1069 
z
M 847 1978 
L 2700 1978 
Q 2663 2397 2488 2606 
Q 2219 2931 1791 2931 
Q 1403 2931 1139 2672 
Q 875 2413 847 1978 
z
" transform="scale(0.015625)"/>
      <path id="ArialMT-61" d="M 2588 409 
Q 2275 144 1986 34 
Q 1697 -75 1366 -75 
Q 819 -75 525 192 
Q 231 459 231 875 
Q 231 1119 342 1320 
Q 453 1522 633 1644 
Q 813 1766 1038 1828 
Q 1203 1872 1538 1913 
Q 2219 1994 2541 2106 
Q 2544 2222 2544 2253 
Q 2544 2597 2384 2738 
Q 2169 2928 1744 2928 
Q 1347 2928 1158 2789 
Q 969 2650 878 2297 
L 328 2372 
Q 403 2725 575 2942 
Q 747 3159 1072 3276 
Q 1397 3394 1825 3394 
Q 2250 3394 2515 3294 
Q 2781 3194 2906 3042 
Q 3031 2891 3081 2659 
Q 3109 2516 3109 2141 
L 3109 1391 
Q 3109 606 3145 398 
Q 3181 191 3288 0 
L 2700 0 
Q 2613 175 2588 409 
z
M 2541 1666 
Q 2234 1541 1622 1453 
Q 1275 1403 1131 1340 
Q 988 1278 909 1158 
Q 831 1038 831 891 
Q 831 666 1001 516 
Q 1172 366 1500 366 
Q 1825 366 2078 508 
Q 2331 650 2450 897 
Q 2541 1088 2541 1459 
L 2541 1666 
z
" transform="scale(0.015625)"/>
      <path id="ArialMT-72" d="M 416 0 
L 416 3319 
L 922 3319 
L 922 2816 
Q 1116 3169 1280 3281 
Q 1444 3394 1641 3394 
Q 1925 3394 2219 3213 
L 2025 2691 
Q 1819 2813 1613 2813 
Q 1428 2813 1281 2702 
Q 1134 2591 1072 2394 
Q 978 2094 978 1738 
L 978 0 
L 416 0 
z
" transform="scale(0.015625)"/>
      <path id="ArialMT-44" d="M 494 0 
L 494 4581 
L 2072 4581 
Q 2606 4581 2888 4516 
Q 3281 4425 3559 4188 
Q 3922 3881 4101 3404 
Q 4281 2928 4281 2316 
Q 4281 1794 4159 1391 
Q 4038 988 3847 723 
Q 3656 459 3429 307 
Q 3203 156 2883 78 
Q 2563 0 2147 0 
L 494 0 
z
M 1100 541 
L 2078 541 
Q 2531 541 2789 625 
Q 3047 709 3200 863 
Q 3416 1078 3536 1442 
Q 3656 1806 3656 2325 
Q 3656 3044 3420 3430 
Q 3184 3816 2847 3947 
Q 2603 4041 2063 4041 
L 1100 4041 
L 1100 541 
z
" transform="scale(0.015625)"/>
      <path id="ArialMT-79" d="M 397 -1278 
L 334 -750 
Q 519 -800 656 -800 
Q 844 -800 956 -737 
Q 1069 -675 1141 -563 
Q 1194 -478 1313 -144 
Q 1328 -97 1363 -6 
L 103 3319 
L 709 3319 
L 1400 1397 
Q 1534 1031 1641 628 
Q 1738 1016 1872 1384 
L 2581 3319 
L 3144 3319 
L 1881 -56 
Q 1678 -603 1566 -809 
Q 1416 -1088 1222 -1217 
Q 1028 -1347 759 -1347 
Q 597 -1347 397 -1278 
z
" transform="scale(0.015625)"/>
      <path id="ArialMT-64" d="M 2575 0 
L 2575 419 
Q 2259 -75 1647 -75 
Q 1250 -75 917 144 
Q 584 363 401 755 
Q 219 1147 219 1656 
Q 219 2153 384 2558 
Q 550 2963 881 3178 
Q 1213 3394 1622 3394 
Q 1922 3394 2156 3267 
Q 2391 3141 2538 2938 
L 2538 4581 
L 3097 4581 
L 3097 0 
L 2575 0 
z
M 797 1656 
Q 797 1019 1065 703 
Q 1334 388 1700 388 
Q 2069 388 2326 689 
Q 2584 991 2584 1609 
Q 2584 2291 2321 2609 
Q 2059 2928 1675 2928 
Q 1300 2928 1048 2622 
Q 797 2316 797 1656 
z
" transform="scale(0.015625)"/>
      <path id="ArialMT-43" d="M 3763 1606 
L 4369 1453 
Q 4178 706 3683 314 
Q 3188 -78 2472 -78 
Q 1731 -78 1267 223 
Q 803 525 561 1097 
Q 319 1669 319 2325 
Q 319 3041 592 3573 
Q 866 4106 1370 4382 
Q 1875 4659 2481 4659 
Q 3169 4659 3637 4309 
Q 4106 3959 4291 3325 
L 3694 3184 
Q 3534 3684 3231 3912 
Q 2928 4141 2469 4141 
Q 1941 4141 1586 3887 
Q 1231 3634 1087 3207 
Q 944 2781 944 2328 
Q 944 1744 1114 1308 
Q 1284 872 1643 656 
Q 2003 441 2422 441 
Q 2931 441 3284 734 
Q 3638 1028 3763 1606 
z
" transform="scale(0.015625)"/>
      <path id="ArialMT-63" d="M 2588 1216 
L 3141 1144 
Q 3050 572 2676 248 
Q 2303 -75 1759 -75 
Q 1078 -75 664 370 
Q 250 816 250 1647 
Q 250 2184 428 2587 
Q 606 2991 970 3192 
Q 1334 3394 1763 3394 
Q 2303 3394 2647 3120 
Q 2991 2847 3088 2344 
L 2541 2259 
Q 2463 2594 2264 2762 
Q 2066 2931 1784 2931 
Q 1359 2931 1093 2626 
Q 828 2322 828 1663 
Q 828 994 1084 691 
Q 1341 388 1753 388 
Q 2084 388 2306 591 
Q 2528 794 2588 1216 
z
" transform="scale(0.015625)"/>
      <path id="ArialMT-54" d="M 1659 0 
L 1659 4041 
L 150 4041 
L 150 4581 
L 3781 4581 
L 3781 4041 
L 2266 4041 
L 2266 0 
L 1659 0 
z
" transform="scale(0.015625)"/>
     </defs>
     <use xlink:href="#ArialMT-4a"/>
     <use xlink:href="#ArialMT-46" transform="translate(50 0)"/>
     <use xlink:href="#ArialMT-4b" transform="translate(111.083984 0)"/>
     <use xlink:href="#ArialMT-20" transform="translate(177.783203 0)"/>
     <use xlink:href="#ArialMT-4d" transform="translate(205.566406 0)"/>
     <use xlink:href="#ArialMT-75" transform="translate(288.867188 0)"/>
     <use xlink:href="#ArialMT-6c" transform="translate(344.482422 0)"/>
     <use xlink:href="#ArialMT-74" transform="translate(366.699219 0)"/>
     <use xlink:href="#ArialMT-69" transform="translate(394.482422 0)"/>
     <use xlink:href="#ArialMT-2d" transform="translate(416.699219 0)"/>
     <use xlink:href="#ArialMT-59" transform="translate(450 0)"/>
     <use xlink:href="#ArialMT-65" transform="translate(507.574219 0)"/>
     <use xlink:href="#ArialMT-61" transform="translate(563.189453 0)"/>
     <use xlink:href="#ArialMT-72" transform="translate(618.804688 0)"/>
     <use xlink:href="#ArialMT-20" transform="translate(652.105469 0)"/>
     <use xlink:href="#ArialMT-44" transform="translate(679.888672 0)"/>
     <use xlink:href="#ArialMT-65" transform="translate(752.105469 0)"/>
     <use xlink:href="#ArialMT-6c" transform="translate(807.720703 0)"/>
     <use xlink:href="#ArialMT-61" transform="translate(829.9375 0)"/>
     <use xlink:href="#ArialMT-79" transform="translate(885.552734 0)"/>
     <use xlink:href="#ArialMT-20" transform="translate(935.552734 0)"/>
     <use xlink:href="#ArialMT-61" transform="translate(963.335938 0)"/>
     <use xlink:href="#ArialMT-6e" transform="translate(1018.951172 0)"/>
     <use xlink:href="#ArialMT-64" transform="translate(1074.566406 0)"/>
     <use xlink:href="#ArialMT-20" transform="translate(1130.181641 0)"/>
     <use xlink:href="#ArialMT-43" transform="translate(1157.964844 0)"/>
     <use xlink:href="#ArialMT-61" transform="translate(1230.181641 0)"/>
     <use xlink:href="#ArialMT-6e" transform="translate(1285.796875 0)"/>
     <use xlink:href="#ArialMT-63" transform="translate(1341.412109 0)"/>
     <use xlink:href="#ArialMT-65" transform="translate(1391.412109 0)"/>
     <use xlink:href="#ArialMT-6c" transform="translate(1447.027344 0)"/>
     <use xlink:href="#ArialMT-6c" transform="translate(1469.244141 0)"/>
     <use xlink:href="#ArialMT-61" transform="translate(1491.460938 0)"/>
     <use xlink:href="#ArialMT-74" transform="translate(1547.076172 0)"/>
     <use xlink:href="#ArialMT-69" transform="translate(1574.859375 0)"/>
     <use xlink:href="#ArialMT-6f" transform="translate(1597.076172 0)"/>
     <use xlink:href="#ArialMT-6e" transform="translate(1652.691406 0)"/>
     <use xlink:href="#ArialMT-20" transform="translate(1708.306641 0)"/>
     <use xlink:href="#ArialMT-54" transform="translate(1734.339844 0)"/>
     <use xlink:href="#ArialMT-72" transform="translate(1791.673828 0)"/>
     <use xlink:href="#ArialMT-65" transform="translate(1824.974609 0)"/>
     <use xlink:href="#ArialMT-6e" transform="translate(1880.589844 0)"/>
     <use xlink:href="#ArialMT-64" transform="translate(1936.205078 0)"/>
    </g>
   </g>
   <g id="legend_1">
    <g id="line2d_18">
     <path d="M 861.051719 35.859219 
L 872.051719 35.859219 
L 883.051719 35.859219 
" style="fill: none; stroke: #0f4c5c; stroke-width: 2.5; stroke-linecap: round"/>
    </g>
    <g id="text_19">
     <!-- Delayed arrivals -->
     <g style="fill: #3d405b" transform="translate(891.851719 39.709219) scale(0.11 -0.11)">
      <defs>
       <path id="ArialMT-76" d="M 1344 0 
L 81 3319 
L 675 3319 
L 1388 1331 
Q 1503 1009 1600 663 
Q 1675 925 1809 1294 
L 2547 3319 
L 3125 3319 
L 1869 0 
L 1344 0 
z
" transform="scale(0.015625)"/>
      </defs>
      <use xlink:href="#ArialMT-44"/>
      <use xlink:href="#ArialMT-65" transform="translate(72.216797 0)"/>
      <use xlink:href="#ArialMT-6c" transform="translate(127.832031 0)"/>
      <use xlink:href="#ArialMT-61" transform="translate(150.048828 0)"/>
      <use xlink:href="#ArialMT-79" transform="translate(205.664062 0)"/>
      <use xlink:href="#ArialMT-65" transform="translate(255.664062 0)"/>
      <use xlink:href="#ArialMT-64" transform="translate(311.279297 0)"/>
      <use xlink:href="#ArialMT-20" transform="translate(366.894531 0)"/>
      <use xlink:href="#ArialMT-61" transform="translate(394.677734 0)"/>
      <use xlink:href="#ArialMT-72" transform="translate(450.292969 0)"/>
      <use xlink:href="#ArialMT-72" transform="translate(483.59375 0)"/>
      <use xlink:href="#ArialMT-69" transform="translate(516.894531 0)"/>
      <use xlink:href="#ArialMT-76" transform="translate(539.111328 0)"/>
      <use xlink:href="#ArialMT-61" transform="translate(589.111328 0)"/>
      <use xlink:href="#ArialMT-6c" transform="translate(644.726562 0)"/>
      <use xlink:href="#ArialMT-73" transform="translate(666.943359 0)"/>
     </g>
    </g>
    <g id="line2d_19">
     <path d="M 861.051719 51.547969 
L 872.051719 51.547969 
L 883.051719 51.547969 
" style="fill: none; stroke: #e36414; stroke-width: 2.5; stroke-linecap: round"/>
    </g>
    <g id="text_20">
     <!-- Cancelled arrivals -->
     <g style="fill: #3d405b" transform="translate(891.851719 55.397969) scale(0.11 -0.11)">
      <use xlink:href="#ArialMT-43"/>
      <use xlink:href="#ArialMT-61" transform="translate(72.216797 0)"/>
      <use xlink:href="#ArialMT-6e" transform="translate(127.832031 0)"/>
      <use xlink:href="#ArialMT-63" transform="translate(183.447266 0)"/>
      <use xlink:href="#ArialMT-65" transform="translate(233.447266 0)"/>
      <use xlink:href="#ArialMT-6c" transform="translate(289.0625 0)"/>
      <use xlink:href="#ArialMT-6c" transform="translate(311.279297 0)"/>
      <use xlink:href="#ArialMT-65" transform="translate(333.496094 0)"/>
      <use xlink:href="#ArialMT-64" transform="translate(389.111328 0)"/>
      <use xlink:href="#ArialMT-20" transform="translate(444.726562 0)"/>
      <use xlink:href="#ArialMT-61" transform="translate(472.509766 0)"/>
      <use xlink:href="#ArialMT-72" transform="translate(528.125 0)"/>
      <use xlink:href="#ArialMT-72" transform="translate(561.425781 0)"/>
      <use xlink:href="#ArialMT-69" transform="translate(594.726562 0)"/>
      <use xlink:href="#ArialMT-76" transform="translate(616.943359 0)"/>
      <use xlink:href="#ArialMT-61" transform="translate(666.943359 0)"/>
      <use xlink:href="#ArialMT-6c" transform="translate(722.558594 0)"/>
      <use xlink:href="#ArialMT-73" transform="translate(744.775391 0)"/>
     </g>
    </g>
   </g>
  </g>
 </g>
 <defs>
  <clipPath id="pd832cb276d">
   <rect x="56.283125" y="21.935625" width="932.889375" height="356.649375"/>
  </clipPath>
 </defs>
</svg>
