<?xml version="1.0" encoding="utf-8" standalone="no"?>
<!DOCTYPE svg PUBLIC "-//W3C//DTD SVG 1.1//EN"
  "http://www.w3.org/Graphics/SVG/1.1/DTD/svg11.dtd">
<svg xmlns:xlink="http://www.w3.org/1999/xlink" width="708.72875pt" height="420.765469pt" viewBox="0 0 708.72875 420.765469" xmlns="http://www.w3.org/2000/svg" version="1.1">
 <metadata>
  <rdf:RDF xmlns:dc="http://purl.org/dc/elements/1.1/" xmlns:cc="http://creativecommons.org/ns#" xmlns:rdf="http://www.w3.org/1999/02/22-rdf-syntax-ns#">
   <cc:Work>
    <dc:type rdf:resource="http://purl.org/dc/dcmitype/StillImage"/>
    <dc:date>2026-04-19T15:30:16.169934</dc:date>
    <dc:format>image/svg+xml</dc:format>
    <dc:creator>
     <cc:Agent>
      <dc:title>Matplotlib v3.9.2, https://matplotlib.org/</dc:title>
     </cc:Agent>
    </dc:creator>
   </cc:Work>
  </rdf:RDF>
 </metadata>
 <defs>
  <style type="text/css">*{stroke-linejoin: round; stroke-linecap: butt}</style>
 </defs>
 <g id="figure_1">
  <g id="patch_1">
   <path d="M 0 420.765469 
L 708.72875 420.765469 
L 708.72875 0 
L 0 0 
z
" style="fill: #f6f2e8"/>
  </g>
  <g id="axes_1">
   <g id="patch_2">
    <path d="M 47.105 378.890625 
L 701.52875 378.890625 
L 701.52875 21.943125 
L 47.105 21.943125 
z
" style="fill: #f6f2e8"/>
   </g>
   <g id="matplotlib.axis_1">
    <g id="xtick_1">
     <g id="line2d_1">
      <path d="M 91.082275 378.890625 
L 91.082275 21.943125 
" clip-path="url(#p39373bc0d0)" style="fill: none; stroke: #d9d2c3; stroke-linecap: round"/>
     </g>
     <g id="text_1">
      <!-- 1.5 -->
      <g style="fill: #3d405b" transform="translate(83.437275 396.264219) scale(0.11 -0.11)">
       <defs>
        <path id="ArialMT-31" d="M 2384 0 
L 1822 0 
L 1822 3584 
Q 1619 3391 1289 3197 
Q 959 3003 697 2906 
L 697 3450 
Q 1169 3672 1522 3987 
Q 1875 4303 2022 4600 
L 2384 4600 
L 2384 0 
z
" transform="scale(0.015625)"/>
        <path id="ArialMT-2e" d="M 581 0 
L 581 641 
L 1222 641 
L 1222 0 
L 581 0 
z
" transform="scale(0.015625)"/>
        <path id="ArialMT-35" d="M 266 1200 
L 856 1250 
Q 922 819 1161 601 
Q 1400 384 1738 384 
Q 2144 384 2425 690 
Q 2706 997 2706 1503 
Q 2706 1984 2436 2262 
Q 2166 2541 1728 2541 
Q 1456 2541 1237 2417 
Q 1019 2294 894 2097 
L 366 2166 
L 809 4519 
L 3088 4519 
L 3088 3981 
L 1259 3981 
L 1013 2750 
Q 1425 3038 1878 3038 
Q 2478 3038 2890 2622 
Q 3303 2206 3303 1553 
Q 3303 931 2941 478 
Q 2500 -78 1738 -78 
Q 1113 -78 717 272 
Q 322 622 266 1200 
z
" transform="scale(0.015625)"/>
       </defs>
       <use xlink:href="#ArialMT-31"/>
       <use xlink:href="#ArialMT-2e" x="55.615234"/>
       <use xlink:href="#ArialMT-35" x="83.398438"/>
      </g>
     </g>
    </g>
    <g id="xtick_2">
     <g id="line2d_2">
      <path d="M 213.18868 378.890625 
L 213.18868 21.943125 
" clip-path="url(#p39373bc0d0)" style="fill: none; stroke: #d9d2c3; stroke-linecap: round"/>
     </g>
     <g id="text_2">
      <!-- 2.0 -->
      <g style="fill: #3d405b" transform="translate(205.54368 396.264219) scale(0.11 -0.11)">
       <defs>
        <path id="ArialMT-32" d="M 3222 541 
L 3222 0 
L 194 0 
Q 188 203 259 391 
Q 375 700 629 1000 
Q 884 1300 1366 1694 
Q 2113 2306 2375 2664 
Q 2638 3022 2638 3341 
Q 2638 3675 2398 3904 
Q 2159 4134 1775 4134 
Q 1369 4134 1125 3890 
Q 881 3647 878 3216 
L 300 3275 
Q 359 3922 746 4261 
Q 1134 4600 1788 4600 
Q 2447 4600 2831 4234 
Q 3216 3869 3216 3328 
Q 3216 3053 3103 2787 
Q 2991 2522 2730 2228 
Q 2469 1934 1863 1422 
Q 1356 997 1212 845 
Q 1069 694 975 541 
L 3222 541 
z
" transform="scale(0.015625)"/>
        <path id="ArialMT-30" d="M 266 2259 
Q 266 3072 433 3567 
Q 600 4063 929 4331 
Q 1259 4600 1759 4600 
Q 2128 4600 2406 4451 
Q 2684 4303 2865 4023 
Q 3047 3744 3150 3342 
Q 3253 2941 3253 2259 
Q 3253 1453 3087 958 
Q 2922 463 2592 192 
Q 2263 -78 1759 -78 
Q 1097 -78 719 397 
Q 266 969 266 2259 
z
M 844 2259 
Q 844 1131 1108 757 
Q 1372 384 1759 384 
Q 2147 384 2411 759 
Q 2675 1134 2675 2259 
Q 2675 3391 2411 3762 
Q 2147 4134 1753 4134 
Q 1366 4134 1134 3806 
Q 844 3388 844 2259 
z
" transform="scale(0.015625)"/>
       </defs>
       <use xlink:href="#ArialMT-32"/>
       <use xlink:href="#ArialMT-2e" x="55.615234"/>
       <use xlink:href="#ArialMT-30" x="83.398438"/>
      </g>
     </g>
    </g>
    <g id="xtick_3">
     <g id="line2d_3">
      <path d="M 335.295085 378.890625 
L 335.295085 21.943125 
" clip-path="url(#p39373bc0d0)" style="fill: none; stroke: #d9d2c3; stroke-linecap: round"/>
     </g>
     <g id="text_3">
      <!-- 2.5 -->
      <g style="fill: #3d405b" transform="translate(327.650085 396.264219) scale(0.11 -0.11)">
       <use xlink:href="#ArialMT-32"/>
       <use xlink:href="#ArialMT-2e" x="55.615234"/>
       <use xlink:href="#ArialMT-35" x="83.398438"/>
      </g>
     </g>
    </g>
    <g id="xtick_4">
     <g id="line2d_4">
      <path d="M 457.40149 378.890625 
L 457.40149 21.943125 
" clip-path="url(#p39373bc0d0)" style="fill: none; stroke: #d9d2c3; stroke-linecap: round"/>
     </g>
     <g id="text_4">
      <!-- 3.0 -->
      <g style="fill: #3d405b" transform="translate(449.75649 396.264219) scale(0.11 -0.11)">
       <defs>
        <path id="ArialMT-33" d="M 269 1209 
L 831 1284 
Q 928 806 1161 595 
Q 1394 384 1728 384 
Q 2125 384 2398 659 
Q 2672 934 2672 1341 
Q 2672 1728 2419 1979 
Q 2166 2231 1775 2231 
Q 1616 2231 1378 2169 
L 1441 2663 
Q 1497 2656 1531 2656 
Q 1891 2656 2178 2843 
Q 2466 3031 2466 3422 
Q 2466 3731 2256 3934 
Q 2047 4138 1716 4138 
Q 1388 4138 1169 3931 
Q 950 3725 888 3313 
L 325 3413 
Q 428 3978 793 4289 
Q 1159 4600 1703 4600 
Q 2078 4600 2393 4439 
Q 2709 4278 2876 4000 
Q 3044 3722 3044 3409 
Q 3044 3113 2884 2869 
Q 2725 2625 2413 2481 
Q 2819 2388 3044 2092 
Q 3269 1797 3269 1353 
Q 3269 753 2831 336 
Q 2394 -81 1725 -81 
Q 1122 -81 723 278 
Q 325 638 269 1209 
z
" transform="scale(0.015625)"/>
       </defs>
       <use xlink:href="#ArialMT-33"/>
       <use xlink:href="#ArialMT-2e" x="55.615234"/>
       <use xlink:href="#ArialMT-30" x="83.398438"/>
      </g>
     </g>
    </g>
    <g id="xtick_5">
     <g id="line2d_5">
      <path d="M 579.507895 378.890625 
L 579.507895 21.943125 
" clip-path="url(#p39373bc0d0)" style="fill: none; stroke: #d9d2c3; stroke-linecap: round"/>
     </g>
     <g id="text_5">
      <!-- 3.5 -->
      <g style="fill: #3d405b" transform="translate(571.862895 396.264219) scale(0.11 -0.11)">
       <use xlink:href="#ArialMT-33"/>
       <use xlink:href="#ArialMT-2e" x="55.615234"/>
       <use xlink:href="#ArialMT-35" x="83.398438"/>
      </g>
     </g>
    </g>
    <g id="text_6">
     <!-- Annual delay-equivalent minutes -->
     <g style="fill: #3d405b" transform="translate(287.600937 411.039844) scale(0.12 -0.12)">
      <defs>
       <path id="ArialMT-41" d="M -9 0 
L 1750 4581 
L 2403 4581 
L 4278 0 
L 3588 0 
L 3053 1388 
L 1138 1388 
L 634 0 
L -9 0 
z
M 1313 1881 
L 2866 1881 
L 2388 3150 
Q 2169 3728 2063 4100 
Q 1975 3659 1816 3225 
L 1313 1881 
z
" transform="scale(0.015625)"/>
       <path id="ArialMT-6e" d="M 422 0 
L 422 3319 
L 928 3319 
L 928 2847 
Q 1294 3394 1984 3394 
Q 2284 3394 2536 3286 
Q 2788 3178 2913 3003 
Q 3038 2828 3088 2588 
Q 3119 2431 3119 2041 
L 3119 0 
L 2556 0 
L 2556 2019 
Q 2556 2363 2490 2533 
Q 2425 2703 2258 2804 
Q 2091 2906 1866 2906 
Q 1506 2906 1245 2678 
Q 984 2450 984 1813 
L 984 0 
L 422 0 
z
" transform="scale(0.015625)"/>
       <path id="ArialMT-75" d="M 2597 0 
L 2597 488 
Q 2209 -75 1544 -75 
Q 1250 -75 995 37 
Q 741 150 617 320 
Q 494 491 444 738 
Q 409 903 409 1263 
L 409 3319 
L 972 3319 
L 972 1478 
Q 972 1038 1006 884 
Q 1059 663 1231 536 
Q 1403 409 1656 409 
Q 1909 409 2131 539 
Q 2353 669 2445 892 
Q 2538 1116 2538 1541 
L 2538 3319 
L 3100 3319 
L 3100 0 
L 2597 0 
z
" transform="scale(0.015625)"/>
       <path id="ArialMT-61" d="M 2588 409 
Q 2275 144 1986 34 
Q 1697 -75 1366 -75 
Q 819 -75 525 192 
Q 231 459 231 875 
Q 231 1119 342 1320 
Q 453 1522 633 1644 
Q 813 1766 1038 1828 
Q 1203 1872 1538 1913 
Q 2219 1994 2541 2106 
Q 2544 2222 2544 2253 
Q 2544 2597 2384 2738 
Q 2169 2928 1744 2928 
Q 1347 2928 1158 2789 
Q 969 2650 878 2297 
L 328 2372 
Q 403 2725 575 2942 
Q 747 3159 1072 3276 
Q 1397 3394 1825 3394 
Q 2250 3394 2515 3294 
Q 2781 3194 2906 3042 
Q 3031 2891 3081 2659 
Q 3109 2516 3109 2141 
L 3109 1391 
Q 3109 606 3145 398 
Q 3181 191 3288 0 
L 2700 0 
Q 2613 175 2588 409 
z
M 2541 1666 
Q 2234 1541 1622 1453 
Q 1275 1403 1131 1340 
Q 988 1278 909 1158 
Q 831 1038 831 891 
Q 831 666 1001 516 
Q 1172 366 1500 366 
Q 1825 366 2078 508 
Q 2331 650 2450 897 
Q 2541 1088 2541 1459 
L 2541 1666 
z
" transform="scale(0.015625)"/>
       <path id="ArialMT-6c" d="M 409 0 
L 409 4581 
L 972 4581 
L 972 0 
L 409 0 
z
" transform="scale(0.015625)"/>
       <path id="ArialMT-20" transform="scale(0.015625)"/>
       <path id="ArialMT-64" d="M 2575 0 
L 2575 419 
Q 2259 -75 1647 -75 
Q 1250 -75 917 144 
Q 584 363 401 755 
Q 219 1147 219 1656 
Q 219 2153 384 2558 
Q 550 2963 881 3178 
Q 1213 3394 1622 3394 
Q 1922 3394 2156 3267 
Q 2391 3141 2538 2938 
L 2538 4581 
L 3097 4581 
L 3097 0 
L 2575 0 
z
M 797 1656 
Q 797 1019 1065 703 
Q 1334 388 1700 388 
Q 2069 388 2326 689 
Q 2584 991 2584 1609 
Q 2584 2291 2321 2609 
Q 2059 2928 1675 2928 
Q 1300 2928 1048 2622 
Q 797 2316 797 1656 
z
" transform="scale(0.015625)"/>
       <path id="ArialMT-65" d="M 2694 1069 
L 3275 997 
Q 3138 488 2766 206 
Q 2394 -75 1816 -75 
Q 1088 -75 661 373 
Q 234 822 234 1631 
Q 234 2469 665 2931 
Q 1097 3394 1784 3394 
Q 2450 3394 2872 2941 
Q 3294 2488 3294 1666 
Q 3294 1616 3291 1516 
L 816 1516 
Q 847 969 1125 678 
Q 1403 388 1819 388 
Q 2128 388 2347 550 
Q 2566 713 2694 1069 
z
M 847 1978 
L 2700 1978 
Q 2663 2397 2488 2606 
Q 2219 2931 1791 2931 
Q 1403 2931 1139 2672 
Q 875 2413 847 1978 
z
" transform="scale(0.015625)"/>
       <path id="ArialMT-79" d="M 397 -1278 
L 334 -750 
Q 519 -800 656 -800 
Q 844 -800 956 -737 
Q 1069 -675 1141 -563 
Q 1194 -478 1313 -144 
Q 1328 -97 1363 -6 
L 103 3319 
L 709 3319 
L 1400 1397 
Q 1534 1031 1641 628 
Q 1738 1016 1872 1384 
L 2581 3319 
L 3144 3319 
L 1881 -56 
Q 1678 -603 1566 -809 
Q 1416 -1088 1222 -1217 
Q 1028 -1347 759 -1347 
Q 597 -1347 397 -1278 
z
" transform="scale(0.015625)"/>
       <path id="ArialMT-2d" d="M 203 1375 
L 203 1941 
L 1931 1941 
L 1931 1375 
L 203 1375 
z
" transform="scale(0.015625)"/>
       <path id="ArialMT-71" d="M 2538 -1272 
L 2538 353 
Q 2406 169 2170 47 
Q 1934 -75 1669 -75 
Q 1078 -75 651 397 
Q 225 869 225 1691 
Q 225 2191 398 2587 
Q 572 2984 901 3189 
Q 1231 3394 1625 3394 
Q 2241 3394 2594 2875 
L 2594 3319 
L 3100 3319 
L 3100 -1272 
L 2538 -1272 
z
M 803 1669 
Q 803 1028 1072 708 
Q 1341 388 1716 388 
Q 2075 388 2334 692 
Q 2594 997 2594 1619 
Q 2594 2281 2320 2615 
Q 2047 2950 1678 2950 
Q 1313 2950 1058 2639 
Q 803 2328 803 1669 
z
" transform="scale(0.015625)"/>
       <path id="ArialMT-69" d="M 425 3934 
L 425 4581 
L 988 4581 
L 988 3934 
L 425 3934 
z
M 425 0 
L 425 3319 
L 988 3319 
L 988 0 
L 425 0 
z
" transform="scale(0.015625)"/>
       <path id="ArialMT-76" d="M 1344 0 
L 81 3319 
L 675 3319 
L 1388 1331 
Q 1503 1009 1600 663 
Q 1675 925 1809 1294 
L 2547 3319 
L 3125 3319 
L 1869 0 
L 1344 0 
z
" transform="scale(0.015625)"/>
       <path id="ArialMT-74" d="M 1650 503 
L 1731 6 
Q 1494 -44 1306 -44 
Q 1000 -44 831 53 
Q 663 150 594 308 
Q 525 466 525 972 
L 525 2881 
L 113 2881 
L 113 3319 
L 525 3319 
L 525 4141 
L 1084 4478 
L 1084 3319 
L 1650 3319 
L 1650 2881 
L 1084 2881 
L 1084 941 
Q 1084 700 1114 631 
Q 1144 563 1211 522 
Q 1278 481 1403 481 
Q 1497 481 1650 503 
z
" transform="scale(0.015625)"/>
       <path id="ArialMT-6d" d="M 422 0 
L 422 3319 
L 925 3319 
L 925 2853 
Q 1081 3097 1340 3245 
Q 1600 3394 1931 3394 
Q 2300 3394 2536 3241 
Q 2772 3088 2869 2813 
Q 3263 3394 3894 3394 
Q 4388 3394 4653 3120 
Q 4919 2847 4919 2278 
L 4919 0 
L 4359 0 
L 4359 2091 
Q 4359 2428 4304 2576 
Q 4250 2725 4106 2815 
Q 3963 2906 3769 2906 
Q 3419 2906 3187 2673 
Q 2956 2441 2956 1928 
L 2956 0 
L 2394 0 
L 2394 2156 
Q 2394 2531 2256 2718 
Q 2119 2906 1806 2906 
Q 1569 2906 1367 2781 
Q 1166 2656 1075 2415 
Q 984 2175 984 1722 
L 984 0 
L 422 0 
z
" transform="scale(0.015625)"/>
       <path id="ArialMT-73" d="M 197 991 
L 753 1078 
Q 800 744 1014 566 
Q 1228 388 1613 388 
Q 2000 388 2187 545 
Q 2375 703 2375 916 
Q 2375 1106 2209 1216 
Q 2094 1291 1634 1406 
Q 1016 1563 777 1677 
Q 538 1791 414 1992 
Q 291 2194 291 2438 
Q 291 2659 392 2848 
Q 494 3038 669 3163 
Q 800 3259 1026 3326 
Q 1253 3394 1513 3394 
Q 1903 3394 2198 3281 
Q 2494 3169 2634 2976 
Q 2775 2784 2828 2463 
L 2278 2388 
Q 2241 2644 2061 2787 
Q 1881 2931 1553 2931 
Q 1166 2931 1000 2803 
Q 834 2675 834 2503 
Q 834 2394 903 2306 
Q 972 2216 1119 2156 
Q 1203 2125 1616 2013 
Q 2213 1853 2448 1751 
Q 2684 1650 2818 1456 
Q 2953 1263 2953 975 
Q 2953 694 2789 445 
Q 2625 197 2315 61 
Q 2006 -75 1616 -75 
Q 969 -75 630 194 
Q 291 463 197 991 
z
" transform="scale(0.015625)"/>
      </defs>
      <use xlink:href="#ArialMT-41"/>
      <use xlink:href="#ArialMT-6e" x="66.699219"/>
      <use xlink:href="#ArialMT-6e" x="122.314453"/>
      <use xlink:href="#ArialMT-75" x="177.929688"/>
      <use xlink:href="#ArialMT-61" x="233.544922"/>
      <use xlink:href="#ArialMT-6c" x="289.160156"/>
      <use xlink:href="#ArialMT-20" x="311.376953"/>
      <use xlink:href="#ArialMT-64" x="339.160156"/>
      <use xlink:href="#ArialMT-65" x="394.775391"/>
      <use xlink:href="#ArialMT-6c" x="450.390625"/>
      <use xlink:href="#ArialMT-61" x="472.607422"/>
      <use xlink:href="#ArialMT-79" x="528.222656"/>
      <use xlink:href="#ArialMT-2d" x="578.222656"/>
      <use xlink:href="#ArialMT-65" x="611.523438"/>
      <use xlink:href="#ArialMT-71" x="667.138672"/>
      <use xlink:href="#ArialMT-75" x="722.753906"/>
      <use xlink:href="#ArialMT-69" x="778.369141"/>
      <use xlink:href="#ArialMT-76" x="800.585938"/>
      <use xlink:href="#ArialMT-61" x="850.585938"/>
      <use xlink:href="#ArialMT-6c" x="906.201172"/>
      <use xlink:href="#ArialMT-65" x="928.417969"/>
      <use xlink:href="#ArialMT-6e" x="984.033203"/>
      <use xlink:href="#ArialMT-74" x="1039.648438"/>
      <use xlink:href="#ArialMT-20" x="1067.431641"/>
      <use xlink:href="#ArialMT-6d" x="1095.214844"/>
      <use xlink:href="#ArialMT-69" x="1178.515625"/>
      <use xlink:href="#ArialMT-6e" x="1200.732422"/>
      <use xlink:href="#ArialMT-75" x="1256.347656"/>
      <use xlink:href="#ArialMT-74" x="1311.962891"/>
      <use xlink:href="#ArialMT-65" x="1339.746094"/>
      <use xlink:href="#ArialMT-73" x="1395.361328"/>
     </g>
    </g>
    <g id="text_7">
     <!-- 1e6 -->
     <g style="fill: #3d405b" transform="translate(683.177656 409.324062) scale(0.11 -0.11)">
      <defs>
       <path id="ArialMT-36" d="M 3184 3459 
L 2625 3416 
Q 2550 3747 2413 3897 
Q 2184 4138 1850 4138 
Q 1581 4138 1378 3988 
Q 1113 3794 959 3422 
Q 806 3050 800 2363 
Q 1003 2672 1297 2822 
Q 1591 2972 1913 2972 
Q 2475 2972 2870 2558 
Q 3266 2144 3266 1488 
Q 3266 1056 3080 686 
Q 2894 316 2569 119 
Q 2244 -78 1831 -78 
Q 1128 -78 684 439 
Q 241 956 241 2144 
Q 241 3472 731 4075 
Q 1159 4600 1884 4600 
Q 2425 4600 2770 4297 
Q 3116 3994 3184 3459 
z
M 888 1484 
Q 888 1194 1011 928 
Q 1134 663 1356 523 
Q 1578 384 1822 384 
Q 2178 384 2434 671 
Q 2691 959 2691 1453 
Q 2691 1928 2437 2201 
Q 2184 2475 1800 2475 
Q 1419 2475 1153 2201 
Q 888 1928 888 1484 
z
" transform="scale(0.015625)"/>
      </defs>
      <use xlink:href="#ArialMT-31"/>
      <use xlink:href="#ArialMT-65" x="55.615234"/>
      <use xlink:href="#ArialMT-36" x="111.230469"/>
     </g>
    </g>
   </g>
   <g id="matplotlib.axis_2">
    <g id="ytick_1">
     <g id="line2d_6">
      <path d="M 47.105 378.890625 
L 701.52875 378.890625 
" clip-path="url(#p39373bc0d0)" style="fill: none; stroke: #d9d2c3; stroke-linecap: round"/>
     </g>
     <g id="text_8">
      <!-- 0.0 -->
      <g style="fill: #3d405b" transform="translate(22.315 382.827422) scale(0.11 -0.11)">
       <use xlink:href="#ArialMT-30"/>
       <use xlink:href="#ArialMT-2e" x="55.615234"/>
       <use xlink:href="#ArialMT-30" x="83.398438"/>
      </g>
     </g>
    </g>
    <g id="ytick_2">
     <g id="line2d_7">
      <path d="M 47.105 335.837209 
L 701.52875 335.837209 
" clip-path="url(#p39373bc0d0)" style="fill: none; stroke: #d9d2c3; stroke-linecap: round"/>
     </g>
     <g id="text_9">
      <!-- 0.2 -->
      <g style="fill: #3d405b" transform="translate(22.315 339.774006) scale(0.11 -0.11)">
       <use xlink:href="#ArialMT-30"/>
       <use xlink:href="#ArialMT-2e" x="55.615234"/>
       <use xlink:href="#ArialMT-32" x="83.398438"/>
      </g>
     </g>
    </g>
    <g id="ytick_3">
     <g id="line2d_8">
      <path d="M 47.105 292.783792 
L 701.52875 292.783792 
" clip-path="url(#p39373bc0d0)" style="fill: none; stroke: #d9d2c3; stroke-linecap: round"/>
     </g>
     <g id="text_10">
      <!-- 0.4 -->
      <g style="fill: #3d405b" transform="translate(22.315 296.720589) scale(0.11 -0.11)">
       <defs>
        <path id="ArialMT-34" d="M 2069 0 
L 2069 1097 
L 81 1097 
L 81 1613 
L 2172 4581 
L 2631 4581 
L 2631 1613 
L 3250 1613 
L 3250 1097 
L 2631 1097 
L 2631 0 
L 2069 0 
z
M 2069 1613 
L 2069 3678 
L 634 1613 
L 2069 1613 
z
" transform="scale(0.015625)"/>
       </defs>
       <use xlink:href="#ArialMT-30"/>
       <use xlink:href="#ArialMT-2e" x="55.615234"/>
       <use xlink:href="#ArialMT-34" x="83.398438"/>
      </g>
     </g>
    </g>
    <g id="ytick_4">
     <g id="line2d_9">
      <path d="M 47.105 249.730376 
L 701.52875 249.730376 
" clip-path="url(#p39373bc0d0)" style="fill: none; stroke: #d9d2c3; stroke-linecap: round"/>
     </g>
     <g id="text_11">
      <!-- 0.6 -->
      <g style="fill: #3d405b" transform="translate(22.315 253.667173) scale(0.11 -0.11)">
       <use xlink:href="#ArialMT-30"/>
       <use xlink:href="#ArialMT-2e" x="55.615234"/>
       <use xlink:href="#ArialMT-36" x="83.398438"/>
      </g>
     </g>
    </g>
    <g id="ytick_5">
     <g id="line2d_10">
      <path d="M 47.105 206.67696 
L 701.52875 206.67696 
" clip-path="url(#p39373bc0d0)" style="fill: none; stroke: #d9d2c3; stroke-linecap: round"/>
     </g>
     <g id="text_12">
      <!-- 0.8 -->
      <g style="fill: #3d405b" transform="translate(22.315 210.613757) scale(0.11 -0.11)">
       <defs>
        <path id="ArialMT-38" d="M 1131 2484 
Q 781 2613 612 2850 
Q 444 3088 444 3419 
Q 444 3919 803 4259 
Q 1163 4600 1759 4600 
Q 2359 4600 2725 4251 
Q 3091 3903 3091 3403 
Q 3091 3084 2923 2848 
Q 2756 2613 2416 2484 
Q 2838 2347 3058 2040 
Q 3278 1734 3278 1309 
Q 3278 722 2862 322 
Q 2447 -78 1769 -78 
Q 1091 -78 675 323 
Q 259 725 259 1325 
Q 259 1772 486 2073 
Q 713 2375 1131 2484 
z
M 1019 3438 
Q 1019 3113 1228 2906 
Q 1438 2700 1772 2700 
Q 2097 2700 2305 2904 
Q 2513 3109 2513 3406 
Q 2513 3716 2298 3927 
Q 2084 4138 1766 4138 
Q 1444 4138 1231 3931 
Q 1019 3725 1019 3438 
z
M 838 1322 
Q 838 1081 952 856 
Q 1066 631 1291 507 
Q 1516 384 1775 384 
Q 2178 384 2440 643 
Q 2703 903 2703 1303 
Q 2703 1709 2433 1975 
Q 2163 2241 1756 2241 
Q 1359 2241 1098 1978 
Q 838 1716 838 1322 
z
" transform="scale(0.015625)"/>
       </defs>
       <use xlink:href="#ArialMT-30"/>
       <use xlink:href="#ArialMT-2e" x="55.615234"/>
       <use xlink:href="#ArialMT-38" x="83.398438"/>
      </g>
     </g>
    </g>
    <g id="ytick_6">
     <g id="line2d_11">
      <path d="M 47.105 163.623543 
L 701.52875 163.623543 
" clip-path="url(#p39373bc0d0)" style="fill: none; stroke: #d9d2c3; stroke-linecap: round"/>
     </g>
     <g id="text_13">
      <!-- 1.0 -->
      <g style="fill: #3d405b" transform="translate(22.315 167.56034) scale(0.11 -0.11)">
       <use xlink:href="#ArialMT-31"/>
       <use xlink:href="#ArialMT-2e" x="55.615234"/>
       <use xlink:href="#ArialMT-30" x="83.398438"/>
      </g>
     </g>
    </g>
    <g id="ytick_7">
     <g id="line2d_12">
      <path d="M 47.105 120.570127 
L 701.52875 120.570127 
" clip-path="url(#p39373bc0d0)" style="fill: none; stroke: #d9d2c3; stroke-linecap: round"/>
     </g>
     <g id="text_14">
      <!-- 1.2 -->
      <g style="fill: #3d405b" transform="translate(22.315 124.506924) scale(0.11 -0.11)">
       <use xlink:href="#ArialMT-31"/>
       <use xlink:href="#ArialMT-2e" x="55.615234"/>
       <use xlink:href="#ArialMT-32" x="83.398438"/>
      </g>
     </g>
    </g>
    <g id="ytick_8">
     <g id="line2d_13">
      <path d="M 47.105 77.516711 
L 701.52875 77.516711 
" clip-path="url(#p39373bc0d0)" style="fill: none; stroke: #d9d2c3; stroke-linecap: round"/>
     </g>
     <g id="text_15">
      <!-- 1.4 -->
      <g style="fill: #3d405b" transform="translate(22.315 81.453508) scale(0.11 -0.11)">
       <use xlink:href="#ArialMT-31"/>
       <use xlink:href="#ArialMT-2e" x="55.615234"/>
       <use xlink:href="#ArialMT-34" x="83.398438"/>
      </g>
     </g>
    </g>
    <g id="ytick_9">
     <g id="line2d_14">
      <path d="M 47.105 34.463294 
L 701.52875 34.463294 
" clip-path="url(#p39373bc0d0)" style="fill: none; stroke: #d9d2c3; stroke-linecap: round"/>
     </g>
     <g id="text_16">
      <!-- 1.6 -->
      <g style="fill: #3d405b" transform="translate(22.315 38.400091) scale(0.11 -0.11)">
       <use xlink:href="#ArialMT-31"/>
       <use xlink:href="#ArialMT-2e" x="55.615234"/>
       <use xlink:href="#ArialMT-36" x="83.398438"/>
      </g>
     </g>
    </g>
    <g id="text_17">
     <!-- Density -->
     <g style="fill: #3d405b" transform="translate(15.789375 220.423125) rotate(-90) scale(0.12 -0.12)">
      <defs>
       <path id="ArialMT-44" d="M 494 0 
L 494 4581 
L 2072 4581 
Q 2606 4581 2888 4516 
Q 3281 4425 3559 4188 
Q 3922 3881 4101 3404 
Q 4281 2928 4281 2316 
Q 4281 1794 4159 1391 
Q 4038 988 3847 723 
Q 3656 459 3429 307 
Q 3203 156 2883 78 
Q 2563 0 2147 0 
L 494 0 
z
M 1100 541 
L 2078 541 
Q 2531 541 2789 625 
Q 3047 709 3200 863 
Q 3416 1078 3536 1442 
Q 3656 1806 3656 2325 
Q 3656 3044 3420 3430 
Q 3184 3816 2847 3947 
Q 2603 4041 2063 4041 
L 1100 4041 
L 1100 541 
z
" transform="scale(0.015625)"/>
      </defs>
      <use xlink:href="#ArialMT-44"/>
      <use xlink:href="#ArialMT-65" x="72.216797"/>
      <use xlink:href="#ArialMT-6e" x="127.832031"/>
      <use xlink:href="#ArialMT-73" x="183.447266"/>
      <use xlink:href="#ArialMT-69" x="233.447266"/>
      <use xlink:href="#ArialMT-74" x="255.664062"/>
      <use xlink:href="#ArialMT-79" x="283.447266"/>
     </g>
    </g>
    <g id="text_18">
     <!-- 1e−6 -->
     <g style="fill: #3d405b" transform="translate(47.105 18.943125) scale(0.11 -0.11)">
      <defs>
       <path id="ArialMT-2212" d="M 3381 1997 
L 356 1997 
L 356 2522 
L 3381 2522 
L 3381 1997 
z
" transform="scale(0.015625)"/>
      </defs>
      <use xlink:href="#ArialMT-31"/>
      <use xlink:href="#ArialMT-65" x="55.615234"/>
      <use xlink:href="#ArialMT-2212" x="111.230469"/>
      <use xlink:href="#ArialMT-36" x="169.628906"/>
     </g>
    </g>
   </g>
   <g id="line2d_15">
    <path d="M 76.851534 378.861407 
L 88.188074 378.717036 
L 94.989998 378.463286 
L 101.791922 377.956155 
L 106.326537 377.410848 
L 110.861153 376.653589 
L 115.395769 375.652489 
L 119.930385 374.387951 
L 124.465001 372.855156 
L 128.999617 371.062946 
L 133.534233 369.028818 
L 138.068849 366.770892 
L 142.603465 364.298865 
L 147.138081 361.606311 
L 151.672697 358.665887 
L 156.207312 355.427025 
L 160.741928 351.813976 
L 165.276544 347.722511 
L 167.543852 345.456195 
L 169.81116 343.016996 
L 172.078468 340.383642 
L 174.345776 337.53412 
L 176.613084 334.446682 
L 178.880392 331.101132 
L 181.1477 327.480296 
L 183.415008 323.57155 
L 185.682316 319.368232 
L 187.949624 314.870751 
L 190.216932 310.087225 
L 194.751548 299.732686 
L 199.286164 288.509379 
L 203.82078 276.6856 
L 212.890011 252.240922 
L 231.028475 202.778518 
L 235.563091 189.91818 
L 240.097707 176.495918 
L 244.632323 162.289963 
L 249.166939 147.152545 
L 253.701555 131.109012 
L 267.305402 81.656953 
L 269.57271 74.174348 
L 271.840018 67.196346 
L 274.107326 60.825387 
L 276.374634 55.15336 
L 278.641942 50.258423 
L 280.90925 46.202419 
L 283.176558 43.028906 
L 285.443866 40.761756 
L 287.711174 39.404353 
L 289.978482 38.939434 
L 292.24579 39.329686 
L 294.513098 40.519185 
L 296.780406 42.435793 
L 299.047714 44.994491 
L 301.315022 48.101581 
L 303.58233 51.659498 
L 305.849637 55.571898 
L 310.384253 64.109717 
L 317.186177 77.714183 
L 342.126565 128.016719 
L 355.730412 155.052912 
L 360.265028 164.982378 
L 362.532336 170.335666 
L 364.799644 175.994595 
L 367.066952 181.975684 
L 371.601568 194.882449 
L 376.136184 208.841981 
L 392.00734 259.1995 
L 396.541956 272.122838 
L 401.076572 283.871522 
L 403.34388 289.270645 
L 405.611187 294.344822 
L 407.878495 299.09305 
L 410.145803 303.517833 
L 412.413111 307.624994 
L 414.680419 311.423654 
L 416.947727 314.926287 
L 419.215035 318.148741 
L 421.482343 321.110134 
L 423.749651 323.832558 
L 426.016959 326.340558 
L 428.284267 328.660393 
L 432.818883 332.843757 
L 437.353499 336.591905 
L 444.155423 341.779016 
L 475.897734 365.255269 
L 480.43235 368.258808 
L 484.966966 370.925916 
L 489.501582 373.179014 
L 494.036198 374.981853 
L 498.570814 376.34424 
L 503.10543 377.31474 
L 507.640045 377.965667 
L 512.174661 378.376433 
L 518.976585 378.698612 
L 528.045817 378.848327 
L 528.045817 378.848327 
" clip-path="url(#p39373bc0d0)" style="fill: none; stroke: #4c72b0; stroke-width: 2; stroke-linecap: round"/>
   </g>
   <g id="line2d_16">
    <path d="M 130.301592 378.84917 
L 141.185624 378.695922 
L 149.348649 378.364613 
L 154.790665 377.945988 
L 160.232682 377.292815 
L 165.674698 376.339979 
L 171.116714 375.03785 
L 176.55873 373.365015 
L 182.000747 371.332395 
L 187.442763 368.972302 
L 192.884779 366.31075 
L 198.326796 363.328786 
L 203.768812 359.925901 
L 206.48982 358.007881 
L 209.210828 355.902202 
L 211.931837 353.570813 
L 214.652845 350.973449 
L 217.373853 348.070097 
L 220.094861 344.823795 
L 222.815869 341.203544 
L 225.536877 337.187065 
L 228.257886 332.763136 
L 230.978894 327.933251 
L 233.699902 322.712359 
L 236.42091 317.128558 
L 239.141918 311.221653 
L 244.583935 298.640372 
L 252.746959 278.672834 
L 271.794016 231.273736 
L 277.236032 217.233067 
L 282.678049 202.631064 
L 290.841073 179.865347 
L 296.28309 164.69526 
L 301.725106 150.259733 
L 304.446114 143.523509 
L 307.167122 137.199089 
L 309.88813 131.332104 
L 312.609139 125.945153 
L 315.330147 121.035921 
L 318.051155 116.57765 
L 320.772163 112.522039 
L 323.493171 108.804352 
L 326.214179 105.3503 
L 331.656196 98.936606 
L 339.81922 89.775499 
L 345.261237 83.910133 
L 347.982245 81.196436 
L 350.703253 78.749541 
L 353.424261 76.679074 
L 356.145269 75.100754 
L 358.866277 74.128173 
L 361.587285 73.864812 
L 364.308294 74.396881 
L 367.029302 75.78752 
L 369.75031 78.072678 
L 372.471318 81.258939 
L 375.192326 85.323338 
L 377.913334 90.215116 
L 380.634343 95.859236 
L 383.355351 102.161336 
L 386.076359 109.013732 
L 388.797367 116.301986 
L 394.239383 131.733704 
L 407.844424 171.171592 
L 413.286441 186.238527 
L 418.728457 200.711426 
L 424.170473 214.554246 
L 429.61249 227.680597 
L 435.054506 239.945604 
L 437.775514 245.707331 
L 440.496522 251.203764 
L 443.21753 256.430357 
L 445.938538 261.39179 
L 448.659547 266.102478 
L 454.101563 274.873123 
L 459.543579 283.003027 
L 467.706604 294.594985 
L 475.869628 305.878843 
L 481.311645 313.104927 
L 486.753661 319.805664 
L 489.474669 322.872076 
L 492.195677 325.712983 
L 494.916685 328.313526 
L 497.637694 330.671221 
L 500.358702 332.796569 
L 503.07971 334.712249 
L 505.800718 336.450998 
L 511.242734 339.559175 
L 524.847775 346.892269 
L 538.452816 354.567969 
L 543.894832 357.240555 
L 546.61584 358.4034 
L 549.336849 359.437396 
L 552.057857 360.342113 
L 557.499873 361.796856 
L 562.941889 362.885718 
L 573.825922 364.615777 
L 581.988947 366.039845 
L 590.151971 367.781381 
L 598.314996 369.782885 
L 614.641045 373.858668 
L 622.804069 375.569961 
L 628.246085 376.502134 
L 633.688102 377.250415 
L 639.130118 377.819109 
L 647.293142 378.379 
L 655.456167 378.675879 
L 666.3402 378.836081 
L 671.782216 378.865624 
L 671.782216 378.865624 
" clip-path="url(#p39373bc0d0)" style="fill: none; stroke: #dd8452; stroke-width: 2; stroke-linecap: round"/>
   </g>
   <g id="line2d_17">
    <path d="M 130.278259 378.864312 
L 142.874815 378.734563 
L 150.432748 378.509974 
L 157.990681 378.072036 
L 163.029303 377.614376 
L 168.067925 376.997622 
L 173.106547 376.210097 
L 178.14517 375.251738 
L 183.183792 374.131011 
L 190.741725 372.164168 
L 195.780347 370.657604 
L 200.818969 368.966272 
L 205.857591 367.04241 
L 210.896213 364.822466 
L 215.934835 362.234535 
L 220.973458 359.203136 
L 223.492769 357.496263 
L 226.01208 355.64736 
L 228.531391 353.64408 
L 231.050702 351.47256 
L 233.570013 349.117191 
L 236.089324 346.560529 
L 238.608635 343.783395 
L 241.127946 340.765142 
L 243.647257 337.484085 
L 246.166568 333.918067 
L 248.685879 330.045085 
L 251.20519 325.843978 
L 253.724501 321.29511 
L 256.243812 316.381096 
L 258.763123 311.08755 
L 261.282435 305.403939 
L 263.801746 299.324546 
L 266.321057 292.84961 
L 268.840368 285.986597 
L 271.359679 278.751579 
L 276.398301 263.28085 
L 281.436923 246.784007 
L 291.514167 213.011876 
L 296.552789 197.181709 
L 299.0721 189.84179 
L 301.591412 182.976069 
L 304.110723 176.62842 
L 306.630034 170.818863 
L 309.149345 165.541486 
L 311.668656 160.764231 
L 314.187967 156.430712 
L 316.707278 152.464073 
L 321.7459 145.257177 
L 329.303833 134.820993 
L 334.342455 127.264723 
L 339.381077 119.007438 
L 351.977633 97.469186 
L 354.496944 93.559663 
L 357.016255 89.942794 
L 359.535566 86.672923 
L 362.054877 83.795526 
L 364.574188 81.348217 
L 367.093499 79.362335 
L 369.61281 77.864609 
L 372.132121 76.878491 
L 374.651432 76.424838 
L 377.170743 76.521836 
L 379.690054 77.184231 
L 382.209366 78.422074 
L 384.728677 80.239315 
L 387.247988 82.632583 
L 389.767299 85.59045 
L 392.28661 89.093371 
L 394.805921 93.114352 
L 397.325232 97.620245 
L 399.844543 102.573446 
L 402.363854 107.933702 
L 404.883165 113.659725 
L 409.921787 126.04512 
L 414.960409 139.407738 
L 422.518343 160.570036 
L 432.595587 188.958381 
L 437.634209 202.36977 
L 442.672831 214.858545 
L 447.711453 226.298984 
L 452.750075 236.732363 
L 457.788697 246.324378 
L 462.82732 255.277907 
L 467.865942 263.736899 
L 472.904564 271.724386 
L 477.943186 279.144767 
L 480.462497 282.595792 
L 482.981808 285.851883 
L 485.501119 288.904048 
L 488.02043 291.75276 
L 490.539741 294.409656 
L 495.578363 299.251975 
L 508.174919 310.62532 
L 513.213541 315.802514 
L 518.252163 321.603933 
L 523.290785 327.929031 
L 533.368029 340.971857 
L 538.406651 346.985771 
L 540.925962 349.739497 
L 543.445274 352.296424 
L 545.964585 354.646824 
L 548.483896 356.789569 
L 551.003207 358.731147 
L 553.522518 360.484276 
L 556.041829 362.066269 
L 558.56114 363.497313 
L 563.599762 365.991654 
L 568.638384 368.126551 
L 573.677006 370.021951 
L 578.715628 371.743159 
L 583.754251 373.304936 
L 588.792873 374.689063 
L 593.831495 375.866821 
L 598.870117 376.818257 
L 603.908739 377.542984 
L 608.947361 378.061422 
L 616.505294 378.531486 
L 624.063228 378.754656 
L 631.621161 378.845793 
L 631.621161 378.845793 
" clip-path="url(#p39373bc0d0)" style="fill: none; stroke: #55a868; stroke-width: 2; stroke-linecap: round"/>
   </g>
   <g id="line2d_18">
    <path d="M 107.746744 378.834256 
L 117.967005 378.606536 
L 123.077136 378.320041 
L 128.187266 377.825271 
L 133.297397 377.038766 
L 138.407528 375.887327 
L 143.517658 374.331581 
L 148.627789 372.381204 
L 153.737919 370.086395 
L 158.84805 367.498093 
L 163.95818 364.607919 
L 169.068311 361.29893 
L 171.623376 359.419487 
L 174.178441 357.344554 
L 176.733507 355.039608 
L 179.288572 352.474538 
L 181.843637 349.627563 
L 184.398702 346.488474 
L 186.953768 343.060704 
L 189.508833 339.361847 
L 194.618963 331.283553 
L 199.729094 322.597592 
L 215.059486 296.047549 
L 225.279747 278.56455 
L 230.389877 269.314372 
L 232.944943 264.395677 
L 235.500008 259.198167 
L 238.055073 253.651248 
L 240.610138 247.68059 
L 243.165204 241.212508 
L 245.720269 234.179928 
L 248.275334 226.529486 
L 250.830399 218.228981 
L 253.385465 209.274215 
L 255.94053 199.694197 
L 258.495595 189.553764 
L 263.605726 168.023026 
L 271.270922 134.864729 
L 276.381052 114.100653 
L 278.936117 104.539332 
L 281.491183 95.649068 
L 284.046248 87.484723 
L 286.601313 80.074606 
L 289.156378 73.427223 
L 291.711444 67.539577 
L 294.266509 62.405446 
L 296.821574 58.022082 
L 299.376639 54.394084 
L 301.931705 51.533767 
L 304.48677 49.457998 
L 307.041835 48.182193 
L 309.596901 47.712703 
L 312.151966 48.039199 
L 314.707031 49.128636 
L 317.262096 50.922185 
L 319.817162 53.335932 
L 322.372227 56.265538 
L 324.927292 59.594319 
L 330.037423 66.984216 
L 342.812749 86.37562 
L 347.92288 94.527608 
L 350.477945 98.927346 
L 353.03301 103.637365 
L 355.588075 108.708828 
L 358.143141 114.167669 
L 360.698206 120.010341 
L 365.808336 132.686439 
L 373.473532 153.032419 
L 378.583663 166.494728 
L 383.693793 179.38576 
L 391.358989 197.824002 
L 399.024185 216.335726 
L 404.134316 229.206709 
L 416.909642 262.006215 
L 422.019772 274.311472 
L 427.129903 285.72805 
L 432.240033 296.232634 
L 437.350164 305.910391 
L 442.460295 314.845811 
L 447.570425 323.063129 
L 452.680556 330.537316 
L 455.235621 333.987355 
L 457.790686 337.246773 
L 460.345751 340.321071 
L 465.455882 345.954956 
L 470.566013 350.992021 
L 475.676143 355.53593 
L 480.786274 359.649133 
L 485.896404 363.338342 
L 491.006535 366.572093 
L 496.116665 369.314741 
L 498.67173 370.4968 
L 501.226796 371.553962 
L 506.336926 373.307459 
L 511.447057 374.610841 
L 516.557187 375.50065 
L 521.667318 376.007061 
L 526.777448 376.161807 
L 531.887579 376.015599 
L 539.552775 375.426772 
L 547.217971 374.77493 
L 552.328101 374.524778 
L 557.438232 374.527802 
L 562.548362 374.80616 
L 567.658493 375.31792 
L 590.65408 378.071414 
L 598.319276 378.527928 
L 605.984472 378.754531 
L 616.204733 378.862244 
L 616.204733 378.862244 
" clip-path="url(#p39373bc0d0)" style="fill: none; stroke: #c44e52; stroke-width: 2; stroke-linecap: round"/>
   </g>
   <g id="patch_3">
    <path d="M 47.105 378.890625 
L 47.105 21.943125 
" style="fill: none; stroke: #d9d2c3; stroke-width: 1.25; stroke-linejoin: miter; stroke-linecap: square"/>
   </g>
   <g id="patch_4">
    <path d="M 701.52875 378.890625 
L 701.52875 21.943125 
" style="fill: none; stroke: #d9d2c3; stroke-width: 1.25; stroke-linejoin: miter; stroke-linecap: square"/>
   </g>
   <g id="patch_5">
    <path d="M 47.105 378.890625 
L 701.52875 378.890625 
" style="fill: none; stroke: #d9d2c3; stroke-width: 1.25; stroke-linejoin: miter; stroke-linecap: square"/>
   </g>
   <g id="patch_6">
    <path d="M 47.105 21.943125 
L 701.52875 21.943125 
" style="fill: none; stroke: #d9d2c3; stroke-width: 1.25; stroke-linejoin: miter; stroke-linecap: square"/>
   </g>
   <g id="text_19">
    <!-- Annual Aggregate Operational Impact by Scenario -->
    <g style="fill: #3d405b" transform="translate(240.906875 15.943125) scale(0.12 -0.12)">
     <defs>
      <path id="ArialMT-67" d="M 319 -275 
L 866 -356 
Q 900 -609 1056 -725 
Q 1266 -881 1628 -881 
Q 2019 -881 2231 -725 
Q 2444 -569 2519 -288 
Q 2563 -116 2559 434 
Q 2191 0 1641 0 
Q 956 0 581 494 
Q 206 988 206 1678 
Q 206 2153 378 2554 
Q 550 2956 876 3175 
Q 1203 3394 1644 3394 
Q 2231 3394 2613 2919 
L 2613 3319 
L 3131 3319 
L 3131 450 
Q 3131 -325 2973 -648 
Q 2816 -972 2473 -1159 
Q 2131 -1347 1631 -1347 
Q 1038 -1347 672 -1080 
Q 306 -813 319 -275 
z
M 784 1719 
Q 784 1066 1043 766 
Q 1303 466 1694 466 
Q 2081 466 2343 764 
Q 2606 1063 2606 1700 
Q 2606 2309 2336 2618 
Q 2066 2928 1684 2928 
Q 1309 2928 1046 2623 
Q 784 2319 784 1719 
z
" transform="scale(0.015625)"/>
      <path id="ArialMT-72" d="M 416 0 
L 416 3319 
L 922 3319 
L 922 2816 
Q 1116 3169 1280 3281 
Q 1444 3394 1641 3394 
Q 1925 3394 2219 3213 
L 2025 2691 
Q 1819 2813 1613 2813 
Q 1428 2813 1281 2702 
Q 1134 2591 1072 2394 
Q 978 2094 978 1738 
L 978 0 
L 416 0 
z
" transform="scale(0.015625)"/>
      <path id="ArialMT-4f" d="M 309 2231 
Q 309 3372 921 4017 
Q 1534 4663 2503 4663 
Q 3138 4663 3647 4359 
Q 4156 4056 4423 3514 
Q 4691 2972 4691 2284 
Q 4691 1588 4409 1038 
Q 4128 488 3612 205 
Q 3097 -78 2500 -78 
Q 1853 -78 1343 234 
Q 834 547 571 1087 
Q 309 1628 309 2231 
z
M 934 2222 
Q 934 1394 1379 917 
Q 1825 441 2497 441 
Q 3181 441 3623 922 
Q 4066 1403 4066 2288 
Q 4066 2847 3877 3264 
Q 3688 3681 3323 3911 
Q 2959 4141 2506 4141 
Q 1863 4141 1398 3698 
Q 934 3256 934 2222 
z
" transform="scale(0.015625)"/>
      <path id="ArialMT-70" d="M 422 -1272 
L 422 3319 
L 934 3319 
L 934 2888 
Q 1116 3141 1344 3267 
Q 1572 3394 1897 3394 
Q 2322 3394 2647 3175 
Q 2972 2956 3137 2557 
Q 3303 2159 3303 1684 
Q 3303 1175 3120 767 
Q 2938 359 2589 142 
Q 2241 -75 1856 -75 
Q 1575 -75 1351 44 
Q 1128 163 984 344 
L 984 -1272 
L 422 -1272 
z
M 931 1641 
Q 931 1000 1190 694 
Q 1450 388 1819 388 
Q 2194 388 2461 705 
Q 2728 1022 2728 1688 
Q 2728 2322 2467 2637 
Q 2206 2953 1844 2953 
Q 1484 2953 1207 2617 
Q 931 2281 931 1641 
z
" transform="scale(0.015625)"/>
      <path id="ArialMT-6f" d="M 213 1659 
Q 213 2581 725 3025 
Q 1153 3394 1769 3394 
Q 2453 3394 2887 2945 
Q 3322 2497 3322 1706 
Q 3322 1066 3130 698 
Q 2938 331 2570 128 
Q 2203 -75 1769 -75 
Q 1072 -75 642 372 
Q 213 819 213 1659 
z
M 791 1659 
Q 791 1022 1069 705 
Q 1347 388 1769 388 
Q 2188 388 2466 706 
Q 2744 1025 2744 1678 
Q 2744 2294 2464 2611 
Q 2184 2928 1769 2928 
Q 1347 2928 1069 2612 
Q 791 2297 791 1659 
z
" transform="scale(0.015625)"/>
      <path id="ArialMT-49" d="M 597 0 
L 597 4581 
L 1203 4581 
L 1203 0 
L 597 0 
z
" transform="scale(0.015625)"/>
      <path id="ArialMT-63" d="M 2588 1216 
L 3141 1144 
Q 3050 572 2676 248 
Q 2303 -75 1759 -75 
Q 1078 -75 664 370 
Q 250 816 250 1647 
Q 250 2184 428 2587 
Q 606 2991 970 3192 
Q 1334 3394 1763 3394 
Q 2303 3394 2647 3120 
Q 2991 2847 3088 2344 
L 2541 2259 
Q 2463 2594 2264 2762 
Q 2066 2931 1784 2931 
Q 1359 2931 1093 2626 
Q 828 2322 828 1663 
Q 828 994 1084 691 
Q 1341 388 1753 388 
Q 2084 388 2306 591 
Q 2528 794 2588 1216 
z
" transform="scale(0.015625)"/>
      <path id="ArialMT-62" d="M 941 0 
L 419 0 
L 419 4581 
L 981 4581 
L 981 2947 
Q 1338 3394 1891 3394 
Q 2197 3394 2470 3270 
Q 2744 3147 2920 2923 
Q 3097 2700 3197 2384 
Q 3297 2069 3297 1709 
Q 3297 856 2875 390 
Q 2453 -75 1863 -75 
Q 1275 -75 941 416 
L 941 0 
z
M 934 1684 
Q 934 1088 1097 822 
Q 1363 388 1816 388 
Q 2184 388 2453 708 
Q 2722 1028 2722 1663 
Q 2722 2313 2464 2622 
Q 2206 2931 1841 2931 
Q 1472 2931 1203 2611 
Q 934 2291 934 1684 
z
" transform="scale(0.015625)"/>
      <path id="ArialMT-53" d="M 288 1472 
L 859 1522 
Q 900 1178 1048 958 
Q 1197 738 1509 602 
Q 1822 466 2213 466 
Q 2559 466 2825 569 
Q 3091 672 3220 851 
Q 3350 1031 3350 1244 
Q 3350 1459 3225 1620 
Q 3100 1781 2813 1891 
Q 2628 1963 1997 2114 
Q 1366 2266 1113 2400 
Q 784 2572 623 2826 
Q 463 3081 463 3397 
Q 463 3744 659 4045 
Q 856 4347 1234 4503 
Q 1613 4659 2075 4659 
Q 2584 4659 2973 4495 
Q 3363 4331 3572 4012 
Q 3781 3694 3797 3291 
L 3216 3247 
Q 3169 3681 2898 3903 
Q 2628 4125 2100 4125 
Q 1550 4125 1298 3923 
Q 1047 3722 1047 3438 
Q 1047 3191 1225 3031 
Q 1400 2872 2139 2705 
Q 2878 2538 3153 2413 
Q 3553 2228 3743 1945 
Q 3934 1663 3934 1294 
Q 3934 928 3725 604 
Q 3516 281 3123 101 
Q 2731 -78 2241 -78 
Q 1619 -78 1198 103 
Q 778 284 539 648 
Q 300 1013 288 1472 
z
" transform="scale(0.015625)"/>
     </defs>
     <use xlink:href="#ArialMT-41"/>
     <use xlink:href="#ArialMT-6e" x="66.699219"/>
     <use xlink:href="#ArialMT-6e" x="122.314453"/>
     <use xlink:href="#ArialMT-75" x="177.929688"/>
     <use xlink:href="#ArialMT-61" x="233.544922"/>
     <use xlink:href="#ArialMT-6c" x="289.160156"/>
     <use xlink:href="#ArialMT-20" x="311.376953"/>
     <use xlink:href="#ArialMT-41" x="333.660156"/>
     <use xlink:href="#ArialMT-67" x="400.359375"/>
     <use xlink:href="#ArialMT-67" x="455.974609"/>
     <use xlink:href="#ArialMT-72" x="511.589844"/>
     <use xlink:href="#ArialMT-65" x="544.890625"/>
     <use xlink:href="#ArialMT-67" x="600.505859"/>
     <use xlink:href="#ArialMT-61" x="656.121094"/>
     <use xlink:href="#ArialMT-74" x="711.736328"/>
     <use xlink:href="#ArialMT-65" x="739.519531"/>
     <use xlink:href="#ArialMT-20" x="795.134766"/>
     <use xlink:href="#ArialMT-4f" x="822.917969"/>
     <use xlink:href="#ArialMT-70" x="900.701172"/>
     <use xlink:href="#ArialMT-65" x="956.316406"/>
     <use xlink:href="#ArialMT-72" x="1011.931641"/>
     <use xlink:href="#ArialMT-61" x="1045.232422"/>
     <use xlink:href="#ArialMT-74" x="1100.847656"/>
     <use xlink:href="#ArialMT-69" x="1128.630859"/>
     <use xlink:href="#ArialMT-6f" x="1150.847656"/>
     <use xlink:href="#ArialMT-6e" x="1206.462891"/>
     <use xlink:href="#ArialMT-61" x="1262.078125"/>
     <use xlink:href="#ArialMT-6c" x="1317.693359"/>
     <use xlink:href="#ArialMT-20" x="1339.910156"/>
     <use xlink:href="#ArialMT-49" x="1367.693359"/>
     <use xlink:href="#ArialMT-6d" x="1395.476562"/>
     <use xlink:href="#ArialMT-70" x="1478.777344"/>
     <use xlink:href="#ArialMT-61" x="1534.392578"/>
     <use xlink:href="#ArialMT-63" x="1590.007812"/>
     <use xlink:href="#ArialMT-74" x="1640.007812"/>
     <use xlink:href="#ArialMT-20" x="1667.791016"/>
     <use xlink:href="#ArialMT-62" x="1695.574219"/>
     <use xlink:href="#ArialMT-79" x="1751.189453"/>
     <use xlink:href="#ArialMT-20" x="1801.189453"/>
     <use xlink:href="#ArialMT-53" x="1828.972656"/>
     <use xlink:href="#ArialMT-63" x="1895.671875"/>
     <use xlink:href="#ArialMT-65" x="1945.671875"/>
     <use xlink:href="#ArialMT-6e" x="2001.287109"/>
     <use xlink:href="#ArialMT-61" x="2056.902344"/>
     <use xlink:href="#ArialMT-72" x="2112.517578"/>
     <use xlink:href="#ArialMT-69" x="2145.818359"/>
     <use xlink:href="#ArialMT-6f" x="2168.035156"/>
    </g>
   </g>
   <g id="legend_1">
    <g id="line2d_19">
     <path d="M 577.684219 35.866719 
L 588.684219 35.866719 
L 599.684219 35.866719 
" style="fill: none; stroke: #4c72b0; stroke-width: 2; stroke-linecap: round"/>
    </g>
    <g id="text_20">
     <!-- base -->
     <g style="fill: #3d405b" transform="translate(608.484219 39.716719) scale(0.11 -0.11)">
      <use xlink:href="#ArialMT-62"/>
      <use xlink:href="#ArialMT-61" x="55.615234"/>
      <use xlink:href="#ArialMT-73" x="111.230469"/>
      <use xlink:href="#ArialMT-65" x="161.230469"/>
     </g>
    </g>
    <g id="line2d_20">
     <path d="M 577.684219 51.426562 
L 588.684219 51.426562 
L 599.684219 51.426562 
" style="fill: none; stroke: #dd8452; stroke-width: 2; stroke-linecap: round"/>
    </g>
    <g id="text_21">
     <!-- disruption_stress -->
     <g style="fill: #3d405b" transform="translate(608.484219 55.276562) scale(0.11 -0.11)">
      <defs>
       <path id="ArialMT-5f" d="M -97 -1272 
L -97 -866 
L 3631 -866 
L 3631 -1272 
L -97 -1272 
z
" transform="scale(0.015625)"/>
      </defs>
      <use xlink:href="#ArialMT-64"/>
      <use xlink:href="#ArialMT-69" x="55.615234"/>
      <use xlink:href="#ArialMT-73" x="77.832031"/>
      <use xlink:href="#ArialMT-72" x="127.832031"/>
      <use xlink:href="#ArialMT-75" x="161.132812"/>
      <use xlink:href="#ArialMT-70" x="216.748047"/>
      <use xlink:href="#ArialMT-74" x="272.363281"/>
      <use xlink:href="#ArialMT-69" x="300.146484"/>
      <use xlink:href="#ArialMT-6f" x="322.363281"/>
      <use xlink:href="#ArialMT-6e" x="377.978516"/>
      <use xlink:href="#ArialMT-5f" x="433.59375"/>
      <use xlink:href="#ArialMT-73" x="489.208984"/>
      <use xlink:href="#ArialMT-74" x="539.208984"/>
      <use xlink:href="#ArialMT-72" x="566.992188"/>
      <use xlink:href="#ArialMT-65" x="600.292969"/>
      <use xlink:href="#ArialMT-73" x="655.908203"/>
      <use xlink:href="#ArialMT-73" x="705.908203"/>
     </g>
    </g>
    <g id="line2d_21">
     <path d="M 577.684219 66.986406 
L 588.684219 66.986406 
L 599.684219 66.986406 
" style="fill: none; stroke: #55a868; stroke-width: 2; stroke-linecap: round"/>
    </g>
    <g id="text_22">
     <!-- holiday_peak -->
     <g style="fill: #3d405b" transform="translate(608.484219 70.836406) scale(0.11 -0.11)">
      <defs>
       <path id="ArialMT-68" d="M 422 0 
L 422 4581 
L 984 4581 
L 984 2938 
Q 1378 3394 1978 3394 
Q 2347 3394 2619 3248 
Q 2891 3103 3008 2847 
Q 3125 2591 3125 2103 
L 3125 0 
L 2563 0 
L 2563 2103 
Q 2563 2525 2380 2717 
Q 2197 2909 1863 2909 
Q 1613 2909 1392 2779 
Q 1172 2650 1078 2428 
Q 984 2206 984 1816 
L 984 0 
L 422 0 
z
" transform="scale(0.015625)"/>
       <path id="ArialMT-6b" d="M 425 0 
L 425 4581 
L 988 4581 
L 988 1969 
L 2319 3319 
L 3047 3319 
L 1778 2088 
L 3175 0 
L 2481 0 
L 1384 1697 
L 988 1316 
L 988 0 
L 425 0 
z
" transform="scale(0.015625)"/>
      </defs>
      <use xlink:href="#ArialMT-68"/>
      <use xlink:href="#ArialMT-6f" x="55.615234"/>
      <use xlink:href="#ArialMT-6c" x="111.230469"/>
      <use xlink:href="#ArialMT-69" x="133.447266"/>
      <use xlink:href="#ArialMT-64" x="155.664062"/>
      <use xlink:href="#ArialMT-61" x="211.279297"/>
      <use xlink:href="#ArialMT-79" x="266.894531"/>
      <use xlink:href="#ArialMT-5f" x="316.894531"/>
      <use xlink:href="#ArialMT-70" x="372.509766"/>
      <use xlink:href="#ArialMT-65" x="428.125"/>
      <use xlink:href="#ArialMT-61" x="483.740234"/>
      <use xlink:href="#ArialMT-6b" x="539.355469"/>
     </g>
    </g>
    <g id="line2d_22">
     <path d="M 577.684219 82.675156 
L 588.684219 82.675156 
L 599.684219 82.675156 
" style="fill: none; stroke: #c44e52; stroke-width: 2; stroke-linecap: round"/>
    </g>
    <g id="text_23">
     <!-- weather_shock -->
     <g style="fill: #3d405b" transform="translate(608.484219 86.525156) scale(0.11 -0.11)">
      <defs>
       <path id="ArialMT-77" d="M 1034 0 
L 19 3319 
L 600 3319 
L 1128 1403 
L 1325 691 
Q 1338 744 1497 1375 
L 2025 3319 
L 2603 3319 
L 3100 1394 
L 3266 759 
L 3456 1400 
L 4025 3319 
L 4572 3319 
L 3534 0 
L 2950 0 
L 2422 1988 
L 2294 2553 
L 1622 0 
L 1034 0 
z
" transform="scale(0.015625)"/>
      </defs>
      <use xlink:href="#ArialMT-77"/>
      <use xlink:href="#ArialMT-65" x="72.216797"/>
      <use xlink:href="#ArialMT-61" x="127.832031"/>
      <use xlink:href="#ArialMT-74" x="183.447266"/>
      <use xlink:href="#ArialMT-68" x="211.230469"/>
      <use xlink:href="#ArialMT-65" x="266.845703"/>
      <use xlink:href="#ArialMT-72" x="322.460938"/>
      <use xlink:href="#ArialMT-5f" x="355.761719"/>
      <use xlink:href="#ArialMT-73" x="411.376953"/>
      <use xlink:href="#ArialMT-68" x="461.376953"/>
      <use xlink:href="#ArialMT-6f" x="516.992188"/>
      <use xlink:href="#ArialMT-63" x="572.607422"/>
      <use xlink:href="#ArialMT-6b" x="622.607422"/>
     </g>
    </g>
   </g>
  </g>
 </g>
 <defs>
  <clipPath id="p39373bc0d0">
   <rect x="47.105" y="21.943125" width="654.42375" height="356.9475"/>
  </clipPath>
 </defs>
</svg>
