<?xml version="1.0" encoding="utf-8" standalone="no"?>
<!DOCTYPE svg PUBLIC "-//W3C//DTD SVG 1.1//EN"
  "http://www.w3.org/Graphics/SVG/1.1/DTD/svg11.dtd">
<svg xmlns:xlink="http://www.w3.org/1999/xlink" width="521.61pt" height="405.639531pt" viewBox="0 0 521.61 405.639531" xmlns="http://www.w3.org/2000/svg" version="1.1">
 <metadata>
  <rdf:RDF xmlns:dc="http://purl.org/dc/elements/1.1/" xmlns:cc="http://creativecommons.org/ns#" xmlns:rdf="http://www.w3.org/1999/02/22-rdf-syntax-ns#">
   <cc:Work>
    <dc:type rdf:resource="http://purl.org/dc/dcmitype/StillImage"/>
    <dc:date>2026-04-20T16:54:47.825765</dc:date>
    <dc:format>image/svg+xml</dc:format>
    <dc:creator>
     <cc:Agent>
      <dc:title>Matplotlib v3.9.2, https://matplotlib.org/</dc:title>
     </cc:Agent>
    </dc:creator>
   </cc:Work>
  </rdf:RDF>
 </metadata>
 <defs>
  <style type="text/css">*{stroke-linejoin: round; stroke-linecap: butt}</style>
 </defs>
 <g id="figure_1">
  <g id="patch_1">
   <path d="M 0 405.639531 
L 521.61 405.639531 
L 521.61 0 
L 0 0 
z
" style="fill: #fbf8f1"/>
  </g>
  <g id="axes_1">
   <g id="patch_2">
    <path d="M 55.345 360.83625 
L 503.41 360.83625 
L 503.41 23.2725 
L 55.345 23.2725 
z
" style="fill: #fbf8f1"/>
   </g>
   <g id="matplotlib.axis_1">
    <g id="xtick_1">
     <g id="line2d_1">
      <path d="M 55.345 360.83625 
L 55.345 23.2725 
" clip-path="url(#p6a81e599cd)" style="fill: none; stroke: #d5cec0; stroke-linecap: round"/>
     </g>
     <g id="text_1">
      <!-- 0.20 -->
      <g style="fill: #20323b" transform="translate(44.345 379.129375) scale(0.11 -0.11)">
       <defs>
        <path id="MicrosoftYaHei-30" d="M 284 2325 
Q 284 3606 709 4264 
Q 1134 4922 1941 4922 
Q 3478 4922 3478 2441 
Q 3478 1216 3045 567 
Q 2613 -81 1831 -81 
Q 1094 -81 689 534 
Q 284 1150 284 2325 
z
M 909 2353 
Q 909 425 1888 425 
Q 2850 425 2850 2384 
Q 2850 4413 1906 4413 
Q 909 4413 909 2353 
z
" transform="scale(0.015625)"/>
        <path id="MicrosoftYaHei-2e" d="M 372 322 
Q 372 491 487 606 
Q 603 722 775 722 
Q 950 722 1065 605 
Q 1181 488 1181 322 
Q 1181 159 1065 42 
Q 950 -75 772 -75 
Q 600 -75 486 42 
Q 372 159 372 322 
z
" transform="scale(0.015625)"/>
        <path id="MicrosoftYaHei-32" d="M 2666 3572 
Q 2666 3963 2419 4186 
Q 2172 4409 1747 4409 
Q 1447 4409 1140 4256 
Q 834 4103 569 3819 
L 569 4413 
Q 806 4659 1107 4790 
Q 1409 4922 1816 4922 
Q 2472 4922 2872 4570 
Q 3272 4219 3272 3619 
Q 3272 3084 3026 2693 
Q 2781 2303 2188 1894 
Q 1581 1475 1376 1294 
Q 1172 1113 1090 947 
Q 1009 781 1009 544 
L 3416 544 
L 3416 0 
L 372 0 
L 372 241 
Q 372 659 486 951 
Q 600 1244 862 1520 
Q 1125 1797 1681 2184 
Q 2250 2584 2458 2886 
Q 2666 3188 2666 3572 
z
" transform="scale(0.015625)"/>
       </defs>
       <use xlink:href="#MicrosoftYaHei-30"/>
       <use xlink:href="#MicrosoftYaHei-2e" x="58.642578"/>
       <use xlink:href="#MicrosoftYaHei-32" x="82.714844"/>
       <use xlink:href="#MicrosoftYaHei-30" x="141.357422"/>
      </g>
     </g>
    </g>
    <g id="xtick_2">
     <g id="line2d_2">
      <path d="M 144.958 360.83625 
L 144.958 23.2725 
" clip-path="url(#p6a81e599cd)" style="fill: none; stroke: #d5cec0; stroke-linecap: round"/>
     </g>
     <g id="text_2">
      <!-- 0.22 -->
      <g style="fill: #20323b" transform="translate(133.958 379.129375) scale(0.11 -0.11)">
       <use xlink:href="#MicrosoftYaHei-30"/>
       <use xlink:href="#MicrosoftYaHei-2e" x="58.642578"/>
       <use xlink:href="#MicrosoftYaHei-32" x="82.714844"/>
       <use xlink:href="#MicrosoftYaHei-32" x="141.357422"/>
      </g>
     </g>
    </g>
    <g id="xtick_3">
     <g id="line2d_3">
      <path d="M 234.571 360.83625 
L 234.571 23.2725 
" clip-path="url(#p6a81e599cd)" style="fill: none; stroke: #d5cec0; stroke-linecap: round"/>
     </g>
     <g id="text_3">
      <!-- 0.24 -->
      <g style="fill: #20323b" transform="translate(223.571 379.129375) scale(0.11 -0.11)">
       <defs>
        <path id="MicrosoftYaHei-34" d="M 2906 4841 
L 2906 1644 
L 3631 1644 
L 3631 1138 
L 2906 1138 
L 2906 0 
L 2313 0 
L 2313 1138 
L 53 1138 
L 53 1616 
Q 656 2294 1265 3178 
Q 1875 4063 2272 4841 
L 2906 4841 
z
M 741 1644 
L 2313 1644 
L 2313 3950 
Q 1988 3366 1616 2817 
Q 1244 2269 741 1644 
z
" transform="scale(0.015625)"/>
       </defs>
       <use xlink:href="#MicrosoftYaHei-30"/>
       <use xlink:href="#MicrosoftYaHei-2e" x="58.642578"/>
       <use xlink:href="#MicrosoftYaHei-32" x="82.714844"/>
       <use xlink:href="#MicrosoftYaHei-34" x="141.357422"/>
      </g>
     </g>
    </g>
    <g id="xtick_4">
     <g id="line2d_4">
      <path d="M 324.184 360.83625 
L 324.184 23.2725 
" clip-path="url(#p6a81e599cd)" style="fill: none; stroke: #d5cec0; stroke-linecap: round"/>
     </g>
     <g id="text_4">
      <!-- 0.26 -->
      <g style="fill: #20323b" transform="translate(313.184 379.129375) scale(0.11 -0.11)">
       <defs>
        <path id="MicrosoftYaHei-36" d="M 3181 4219 
Q 2803 4413 2391 4413 
Q 1763 4413 1381 3866 
Q 1000 3319 994 2372 
L 1009 2372 
Q 1353 3038 2106 3038 
Q 2734 3038 3109 2628 
Q 3484 2219 3484 1541 
Q 3484 831 3051 375 
Q 2619 -81 1947 -81 
Q 1209 -81 789 495 
Q 369 1072 369 2131 
Q 369 3413 920 4167 
Q 1472 4922 2372 4922 
Q 2888 4922 3181 4781 
L 3181 4219 
z
M 1031 1584 
Q 1031 1106 1286 765 
Q 1541 425 1963 425 
Q 2363 425 2613 719 
Q 2863 1013 2863 1475 
Q 2863 1975 2627 2253 
Q 2391 2531 1956 2531 
Q 1544 2531 1287 2250 
Q 1031 1969 1031 1584 
z
" transform="scale(0.015625)"/>
       </defs>
       <use xlink:href="#MicrosoftYaHei-30"/>
       <use xlink:href="#MicrosoftYaHei-2e" x="58.642578"/>
       <use xlink:href="#MicrosoftYaHei-32" x="82.714844"/>
       <use xlink:href="#MicrosoftYaHei-36" x="141.357422"/>
      </g>
     </g>
    </g>
    <g id="xtick_5">
     <g id="line2d_5">
      <path d="M 413.797 360.83625 
L 413.797 23.2725 
" clip-path="url(#p6a81e599cd)" style="fill: none; stroke: #d5cec0; stroke-linecap: round"/>
     </g>
     <g id="text_5">
      <!-- 0.28 -->
      <g style="fill: #20323b" transform="translate(402.797 379.129375) scale(0.11 -0.11)">
       <defs>
        <path id="MicrosoftYaHei-38" d="M 306 1350 
Q 306 1769 556 2122 
Q 806 2475 1200 2625 
Q 884 2803 700 3081 
Q 516 3359 516 3684 
Q 516 4028 692 4312 
Q 869 4597 1183 4759 
Q 1497 4922 1875 4922 
Q 2256 4922 2572 4761 
Q 2888 4600 3063 4315 
Q 3238 4031 3238 3684 
Q 3238 3366 3058 3086 
Q 2878 2806 2559 2625 
Q 2953 2472 3200 2119 
Q 3447 1766 3447 1350 
Q 3447 938 3250 611 
Q 3053 284 2690 103 
Q 2328 -78 1875 -78 
Q 1425 -78 1065 103 
Q 706 284 506 612 
Q 306 941 306 1350 
z
M 906 1378 
Q 906 947 1172 687 
Q 1438 428 1878 428 
Q 2309 428 2582 692 
Q 2856 956 2856 1378 
Q 2856 1778 2579 2051 
Q 2303 2325 1878 2325 
Q 1456 2325 1181 2058 
Q 906 1791 906 1378 
z
M 1081 3634 
Q 1081 3309 1312 3076 
Q 1544 2844 1878 2844 
Q 2206 2844 2445 3078 
Q 2684 3313 2684 3634 
Q 2684 3963 2454 4191 
Q 2225 4419 1878 4419 
Q 1534 4419 1307 4195 
Q 1081 3972 1081 3634 
z
" transform="scale(0.015625)"/>
       </defs>
       <use xlink:href="#MicrosoftYaHei-30"/>
       <use xlink:href="#MicrosoftYaHei-2e" x="58.642578"/>
       <use xlink:href="#MicrosoftYaHei-32" x="82.714844"/>
       <use xlink:href="#MicrosoftYaHei-38" x="141.357422"/>
      </g>
     </g>
    </g>
    <g id="xtick_6">
     <g id="line2d_6">
      <path d="M 503.41 360.83625 
L 503.41 23.2725 
" clip-path="url(#p6a81e599cd)" style="fill: none; stroke: #d5cec0; stroke-linecap: round"/>
     </g>
     <g id="text_6">
      <!-- 0.30 -->
      <g style="fill: #20323b" transform="translate(492.41 379.129375) scale(0.11 -0.11)">
       <defs>
        <path id="MicrosoftYaHei-33" d="M 447 809 
Q 944 425 1569 425 
Q 2069 425 2361 670 
Q 2653 916 2653 1328 
Q 2653 2247 1338 2247 
L 934 2247 
L 934 2753 
L 1319 2753 
Q 2484 2753 2484 3616 
Q 2484 4413 1594 4413 
Q 1084 4413 634 4069 
L 634 4647 
Q 1109 4922 1744 4922 
Q 2363 4922 2738 4598 
Q 3113 4275 3113 3759 
Q 3113 2809 2144 2538 
L 2144 2525 
Q 2669 2469 2973 2155 
Q 3278 1841 3278 1372 
Q 3278 719 2808 319 
Q 2338 -81 1556 -81 
Q 869 -81 447 175 
L 447 809 
z
" transform="scale(0.015625)"/>
       </defs>
       <use xlink:href="#MicrosoftYaHei-30"/>
       <use xlink:href="#MicrosoftYaHei-2e" x="58.642578"/>
       <use xlink:href="#MicrosoftYaHei-33" x="82.714844"/>
       <use xlink:href="#MicrosoftYaHei-30" x="141.357422"/>
      </g>
     </g>
    </g>
    <g id="text_7">
     <!-- Disrupted share -->
     <g style="fill: #20323b" transform="translate(234.009062 395.456406) scale(0.12 -0.12)">
      <defs>
       <path id="MicrosoftYaHei-44" d="M 625 0 
L 625 4841 
L 2006 4841 
Q 3106 4841 3836 4200 
Q 4566 3559 4566 2481 
Q 4566 1356 3836 678 
Q 3106 0 1956 0 
L 625 0 
z
M 1250 4284 
L 1250 553 
L 1953 553 
Q 2875 553 3392 1056 
Q 3909 1559 3909 2466 
Q 3909 3372 3378 3828 
Q 2847 4284 1981 4284 
L 1250 4284 
z
" transform="scale(0.015625)"/>
       <path id="MicrosoftYaHei-69" d="M 472 4675 
Q 472 4838 583 4948 
Q 694 5059 856 5059 
Q 1022 5059 1136 4950 
Q 1250 4841 1250 4675 
Q 1250 4513 1136 4405 
Q 1022 4297 856 4297 
Q 691 4297 581 4405 
Q 472 4513 472 4675 
z
M 544 0 
L 544 3456 
L 1156 3456 
L 1156 0 
L 544 0 
z
" transform="scale(0.015625)"/>
       <path id="MicrosoftYaHei-73" d="M 353 747 
Q 816 413 1350 413 
Q 2066 413 2066 881 
Q 2066 1081 1909 1211 
Q 1753 1341 1275 1519 
Q 700 1750 528 1976 
Q 356 2203 356 2525 
Q 356 2984 745 3261 
Q 1134 3538 1703 3538 
Q 2144 3538 2522 3384 
L 2522 2794 
Q 2134 3044 1644 3044 
Q 1350 3044 1165 2916 
Q 981 2788 981 2578 
Q 981 2372 1114 2256 
Q 1247 2141 1703 1959 
Q 2281 1744 2484 1512 
Q 2688 1281 2688 941 
Q 2688 466 2298 192 
Q 1909 -81 1291 -81 
Q 753 -81 353 122 
L 353 747 
z
" transform="scale(0.015625)"/>
       <path id="MicrosoftYaHei-72" d="M 2400 2850 
Q 2247 2959 1978 2959 
Q 1622 2959 1390 2626 
Q 1159 2294 1159 1750 
L 1159 0 
L 547 0 
L 547 3456 
L 1159 3456 
L 1159 2753 
L 1172 2753 
Q 1434 3516 2078 3516 
Q 2288 3516 2400 3469 
L 2400 2850 
z
" transform="scale(0.015625)"/>
       <path id="MicrosoftYaHei-75" d="M 3400 0 
L 2784 0 
L 2784 544 
L 2772 544 
Q 2425 -81 1706 -81 
Q 478 -81 478 1388 
L 478 3456 
L 1084 3456 
L 1084 1478 
Q 1084 425 1891 425 
Q 2291 425 2537 720 
Q 2784 1016 2784 1466 
L 2784 3456 
L 3400 3456 
L 3400 0 
z
" transform="scale(0.015625)"/>
       <path id="MicrosoftYaHei-70" d="M 1159 488 
L 1159 -1591 
L 547 -1591 
L 547 3456 
L 1159 3456 
L 1159 2859 
L 1172 2859 
Q 1578 3538 2359 3538 
Q 3022 3538 3398 3073 
Q 3775 2609 3775 1828 
Q 3775 966 3348 442 
Q 2922 -81 2200 -81 
Q 1534 -81 1172 488 
L 1159 488 
z
M 1156 1425 
Q 1156 1003 1428 714 
Q 1700 425 2109 425 
Q 2597 425 2872 800 
Q 3147 1175 3147 1838 
Q 3147 2397 2890 2714 
Q 2634 3031 2191 3031 
Q 1738 3031 1447 2709 
Q 1156 2388 1156 1884 
L 1156 1425 
z
" transform="scale(0.015625)"/>
       <path id="MicrosoftYaHei-74" d="M 2206 34 
Q 2006 -75 1666 -75 
Q 738 -75 738 953 
L 738 2950 
L 144 2950 
L 144 3456 
L 738 3456 
L 738 4288 
L 1347 4481 
L 1347 3456 
L 2206 3456 
L 2206 2950 
L 1347 2950 
L 1347 1063 
Q 1347 722 1462 575 
Q 1578 428 1847 428 
Q 2053 428 2206 544 
L 2206 34 
z
" transform="scale(0.015625)"/>
       <path id="MicrosoftYaHei-65" d="M 3363 1572 
L 944 1572 
Q 959 1019 1246 717 
Q 1534 416 2050 416 
Q 2631 416 3116 788 
L 3116 241 
Q 2659 -81 1906 -81 
Q 1156 -81 736 394 
Q 316 869 316 1713 
Q 316 2506 777 3022 
Q 1238 3538 1922 3538 
Q 2600 3538 2981 3102 
Q 3363 2666 3363 1881 
L 3363 1572 
z
M 2750 2063 
Q 2747 2531 2528 2787 
Q 2309 3044 1913 3044 
Q 1547 3044 1280 2772 
Q 1013 2500 944 2063 
L 2750 2063 
z
" transform="scale(0.015625)"/>
       <path id="MicrosoftYaHei-64" d="M 3547 0 
L 2934 0 
L 2934 575 
L 2922 575 
Q 2544 -81 1747 -81 
Q 1091 -81 703 386 
Q 316 853 316 1647 
Q 316 2503 753 3020 
Q 1191 3538 1897 3538 
Q 2603 3538 2922 2988 
L 2934 2988 
L 2934 5116 
L 3547 5116 
L 3547 0 
z
M 2938 2056 
Q 2938 2472 2664 2751 
Q 2391 3031 1991 3031 
Q 1503 3031 1222 2667 
Q 941 2303 941 1675 
Q 941 1097 1211 761 
Q 1481 425 1931 425 
Q 2375 425 2656 754 
Q 2938 1084 2938 1575 
L 2938 2056 
z
" transform="scale(0.015625)"/>
       <path id="MicrosoftYaHei-20" transform="scale(0.015625)"/>
       <path id="MicrosoftYaHei-68" d="M 3466 0 
L 2856 0 
L 2856 1988 
Q 2856 3031 2081 3031 
Q 1684 3031 1421 2726 
Q 1159 2422 1159 1959 
L 1159 0 
L 547 0 
L 547 5116 
L 1159 5116 
L 1159 2888 
L 1172 2888 
Q 1569 3538 2300 3538 
Q 3466 3538 3466 2128 
L 3466 0 
z
" transform="scale(0.015625)"/>
       <path id="MicrosoftYaHei-61" d="M 628 3216 
Q 1144 3538 1819 3538 
Q 3069 3538 3069 2225 
L 3069 0 
L 2463 0 
L 2463 534 
L 2447 534 
Q 2088 -81 1388 -81 
Q 884 -81 587 191 
Q 291 463 291 925 
Q 291 1894 1438 2053 
L 2463 2197 
Q 2463 3044 1763 3044 
Q 1141 3044 628 2625 
L 628 3216 
z
M 1653 1625 
Q 1228 1569 1067 1412 
Q 906 1256 906 975 
Q 906 728 1081 572 
Q 1256 416 1544 416 
Q 1944 416 2203 697 
Q 2463 978 2463 1403 
L 2463 1734 
L 1653 1625 
z
" transform="scale(0.015625)"/>
      </defs>
      <use xlink:href="#MicrosoftYaHei-44"/>
      <use xlink:href="#MicrosoftYaHei-69" x="76.171875"/>
      <use xlink:href="#MicrosoftYaHei-73" x="102.783203"/>
      <use xlink:href="#MicrosoftYaHei-72" x="149.072266"/>
      <use xlink:href="#MicrosoftYaHei-75" x="187.255859"/>
      <use xlink:href="#MicrosoftYaHei-70" x="248.876953"/>
      <use xlink:href="#MicrosoftYaHei-74" x="312.744141"/>
      <use xlink:href="#MicrosoftYaHei-65" x="349.125"/>
      <use xlink:href="#MicrosoftYaHei-64" x="405.863281"/>
      <use xlink:href="#MicrosoftYaHei-20" x="469.828125"/>
      <use xlink:href="#MicrosoftYaHei-73" x="499.417969"/>
      <use xlink:href="#MicrosoftYaHei-68" x="545.707031"/>
      <use xlink:href="#MicrosoftYaHei-61" x="607.279297"/>
      <use xlink:href="#MicrosoftYaHei-72" x="662.552734"/>
      <use xlink:href="#MicrosoftYaHei-65" x="699.361328"/>
     </g>
    </g>
   </g>
   <g id="matplotlib.axis_2">
    <g id="ytick_1">
     <g id="line2d_7">
      <path d="M 55.345 360.83625 
L 503.41 360.83625 
" clip-path="url(#p6a81e599cd)" style="fill: none; stroke: #d5cec0; stroke-linecap: round"/>
     </g>
     <g id="text_8">
      <!-- 0.00 -->
      <g style="fill: #20323b" transform="translate(23.845 365.232813) scale(0.11 -0.11)">
       <use xlink:href="#MicrosoftYaHei-30"/>
       <use xlink:href="#MicrosoftYaHei-2e" x="58.642578"/>
       <use xlink:href="#MicrosoftYaHei-30" x="82.714844"/>
       <use xlink:href="#MicrosoftYaHei-30" x="141.357422"/>
      </g>
     </g>
    </g>
    <g id="ytick_2">
     <g id="line2d_8">
      <path d="M 55.345 288.373963 
L 503.41 288.373963 
" clip-path="url(#p6a81e599cd)" style="fill: none; stroke: #d5cec0; stroke-linecap: round"/>
     </g>
     <g id="text_9">
      <!-- 0.05 -->
      <g style="fill: #20323b" transform="translate(23.845 292.770525) scale(0.11 -0.11)">
       <defs>
        <path id="MicrosoftYaHei-35" d="M 3294 1494 
Q 3294 784 2823 350 
Q 2353 -84 1559 -84 
Q 878 -84 544 119 
L 544 744 
Q 1034 425 1544 425 
Q 2050 425 2361 704 
Q 2672 984 2672 1447 
Q 2672 1909 2348 2167 
Q 2025 2425 1434 2425 
Q 978 2425 613 2384 
L 791 4841 
L 3053 4841 
L 3053 4303 
L 1306 4303 
L 1206 2931 
L 1647 2950 
Q 2416 2950 2855 2567 
Q 3294 2184 3294 1494 
z
" transform="scale(0.015625)"/>
       </defs>
       <use xlink:href="#MicrosoftYaHei-30"/>
       <use xlink:href="#MicrosoftYaHei-2e" x="58.642578"/>
       <use xlink:href="#MicrosoftYaHei-30" x="82.714844"/>
       <use xlink:href="#MicrosoftYaHei-35" x="141.357422"/>
      </g>
     </g>
    </g>
    <g id="ytick_3">
     <g id="line2d_9">
      <path d="M 55.345 215.911676 
L 503.41 215.911676 
" clip-path="url(#p6a81e599cd)" style="fill: none; stroke: #d5cec0; stroke-linecap: round"/>
     </g>
     <g id="text_10">
      <!-- 0.10 -->
      <g style="fill: #20323b" transform="translate(23.845 220.308238) scale(0.11 -0.11)">
       <defs>
        <path id="MicrosoftYaHei-31" d="M 1781 0 
L 1781 4141 
Q 1638 3997 1295 3819 
Q 953 3641 663 3569 
L 663 4169 
Q 1047 4275 1484 4508 
Q 1922 4741 2156 4947 
L 2388 4947 
L 2388 0 
L 1781 0 
z
" transform="scale(0.015625)"/>
       </defs>
       <use xlink:href="#MicrosoftYaHei-30"/>
       <use xlink:href="#MicrosoftYaHei-2e" x="58.642578"/>
       <use xlink:href="#MicrosoftYaHei-31" x="82.714844"/>
       <use xlink:href="#MicrosoftYaHei-30" x="141.357422"/>
      </g>
     </g>
    </g>
    <g id="ytick_4">
     <g id="line2d_10">
      <path d="M 55.345 143.449388 
L 503.41 143.449388 
" clip-path="url(#p6a81e599cd)" style="fill: none; stroke: #d5cec0; stroke-linecap: round"/>
     </g>
     <g id="text_11">
      <!-- 0.15 -->
      <g style="fill: #20323b" transform="translate(23.845 147.845951) scale(0.11 -0.11)">
       <use xlink:href="#MicrosoftYaHei-30"/>
       <use xlink:href="#MicrosoftYaHei-2e" x="58.642578"/>
       <use xlink:href="#MicrosoftYaHei-31" x="82.714844"/>
       <use xlink:href="#MicrosoftYaHei-35" x="141.357422"/>
      </g>
     </g>
    </g>
    <g id="ytick_5">
     <g id="line2d_11">
      <path d="M 55.345 70.987101 
L 503.41 70.987101 
" clip-path="url(#p6a81e599cd)" style="fill: none; stroke: #d5cec0; stroke-linecap: round"/>
     </g>
     <g id="text_12">
      <!-- 0.20 -->
      <g style="fill: #20323b" transform="translate(23.845 75.383664) scale(0.11 -0.11)">
       <use xlink:href="#MicrosoftYaHei-30"/>
       <use xlink:href="#MicrosoftYaHei-2e" x="58.642578"/>
       <use xlink:href="#MicrosoftYaHei-32" x="82.714844"/>
       <use xlink:href="#MicrosoftYaHei-30" x="141.357422"/>
      </g>
     </g>
    </g>
    <g id="text_13">
     <!-- Yearly disrupted-share std -->
     <g style="fill: #20323b" transform="translate(16.7925 266.667188) rotate(-90) scale(0.12 -0.12)">
      <defs>
       <path id="MicrosoftYaHei-59" d="M 3828 4841 
L 2234 1781 
L 2234 0 
L 1606 0 
L 1606 1766 
L 53 4841 
L 769 4841 
L 1816 2697 
Q 1819 2694 1931 2388 
L 1941 2388 
Q 1978 2519 2069 2694 
L 3163 4841 
L 3828 4841 
z
" transform="scale(0.015625)"/>
       <path id="MicrosoftYaHei-6c" d="M 544 0 
L 544 5116 
L 1156 5116 
L 1156 0 
L 544 0 
z
" transform="scale(0.015625)"/>
       <path id="MicrosoftYaHei-79" d="M 3359 3456 
L 1791 -522 
Q 1353 -1628 556 -1628 
Q 328 -1628 166 -1578 
L 166 -1041 
Q 344 -1109 509 -1109 
Q 925 -1109 1131 -622 
L 1397 6 
L 41 3456 
L 719 3456 
L 1622 859 
L 1697 575 
L 1713 575 
Q 1731 672 1788 853 
L 2731 3456 
L 3359 3456 
z
" transform="scale(0.015625)"/>
       <path id="MicrosoftYaHei-2d" d="M 2328 1681 
L 488 1681 
L 488 2153 
L 2328 2153 
L 2328 1681 
z
" transform="scale(0.015625)"/>
      </defs>
      <use xlink:href="#MicrosoftYaHei-59"/>
      <use xlink:href="#MicrosoftYaHei-65" x="50.851562"/>
      <use xlink:href="#MicrosoftYaHei-61" x="107.589844"/>
      <use xlink:href="#MicrosoftYaHei-72" x="162.863281"/>
      <use xlink:href="#MicrosoftYaHei-6c" x="201.046875"/>
      <use xlink:href="#MicrosoftYaHei-79" x="227.658203"/>
      <use xlink:href="#MicrosoftYaHei-20" x="280.587891"/>
      <use xlink:href="#MicrosoftYaHei-64" x="310.177734"/>
      <use xlink:href="#MicrosoftYaHei-69" x="374.142578"/>
      <use xlink:href="#MicrosoftYaHei-73" x="400.753906"/>
      <use xlink:href="#MicrosoftYaHei-72" x="447.042969"/>
      <use xlink:href="#MicrosoftYaHei-75" x="485.226562"/>
      <use xlink:href="#MicrosoftYaHei-70" x="546.847656"/>
      <use xlink:href="#MicrosoftYaHei-74" x="610.714844"/>
      <use xlink:href="#MicrosoftYaHei-65" x="647.095703"/>
      <use xlink:href="#MicrosoftYaHei-64" x="703.833984"/>
      <use xlink:href="#MicrosoftYaHei-2d" x="767.798828"/>
      <use xlink:href="#MicrosoftYaHei-73" x="811.060547"/>
      <use xlink:href="#MicrosoftYaHei-68" x="857.349609"/>
      <use xlink:href="#MicrosoftYaHei-61" x="918.921875"/>
      <use xlink:href="#MicrosoftYaHei-72" x="974.195312"/>
      <use xlink:href="#MicrosoftYaHei-65" x="1011.003906"/>
      <use xlink:href="#MicrosoftYaHei-20" x="1067.742188"/>
      <use xlink:href="#MicrosoftYaHei-73" x="1097.332031"/>
      <use xlink:href="#MicrosoftYaHei-74" x="1143.621094"/>
      <use xlink:href="#MicrosoftYaHei-64" x="1179.501953"/>
     </g>
    </g>
   </g>
   <g id="line2d_12">
    <path d="M 279.3775 360.83625 
L 279.3775 23.2725 
" clip-path="url(#p6a81e599cd)" style="fill: none; stroke-dasharray: 4.44,1.92; stroke-dashoffset: 0; stroke: #c6a15b; stroke-width: 1.2"/>
   </g>
   <g id="patch_3">
    <path d="M 55.345 360.83625 
L 55.345 23.2725 
" style="fill: none; stroke: #d5cec0; stroke-width: 1.25; stroke-linejoin: miter; stroke-linecap: square"/>
   </g>
   <g id="patch_4">
    <path d="M 503.41 360.83625 
L 503.41 23.2725 
" style="fill: none; stroke: #d5cec0; stroke-width: 1.25; stroke-linejoin: miter; stroke-linecap: square"/>
   </g>
   <g id="patch_5">
    <path d="M 55.345 360.83625 
L 503.41 360.83625 
" style="fill: none; stroke: #d5cec0; stroke-width: 1.25; stroke-linejoin: miter; stroke-linecap: square"/>
   </g>
   <g id="patch_6">
    <path d="M 55.345 23.2725 
L 503.41 23.2725 
" style="fill: none; stroke: #d5cec0; stroke-width: 1.25; stroke-linejoin: miter; stroke-linecap: square"/>
   </g>
   <g id="PathCollection_1">
    <defs>
     <path id="m5e6effac3c" d="M 0 6.123724 
C 1.624031 6.123724 3.181764 5.47849 4.330127 4.330127 
C 5.47849 3.181764 6.123724 1.624031 6.123724 0 
C 6.123724 -1.624031 5.47849 -3.181764 4.330127 -4.330127 
C 3.181764 -5.47849 1.624031 -6.123724 0 -6.123724 
C -1.624031 -6.123724 -3.181764 -5.47849 -4.330127 -4.330127 
C -5.47849 -3.181764 -6.123724 -1.624031 -6.123724 0 
C -6.123724 1.624031 -5.47849 3.181764 -4.330127 4.330127 
C -3.181764 5.47849 -1.624031 6.123724 0 6.123724 
z
" style="stroke: #c66a2b"/>
    </defs>
    <g clip-path="url(#p6a81e599cd)">
     <use xlink:href="#m5e6effac3c" x="279.3775" y="140.340532" style="fill: #c66a2b; stroke: #c66a2b"/>
    </g>
   </g>
   <g id="text_14">
    <!-- delay_cancel_impact_composite -->
    <g style="fill: #20323b" transform="translate(315.2227 126.510978) scale(0.09 -0.09)">
     <defs>
      <path id="MicrosoftYaHei-5f" d="M 2869 -1634 
L 0 -1634 
L 0 -1231 
L 2869 -1231 
L 2869 -1634 
z
" transform="scale(0.015625)"/>
      <path id="MicrosoftYaHei-63" d="M 2934 156 
Q 2538 -81 1978 -81 
Q 1228 -81 772 400 
Q 316 881 316 1647 
Q 316 2497 808 3017 
Q 1300 3538 2125 3538 
Q 2600 3538 2938 3369 
L 2938 2763 
Q 2572 3031 2125 3031 
Q 1600 3031 1270 2667 
Q 941 2303 941 1697 
Q 941 1100 1252 762 
Q 1563 425 2091 425 
Q 2538 425 2934 719 
L 2934 156 
z
" transform="scale(0.015625)"/>
      <path id="MicrosoftYaHei-6e" d="M 3469 0 
L 2859 0 
L 2859 1966 
Q 2859 3031 2081 3031 
Q 1678 3031 1418 2731 
Q 1159 2431 1159 1972 
L 1159 0 
L 547 0 
L 547 3456 
L 1159 3456 
L 1159 2884 
L 1172 2884 
Q 1563 3538 2306 3538 
Q 2875 3538 3172 3173 
Q 3469 2809 3469 2113 
L 3469 0 
z
" transform="scale(0.015625)"/>
      <path id="MicrosoftYaHei-6d" d="M 5522 0 
L 4909 0 
L 4909 1984 
Q 4909 2547 4734 2789 
Q 4559 3031 4159 3031 
Q 3822 3031 3581 2715 
Q 3341 2400 3341 1969 
L 3341 0 
L 2728 0 
L 2728 2047 
Q 2728 3031 1969 3031 
Q 1619 3031 1389 2731 
Q 1159 2431 1159 1966 
L 1159 0 
L 547 0 
L 547 3456 
L 1159 3456 
L 1159 2909 
L 1172 2909 
Q 1541 3538 2250 3538 
Q 2597 3538 2862 3347 
Q 3128 3156 3231 2831 
Q 3616 3538 4381 3538 
Q 5522 3538 5522 2131 
L 5522 0 
z
" transform="scale(0.015625)"/>
      <path id="MicrosoftYaHei-6f" d="M 316 1691 
Q 316 2547 794 3042 
Q 1272 3538 2091 3538 
Q 2869 3538 3311 3061 
Q 3753 2584 3753 1744 
Q 3753 925 3281 422 
Q 2809 -81 2016 -81 
Q 1241 -81 778 406 
Q 316 894 316 1691 
z
M 941 1709 
Q 941 1113 1242 769 
Q 1544 425 2053 425 
Q 2578 425 2853 761 
Q 3128 1097 3128 1725 
Q 3128 2356 2853 2693 
Q 2578 3031 2053 3031 
Q 1538 3031 1239 2678 
Q 941 2325 941 1709 
z
" transform="scale(0.015625)"/>
     </defs>
     <use xlink:href="#MicrosoftYaHei-64"/>
     <use xlink:href="#MicrosoftYaHei-65" x="63.964844"/>
     <use xlink:href="#MicrosoftYaHei-6c" x="120.703125"/>
     <use xlink:href="#MicrosoftYaHei-61" x="147.314453"/>
     <use xlink:href="#MicrosoftYaHei-79" x="202.587891"/>
     <use xlink:href="#MicrosoftYaHei-5f" x="255.517578"/>
     <use xlink:href="#MicrosoftYaHei-63" x="300.341797"/>
     <use xlink:href="#MicrosoftYaHei-61" x="350.488281"/>
     <use xlink:href="#MicrosoftYaHei-6e" x="405.761719"/>
     <use xlink:href="#MicrosoftYaHei-63" x="467.382812"/>
     <use xlink:href="#MicrosoftYaHei-65" x="517.529297"/>
     <use xlink:href="#MicrosoftYaHei-6c" x="574.267578"/>
     <use xlink:href="#MicrosoftYaHei-5f" x="600.878906"/>
     <use xlink:href="#MicrosoftYaHei-69" x="645.703125"/>
     <use xlink:href="#MicrosoftYaHei-6d" x="672.314453"/>
     <use xlink:href="#MicrosoftYaHei-70" x="766.015625"/>
     <use xlink:href="#MicrosoftYaHei-61" x="828.507812"/>
     <use xlink:href="#MicrosoftYaHei-63" x="883.78125"/>
     <use xlink:href="#MicrosoftYaHei-74" x="933.927734"/>
     <use xlink:href="#MicrosoftYaHei-5f" x="971.183594"/>
     <use xlink:href="#MicrosoftYaHei-63" x="1016.007812"/>
     <use xlink:href="#MicrosoftYaHei-6f" x="1066.154297"/>
     <use xlink:href="#MicrosoftYaHei-6d" x="1129.728516"/>
     <use xlink:href="#MicrosoftYaHei-70" x="1223.429688"/>
     <use xlink:href="#MicrosoftYaHei-6f" x="1287.296875"/>
     <use xlink:href="#MicrosoftYaHei-73" x="1350.871094"/>
     <use xlink:href="#MicrosoftYaHei-69" x="1397.160156"/>
     <use xlink:href="#MicrosoftYaHei-74" x="1423.771484"/>
     <use xlink:href="#MicrosoftYaHei-65" x="1460.152344"/>
    </g>
    <!-- share=0.25, std=0.152 -->
    <g style="fill: #20323b" transform="translate(315.2227 137.44204) scale(0.09 -0.09)">
     <defs>
      <path id="MicrosoftYaHei-3d" d="M 3972 2497 
L 788 2497 
L 788 2969 
L 3972 2969 
L 3972 2497 
z
M 3972 1053 
L 788 1053 
L 788 1525 
L 3972 1525 
L 3972 1053 
z
" transform="scale(0.015625)"/>
      <path id="MicrosoftYaHei-2c" d="M 1109 778 
L 575 -888 
L 131 -888 
L 519 778 
L 1109 778 
z
" transform="scale(0.015625)"/>
     </defs>
     <use xlink:href="#MicrosoftYaHei-73"/>
     <use xlink:href="#MicrosoftYaHei-68" x="46.289062"/>
     <use xlink:href="#MicrosoftYaHei-61" x="107.861328"/>
     <use xlink:href="#MicrosoftYaHei-72" x="163.134766"/>
     <use xlink:href="#MicrosoftYaHei-65" x="199.943359"/>
     <use xlink:href="#MicrosoftYaHei-3d" x="256.681641"/>
     <use xlink:href="#MicrosoftYaHei-30" x="330.851562"/>
     <use xlink:href="#MicrosoftYaHei-2e" x="389.494141"/>
     <use xlink:href="#MicrosoftYaHei-32" x="413.566406"/>
     <use xlink:href="#MicrosoftYaHei-35" x="472.208984"/>
     <use xlink:href="#MicrosoftYaHei-2c" x="530.851562"/>
     <use xlink:href="#MicrosoftYaHei-20" x="554.923828"/>
     <use xlink:href="#MicrosoftYaHei-73" x="584.513672"/>
     <use xlink:href="#MicrosoftYaHei-74" x="630.802734"/>
     <use xlink:href="#MicrosoftYaHei-64" x="666.683594"/>
     <use xlink:href="#MicrosoftYaHei-3d" x="730.648438"/>
     <use xlink:href="#MicrosoftYaHei-30" x="804.818359"/>
     <use xlink:href="#MicrosoftYaHei-2e" x="863.460938"/>
     <use xlink:href="#MicrosoftYaHei-31" x="887.533203"/>
     <use xlink:href="#MicrosoftYaHei-35" x="946.175781"/>
     <use xlink:href="#MicrosoftYaHei-32" x="1004.818359"/>
    </g>
   </g>
   <g id="PathCollection_2">
    <defs>
     <path id="madf82ee3a1" d="M 0 5.244044 
C 1.390737 5.244044 2.7247 4.691499 3.708099 3.708099 
C 4.691499 2.7247 5.244044 1.390737 5.244044 0 
C 5.244044 -1.390737 4.691499 -2.7247 3.708099 -3.708099 
C 2.7247 -4.691499 1.390737 -5.244044 0 -5.244044 
C -1.390737 -5.244044 -2.7247 -4.691499 -3.708099 -3.708099 
C -4.691499 -2.7247 -5.244044 -1.390737 -5.244044 0 
C -5.244044 1.390737 -4.691499 2.7247 -3.708099 3.708099 
C -2.7247 4.691499 -1.390737 5.244044 0 5.244044 
z
" style="stroke: #61727b"/>
    </defs>
    <g clip-path="url(#p6a81e599cd)">
     <use xlink:href="#madf82ee3a1" x="279.3775" y="90.78525" style="fill: #61727b; stroke: #61727b"/>
    </g>
   </g>
   <g id="text_15">
    <!-- impact_q75 -->
    <g style="fill: #20323b" transform="translate(315.2227 76.955696) scale(0.09 -0.09)">
     <defs>
      <path id="MicrosoftYaHei-71" d="M 3547 -1591 
L 2934 -1591 
L 2934 581 
L 2922 581 
Q 2559 -81 1753 -81 
Q 1100 -81 708 380 
Q 316 841 316 1647 
Q 316 2506 747 3022 
Q 1178 3538 1903 3538 
Q 2603 3538 2922 2988 
L 2934 2988 
L 2934 3456 
L 3547 3456 
L 3547 -1591 
z
M 2934 2044 
Q 2938 2453 2673 2742 
Q 2409 3031 1984 3031 
Q 1497 3031 1219 2668 
Q 941 2306 941 1663 
Q 941 1081 1208 753 
Q 1475 425 1909 425 
Q 2384 425 2661 751 
Q 2938 1078 2934 1566 
L 2934 2044 
z
" transform="scale(0.015625)"/>
      <path id="MicrosoftYaHei-37" d="M 3422 4463 
Q 2659 3131 2223 1998 
Q 1788 866 1684 0 
L 1047 0 
Q 1163 853 1594 1947 
Q 2025 3041 2747 4300 
L 347 4300 
L 347 4841 
L 3422 4841 
L 3422 4463 
z
" transform="scale(0.015625)"/>
     </defs>
     <use xlink:href="#MicrosoftYaHei-69"/>
     <use xlink:href="#MicrosoftYaHei-6d" x="26.611328"/>
     <use xlink:href="#MicrosoftYaHei-70" x="120.3125"/>
     <use xlink:href="#MicrosoftYaHei-61" x="182.804688"/>
     <use xlink:href="#MicrosoftYaHei-63" x="238.078125"/>
     <use xlink:href="#MicrosoftYaHei-74" x="288.224609"/>
     <use xlink:href="#MicrosoftYaHei-5f" x="325.480469"/>
     <use xlink:href="#MicrosoftYaHei-71" x="370.304688"/>
     <use xlink:href="#MicrosoftYaHei-37" x="434.269531"/>
     <use xlink:href="#MicrosoftYaHei-35" x="492.912109"/>
    </g>
    <!-- share=0.25, std=0.186 -->
    <g style="fill: #20323b" transform="translate(315.2227 87.886759) scale(0.09 -0.09)">
     <use xlink:href="#MicrosoftYaHei-73"/>
     <use xlink:href="#MicrosoftYaHei-68" x="46.289062"/>
     <use xlink:href="#MicrosoftYaHei-61" x="107.861328"/>
     <use xlink:href="#MicrosoftYaHei-72" x="163.134766"/>
     <use xlink:href="#MicrosoftYaHei-65" x="199.943359"/>
     <use xlink:href="#MicrosoftYaHei-3d" x="256.681641"/>
     <use xlink:href="#MicrosoftYaHei-30" x="330.851562"/>
     <use xlink:href="#MicrosoftYaHei-2e" x="389.494141"/>
     <use xlink:href="#MicrosoftYaHei-32" x="413.566406"/>
     <use xlink:href="#MicrosoftYaHei-35" x="472.208984"/>
     <use xlink:href="#MicrosoftYaHei-2c" x="530.851562"/>
     <use xlink:href="#MicrosoftYaHei-20" x="554.923828"/>
     <use xlink:href="#MicrosoftYaHei-73" x="584.513672"/>
     <use xlink:href="#MicrosoftYaHei-74" x="630.802734"/>
     <use xlink:href="#MicrosoftYaHei-64" x="666.683594"/>
     <use xlink:href="#MicrosoftYaHei-3d" x="730.648438"/>
     <use xlink:href="#MicrosoftYaHei-30" x="804.818359"/>
     <use xlink:href="#MicrosoftYaHei-2e" x="863.460938"/>
     <use xlink:href="#MicrosoftYaHei-31" x="887.533203"/>
     <use xlink:href="#MicrosoftYaHei-38" x="946.175781"/>
     <use xlink:href="#MicrosoftYaHei-36" x="1004.818359"/>
    </g>
   </g>
   <g id="text_16">
    <!-- 状态规则比较：delay_cancel_impact_composite 更接近 25% 且跨年更稳定 -->
    <g style="fill: #20323b" transform="translate(74.660312 17.2725) scale(0.12 -0.12)">
     <defs>
      <path id="MicrosoftYaHei-72b6" d="M 2213 3516 
L 3791 3516 
Q 3825 4369 3825 5297 
L 4325 5297 
Q 4325 4338 4294 3516 
L 6175 3516 
L 6175 3047 
L 4309 3047 
Q 4884 628 6313 -228 
Q 6069 -491 5906 -703 
Q 4638 266 4119 2106 
Q 3766 413 2363 -809 
Q 2169 -541 2013 -384 
Q 3600 853 3766 3047 
L 2213 3047 
L 2213 3516 
z
M 1494 5316 
L 1994 5316 
L 1994 -834 
L 1494 -834 
L 1494 1606 
Q 916 1119 400 691 
L 75 1122 
Q 769 1628 1494 2222 
L 1494 5316 
z
M 219 4134 
L 644 4334 
Q 1019 3672 1306 2884 
L 831 2666 
Q 519 3541 219 4134 
z
M 5006 5053 
Q 5550 4641 5950 4278 
Q 5775 4078 5606 3884 
Q 5150 4328 4681 4716 
L 5006 5053 
z
" transform="scale(0.015625)"/>
      <path id="MicrosoftYaHei-6001" d="M 325 4434 
L 2888 4434 
Q 2972 4822 2969 5328 
L 3438 5328 
Q 3444 4841 3372 4434 
L 6075 4434 
L 6075 3991 
L 3528 3991 
Q 4419 2706 6231 2241 
Q 6050 2034 5881 1759 
Q 4041 2394 3172 3772 
Q 2975 3331 2588 2953 
Q 3078 2616 3538 2259 
L 3225 1891 
Q 2828 2244 2259 2675 
Q 1556 2138 388 1703 
Q 294 1922 113 2178 
Q 2250 2866 2750 3991 
L 325 3991 
L 325 4434 
z
M 1713 1547 
L 2200 1547 
L 2200 203 
Q 2200 -172 2575 -172 
L 3763 -172 
Q 4175 -172 4256 134 
Q 4331 428 4381 1028 
Q 4556 953 4863 847 
Q 4763 128 4706 -47 
Q 4563 -616 3869 -616 
L 2488 -616 
Q 1713 -616 1713 172 
L 1713 1547 
z
M 813 1447 
L 1281 1297 
Q 1038 522 663 -297 
Q 463 -203 194 -116 
Q 569 591 813 1447 
z
M 4894 1272 
L 5263 1553 
Q 5781 972 6306 309 
L 5888 -9 
Q 5425 641 4894 1272 
z
M 2594 1503 
L 2913 1809 
Q 3419 1403 3850 991 
L 3488 641 
Q 3094 1059 2594 1503 
z
" transform="scale(0.015625)"/>
      <path id="MicrosoftYaHei-89c4" d="M 4006 4047 
L 4469 4047 
L 4469 3116 
Q 4469 2272 4344 1653 
L 4756 1653 
L 4756 109 
Q 4756 -253 5100 -253 
L 5406 -253 
Q 5719 -253 5756 66 
Q 5800 428 5819 903 
Q 6113 778 6313 709 
Q 6269 266 6219 -84 
Q 6119 -691 5494 -691 
L 4975 -691 
Q 4300 -691 4300 34 
L 4300 1459 
Q 4019 234 2581 -878 
Q 2331 -597 2200 -478 
Q 3313 334 3669 1109 
Q 4006 1778 4006 3122 
L 4006 4047 
z
M 138 2559 
L 1100 2559 
Q 1113 2859 1113 3678 
L 219 3678 
L 219 4103 
L 1113 4103 
L 1113 5266 
L 1581 5266 
L 1581 4103 
L 2481 4103 
L 2481 3678 
L 1581 3678 
Q 1581 3216 1569 2559 
L 2581 2559 
L 2581 2134 
L 1544 2134 
Q 1538 1934 1513 1728 
Q 2106 1178 2788 491 
L 2400 128 
Q 1938 709 1431 1241 
Q 1144 59 394 -822 
Q 281 -653 94 -384 
Q 1038 791 1075 2134 
L 138 2134 
L 138 2559 
z
M 2763 5003 
L 5794 5003 
L 5794 1259 
L 5331 1259 
L 5331 4559 
L 3225 4559 
L 3225 1172 
L 2763 1172 
L 2763 5003 
z
" transform="scale(0.015625)"/>
      <path id="MicrosoftYaHei-5219" d="M 5419 5203 
L 5919 5203 
L 5919 9 
Q 5919 -753 5169 -759 
Q 4825 -766 4194 -753 
Q 4163 -534 4094 -197 
Q 4731 -253 5006 -253 
Q 5419 -259 5419 153 
L 5419 5203 
z
M 4619 797 
L 4131 797 
L 4131 4647 
L 4619 4647 
L 4619 797 
z
M 538 4934 
L 3319 4934 
L 3319 903 
L 2838 903 
L 2838 4491 
L 1019 4491 
L 1019 903 
L 538 903 
L 538 4934 
z
M 3219 -628 
Q 2600 9 1875 653 
Q 1456 -309 375 -884 
Q 244 -691 63 -472 
Q 1306 153 1563 1241 
Q 1725 1766 1719 4034 
L 2200 4034 
Q 2206 1747 2031 1109 
Q 2775 528 3613 -234 
L 3219 -628 
z
" transform="scale(0.015625)"/>
      <path id="MicrosoftYaHei-6bd4" d="M 3225 5316 
L 3744 5316 
L 3744 2672 
Q 4959 3550 5744 4509 
L 6188 4178 
Q 5175 3063 3744 2056 
L 3744 247 
Q 3744 -166 4106 -166 
L 5175 -166 
Q 5588 -166 5650 203 
Q 5725 678 5763 1247 
Q 6025 1147 6300 1066 
Q 6244 484 6150 22 
Q 6019 -622 5319 -622 
L 3944 -622 
Q 3225 -622 3225 159 
L 3225 5316 
z
M 1063 5153 
L 1063 3278 
L 2825 3278 
L 2825 2809 
L 1063 2809 
L 1063 153 
Q 1713 428 2763 928 
Q 2763 634 2788 366 
Q 1869 -3 1231 -328 
Q 956 -472 725 -672 
L 344 -184 
Q 544 -34 544 272 
L 544 5153 
L 1063 5153 
z
" transform="scale(0.015625)"/>
      <path id="MicrosoftYaHei-8f83" d="M 694 2234 
L 1438 2234 
L 1438 3603 
L 1875 3603 
L 1875 2234 
L 2513 2234 
L 2513 1828 
L 1875 1828 
L 1875 981 
Q 2288 1031 2688 1084 
Q 2656 847 2644 653 
Q 2294 613 1875 559 
L 1875 -841 
L 1438 -841 
L 1438 506 
Q 844 428 131 334 
L 81 791 
Q 778 856 1438 928 
L 1438 1828 
L 238 1828 
L 238 2222 
Q 575 3156 816 3928 
L 156 3928 
L 156 4347 
L 941 4347 
Q 1103 4891 1206 5347 
L 1688 5247 
Q 1559 4831 1403 4347 
L 2494 4347 
L 2494 3928 
L 1269 3928 
Q 1016 3156 694 2234 
z
M 5525 2341 
Q 5200 1303 4694 644 
Q 5306 69 6331 -247 
Q 6094 -522 5944 -728 
Q 4972 -334 4353 256 
Q 3641 -450 2563 -828 
Q 2481 -666 2263 -384 
Q 3341 -22 4025 619 
Q 3531 1247 3219 2203 
L 3644 2397 
Q 3909 1572 4363 1003 
Q 4813 1622 5063 2497 
L 5525 2341 
z
M 2719 4366 
L 4316 4366 
Q 4109 4728 3806 5116 
L 4188 5359 
Q 4538 4966 4788 4578 
L 4459 4366 
L 6225 4366 
L 6225 3928 
L 2719 3928 
L 2719 4366 
z
M 4663 3422 
L 5006 3722 
Q 5669 3103 6256 2434 
L 5881 2097 
Q 5344 2747 4663 3422 
z
M 3600 3741 
L 4013 3484 
Q 3456 2628 2925 1997 
Q 2706 2191 2544 2297 
Q 3106 2922 3600 3741 
z
" transform="scale(0.015625)"/>
      <path id="MicrosoftYaHei-ff1a" d="M 1606 3531 
Q 1772 3531 1890 3415 
Q 2009 3300 2009 3138 
Q 2009 2975 1893 2858 
Q 1778 2741 1606 2741 
Q 1434 2741 1318 2858 
Q 1203 2975 1203 3138 
Q 1203 3300 1322 3415 
Q 1441 3531 1606 3531 
z
M 1606 716 
Q 1772 716 1890 600 
Q 2009 484 2009 319 
Q 2009 150 1890 36 
Q 1772 -78 1606 -78 
Q 1441 -78 1322 36 
Q 1203 150 1203 319 
Q 1203 484 1322 600 
Q 1441 716 1606 716 
z
" transform="scale(0.015625)"/>
      <path id="MicrosoftYaHei-66f4" d="M 106 -422 
Q 1250 -231 1950 166 
Q 1416 534 981 1134 
L 1309 1384 
L 825 1384 
L 825 4003 
L 3019 4003 
Q 3022 4272 3025 4578 
L 331 4578 
L 331 5016 
L 6069 5016 
L 6069 4578 
L 3506 4578 
Q 3506 4269 3503 4003 
L 5575 4003 
L 5575 1078 
L 5100 1078 
L 5100 1384 
L 3350 1384 
Q 3188 644 2834 244 
Q 4088 -216 6325 -209 
Q 6169 -484 6069 -709 
Q 3588 -641 2422 -100 
Q 1703 -575 394 -866 
Q 269 -647 106 -422 
z
M 1300 2903 
L 3006 2903 
Q 3013 3203 3016 3578 
L 1300 3578 
L 1300 2903 
z
M 3000 2484 
L 1300 2484 
L 1300 1809 
L 2947 1809 
Q 2988 2116 3000 2484 
z
M 3422 1809 
L 5100 1809 
L 5100 2484 
L 3481 2484 
Q 3466 2122 3422 1809 
z
M 5100 3578 
L 3500 3578 
Q 3497 3200 3491 2903 
L 5100 2903 
L 5100 3578 
z
M 2369 453 
Q 2706 744 2866 1384 
L 1334 1384 
Q 1766 784 2369 453 
z
" transform="scale(0.015625)"/>
      <path id="MicrosoftYaHei-63a5" d="M 1800 -366 
Q 3019 -188 3784 222 
Q 3200 484 2531 772 
Q 2800 1119 3028 1466 
L 2000 1466 
L 2000 1884 
L 3291 1884 
Q 3491 2222 3656 2559 
L 4119 2366 
Q 3969 2116 3822 1884 
L 6225 1884 
L 6225 1466 
L 5403 1466 
Q 5156 778 4672 306 
Q 5469 -25 6219 -353 
L 5944 -816 
Q 5241 -444 4288 -3 
Q 3450 -572 2038 -841 
Q 1950 -634 1800 -366 
z
M 100 1966 
Q 544 2088 963 2213 
L 963 3641 
L 175 3641 
L 175 4091 
L 963 4091 
L 963 5259 
L 1425 5259 
L 1425 4091 
L 2144 4091 
L 2144 3641 
L 1425 3641 
L 1425 2356 
Q 1722 2450 2006 2547 
Q 2013 2266 2044 2059 
Q 1722 1956 1425 1856 
L 1425 -72 
Q 1425 -747 819 -753 
Q 588 -759 231 -747 
Q 206 -491 156 -228 
Q 531 -266 688 -266 
Q 963 -266 963 66 
L 963 1703 
Q 534 1559 163 1428 
L 100 1966 
z
M 2019 3072 
L 4453 3072 
Q 4850 3622 5156 4103 
L 5625 3847 
Q 5300 3456 4966 3072 
L 6269 3072 
L 6269 2653 
L 2019 2653 
L 2019 3072 
z
M 2263 4591 
L 4028 4591 
Q 3881 4875 3719 5153 
L 4138 5347 
Q 4338 5009 4519 4666 
L 4359 4591 
L 6119 4591 
L 6119 4172 
L 2263 4172 
L 2263 4591 
z
M 3181 909 
Q 3703 703 4203 497 
Q 4694 894 4900 1466 
L 3553 1466 
Q 3363 1175 3181 909 
z
M 2825 3853 
L 3188 4097 
Q 3481 3753 3756 3372 
L 3356 3103 
Q 3119 3491 2825 3853 
z
" transform="scale(0.015625)"/>
      <path id="MicrosoftYaHei-8fd1" d="M 3088 4272 
L 3088 3166 
L 6244 3166 
L 6244 2703 
L 4994 2703 
L 4994 84 
L 4500 84 
L 4500 2703 
L 3084 2703 
Q 3038 1038 2225 91 
Q 2044 247 1819 422 
Q 2606 1334 2606 2916 
L 2606 4709 
Q 4131 4809 5863 5097 
L 5975 4634 
Q 4388 4391 3088 4272 
z
M 2700 -147 
L 4531 -178 
L 6313 -116 
Q 6206 -366 6113 -609 
L 4375 -622 
L 2650 -597 
Q 1594 -578 1100 116 
Q 925 -22 375 -672 
L 113 -147 
Q 597 297 881 538 
L 881 2684 
L 156 2684 
L 156 3134 
L 1363 3134 
L 1363 422 
Q 1813 -119 2700 -147 
z
M 794 5278 
Q 1238 4753 1738 4097 
L 1300 3778 
Q 763 4572 413 5003 
L 794 5278 
z
" transform="scale(0.015625)"/>
      <path id="MicrosoftYaHei-25" d="M 272 3619 
Q 272 4213 589 4563 
Q 906 4913 1444 4913 
Q 1959 4913 2248 4591 
Q 2538 4269 2538 3694 
Q 2538 3122 2219 2765 
Q 1900 2409 1372 2409 
Q 872 2409 572 2740 
Q 272 3072 272 3619 
z
M 753 3650 
Q 753 3247 928 3028 
Q 1103 2809 1406 2809 
Q 1719 2809 1889 3036 
Q 2059 3263 2059 3675 
Q 2059 4078 1892 4298 
Q 1725 4519 1422 4519 
Q 1113 4519 933 4289 
Q 753 4059 753 3650 
z
M 4647 4841 
L 1538 -31 
L 1016 -31 
L 4125 4841 
L 4647 4841 
z
M 3172 1134 
Q 3172 1728 3489 2083 
Q 3806 2438 4341 2438 
Q 4853 2438 5143 2114 
Q 5434 1791 5434 1203 
Q 5434 634 5112 279 
Q 4791 -75 4272 -75 
Q 3769 -75 3470 261 
Q 3172 597 3172 1134 
z
M 3650 1163 
Q 3650 769 3825 548 
Q 4000 328 4303 328 
Q 4616 328 4786 556 
Q 4956 784 4956 1194 
Q 4956 1600 4786 1815 
Q 4616 2031 4319 2031 
Q 4000 2031 3825 1801 
Q 3650 1572 3650 1163 
z
" transform="scale(0.015625)"/>
      <path id="MicrosoftYaHei-4e14" d="M 94 -28 
L 956 -28 
L 956 4947 
L 5438 4947 
L 5438 -28 
L 6288 -28 
L 6288 -491 
L 94 -491 
L 94 -28 
z
M 1456 -28 
L 4938 -28 
L 4938 1197 
L 1456 1197 
L 1456 -28 
z
M 1456 1634 
L 4938 1634 
L 4938 2841 
L 1456 2841 
L 1456 1634 
z
M 4938 4484 
L 1456 4484 
L 1456 3278 
L 4938 3278 
L 4938 4484 
z
" transform="scale(0.015625)"/>
      <path id="MicrosoftYaHei-8de8" d="M 50 -47 
Q 206 -16 369 13 
L 369 2428 
L 769 2428 
L 769 91 
Q 1031 147 1306 206 
L 1306 3053 
L 844 3053 
L 844 2834 
L 444 2834 
L 444 4966 
L 2263 4966 
L 2263 3053 
L 1706 3053 
L 1706 1941 
L 2331 1941 
L 2331 1566 
L 1706 1566 
L 1706 297 
Q 2066 378 2438 472 
Q 2450 222 2475 16 
Q 1613 -166 200 -553 
L 50 -47 
z
M 2138 2834 
Q 2953 3369 3447 4153 
L 2494 4153 
L 2494 4566 
L 3675 4566 
Q 3856 4938 3975 5359 
L 4444 5247 
Q 4334 4891 4188 4566 
L 6175 4566 
L 6175 4153 
L 5006 4153 
Q 5556 3275 6369 3009 
Q 6200 2772 6069 2566 
Q 5650 2788 5313 3109 
L 5313 2741 
L 3113 2741 
L 3113 3038 
Q 2806 2741 2444 2491 
Q 2319 2653 2138 2834 
z
M 2494 2197 
L 6094 2197 
L 6094 1784 
L 3616 1784 
L 3394 1228 
L 5631 1228 
Q 5594 628 5544 122 
Q 5463 -703 4638 -703 
Q 4125 -703 3475 -691 
Q 3444 -459 3388 -191 
Q 4044 -241 4538 -241 
Q 5025 -241 5075 184 
Q 5113 497 5131 828 
L 2925 828 
L 2925 1234 
L 3141 1784 
L 2494 1784 
L 2494 2197 
z
M 3216 3141 
L 5281 3141 
Q 4850 3563 4553 4153 
L 3975 4153 
Q 3663 3597 3216 3141 
z
M 1863 3416 
L 1863 4603 
L 844 4603 
L 844 3416 
L 1863 3416 
z
" transform="scale(0.015625)"/>
      <path id="MicrosoftYaHei-5e74" d="M 119 1278 
L 1125 1278 
L 1125 3066 
L 3338 3066 
L 3338 4178 
L 1500 4178 
Q 1078 3419 556 2778 
Q 394 2953 169 3128 
Q 1056 4128 1500 5372 
L 2013 5228 
Q 1881 4919 1738 4628 
L 6038 4628 
L 6038 4178 
L 3844 4178 
L 3844 3066 
L 5931 3066 
L 5931 2628 
L 3844 2628 
L 3844 1278 
L 6319 1278 
L 6319 828 
L 3844 828 
L 3844 -859 
L 3338 -859 
L 3338 828 
L 119 828 
L 119 1278 
z
M 1619 1278 
L 3338 1278 
L 3338 2628 
L 1619 2628 
L 1619 1278 
z
" transform="scale(0.015625)"/>
      <path id="MicrosoftYaHei-7a33" d="M 2444 1778 
L 5450 1778 
L 5450 2316 
L 2563 2316 
L 2563 2728 
L 5450 2728 
L 5450 3259 
L 2575 3259 
L 2575 3653 
L 2488 3566 
Q 2331 3716 2119 3878 
Q 2831 4522 3275 5366 
L 3763 5272 
Q 3616 5009 3456 4766 
L 5313 4766 
L 5313 4359 
Q 5063 4022 4800 3684 
L 5925 3684 
L 5925 1128 
L 5450 1128 
L 5450 1353 
L 2444 1353 
L 2444 1778 
z
M 31 991 
Q 619 1803 988 3034 
L 144 3034 
L 144 3472 
L 1025 3472 
L 1025 4466 
Q 653 4431 269 4403 
Q 238 4603 181 4853 
Q 1200 4916 2231 5059 
L 2331 4597 
Q 1916 4550 1488 4506 
L 1488 3472 
L 2269 3472 
L 2269 3034 
L 1488 3034 
L 1488 2288 
L 1744 2491 
Q 2100 2128 2413 1741 
L 2044 1434 
Q 1772 1822 1488 2144 
L 1488 -834 
L 1025 -834 
L 1025 1938 
Q 703 1072 244 466 
Q 150 728 31 991 
z
M 2950 991 
L 3425 991 
L 3425 97 
Q 3425 -259 3825 -259 
L 4425 -259 
Q 4819 -259 4888 53 
Q 4944 297 4981 634 
Q 5188 541 5456 447 
Q 5394 128 5319 -147 
Q 5181 -691 4563 -691 
L 3731 -691 
Q 2950 -691 2950 72 
L 2950 991 
z
M 4744 4353 
L 3172 4353 
Q 2903 3991 2603 3684 
L 4259 3684 
Q 4525 4038 4744 4353 
z
M 2275 991 
L 2694 841 
Q 2481 178 2200 -409 
Q 2000 -303 1769 -216 
Q 2069 322 2275 991 
z
M 5419 797 
L 5825 978 
Q 6175 309 6388 -147 
L 5956 -353 
Q 5750 153 5419 797 
z
M 3663 1097 
L 4000 1334 
Q 4369 909 4650 522 
L 4269 253 
Q 3994 691 3663 1097 
z
" transform="scale(0.015625)"/>
      <path id="MicrosoftYaHei-5b9a" d="M 81 -384 
Q 1119 509 1281 2241 
L 1806 2159 
Q 1731 1581 1578 1081 
Q 2063 50 3081 -103 
L 3081 2647 
L 225 2647 
L 225 3116 
L 6163 3116 
L 6163 2647 
L 3600 2647 
L 3600 1634 
L 5775 1634 
L 5775 1172 
L 3600 1172 
L 3600 -138 
Q 4844 -169 6306 -116 
Q 6200 -359 6125 -634 
Q 4594 -653 3450 -616 
Q 2041 -616 1378 528 
Q 1022 -300 413 -872 
Q 269 -628 81 -384 
z
M 450 4566 
L 3116 4566 
Q 2931 4834 2725 5091 
L 3200 5347 
Q 3444 5066 3731 4716 
L 3450 4566 
L 5981 4566 
L 5981 3378 
L 5488 3378 
L 5488 4097 
L 944 4097 
L 944 3384 
L 450 3384 
L 450 4566 
z
" transform="scale(0.015625)"/>
     </defs>
     <use xlink:href="#MicrosoftYaHei-72b6"/>
     <use xlink:href="#MicrosoftYaHei-6001" x="100"/>
     <use xlink:href="#MicrosoftYaHei-89c4" x="200"/>
     <use xlink:href="#MicrosoftYaHei-5219" x="300"/>
     <use xlink:href="#MicrosoftYaHei-6bd4" x="400"/>
     <use xlink:href="#MicrosoftYaHei-8f83" x="500"/>
     <use xlink:href="#MicrosoftYaHei-ff1a" x="600"/>
     <use xlink:href="#MicrosoftYaHei-64" x="700"/>
     <use xlink:href="#MicrosoftYaHei-65" x="763.964844"/>
     <use xlink:href="#MicrosoftYaHei-6c" x="820.703125"/>
     <use xlink:href="#MicrosoftYaHei-61" x="847.314453"/>
     <use xlink:href="#MicrosoftYaHei-79" x="902.587891"/>
     <use xlink:href="#MicrosoftYaHei-5f" x="955.517578"/>
     <use xlink:href="#MicrosoftYaHei-63" x="1000.341797"/>
     <use xlink:href="#MicrosoftYaHei-61" x="1050.488281"/>
     <use xlink:href="#MicrosoftYaHei-6e" x="1105.761719"/>
     <use xlink:href="#MicrosoftYaHei-63" x="1167.382812"/>
     <use xlink:href="#MicrosoftYaHei-65" x="1217.529297"/>
     <use xlink:href="#MicrosoftYaHei-6c" x="1274.267578"/>
     <use xlink:href="#MicrosoftYaHei-5f" x="1300.878906"/>
     <use xlink:href="#MicrosoftYaHei-69" x="1345.703125"/>
     <use xlink:href="#MicrosoftYaHei-6d" x="1372.314453"/>
     <use xlink:href="#MicrosoftYaHei-70" x="1466.015625"/>
     <use xlink:href="#MicrosoftYaHei-61" x="1528.507812"/>
     <use xlink:href="#MicrosoftYaHei-63" x="1583.78125"/>
     <use xlink:href="#MicrosoftYaHei-74" x="1633.927734"/>
     <use xlink:href="#MicrosoftYaHei-5f" x="1671.183594"/>
     <use xlink:href="#MicrosoftYaHei-63" x="1716.007812"/>
     <use xlink:href="#MicrosoftYaHei-6f" x="1766.154297"/>
     <use xlink:href="#MicrosoftYaHei-6d" x="1829.728516"/>
     <use xlink:href="#MicrosoftYaHei-70" x="1923.429688"/>
     <use xlink:href="#MicrosoftYaHei-6f" x="1987.296875"/>
     <use xlink:href="#MicrosoftYaHei-73" x="2050.871094"/>
     <use xlink:href="#MicrosoftYaHei-69" x="2097.160156"/>
     <use xlink:href="#MicrosoftYaHei-74" x="2123.771484"/>
     <use xlink:href="#MicrosoftYaHei-65" x="2160.152344"/>
     <use xlink:href="#MicrosoftYaHei-20" x="2216.890625"/>
     <use xlink:href="#MicrosoftYaHei-66f4" x="2246.480469"/>
     <use xlink:href="#MicrosoftYaHei-63a5" x="2346.480469"/>
     <use xlink:href="#MicrosoftYaHei-8fd1" x="2446.480469"/>
     <use xlink:href="#MicrosoftYaHei-20" x="2546.480469"/>
     <use xlink:href="#MicrosoftYaHei-32" x="2576.070312"/>
     <use xlink:href="#MicrosoftYaHei-35" x="2634.712891"/>
     <use xlink:href="#MicrosoftYaHei-25" x="2693.355469"/>
     <use xlink:href="#MicrosoftYaHei-20" x="2782.320312"/>
     <use xlink:href="#MicrosoftYaHei-4e14" x="2811.910156"/>
     <use xlink:href="#MicrosoftYaHei-8de8" x="2911.910156"/>
     <use xlink:href="#MicrosoftYaHei-5e74" x="3011.910156"/>
     <use xlink:href="#MicrosoftYaHei-66f4" x="3111.910156"/>
     <use xlink:href="#MicrosoftYaHei-7a33" x="3211.910156"/>
     <use xlink:href="#MicrosoftYaHei-5b9a" x="3311.910156"/>
    </g>
   </g>
   <g id="legend_1">
    <g id="line2d_13">
     <path d="M 318.264531 38.426719 
L 329.264531 38.426719 
L 340.264531 38.426719 
" style="fill: none; stroke-dasharray: 4.44,1.92; stroke-dashoffset: 0; stroke: #c6a15b; stroke-width: 1.2"/>
    </g>
    <g id="text_17">
     <!-- 目标 disrupted share = 25% -->
     <g style="fill: #20323b" transform="translate(349.064531 42.276719) scale(0.11 -0.11)">
      <defs>
       <path id="MicrosoftYaHei-76ee" d="M 944 5016 
L 5469 5016 
L 5469 -772 
L 4938 -772 
L 4938 -303 
L 1475 -303 
L 1475 -772 
L 944 -772 
L 944 5016 
z
M 1475 1341 
L 1475 159 
L 4938 159 
L 4938 1341 
L 1475 1341 
z
M 1475 2947 
L 1475 1778 
L 4938 1778 
L 4938 2947 
L 1475 2947 
z
M 1475 4553 
L 1475 3384 
L 4938 3384 
L 4938 4553 
L 1475 4553 
z
" transform="scale(0.015625)"/>
       <path id="MicrosoftYaHei-6807" d="M 75 1409 
Q 769 2478 1025 3647 
L 119 3647 
L 119 4072 
L 1069 4072 
L 1069 5297 
L 1506 5297 
L 1506 4072 
L 2356 4072 
L 2356 3647 
L 1506 3647 
L 1506 2541 
L 1775 2822 
Q 2175 2478 2481 2159 
L 2150 1816 
Q 1850 2156 1506 2503 
L 1506 -797 
L 1069 -797 
L 1069 2588 
Q 738 1513 281 859 
Q 194 1128 75 1409 
z
M 2350 3097 
L 6250 3097 
L 6250 2659 
L 4525 2659 
L 4525 47 
Q 4525 -734 3806 -734 
Q 3469 -741 2975 -728 
Q 2944 -503 2888 -209 
Q 3319 -259 3675 -259 
Q 4050 -259 4050 203 
L 4050 2659 
L 2350 2659 
L 2350 3097 
z
M 2638 4928 
L 5963 4928 
L 5963 4491 
L 2638 4491 
L 2638 4928 
z
M 4938 1853 
L 5381 2066 
Q 5975 928 6369 72 
L 5869 -147 
Q 5463 822 4938 1853 
z
M 2931 2066 
L 3400 1878 
Q 2888 734 2381 -153 
Q 2188 -41 1925 66 
Q 2425 872 2931 2066 
z
" transform="scale(0.015625)"/>
      </defs>
      <use xlink:href="#MicrosoftYaHei-76ee"/>
      <use xlink:href="#MicrosoftYaHei-6807" x="100"/>
      <use xlink:href="#MicrosoftYaHei-20" x="200"/>
      <use xlink:href="#MicrosoftYaHei-64" x="229.589844"/>
      <use xlink:href="#MicrosoftYaHei-69" x="293.554688"/>
      <use xlink:href="#MicrosoftYaHei-73" x="320.166016"/>
      <use xlink:href="#MicrosoftYaHei-72" x="366.455078"/>
      <use xlink:href="#MicrosoftYaHei-75" x="404.638672"/>
      <use xlink:href="#MicrosoftYaHei-70" x="466.259766"/>
      <use xlink:href="#MicrosoftYaHei-74" x="530.126953"/>
      <use xlink:href="#MicrosoftYaHei-65" x="566.507812"/>
      <use xlink:href="#MicrosoftYaHei-64" x="623.246094"/>
      <use xlink:href="#MicrosoftYaHei-20" x="687.210938"/>
      <use xlink:href="#MicrosoftYaHei-73" x="716.800781"/>
      <use xlink:href="#MicrosoftYaHei-68" x="763.089844"/>
      <use xlink:href="#MicrosoftYaHei-61" x="824.662109"/>
      <use xlink:href="#MicrosoftYaHei-72" x="879.935547"/>
      <use xlink:href="#MicrosoftYaHei-65" x="916.744141"/>
      <use xlink:href="#MicrosoftYaHei-20" x="973.482422"/>
      <use xlink:href="#MicrosoftYaHei-3d" x="1003.072266"/>
      <use xlink:href="#MicrosoftYaHei-20" x="1077.242188"/>
      <use xlink:href="#MicrosoftYaHei-32" x="1106.832031"/>
      <use xlink:href="#MicrosoftYaHei-35" x="1165.474609"/>
      <use xlink:href="#MicrosoftYaHei-25" x="1224.117188"/>
     </g>
    </g>
   </g>
  </g>
 </g>
 <defs>
  <clipPath id="p6a81e599cd">
   <rect x="55.345" y="23.2725" width="448.065" height="337.56375"/>
  </clipPath>
 </defs>
</svg>
