<?xml version="1.0" encoding="utf-8" standalone="no"?>
<!DOCTYPE svg PUBLIC "-//W3C//DTD SVG 1.1//EN"
  "http://www.w3.org/Graphics/SVG/1.1/DTD/svg11.dtd">
<svg xmlns:xlink="http://www.w3.org/1999/xlink" width="541.199687pt" height="405.935781pt" viewBox="0 0 541.199687 405.935781" xmlns="http://www.w3.org/2000/svg" version="1.1">
 <metadata>
  <rdf:RDF xmlns:dc="http://purl.org/dc/elements/1.1/" xmlns:cc="http://creativecommons.org/ns#" xmlns:rdf="http://www.w3.org/1999/02/22-rdf-syntax-ns#">
   <cc:Work>
    <dc:type rdf:resource="http://purl.org/dc/dcmitype/StillImage"/>
    <dc:date>2026-04-20T17:27:13.464008</dc:date>
    <dc:format>image/svg+xml</dc:format>
    <dc:creator>
     <cc:Agent>
      <dc:title>Matplotlib v3.9.2, https://matplotlib.org/</dc:title>
     </cc:Agent>
    </dc:creator>
   </cc:Work>
  </rdf:RDF>
 </metadata>
 <defs>
  <style type="text/css">*{stroke-linejoin: round; stroke-linecap: butt}</style>
 </defs>
 <g id="figure_1">
  <g id="patch_1">
   <path d="M 0 405.935781 
L 541.199687 405.935781 
L 541.199687 0 
L 0 0 
z
" style="fill: #fbf8f1"/>
  </g>
  <g id="axes_1">
   <g id="patch_2">
    <path d="M 55.345 361.1325 
L 503.41 361.1325 
L 503.41 22.7925 
L 55.345 22.7925 
z
" style="fill: #fbf8f1"/>
   </g>
   <g id="matplotlib.axis_1">
    <g id="xtick_1">
     <g id="line2d_1">
      <path d="M 55.345 361.1325 
L 55.345 22.7925 
" clip-path="url(#peac85d122b)" style="fill: none; stroke: #d5cec0; stroke-linecap: round"/>
     </g>
     <g id="text_1">
      <!-- 0.20 -->
      <g style="fill: #20323b" transform="translate(44.345 379.425625) scale(0.11 -0.11)">
       <defs>
        <path id="MicrosoftYaHei-30" d="M 284 2325 
Q 284 3606 709 4264 
Q 1134 4922 1941 4922 
Q 3478 4922 3478 2441 
Q 3478 1216 3045 567 
Q 2613 -81 1831 -81 
Q 1094 -81 689 534 
Q 284 1150 284 2325 
z
M 909 2353 
Q 909 425 1888 425 
Q 2850 425 2850 2384 
Q 2850 4413 1906 4413 
Q 909 4413 909 2353 
z
" transform="scale(0.015625)"/>
        <path id="MicrosoftYaHei-2e" d="M 372 322 
Q 372 491 487 606 
Q 603 722 775 722 
Q 950 722 1065 605 
Q 1181 488 1181 322 
Q 1181 159 1065 42 
Q 950 -75 772 -75 
Q 600 -75 486 42 
Q 372 159 372 322 
z
" transform="scale(0.015625)"/>
        <path id="MicrosoftYaHei-32" d="M 2666 3572 
Q 2666 3963 2419 4186 
Q 2172 4409 1747 4409 
Q 1447 4409 1140 4256 
Q 834 4103 569 3819 
L 569 4413 
Q 806 4659 1107 4790 
Q 1409 4922 1816 4922 
Q 2472 4922 2872 4570 
Q 3272 4219 3272 3619 
Q 3272 3084 3026 2693 
Q 2781 2303 2188 1894 
Q 1581 1475 1376 1294 
Q 1172 1113 1090 947 
Q 1009 781 1009 544 
L 3416 544 
L 3416 0 
L 372 0 
L 372 241 
Q 372 659 486 951 
Q 600 1244 862 1520 
Q 1125 1797 1681 2184 
Q 2250 2584 2458 2886 
Q 2666 3188 2666 3572 
z
" transform="scale(0.015625)"/>
       </defs>
       <use xlink:href="#MicrosoftYaHei-30"/>
       <use xlink:href="#MicrosoftYaHei-2e" x="58.642578"/>
       <use xlink:href="#MicrosoftYaHei-32" x="82.714844"/>
       <use xlink:href="#MicrosoftYaHei-30" x="141.357422"/>
      </g>
     </g>
    </g>
    <g id="xtick_2">
     <g id="line2d_2">
      <path d="M 144.958 361.1325 
L 144.958 22.7925 
" clip-path="url(#peac85d122b)" style="fill: none; stroke: #d5cec0; stroke-linecap: round"/>
     </g>
     <g id="text_2">
      <!-- 0.22 -->
      <g style="fill: #20323b" transform="translate(133.958 379.425625) scale(0.11 -0.11)">
       <use xlink:href="#MicrosoftYaHei-30"/>
       <use xlink:href="#MicrosoftYaHei-2e" x="58.642578"/>
       <use xlink:href="#MicrosoftYaHei-32" x="82.714844"/>
       <use xlink:href="#MicrosoftYaHei-32" x="141.357422"/>
      </g>
     </g>
    </g>
    <g id="xtick_3">
     <g id="line2d_3">
      <path d="M 234.571 361.1325 
L 234.571 22.7925 
" clip-path="url(#peac85d122b)" style="fill: none; stroke: #d5cec0; stroke-linecap: round"/>
     </g>
     <g id="text_3">
      <!-- 0.24 -->
      <g style="fill: #20323b" transform="translate(223.571 379.425625) scale(0.11 -0.11)">
       <defs>
        <path id="MicrosoftYaHei-34" d="M 2906 4841 
L 2906 1644 
L 3631 1644 
L 3631 1138 
L 2906 1138 
L 2906 0 
L 2313 0 
L 2313 1138 
L 53 1138 
L 53 1616 
Q 656 2294 1265 3178 
Q 1875 4063 2272 4841 
L 2906 4841 
z
M 741 1644 
L 2313 1644 
L 2313 3950 
Q 1988 3366 1616 2817 
Q 1244 2269 741 1644 
z
" transform="scale(0.015625)"/>
       </defs>
       <use xlink:href="#MicrosoftYaHei-30"/>
       <use xlink:href="#MicrosoftYaHei-2e" x="58.642578"/>
       <use xlink:href="#MicrosoftYaHei-32" x="82.714844"/>
       <use xlink:href="#MicrosoftYaHei-34" x="141.357422"/>
      </g>
     </g>
    </g>
    <g id="xtick_4">
     <g id="line2d_4">
      <path d="M 324.184 361.1325 
L 324.184 22.7925 
" clip-path="url(#peac85d122b)" style="fill: none; stroke: #d5cec0; stroke-linecap: round"/>
     </g>
     <g id="text_4">
      <!-- 0.26 -->
      <g style="fill: #20323b" transform="translate(313.184 379.425625) scale(0.11 -0.11)">
       <defs>
        <path id="MicrosoftYaHei-36" d="M 3181 4219 
Q 2803 4413 2391 4413 
Q 1763 4413 1381 3866 
Q 1000 3319 994 2372 
L 1009 2372 
Q 1353 3038 2106 3038 
Q 2734 3038 3109 2628 
Q 3484 2219 3484 1541 
Q 3484 831 3051 375 
Q 2619 -81 1947 -81 
Q 1209 -81 789 495 
Q 369 1072 369 2131 
Q 369 3413 920 4167 
Q 1472 4922 2372 4922 
Q 2888 4922 3181 4781 
L 3181 4219 
z
M 1031 1584 
Q 1031 1106 1286 765 
Q 1541 425 1963 425 
Q 2363 425 2613 719 
Q 2863 1013 2863 1475 
Q 2863 1975 2627 2253 
Q 2391 2531 1956 2531 
Q 1544 2531 1287 2250 
Q 1031 1969 1031 1584 
z
" transform="scale(0.015625)"/>
       </defs>
       <use xlink:href="#MicrosoftYaHei-30"/>
       <use xlink:href="#MicrosoftYaHei-2e" x="58.642578"/>
       <use xlink:href="#MicrosoftYaHei-32" x="82.714844"/>
       <use xlink:href="#MicrosoftYaHei-36" x="141.357422"/>
      </g>
     </g>
    </g>
    <g id="xtick_5">
     <g id="line2d_5">
      <path d="M 413.797 361.1325 
L 413.797 22.7925 
" clip-path="url(#peac85d122b)" style="fill: none; stroke: #d5cec0; stroke-linecap: round"/>
     </g>
     <g id="text_5">
      <!-- 0.28 -->
      <g style="fill: #20323b" transform="translate(402.797 379.425625) scale(0.11 -0.11)">
       <defs>
        <path id="MicrosoftYaHei-38" d="M 306 1350 
Q 306 1769 556 2122 
Q 806 2475 1200 2625 
Q 884 2803 700 3081 
Q 516 3359 516 3684 
Q 516 4028 692 4312 
Q 869 4597 1183 4759 
Q 1497 4922 1875 4922 
Q 2256 4922 2572 4761 
Q 2888 4600 3063 4315 
Q 3238 4031 3238 3684 
Q 3238 3366 3058 3086 
Q 2878 2806 2559 2625 
Q 2953 2472 3200 2119 
Q 3447 1766 3447 1350 
Q 3447 938 3250 611 
Q 3053 284 2690 103 
Q 2328 -78 1875 -78 
Q 1425 -78 1065 103 
Q 706 284 506 612 
Q 306 941 306 1350 
z
M 906 1378 
Q 906 947 1172 687 
Q 1438 428 1878 428 
Q 2309 428 2582 692 
Q 2856 956 2856 1378 
Q 2856 1778 2579 2051 
Q 2303 2325 1878 2325 
Q 1456 2325 1181 2058 
Q 906 1791 906 1378 
z
M 1081 3634 
Q 1081 3309 1312 3076 
Q 1544 2844 1878 2844 
Q 2206 2844 2445 3078 
Q 2684 3313 2684 3634 
Q 2684 3963 2454 4191 
Q 2225 4419 1878 4419 
Q 1534 4419 1307 4195 
Q 1081 3972 1081 3634 
z
" transform="scale(0.015625)"/>
       </defs>
       <use xlink:href="#MicrosoftYaHei-30"/>
       <use xlink:href="#MicrosoftYaHei-2e" x="58.642578"/>
       <use xlink:href="#MicrosoftYaHei-32" x="82.714844"/>
       <use xlink:href="#MicrosoftYaHei-38" x="141.357422"/>
      </g>
     </g>
    </g>
    <g id="xtick_6">
     <g id="line2d_6">
      <path d="M 503.41 361.1325 
L 503.41 22.7925 
" clip-path="url(#peac85d122b)" style="fill: none; stroke: #d5cec0; stroke-linecap: round"/>
     </g>
     <g id="text_6">
      <!-- 0.30 -->
      <g style="fill: #20323b" transform="translate(492.41 379.425625) scale(0.11 -0.11)">
       <defs>
        <path id="MicrosoftYaHei-33" d="M 447 809 
Q 944 425 1569 425 
Q 2069 425 2361 670 
Q 2653 916 2653 1328 
Q 2653 2247 1338 2247 
L 934 2247 
L 934 2753 
L 1319 2753 
Q 2484 2753 2484 3616 
Q 2484 4413 1594 4413 
Q 1084 4413 634 4069 
L 634 4647 
Q 1109 4922 1744 4922 
Q 2363 4922 2738 4598 
Q 3113 4275 3113 3759 
Q 3113 2809 2144 2538 
L 2144 2525 
Q 2669 2469 2973 2155 
Q 3278 1841 3278 1372 
Q 3278 719 2808 319 
Q 2338 -81 1556 -81 
Q 869 -81 447 175 
L 447 809 
z
" transform="scale(0.015625)"/>
       </defs>
       <use xlink:href="#MicrosoftYaHei-30"/>
       <use xlink:href="#MicrosoftYaHei-2e" x="58.642578"/>
       <use xlink:href="#MicrosoftYaHei-33" x="82.714844"/>
       <use xlink:href="#MicrosoftYaHei-30" x="141.357422"/>
      </g>
     </g>
    </g>
    <g id="text_7">
     <!-- Disrupted share -->
     <g style="fill: #20323b" transform="translate(234.009062 395.752656) scale(0.12 -0.12)">
      <defs>
       <path id="MicrosoftYaHei-44" d="M 625 0 
L 625 4841 
L 2006 4841 
Q 3106 4841 3836 4200 
Q 4566 3559 4566 2481 
Q 4566 1356 3836 678 
Q 3106 0 1956 0 
L 625 0 
z
M 1250 4284 
L 1250 553 
L 1953 553 
Q 2875 553 3392 1056 
Q 3909 1559 3909 2466 
Q 3909 3372 3378 3828 
Q 2847 4284 1981 4284 
L 1250 4284 
z
" transform="scale(0.015625)"/>
       <path id="MicrosoftYaHei-69" d="M 472 4675 
Q 472 4838 583 4948 
Q 694 5059 856 5059 
Q 1022 5059 1136 4950 
Q 1250 4841 1250 4675 
Q 1250 4513 1136 4405 
Q 1022 4297 856 4297 
Q 691 4297 581 4405 
Q 472 4513 472 4675 
z
M 544 0 
L 544 3456 
L 1156 3456 
L 1156 0 
L 544 0 
z
" transform="scale(0.015625)"/>
       <path id="MicrosoftYaHei-73" d="M 353 747 
Q 816 413 1350 413 
Q 2066 413 2066 881 
Q 2066 1081 1909 1211 
Q 1753 1341 1275 1519 
Q 700 1750 528 1976 
Q 356 2203 356 2525 
Q 356 2984 745 3261 
Q 1134 3538 1703 3538 
Q 2144 3538 2522 3384 
L 2522 2794 
Q 2134 3044 1644 3044 
Q 1350 3044 1165 2916 
Q 981 2788 981 2578 
Q 981 2372 1114 2256 
Q 1247 2141 1703 1959 
Q 2281 1744 2484 1512 
Q 2688 1281 2688 941 
Q 2688 466 2298 192 
Q 1909 -81 1291 -81 
Q 753 -81 353 122 
L 353 747 
z
" transform="scale(0.015625)"/>
       <path id="MicrosoftYaHei-72" d="M 2400 2850 
Q 2247 2959 1978 2959 
Q 1622 2959 1390 2626 
Q 1159 2294 1159 1750 
L 1159 0 
L 547 0 
L 547 3456 
L 1159 3456 
L 1159 2753 
L 1172 2753 
Q 1434 3516 2078 3516 
Q 2288 3516 2400 3469 
L 2400 2850 
z
" transform="scale(0.015625)"/>
       <path id="MicrosoftYaHei-75" d="M 3400 0 
L 2784 0 
L 2784 544 
L 2772 544 
Q 2425 -81 1706 -81 
Q 478 -81 478 1388 
L 478 3456 
L 1084 3456 
L 1084 1478 
Q 1084 425 1891 425 
Q 2291 425 2537 720 
Q 2784 1016 2784 1466 
L 2784 3456 
L 3400 3456 
L 3400 0 
z
" transform="scale(0.015625)"/>
       <path id="MicrosoftYaHei-70" d="M 1159 488 
L 1159 -1591 
L 547 -1591 
L 547 3456 
L 1159 3456 
L 1159 2859 
L 1172 2859 
Q 1578 3538 2359 3538 
Q 3022 3538 3398 3073 
Q 3775 2609 3775 1828 
Q 3775 966 3348 442 
Q 2922 -81 2200 -81 
Q 1534 -81 1172 488 
L 1159 488 
z
M 1156 1425 
Q 1156 1003 1428 714 
Q 1700 425 2109 425 
Q 2597 425 2872 800 
Q 3147 1175 3147 1838 
Q 3147 2397 2890 2714 
Q 2634 3031 2191 3031 
Q 1738 3031 1447 2709 
Q 1156 2388 1156 1884 
L 1156 1425 
z
" transform="scale(0.015625)"/>
       <path id="MicrosoftYaHei-74" d="M 2206 34 
Q 2006 -75 1666 -75 
Q 738 -75 738 953 
L 738 2950 
L 144 2950 
L 144 3456 
L 738 3456 
L 738 4288 
L 1347 4481 
L 1347 3456 
L 2206 3456 
L 2206 2950 
L 1347 2950 
L 1347 1063 
Q 1347 722 1462 575 
Q 1578 428 1847 428 
Q 2053 428 2206 544 
L 2206 34 
z
" transform="scale(0.015625)"/>
       <path id="MicrosoftYaHei-65" d="M 3363 1572 
L 944 1572 
Q 959 1019 1246 717 
Q 1534 416 2050 416 
Q 2631 416 3116 788 
L 3116 241 
Q 2659 -81 1906 -81 
Q 1156 -81 736 394 
Q 316 869 316 1713 
Q 316 2506 777 3022 
Q 1238 3538 1922 3538 
Q 2600 3538 2981 3102 
Q 3363 2666 3363 1881 
L 3363 1572 
z
M 2750 2063 
Q 2747 2531 2528 2787 
Q 2309 3044 1913 3044 
Q 1547 3044 1280 2772 
Q 1013 2500 944 2063 
L 2750 2063 
z
" transform="scale(0.015625)"/>
       <path id="MicrosoftYaHei-64" d="M 3547 0 
L 2934 0 
L 2934 575 
L 2922 575 
Q 2544 -81 1747 -81 
Q 1091 -81 703 386 
Q 316 853 316 1647 
Q 316 2503 753 3020 
Q 1191 3538 1897 3538 
Q 2603 3538 2922 2988 
L 2934 2988 
L 2934 5116 
L 3547 5116 
L 3547 0 
z
M 2938 2056 
Q 2938 2472 2664 2751 
Q 2391 3031 1991 3031 
Q 1503 3031 1222 2667 
Q 941 2303 941 1675 
Q 941 1097 1211 761 
Q 1481 425 1931 425 
Q 2375 425 2656 754 
Q 2938 1084 2938 1575 
L 2938 2056 
z
" transform="scale(0.015625)"/>
       <path id="MicrosoftYaHei-20" transform="scale(0.015625)"/>
       <path id="MicrosoftYaHei-68" d="M 3466 0 
L 2856 0 
L 2856 1988 
Q 2856 3031 2081 3031 
Q 1684 3031 1421 2726 
Q 1159 2422 1159 1959 
L 1159 0 
L 547 0 
L 547 5116 
L 1159 5116 
L 1159 2888 
L 1172 2888 
Q 1569 3538 2300 3538 
Q 3466 3538 3466 2128 
L 3466 0 
z
" transform="scale(0.015625)"/>
       <path id="MicrosoftYaHei-61" d="M 628 3216 
Q 1144 3538 1819 3538 
Q 3069 3538 3069 2225 
L 3069 0 
L 2463 0 
L 2463 534 
L 2447 534 
Q 2088 -81 1388 -81 
Q 884 -81 587 191 
Q 291 463 291 925 
Q 291 1894 1438 2053 
L 2463 2197 
Q 2463 3044 1763 3044 
Q 1141 3044 628 2625 
L 628 3216 
z
M 1653 1625 
Q 1228 1569 1067 1412 
Q 906 1256 906 975 
Q 906 728 1081 572 
Q 1256 416 1544 416 
Q 1944 416 2203 697 
Q 2463 978 2463 1403 
L 2463 1734 
L 1653 1625 
z
" transform="scale(0.015625)"/>
      </defs>
      <use xlink:href="#MicrosoftYaHei-44"/>
      <use xlink:href="#MicrosoftYaHei-69" x="76.171875"/>
      <use xlink:href="#MicrosoftYaHei-73" x="102.783203"/>
      <use xlink:href="#MicrosoftYaHei-72" x="149.072266"/>
      <use xlink:href="#MicrosoftYaHei-75" x="187.255859"/>
      <use xlink:href="#MicrosoftYaHei-70" x="248.876953"/>
      <use xlink:href="#MicrosoftYaHei-74" x="312.744141"/>
      <use xlink:href="#MicrosoftYaHei-65" x="349.125"/>
      <use xlink:href="#MicrosoftYaHei-64" x="405.863281"/>
      <use xlink:href="#MicrosoftYaHei-20" x="469.828125"/>
      <use xlink:href="#MicrosoftYaHei-73" x="499.417969"/>
      <use xlink:href="#MicrosoftYaHei-68" x="545.707031"/>
      <use xlink:href="#MicrosoftYaHei-61" x="607.279297"/>
      <use xlink:href="#MicrosoftYaHei-72" x="662.552734"/>
      <use xlink:href="#MicrosoftYaHei-65" x="699.361328"/>
     </g>
    </g>
   </g>
   <g id="matplotlib.axis_2">
    <g id="ytick_1">
     <g id="line2d_7">
      <path d="M 55.345 361.1325 
L 503.41 361.1325 
" clip-path="url(#peac85d122b)" style="fill: none; stroke: #d5cec0; stroke-linecap: round"/>
     </g>
     <g id="text_8">
      <!-- 0.00 -->
      <g style="fill: #20323b" transform="translate(23.845 365.529062) scale(0.11 -0.11)">
       <use xlink:href="#MicrosoftYaHei-30"/>
       <use xlink:href="#MicrosoftYaHei-2e" x="58.642578"/>
       <use xlink:href="#MicrosoftYaHei-30" x="82.714844"/>
       <use xlink:href="#MicrosoftYaHei-30" x="141.357422"/>
      </g>
     </g>
    </g>
    <g id="ytick_2">
     <g id="line2d_8">
      <path d="M 55.345 288.503581 
L 503.41 288.503581 
" clip-path="url(#peac85d122b)" style="fill: none; stroke: #d5cec0; stroke-linecap: round"/>
     </g>
     <g id="text_9">
      <!-- 0.05 -->
      <g style="fill: #20323b" transform="translate(23.845 292.900144) scale(0.11 -0.11)">
       <defs>
        <path id="MicrosoftYaHei-35" d="M 3294 1494 
Q 3294 784 2823 350 
Q 2353 -84 1559 -84 
Q 878 -84 544 119 
L 544 744 
Q 1034 425 1544 425 
Q 2050 425 2361 704 
Q 2672 984 2672 1447 
Q 2672 1909 2348 2167 
Q 2025 2425 1434 2425 
Q 978 2425 613 2384 
L 791 4841 
L 3053 4841 
L 3053 4303 
L 1306 4303 
L 1206 2931 
L 1647 2950 
Q 2416 2950 2855 2567 
Q 3294 2184 3294 1494 
z
" transform="scale(0.015625)"/>
       </defs>
       <use xlink:href="#MicrosoftYaHei-30"/>
       <use xlink:href="#MicrosoftYaHei-2e" x="58.642578"/>
       <use xlink:href="#MicrosoftYaHei-30" x="82.714844"/>
       <use xlink:href="#MicrosoftYaHei-35" x="141.357422"/>
      </g>
     </g>
    </g>
    <g id="ytick_3">
     <g id="line2d_9">
      <path d="M 55.345 215.874662 
L 503.41 215.874662 
" clip-path="url(#peac85d122b)" style="fill: none; stroke: #d5cec0; stroke-linecap: round"/>
     </g>
     <g id="text_10">
      <!-- 0.10 -->
      <g style="fill: #20323b" transform="translate(23.845 220.271225) scale(0.11 -0.11)">
       <defs>
        <path id="MicrosoftYaHei-31" d="M 1781 0 
L 1781 4141 
Q 1638 3997 1295 3819 
Q 953 3641 663 3569 
L 663 4169 
Q 1047 4275 1484 4508 
Q 1922 4741 2156 4947 
L 2388 4947 
L 2388 0 
L 1781 0 
z
" transform="scale(0.015625)"/>
       </defs>
       <use xlink:href="#MicrosoftYaHei-30"/>
       <use xlink:href="#MicrosoftYaHei-2e" x="58.642578"/>
       <use xlink:href="#MicrosoftYaHei-31" x="82.714844"/>
       <use xlink:href="#MicrosoftYaHei-30" x="141.357422"/>
      </g>
     </g>
    </g>
    <g id="ytick_4">
     <g id="line2d_10">
      <path d="M 55.345 143.245743 
L 503.41 143.245743 
" clip-path="url(#peac85d122b)" style="fill: none; stroke: #d5cec0; stroke-linecap: round"/>
     </g>
     <g id="text_11">
      <!-- 0.15 -->
      <g style="fill: #20323b" transform="translate(23.845 147.642306) scale(0.11 -0.11)">
       <use xlink:href="#MicrosoftYaHei-30"/>
       <use xlink:href="#MicrosoftYaHei-2e" x="58.642578"/>
       <use xlink:href="#MicrosoftYaHei-31" x="82.714844"/>
       <use xlink:href="#MicrosoftYaHei-35" x="141.357422"/>
      </g>
     </g>
    </g>
    <g id="ytick_5">
     <g id="line2d_11">
      <path d="M 55.345 70.616824 
L 503.41 70.616824 
" clip-path="url(#peac85d122b)" style="fill: none; stroke: #d5cec0; stroke-linecap: round"/>
     </g>
     <g id="text_12">
      <!-- 0.20 -->
      <g style="fill: #20323b" transform="translate(23.845 75.013387) scale(0.11 -0.11)">
       <use xlink:href="#MicrosoftYaHei-30"/>
       <use xlink:href="#MicrosoftYaHei-2e" x="58.642578"/>
       <use xlink:href="#MicrosoftYaHei-32" x="82.714844"/>
       <use xlink:href="#MicrosoftYaHei-30" x="141.357422"/>
      </g>
     </g>
    </g>
    <g id="text_13">
     <!-- Yearly disrupted-share std -->
     <g style="fill: #20323b" transform="translate(16.7925 266.575312) rotate(-90) scale(0.12 -0.12)">
      <defs>
       <path id="MicrosoftYaHei-59" d="M 3828 4841 
L 2234 1781 
L 2234 0 
L 1606 0 
L 1606 1766 
L 53 4841 
L 769 4841 
L 1816 2697 
Q 1819 2694 1931 2388 
L 1941 2388 
Q 1978 2519 2069 2694 
L 3163 4841 
L 3828 4841 
z
" transform="scale(0.015625)"/>
       <path id="MicrosoftYaHei-6c" d="M 544 0 
L 544 5116 
L 1156 5116 
L 1156 0 
L 544 0 
z
" transform="scale(0.015625)"/>
       <path id="MicrosoftYaHei-79" d="M 3359 3456 
L 1791 -522 
Q 1353 -1628 556 -1628 
Q 328 -1628 166 -1578 
L 166 -1041 
Q 344 -1109 509 -1109 
Q 925 -1109 1131 -622 
L 1397 6 
L 41 3456 
L 719 3456 
L 1622 859 
L 1697 575 
L 1713 575 
Q 1731 672 1788 853 
L 2731 3456 
L 3359 3456 
z
" transform="scale(0.015625)"/>
       <path id="MicrosoftYaHei-2d" d="M 2328 1681 
L 488 1681 
L 488 2153 
L 2328 2153 
L 2328 1681 
z
" transform="scale(0.015625)"/>
      </defs>
      <use xlink:href="#MicrosoftYaHei-59"/>
      <use xlink:href="#MicrosoftYaHei-65" x="50.851562"/>
      <use xlink:href="#MicrosoftYaHei-61" x="107.589844"/>
      <use xlink:href="#MicrosoftYaHei-72" x="162.863281"/>
      <use xlink:href="#MicrosoftYaHei-6c" x="201.046875"/>
      <use xlink:href="#MicrosoftYaHei-79" x="227.658203"/>
      <use xlink:href="#MicrosoftYaHei-20" x="280.587891"/>
      <use xlink:href="#MicrosoftYaHei-64" x="310.177734"/>
      <use xlink:href="#MicrosoftYaHei-69" x="374.142578"/>
      <use xlink:href="#MicrosoftYaHei-73" x="400.753906"/>
      <use xlink:href="#MicrosoftYaHei-72" x="447.042969"/>
      <use xlink:href="#MicrosoftYaHei-75" x="485.226562"/>
      <use xlink:href="#MicrosoftYaHei-70" x="546.847656"/>
      <use xlink:href="#MicrosoftYaHei-74" x="610.714844"/>
      <use xlink:href="#MicrosoftYaHei-65" x="647.095703"/>
      <use xlink:href="#MicrosoftYaHei-64" x="703.833984"/>
      <use xlink:href="#MicrosoftYaHei-2d" x="767.798828"/>
      <use xlink:href="#MicrosoftYaHei-73" x="811.060547"/>
      <use xlink:href="#MicrosoftYaHei-68" x="857.349609"/>
      <use xlink:href="#MicrosoftYaHei-61" x="918.921875"/>
      <use xlink:href="#MicrosoftYaHei-72" x="974.195312"/>
      <use xlink:href="#MicrosoftYaHei-65" x="1011.003906"/>
      <use xlink:href="#MicrosoftYaHei-20" x="1067.742188"/>
      <use xlink:href="#MicrosoftYaHei-73" x="1097.332031"/>
      <use xlink:href="#MicrosoftYaHei-74" x="1143.621094"/>
      <use xlink:href="#MicrosoftYaHei-64" x="1179.501953"/>
     </g>
    </g>
   </g>
   <g id="line2d_12">
    <path d="M 279.3775 361.1325 
L 279.3775 22.7925 
" clip-path="url(#peac85d122b)" style="fill: none; stroke-dasharray: 4.44,1.92; stroke-dashoffset: 0; stroke: #c6a15b; stroke-width: 1.2"/>
   </g>
   <g id="patch_3">
    <path d="M 55.345 361.1325 
L 55.345 22.7925 
" style="fill: none; stroke: #d5cec0; stroke-width: 1.25; stroke-linejoin: miter; stroke-linecap: square"/>
   </g>
   <g id="patch_4">
    <path d="M 503.41 361.1325 
L 503.41 22.7925 
" style="fill: none; stroke: #d5cec0; stroke-width: 1.25; stroke-linejoin: miter; stroke-linecap: square"/>
   </g>
   <g id="patch_5">
    <path d="M 55.345 361.1325 
L 503.41 361.1325 
" style="fill: none; stroke: #d5cec0; stroke-width: 1.25; stroke-linejoin: miter; stroke-linecap: square"/>
   </g>
   <g id="patch_6">
    <path d="M 55.345 22.7925 
L 503.41 22.7925 
" style="fill: none; stroke: #d5cec0; stroke-width: 1.25; stroke-linejoin: miter; stroke-linecap: square"/>
   </g>
   <g id="PathCollection_1">
    <defs>
     <path id="me8f1a193aa" d="M 0 6.123724 
C 1.624031 6.123724 3.181764 5.47849 4.330127 4.330127 
C 5.47849 3.181764 6.123724 1.624031 6.123724 0 
C 6.123724 -1.624031 5.47849 -3.181764 4.330127 -4.330127 
C 3.181764 -5.47849 1.624031 -6.123724 0 -6.123724 
C -1.624031 -6.123724 -3.181764 -5.47849 -4.330127 -4.330127 
C -5.47849 -3.181764 -6.123724 -1.624031 -6.123724 0 
C -6.123724 1.624031 -5.47849 3.181764 -4.330127 4.330127 
C -3.181764 5.47849 -1.624031 6.123724 0 6.123724 
z
" style="stroke: #c66a2b"/>
    </defs>
    <g clip-path="url(#peac85d122b)">
     <use xlink:href="#me8f1a193aa" x="279.3775" y="140.129737" style="fill: #c66a2b; stroke: #c66a2b"/>
    </g>
   </g>
   <g id="text_14">
    <!-- delay_cancel_impact_composite -->
    <g style="fill: #20323b" transform="translate(315.2227 126.293518) scale(0.09 -0.09)">
     <defs>
      <path id="MicrosoftYaHei-5f" d="M 2869 -1634 
L 0 -1634 
L 0 -1231 
L 2869 -1231 
L 2869 -1634 
z
" transform="scale(0.015625)"/>
      <path id="MicrosoftYaHei-63" d="M 2934 156 
Q 2538 -81 1978 -81 
Q 1228 -81 772 400 
Q 316 881 316 1647 
Q 316 2497 808 3017 
Q 1300 3538 2125 3538 
Q 2600 3538 2938 3369 
L 2938 2763 
Q 2572 3031 2125 3031 
Q 1600 3031 1270 2667 
Q 941 2303 941 1697 
Q 941 1100 1252 762 
Q 1563 425 2091 425 
Q 2538 425 2934 719 
L 2934 156 
z
" transform="scale(0.015625)"/>
      <path id="MicrosoftYaHei-6e" d="M 3469 0 
L 2859 0 
L 2859 1966 
Q 2859 3031 2081 3031 
Q 1678 3031 1418 2731 
Q 1159 2431 1159 1972 
L 1159 0 
L 547 0 
L 547 3456 
L 1159 3456 
L 1159 2884 
L 1172 2884 
Q 1563 3538 2306 3538 
Q 2875 3538 3172 3173 
Q 3469 2809 3469 2113 
L 3469 0 
z
" transform="scale(0.015625)"/>
      <path id="MicrosoftYaHei-6d" d="M 5522 0 
L 4909 0 
L 4909 1984 
Q 4909 2547 4734 2789 
Q 4559 3031 4159 3031 
Q 3822 3031 3581 2715 
Q 3341 2400 3341 1969 
L 3341 0 
L 2728 0 
L 2728 2047 
Q 2728 3031 1969 3031 
Q 1619 3031 1389 2731 
Q 1159 2431 1159 1966 
L 1159 0 
L 547 0 
L 547 3456 
L 1159 3456 
L 1159 2909 
L 1172 2909 
Q 1541 3538 2250 3538 
Q 2597 3538 2862 3347 
Q 3128 3156 3231 2831 
Q 3616 3538 4381 3538 
Q 5522 3538 5522 2131 
L 5522 0 
z
" transform="scale(0.015625)"/>
      <path id="MicrosoftYaHei-6f" d="M 316 1691 
Q 316 2547 794 3042 
Q 1272 3538 2091 3538 
Q 2869 3538 3311 3061 
Q 3753 2584 3753 1744 
Q 3753 925 3281 422 
Q 2809 -81 2016 -81 
Q 1241 -81 778 406 
Q 316 894 316 1691 
z
M 941 1709 
Q 941 1113 1242 769 
Q 1544 425 2053 425 
Q 2578 425 2853 761 
Q 3128 1097 3128 1725 
Q 3128 2356 2853 2693 
Q 2578 3031 2053 3031 
Q 1538 3031 1239 2678 
Q 941 2325 941 1709 
z
" transform="scale(0.015625)"/>
     </defs>
     <use xlink:href="#MicrosoftYaHei-64"/>
     <use xlink:href="#MicrosoftYaHei-65" x="63.964844"/>
     <use xlink:href="#MicrosoftYaHei-6c" x="120.703125"/>
     <use xlink:href="#MicrosoftYaHei-61" x="147.314453"/>
     <use xlink:href="#MicrosoftYaHei-79" x="202.587891"/>
     <use xlink:href="#MicrosoftYaHei-5f" x="255.517578"/>
     <use xlink:href="#MicrosoftYaHei-63" x="300.341797"/>
     <use xlink:href="#MicrosoftYaHei-61" x="350.488281"/>
     <use xlink:href="#MicrosoftYaHei-6e" x="405.761719"/>
     <use xlink:href="#MicrosoftYaHei-63" x="467.382812"/>
     <use xlink:href="#MicrosoftYaHei-65" x="517.529297"/>
     <use xlink:href="#MicrosoftYaHei-6c" x="574.267578"/>
     <use xlink:href="#MicrosoftYaHei-5f" x="600.878906"/>
     <use xlink:href="#MicrosoftYaHei-69" x="645.703125"/>
     <use xlink:href="#MicrosoftYaHei-6d" x="672.314453"/>
     <use xlink:href="#MicrosoftYaHei-70" x="766.015625"/>
     <use xlink:href="#MicrosoftYaHei-61" x="828.507812"/>
     <use xlink:href="#MicrosoftYaHei-63" x="883.78125"/>
     <use xlink:href="#MicrosoftYaHei-74" x="933.927734"/>
     <use xlink:href="#MicrosoftYaHei-5f" x="971.183594"/>
     <use xlink:href="#MicrosoftYaHei-63" x="1016.007812"/>
     <use xlink:href="#MicrosoftYaHei-6f" x="1066.154297"/>
     <use xlink:href="#MicrosoftYaHei-6d" x="1129.728516"/>
     <use xlink:href="#MicrosoftYaHei-70" x="1223.429688"/>
     <use xlink:href="#MicrosoftYaHei-6f" x="1287.296875"/>
     <use xlink:href="#MicrosoftYaHei-73" x="1350.871094"/>
     <use xlink:href="#MicrosoftYaHei-69" x="1397.160156"/>
     <use xlink:href="#MicrosoftYaHei-74" x="1423.771484"/>
     <use xlink:href="#MicrosoftYaHei-65" x="1460.152344"/>
    </g>
    <!-- share=0.25, std=0.152 -->
    <g style="fill: #20323b" transform="translate(315.2227 137.224581) scale(0.09 -0.09)">
     <defs>
      <path id="MicrosoftYaHei-3d" d="M 3972 2497 
L 788 2497 
L 788 2969 
L 3972 2969 
L 3972 2497 
z
M 3972 1053 
L 788 1053 
L 788 1525 
L 3972 1525 
L 3972 1053 
z
" transform="scale(0.015625)"/>
      <path id="MicrosoftYaHei-2c" d="M 1109 778 
L 575 -888 
L 131 -888 
L 519 778 
L 1109 778 
z
" transform="scale(0.015625)"/>
     </defs>
     <use xlink:href="#MicrosoftYaHei-73"/>
     <use xlink:href="#MicrosoftYaHei-68" x="46.289062"/>
     <use xlink:href="#MicrosoftYaHei-61" x="107.861328"/>
     <use xlink:href="#MicrosoftYaHei-72" x="163.134766"/>
     <use xlink:href="#MicrosoftYaHei-65" x="199.943359"/>
     <use xlink:href="#MicrosoftYaHei-3d" x="256.681641"/>
     <use xlink:href="#MicrosoftYaHei-30" x="330.851562"/>
     <use xlink:href="#MicrosoftYaHei-2e" x="389.494141"/>
     <use xlink:href="#MicrosoftYaHei-32" x="413.566406"/>
     <use xlink:href="#MicrosoftYaHei-35" x="472.208984"/>
     <use xlink:href="#MicrosoftYaHei-2c" x="530.851562"/>
     <use xlink:href="#MicrosoftYaHei-20" x="554.923828"/>
     <use xlink:href="#MicrosoftYaHei-73" x="584.513672"/>
     <use xlink:href="#MicrosoftYaHei-74" x="630.802734"/>
     <use xlink:href="#MicrosoftYaHei-64" x="666.683594"/>
     <use xlink:href="#MicrosoftYaHei-3d" x="730.648438"/>
     <use xlink:href="#MicrosoftYaHei-30" x="804.818359"/>
     <use xlink:href="#MicrosoftYaHei-2e" x="863.460938"/>
     <use xlink:href="#MicrosoftYaHei-31" x="887.533203"/>
     <use xlink:href="#MicrosoftYaHei-35" x="946.175781"/>
     <use xlink:href="#MicrosoftYaHei-32" x="1004.818359"/>
    </g>
   </g>
   <g id="PathCollection_2">
    <defs>
     <path id="m9c5ffd9072" d="M 0 5.244044 
C 1.390737 5.244044 2.7247 4.691499 3.708099 3.708099 
C 4.691499 2.7247 5.244044 1.390737 5.244044 0 
C 5.244044 -1.390737 4.691499 -2.7247 3.708099 -3.708099 
C 2.7247 -4.691499 1.390737 -5.244044 0 -5.244044 
C -1.390737 -5.244044 -2.7247 -4.691499 -3.708099 -3.708099 
C -4.691499 -2.7247 -5.244044 -1.390737 -5.244044 0 
C -5.244044 1.390737 -4.691499 2.7247 -3.708099 3.708099 
C -2.7247 4.691499 -1.390737 5.244044 0 5.244044 
z
" style="stroke: #61727b"/>
    </defs>
    <g clip-path="url(#peac85d122b)">
     <use xlink:href="#m9c5ffd9072" x="279.3775" y="90.4605" style="fill: #61727b; stroke: #61727b"/>
    </g>
   </g>
   <g id="text_15">
    <!-- impact_q75 -->
    <g style="fill: #20323b" transform="translate(315.2227 76.624281) scale(0.09 -0.09)">
     <defs>
      <path id="MicrosoftYaHei-71" d="M 3547 -1591 
L 2934 -1591 
L 2934 581 
L 2922 581 
Q 2559 -81 1753 -81 
Q 1100 -81 708 380 
Q 316 841 316 1647 
Q 316 2506 747 3022 
Q 1178 3538 1903 3538 
Q 2603 3538 2922 2988 
L 2934 2988 
L 2934 3456 
L 3547 3456 
L 3547 -1591 
z
M 2934 2044 
Q 2938 2453 2673 2742 
Q 2409 3031 1984 3031 
Q 1497 3031 1219 2668 
Q 941 2306 941 1663 
Q 941 1081 1208 753 
Q 1475 425 1909 425 
Q 2384 425 2661 751 
Q 2938 1078 2934 1566 
L 2934 2044 
z
" transform="scale(0.015625)"/>
      <path id="MicrosoftYaHei-37" d="M 3422 4463 
Q 2659 3131 2223 1998 
Q 1788 866 1684 0 
L 1047 0 
Q 1163 853 1594 1947 
Q 2025 3041 2747 4300 
L 347 4300 
L 347 4841 
L 3422 4841 
L 3422 4463 
z
" transform="scale(0.015625)"/>
     </defs>
     <use xlink:href="#MicrosoftYaHei-69"/>
     <use xlink:href="#MicrosoftYaHei-6d" x="26.611328"/>
     <use xlink:href="#MicrosoftYaHei-70" x="120.3125"/>
     <use xlink:href="#MicrosoftYaHei-61" x="182.804688"/>
     <use xlink:href="#MicrosoftYaHei-63" x="238.078125"/>
     <use xlink:href="#MicrosoftYaHei-74" x="288.224609"/>
     <use xlink:href="#MicrosoftYaHei-5f" x="325.480469"/>
     <use xlink:href="#MicrosoftYaHei-71" x="370.304688"/>
     <use xlink:href="#MicrosoftYaHei-37" x="434.269531"/>
     <use xlink:href="#MicrosoftYaHei-35" x="492.912109"/>
    </g>
    <!-- share=0.25, std=0.186 -->
    <g style="fill: #20323b" transform="translate(315.2227 87.555343) scale(0.09 -0.09)">
     <use xlink:href="#MicrosoftYaHei-73"/>
     <use xlink:href="#MicrosoftYaHei-68" x="46.289062"/>
     <use xlink:href="#MicrosoftYaHei-61" x="107.861328"/>
     <use xlink:href="#MicrosoftYaHei-72" x="163.134766"/>
     <use xlink:href="#MicrosoftYaHei-65" x="199.943359"/>
     <use xlink:href="#MicrosoftYaHei-3d" x="256.681641"/>
     <use xlink:href="#MicrosoftYaHei-30" x="330.851562"/>
     <use xlink:href="#MicrosoftYaHei-2e" x="389.494141"/>
     <use xlink:href="#MicrosoftYaHei-32" x="413.566406"/>
     <use xlink:href="#MicrosoftYaHei-35" x="472.208984"/>
     <use xlink:href="#MicrosoftYaHei-2c" x="530.851562"/>
     <use xlink:href="#MicrosoftYaHei-20" x="554.923828"/>
     <use xlink:href="#MicrosoftYaHei-73" x="584.513672"/>
     <use xlink:href="#MicrosoftYaHei-74" x="630.802734"/>
     <use xlink:href="#MicrosoftYaHei-64" x="666.683594"/>
     <use xlink:href="#MicrosoftYaHei-3d" x="730.648438"/>
     <use xlink:href="#MicrosoftYaHei-30" x="804.818359"/>
     <use xlink:href="#MicrosoftYaHei-2e" x="863.460938"/>
     <use xlink:href="#MicrosoftYaHei-31" x="887.533203"/>
     <use xlink:href="#MicrosoftYaHei-38" x="946.175781"/>
     <use xlink:href="#MicrosoftYaHei-36" x="1004.818359"/>
    </g>
   </g>
   <g id="text_16">
    <!-- State Rule Comparison: delay_cancel_impact_composite is closer to 25% and more stable -->
    <g style="fill: #20323b" transform="translate(24.755312 16.7925) scale(0.12 -0.12)">
     <defs>
      <path id="MicrosoftYaHei-53" d="M 400 909 
Q 622 716 994 591 
Q 1366 466 1700 466 
Q 2719 466 2719 1191 
Q 2719 1394 2609 1556 
Q 2500 1719 2309 1844 
Q 2119 1969 1594 2228 
Q 866 2591 634 2902 
Q 403 3213 403 3613 
Q 403 4216 887 4569 
Q 1372 4922 2109 4922 
Q 2831 4922 3169 4747 
L 3169 4066 
Q 2731 4369 2063 4369 
Q 1619 4369 1339 4183 
Q 1059 3997 1059 3666 
Q 1059 3372 1253 3187 
Q 1447 3003 2094 2684 
Q 2806 2344 3090 2003 
Q 3375 1663 3375 1238 
Q 3375 600 2912 259 
Q 2450 -81 1628 -81 
Q 1341 -81 958 -1 
Q 575 78 400 197 
L 400 909 
z
" transform="scale(0.015625)"/>
      <path id="MicrosoftYaHei-52" d="M 4159 0 
L 3422 0 
L 2619 1344 
Q 2378 1747 2178 1892 
Q 1978 2038 1700 2038 
L 1250 2038 
L 1250 0 
L 625 0 
L 625 4841 
L 2100 4841 
Q 2806 4841 3206 4500 
Q 3606 4159 3606 3547 
Q 3606 2541 2531 2241 
L 2531 2225 
Q 2731 2141 2876 1984 
Q 3022 1828 3253 1450 
L 4159 0 
z
M 1250 4294 
L 1250 2584 
L 1988 2584 
Q 2416 2584 2683 2834 
Q 2950 3084 2950 3491 
Q 2950 3869 2706 4081 
Q 2463 4294 1997 4294 
L 1250 4294 
z
" transform="scale(0.015625)"/>
      <path id="MicrosoftYaHei-43" d="M 3938 200 
Q 3403 -81 2597 -81 
Q 1556 -81 934 580 
Q 313 1241 313 2328 
Q 313 3497 1013 4209 
Q 1713 4922 2791 4922 
Q 3484 4922 3938 4725 
L 3938 4072 
Q 3419 4359 2797 4359 
Q 1988 4359 1478 3820 
Q 969 3281 969 2366 
Q 969 1497 1444 986 
Q 1919 475 2688 475 
Q 3406 475 3938 800 
L 3938 200 
z
" transform="scale(0.015625)"/>
      <path id="MicrosoftYaHei-3a" d="M 372 3134 
Q 372 3303 490 3415 
Q 609 3528 775 3528 
Q 944 3528 1062 3414 
Q 1181 3300 1181 3134 
Q 1181 2969 1065 2853 
Q 950 2738 772 2738 
Q 603 2738 487 2853 
Q 372 2969 372 3134 
z
M 372 322 
Q 372 491 487 606 
Q 603 722 775 722 
Q 950 722 1065 605 
Q 1181 488 1181 322 
Q 1181 159 1065 42 
Q 950 -75 772 -75 
Q 600 -75 486 42 
Q 372 159 372 322 
z
" transform="scale(0.015625)"/>
      <path id="MicrosoftYaHei-25" d="M 272 3619 
Q 272 4213 589 4563 
Q 906 4913 1444 4913 
Q 1959 4913 2248 4591 
Q 2538 4269 2538 3694 
Q 2538 3122 2219 2765 
Q 1900 2409 1372 2409 
Q 872 2409 572 2740 
Q 272 3072 272 3619 
z
M 753 3650 
Q 753 3247 928 3028 
Q 1103 2809 1406 2809 
Q 1719 2809 1889 3036 
Q 2059 3263 2059 3675 
Q 2059 4078 1892 4298 
Q 1725 4519 1422 4519 
Q 1113 4519 933 4289 
Q 753 4059 753 3650 
z
M 4647 4841 
L 1538 -31 
L 1016 -31 
L 4125 4841 
L 4647 4841 
z
M 3172 1134 
Q 3172 1728 3489 2083 
Q 3806 2438 4341 2438 
Q 4853 2438 5143 2114 
Q 5434 1791 5434 1203 
Q 5434 634 5112 279 
Q 4791 -75 4272 -75 
Q 3769 -75 3470 261 
Q 3172 597 3172 1134 
z
M 3650 1163 
Q 3650 769 3825 548 
Q 4000 328 4303 328 
Q 4616 328 4786 556 
Q 4956 784 4956 1194 
Q 4956 1600 4786 1815 
Q 4616 2031 4319 2031 
Q 4000 2031 3825 1801 
Q 3650 1572 3650 1163 
z
" transform="scale(0.015625)"/>
      <path id="MicrosoftYaHei-62" d="M 1159 488 
L 1159 0 
L 547 0 
L 547 5116 
L 1159 5116 
L 1159 2859 
L 1172 2859 
Q 1578 3538 2359 3538 
Q 3009 3538 3392 3080 
Q 3775 2622 3775 1828 
Q 3775 953 3345 436 
Q 2916 -81 2200 -81 
Q 1525 -81 1172 488 
L 1159 488 
z
M 1156 1422 
Q 1156 1003 1428 714 
Q 1700 425 2109 425 
Q 2597 425 2872 800 
Q 3147 1175 3147 1838 
Q 3147 2384 2890 2707 
Q 2634 3031 2191 3031 
Q 1741 3031 1448 2709 
Q 1156 2388 1156 1891 
L 1156 1422 
z
" transform="scale(0.015625)"/>
     </defs>
     <use xlink:href="#MicrosoftYaHei-53"/>
     <use xlink:href="#MicrosoftYaHei-74" x="54.214844"/>
     <use xlink:href="#MicrosoftYaHei-61" x="91.470703"/>
     <use xlink:href="#MicrosoftYaHei-74" x="146.744141"/>
     <use xlink:href="#MicrosoftYaHei-65" x="183.125"/>
     <use xlink:href="#MicrosoftYaHei-20" x="239.863281"/>
     <use xlink:href="#MicrosoftYaHei-52" x="269.453125"/>
     <use xlink:href="#MicrosoftYaHei-75" x="334.736328"/>
     <use xlink:href="#MicrosoftYaHei-6c" x="396.357422"/>
     <use xlink:href="#MicrosoftYaHei-65" x="422.96875"/>
     <use xlink:href="#MicrosoftYaHei-20" x="479.707031"/>
     <use xlink:href="#MicrosoftYaHei-43" x="509.296875"/>
     <use xlink:href="#MicrosoftYaHei-6f" x="576.191406"/>
     <use xlink:href="#MicrosoftYaHei-6d" x="639.765625"/>
     <use xlink:href="#MicrosoftYaHei-70" x="733.466797"/>
     <use xlink:href="#MicrosoftYaHei-61" x="795.958984"/>
     <use xlink:href="#MicrosoftYaHei-72" x="851.232422"/>
     <use xlink:href="#MicrosoftYaHei-69" x="889.416016"/>
     <use xlink:href="#MicrosoftYaHei-73" x="916.027344"/>
     <use xlink:href="#MicrosoftYaHei-6f" x="962.316406"/>
     <use xlink:href="#MicrosoftYaHei-6e" x="1025.890625"/>
     <use xlink:href="#MicrosoftYaHei-3a" x="1087.511719"/>
     <use xlink:href="#MicrosoftYaHei-20" x="1111.583984"/>
     <use xlink:href="#MicrosoftYaHei-64" x="1141.173828"/>
     <use xlink:href="#MicrosoftYaHei-65" x="1205.138672"/>
     <use xlink:href="#MicrosoftYaHei-6c" x="1261.876953"/>
     <use xlink:href="#MicrosoftYaHei-61" x="1288.488281"/>
     <use xlink:href="#MicrosoftYaHei-79" x="1343.761719"/>
     <use xlink:href="#MicrosoftYaHei-5f" x="1396.691406"/>
     <use xlink:href="#MicrosoftYaHei-63" x="1441.515625"/>
     <use xlink:href="#MicrosoftYaHei-61" x="1491.662109"/>
     <use xlink:href="#MicrosoftYaHei-6e" x="1546.935547"/>
     <use xlink:href="#MicrosoftYaHei-63" x="1608.556641"/>
     <use xlink:href="#MicrosoftYaHei-65" x="1658.703125"/>
     <use xlink:href="#MicrosoftYaHei-6c" x="1715.441406"/>
     <use xlink:href="#MicrosoftYaHei-5f" x="1742.052734"/>
     <use xlink:href="#MicrosoftYaHei-69" x="1786.876953"/>
     <use xlink:href="#MicrosoftYaHei-6d" x="1813.488281"/>
     <use xlink:href="#MicrosoftYaHei-70" x="1907.189453"/>
     <use xlink:href="#MicrosoftYaHei-61" x="1969.681641"/>
     <use xlink:href="#MicrosoftYaHei-63" x="2024.955078"/>
     <use xlink:href="#MicrosoftYaHei-74" x="2075.101562"/>
     <use xlink:href="#MicrosoftYaHei-5f" x="2112.357422"/>
     <use xlink:href="#MicrosoftYaHei-63" x="2157.181641"/>
     <use xlink:href="#MicrosoftYaHei-6f" x="2207.328125"/>
     <use xlink:href="#MicrosoftYaHei-6d" x="2270.902344"/>
     <use xlink:href="#MicrosoftYaHei-70" x="2364.603516"/>
     <use xlink:href="#MicrosoftYaHei-6f" x="2428.470703"/>
     <use xlink:href="#MicrosoftYaHei-73" x="2492.044922"/>
     <use xlink:href="#MicrosoftYaHei-69" x="2538.333984"/>
     <use xlink:href="#MicrosoftYaHei-74" x="2564.945312"/>
     <use xlink:href="#MicrosoftYaHei-65" x="2601.326172"/>
     <use xlink:href="#MicrosoftYaHei-20" x="2658.064453"/>
     <use xlink:href="#MicrosoftYaHei-69" x="2687.654297"/>
     <use xlink:href="#MicrosoftYaHei-73" x="2714.265625"/>
     <use xlink:href="#MicrosoftYaHei-20" x="2760.554688"/>
     <use xlink:href="#MicrosoftYaHei-63" x="2790.144531"/>
     <use xlink:href="#MicrosoftYaHei-6c" x="2840.291016"/>
     <use xlink:href="#MicrosoftYaHei-6f" x="2866.902344"/>
     <use xlink:href="#MicrosoftYaHei-73" x="2930.476562"/>
     <use xlink:href="#MicrosoftYaHei-65" x="2976.765625"/>
     <use xlink:href="#MicrosoftYaHei-72" x="3033.503906"/>
     <use xlink:href="#MicrosoftYaHei-20" x="3071.6875"/>
     <use xlink:href="#MicrosoftYaHei-74" x="3101.277344"/>
     <use xlink:href="#MicrosoftYaHei-6f" x="3137.658203"/>
     <use xlink:href="#MicrosoftYaHei-20" x="3201.232422"/>
     <use xlink:href="#MicrosoftYaHei-32" x="3230.822266"/>
     <use xlink:href="#MicrosoftYaHei-35" x="3289.464844"/>
     <use xlink:href="#MicrosoftYaHei-25" x="3348.107422"/>
     <use xlink:href="#MicrosoftYaHei-20" x="3437.072266"/>
     <use xlink:href="#MicrosoftYaHei-61" x="3466.662109"/>
     <use xlink:href="#MicrosoftYaHei-6e" x="3521.935547"/>
     <use xlink:href="#MicrosoftYaHei-64" x="3583.556641"/>
     <use xlink:href="#MicrosoftYaHei-20" x="3647.521484"/>
     <use xlink:href="#MicrosoftYaHei-6d" x="3677.111328"/>
     <use xlink:href="#MicrosoftYaHei-6f" x="3770.8125"/>
     <use xlink:href="#MicrosoftYaHei-72" x="3834.386719"/>
     <use xlink:href="#MicrosoftYaHei-65" x="3871.195312"/>
     <use xlink:href="#MicrosoftYaHei-20" x="3927.933594"/>
     <use xlink:href="#MicrosoftYaHei-73" x="3957.523438"/>
     <use xlink:href="#MicrosoftYaHei-74" x="4003.8125"/>
     <use xlink:href="#MicrosoftYaHei-61" x="4041.068359"/>
     <use xlink:href="#MicrosoftYaHei-62" x="4096.341797"/>
     <use xlink:href="#MicrosoftYaHei-6c" x="4160.208984"/>
     <use xlink:href="#MicrosoftYaHei-65" x="4186.820312"/>
    </g>
   </g>
   <g id="legend_1">
    <g id="line2d_13">
     <path d="M 307.704531 37.635625 
L 318.704531 37.635625 
L 329.704531 37.635625 
" style="fill: none; stroke-dasharray: 4.44,1.92; stroke-dashoffset: 0; stroke: #c6a15b; stroke-width: 1.2"/>
    </g>
    <g id="text_17">
     <!-- Target disrupted share = 25% -->
     <g style="fill: #20323b" transform="translate(338.504531 41.485625) scale(0.11 -0.11)">
      <defs>
       <path id="MicrosoftYaHei-54" d="M 3550 4284 
L 2153 4284 
L 2153 0 
L 1525 0 
L 1525 4284 
L 134 4284 
L 134 4841 
L 3550 4841 
L 3550 4284 
z
" transform="scale(0.015625)"/>
       <path id="MicrosoftYaHei-67" d="M 3547 291 
Q 3547 -1628 1684 -1628 
Q 1041 -1628 566 -1388 
L 566 -797 
Q 1144 -1119 1675 -1119 
Q 2934 -1119 2934 206 
L 2934 572 
L 2922 572 
Q 2528 -81 1747 -81 
Q 1097 -81 706 384 
Q 316 850 316 1619 
Q 316 2503 747 3020 
Q 1178 3538 1897 3538 
Q 2588 3538 2922 2988 
L 2934 2988 
L 2934 3456 
L 3547 3456 
L 3547 291 
z
M 2934 2056 
Q 2938 2456 2666 2743 
Q 2394 3031 1997 3031 
Q 1497 3031 1219 2664 
Q 941 2297 941 1656 
Q 941 1106 1209 765 
Q 1478 425 1922 425 
Q 2369 425 2653 750 
Q 2938 1075 2934 1575 
L 2934 2056 
z
" transform="scale(0.015625)"/>
      </defs>
      <use xlink:href="#MicrosoftYaHei-54"/>
      <use xlink:href="#MicrosoftYaHei-61" x="45.949219"/>
      <use xlink:href="#MicrosoftYaHei-72" x="101.222656"/>
      <use xlink:href="#MicrosoftYaHei-67" x="138.03125"/>
      <use xlink:href="#MicrosoftYaHei-65" x="201.996094"/>
      <use xlink:href="#MicrosoftYaHei-74" x="258.734375"/>
      <use xlink:href="#MicrosoftYaHei-20" x="295.990234"/>
      <use xlink:href="#MicrosoftYaHei-64" x="325.580078"/>
      <use xlink:href="#MicrosoftYaHei-69" x="389.544922"/>
      <use xlink:href="#MicrosoftYaHei-73" x="416.15625"/>
      <use xlink:href="#MicrosoftYaHei-72" x="462.445312"/>
      <use xlink:href="#MicrosoftYaHei-75" x="500.628906"/>
      <use xlink:href="#MicrosoftYaHei-70" x="562.25"/>
      <use xlink:href="#MicrosoftYaHei-74" x="626.117188"/>
      <use xlink:href="#MicrosoftYaHei-65" x="662.498047"/>
      <use xlink:href="#MicrosoftYaHei-64" x="719.236328"/>
      <use xlink:href="#MicrosoftYaHei-20" x="783.201172"/>
      <use xlink:href="#MicrosoftYaHei-73" x="812.791016"/>
      <use xlink:href="#MicrosoftYaHei-68" x="859.080078"/>
      <use xlink:href="#MicrosoftYaHei-61" x="920.652344"/>
      <use xlink:href="#MicrosoftYaHei-72" x="975.925781"/>
      <use xlink:href="#MicrosoftYaHei-65" x="1012.734375"/>
      <use xlink:href="#MicrosoftYaHei-20" x="1069.472656"/>
      <use xlink:href="#MicrosoftYaHei-3d" x="1099.0625"/>
      <use xlink:href="#MicrosoftYaHei-20" x="1173.232422"/>
      <use xlink:href="#MicrosoftYaHei-32" x="1202.822266"/>
      <use xlink:href="#MicrosoftYaHei-35" x="1261.464844"/>
      <use xlink:href="#MicrosoftYaHei-25" x="1320.107422"/>
     </g>
    </g>
   </g>
  </g>
 </g>
 <defs>
  <clipPath id="peac85d122b">
   <rect x="55.345" y="22.7925" width="448.065" height="338.34"/>
  </clipPath>
 </defs>
</svg>
