<?xml version="1.0" encoding="utf-8" standalone="no"?>
<!DOCTYPE svg PUBLIC "-//W3C//DTD SVG 1.1//EN"
  "http://www.w3.org/Graphics/SVG/1.1/DTD/svg11.dtd">
<svg xmlns:xlink="http://www.w3.org/1999/xlink" width="900.995937pt" height="410.62125pt" viewBox="0 0 900.995937 410.62125" xmlns="http://www.w3.org/2000/svg" version="1.1">
 <metadata>
  <rdf:RDF xmlns:dc="http://purl.org/dc/elements/1.1/" xmlns:cc="http://creativecommons.org/ns#" xmlns:rdf="http://www.w3.org/1999/02/22-rdf-syntax-ns#">
   <cc:Work>
    <dc:type rdf:resource="http://purl.org/dc/dcmitype/StillImage"/>
    <dc:date>2026-04-19T15:39:02.980406</dc:date>
    <dc:format>image/svg+xml</dc:format>
    <dc:creator>
     <cc:Agent>
      <dc:title>Matplotlib v3.10.8, https://matplotlib.org/</dc:title>
     </cc:Agent>
    </dc:creator>
   </cc:Work>
  </rdf:RDF>
 </metadata>
 <defs>
  <style type="text/css">*{stroke-linejoin: round; stroke-linecap: butt}</style>
 </defs>
 <g id="figure_1">
  <g id="patch_1">
   <path d="M 0 410.62125 
L 900.995937 410.62125 
L 900.995937 0 
L 0 0 
z
" style="fill: #fbfaf7"/>
  </g>
  <g id="axes_1">
   <g id="patch_2">
    <path d="M 56.795938 369.597187 
L 893.795938 369.597187 
L 893.795938 26.877187 
L 56.795938 26.877187 
z
" style="fill: #fbfaf7"/>
   </g>
   <g id="matplotlib.axis_1">
    <g id="xtick_1">
     <g id="line2d_1">
      <path d="M 56.795938 369.597187 
L 56.795938 26.877187 
" clip-path="url(#pb358f96adb)" style="fill: none; stroke: #d1dfe6; stroke-linecap: round"/>
     </g>
     <g id="text_1">
      <!-- 2020 -->
      <g style="fill: #3e3a39" transform="translate(31.345938 386.695625) scale(0.1 -0.1)">
       <defs>
        <path id="DejaVuSans-32" d="M 1228 531 
L 3431 531 
L 3431 0 
L 469 0 
L 469 531 
Q 828 903 1448 1529 
Q 2069 2156 2228 2338 
Q 2531 2678 2651 2914 
Q 2772 3150 2772 3378 
Q 2772 3750 2511 3984 
Q 2250 4219 1831 4219 
Q 1534 4219 1204 4116 
Q 875 4013 500 3803 
L 500 4441 
Q 881 4594 1212 4672 
Q 1544 4750 1819 4750 
Q 2544 4750 2975 4387 
Q 3406 4025 3406 3419 
Q 3406 3131 3298 2873 
Q 3191 2616 2906 2266 
Q 2828 2175 2409 1742 
Q 1991 1309 1228 531 
z
" transform="scale(0.015625)"/>
        <path id="DejaVuSans-30" d="M 2034 4250 
Q 1547 4250 1301 3770 
Q 1056 3291 1056 2328 
Q 1056 1369 1301 889 
Q 1547 409 2034 409 
Q 2525 409 2770 889 
Q 3016 1369 3016 2328 
Q 3016 3291 2770 3770 
Q 2525 4250 2034 4250 
z
M 2034 4750 
Q 2819 4750 3233 4129 
Q 3647 3509 3647 2328 
Q 3647 1150 3233 529 
Q 2819 -91 2034 -91 
Q 1250 -91 836 529 
Q 422 1150 422 2328 
Q 422 3509 836 4129 
Q 1250 4750 2034 4750 
z
" transform="scale(0.015625)"/>
       </defs>
       <use xlink:href="#DejaVuSans-32"/>
       <use xlink:href="#DejaVuSans-30" transform="translate(63.623047 0)"/>
       <use xlink:href="#DejaVuSans-32" transform="translate(127.246094 0)"/>
       <use xlink:href="#DejaVuSans-30" transform="translate(190.869141 0)"/>
      </g>
     </g>
    </g>
    <g id="xtick_2">
     <g id="line2d_2">
      <path d="M 198.555308 369.597187 
L 198.555308 26.877187 
" clip-path="url(#pb358f96adb)" style="fill: none; stroke: #d1dfe6; stroke-linecap: round"/>
     </g>
     <g id="text_2">
      <!-- 2021 -->
      <g style="fill: #3e3a39" transform="translate(173.105308 386.695625) scale(0.1 -0.1)">
       <defs>
        <path id="DejaVuSans-31" d="M 794 531 
L 1825 531 
L 1825 4091 
L 703 3866 
L 703 4441 
L 1819 4666 
L 2450 4666 
L 2450 531 
L 3481 531 
L 3481 0 
L 794 0 
L 794 531 
z
" transform="scale(0.015625)"/>
       </defs>
       <use xlink:href="#DejaVuSans-32"/>
       <use xlink:href="#DejaVuSans-30" transform="translate(63.623047 0)"/>
       <use xlink:href="#DejaVuSans-32" transform="translate(127.246094 0)"/>
       <use xlink:href="#DejaVuSans-31" transform="translate(190.869141 0)"/>
      </g>
     </g>
    </g>
    <g id="xtick_3">
     <g id="line2d_3">
      <path d="M 339.927358 369.597187 
L 339.927358 26.877187 
" clip-path="url(#pb358f96adb)" style="fill: none; stroke: #d1dfe6; stroke-linecap: round"/>
     </g>
     <g id="text_3">
      <!-- 2022 -->
      <g style="fill: #3e3a39" transform="translate(314.477358 386.695625) scale(0.1 -0.1)">
       <use xlink:href="#DejaVuSans-32"/>
       <use xlink:href="#DejaVuSans-30" transform="translate(63.623047 0)"/>
       <use xlink:href="#DejaVuSans-32" transform="translate(127.246094 0)"/>
       <use xlink:href="#DejaVuSans-32" transform="translate(190.869141 0)"/>
      </g>
     </g>
    </g>
    <g id="xtick_4">
     <g id="line2d_4">
      <path d="M 481.299408 369.597187 
L 481.299408 26.877187 
" clip-path="url(#pb358f96adb)" style="fill: none; stroke: #d1dfe6; stroke-linecap: round"/>
     </g>
     <g id="text_4">
      <!-- 2023 -->
      <g style="fill: #3e3a39" transform="translate(455.849408 386.695625) scale(0.1 -0.1)">
       <defs>
        <path id="DejaVuSans-33" d="M 2597 2516 
Q 3050 2419 3304 2112 
Q 3559 1806 3559 1356 
Q 3559 666 3084 287 
Q 2609 -91 1734 -91 
Q 1441 -91 1130 -33 
Q 819 25 488 141 
L 488 750 
Q 750 597 1062 519 
Q 1375 441 1716 441 
Q 2309 441 2620 675 
Q 2931 909 2931 1356 
Q 2931 1769 2642 2001 
Q 2353 2234 1838 2234 
L 1294 2234 
L 1294 2753 
L 1863 2753 
Q 2328 2753 2575 2939 
Q 2822 3125 2822 3475 
Q 2822 3834 2567 4026 
Q 2313 4219 1838 4219 
Q 1578 4219 1281 4162 
Q 984 4106 628 3988 
L 628 4550 
Q 988 4650 1302 4700 
Q 1616 4750 1894 4750 
Q 2613 4750 3031 4423 
Q 3450 4097 3450 3541 
Q 3450 3153 3228 2886 
Q 3006 2619 2597 2516 
z
" transform="scale(0.015625)"/>
       </defs>
       <use xlink:href="#DejaVuSans-32"/>
       <use xlink:href="#DejaVuSans-30" transform="translate(63.623047 0)"/>
       <use xlink:href="#DejaVuSans-32" transform="translate(127.246094 0)"/>
       <use xlink:href="#DejaVuSans-33" transform="translate(190.869141 0)"/>
      </g>
     </g>
    </g>
    <g id="xtick_5">
     <g id="line2d_5">
      <path d="M 622.671458 369.597187 
L 622.671458 26.877187 
" clip-path="url(#pb358f96adb)" style="fill: none; stroke: #d1dfe6; stroke-linecap: round"/>
     </g>
     <g id="text_5">
      <!-- 2024 -->
      <g style="fill: #3e3a39" transform="translate(597.221458 386.695625) scale(0.1 -0.1)">
       <defs>
        <path id="DejaVuSans-34" d="M 2419 4116 
L 825 1625 
L 2419 1625 
L 2419 4116 
z
M 2253 4666 
L 3047 4666 
L 3047 1625 
L 3713 1625 
L 3713 1100 
L 3047 1100 
L 3047 0 
L 2419 0 
L 2419 1100 
L 313 1100 
L 313 1709 
L 2253 4666 
z
" transform="scale(0.015625)"/>
       </defs>
       <use xlink:href="#DejaVuSans-32"/>
       <use xlink:href="#DejaVuSans-30" transform="translate(63.623047 0)"/>
       <use xlink:href="#DejaVuSans-32" transform="translate(127.246094 0)"/>
       <use xlink:href="#DejaVuSans-34" transform="translate(190.869141 0)"/>
      </g>
     </g>
    </g>
    <g id="xtick_6">
     <g id="line2d_6">
      <path d="M 764.430829 369.597187 
L 764.430829 26.877187 
" clip-path="url(#pb358f96adb)" style="fill: none; stroke: #d1dfe6; stroke-linecap: round"/>
     </g>
     <g id="text_6">
      <!-- 2025 -->
      <g style="fill: #3e3a39" transform="translate(738.980829 386.695625) scale(0.1 -0.1)">
       <defs>
        <path id="DejaVuSans-35" d="M 691 4666 
L 3169 4666 
L 3169 4134 
L 1269 4134 
L 1269 2991 
Q 1406 3038 1543 3061 
Q 1681 3084 1819 3084 
Q 2600 3084 3056 2656 
Q 3513 2228 3513 1497 
Q 3513 744 3044 326 
Q 2575 -91 1722 -91 
Q 1428 -91 1123 -41 
Q 819 9 494 109 
L 494 744 
Q 775 591 1075 516 
Q 1375 441 1709 441 
Q 2250 441 2565 725 
Q 2881 1009 2881 1497 
Q 2881 1984 2565 2268 
Q 2250 2553 1709 2553 
Q 1456 2553 1204 2497 
Q 953 2441 691 2322 
L 691 4666 
z
" transform="scale(0.015625)"/>
       </defs>
       <use xlink:href="#DejaVuSans-32"/>
       <use xlink:href="#DejaVuSans-30" transform="translate(63.623047 0)"/>
       <use xlink:href="#DejaVuSans-32" transform="translate(127.246094 0)"/>
       <use xlink:href="#DejaVuSans-35" transform="translate(190.869141 0)"/>
      </g>
     </g>
    </g>
    <g id="xtick_7"/>
    <g id="xtick_8"/>
    <g id="xtick_9"/>
    <g id="xtick_10"/>
    <g id="xtick_11"/>
    <g id="xtick_12"/>
    <g id="xtick_13"/>
    <g id="xtick_14"/>
    <g id="xtick_15"/>
    <g id="xtick_16"/>
    <g id="xtick_17"/>
    <g id="xtick_18"/>
    <g id="xtick_19"/>
    <g id="xtick_20"/>
    <g id="xtick_21"/>
    <g id="xtick_22"/>
    <g id="xtick_23"/>
    <g id="xtick_24"/>
    <g id="xtick_25"/>
    <g id="xtick_26"/>
    <g id="xtick_27"/>
    <g id="xtick_28"/>
    <g id="xtick_29"/>
    <g id="xtick_30"/>
    <g id="text_7">
     <!-- Year-Month -->
     <g style="fill: #3e3a39" transform="translate(444.777813 401.133594) scale(0.11 -0.11)">
      <defs>
       <path id="DejaVuSans-59" d="M -13 4666 
L 666 4666 
L 1959 2747 
L 3244 4666 
L 3922 4666 
L 2272 2222 
L 2272 0 
L 1638 0 
L 1638 2222 
L -13 4666 
z
" transform="scale(0.015625)"/>
       <path id="DejaVuSans-65" d="M 3597 1894 
L 3597 1613 
L 953 1613 
Q 991 1019 1311 708 
Q 1631 397 2203 397 
Q 2534 397 2845 478 
Q 3156 559 3463 722 
L 3463 178 
Q 3153 47 2828 -22 
Q 2503 -91 2169 -91 
Q 1331 -91 842 396 
Q 353 884 353 1716 
Q 353 2575 817 3079 
Q 1281 3584 2069 3584 
Q 2775 3584 3186 3129 
Q 3597 2675 3597 1894 
z
M 3022 2063 
Q 3016 2534 2758 2815 
Q 2500 3097 2075 3097 
Q 1594 3097 1305 2825 
Q 1016 2553 972 2059 
L 3022 2063 
z
" transform="scale(0.015625)"/>
       <path id="DejaVuSans-61" d="M 2194 1759 
Q 1497 1759 1228 1600 
Q 959 1441 959 1056 
Q 959 750 1161 570 
Q 1363 391 1709 391 
Q 2188 391 2477 730 
Q 2766 1069 2766 1631 
L 2766 1759 
L 2194 1759 
z
M 3341 1997 
L 3341 0 
L 2766 0 
L 2766 531 
Q 2569 213 2275 61 
Q 1981 -91 1556 -91 
Q 1019 -91 701 211 
Q 384 513 384 1019 
Q 384 1609 779 1909 
Q 1175 2209 1959 2209 
L 2766 2209 
L 2766 2266 
Q 2766 2663 2505 2880 
Q 2244 3097 1772 3097 
Q 1472 3097 1187 3025 
Q 903 2953 641 2809 
L 641 3341 
Q 956 3463 1253 3523 
Q 1550 3584 1831 3584 
Q 2591 3584 2966 3190 
Q 3341 2797 3341 1997 
z
" transform="scale(0.015625)"/>
       <path id="DejaVuSans-72" d="M 2631 2963 
Q 2534 3019 2420 3045 
Q 2306 3072 2169 3072 
Q 1681 3072 1420 2755 
Q 1159 2438 1159 1844 
L 1159 0 
L 581 0 
L 581 3500 
L 1159 3500 
L 1159 2956 
Q 1341 3275 1631 3429 
Q 1922 3584 2338 3584 
Q 2397 3584 2469 3576 
Q 2541 3569 2628 3553 
L 2631 2963 
z
" transform="scale(0.015625)"/>
       <path id="DejaVuSans-2d" d="M 313 2009 
L 1997 2009 
L 1997 1497 
L 313 1497 
L 313 2009 
z
" transform="scale(0.015625)"/>
       <path id="DejaVuSans-4d" d="M 628 4666 
L 1569 4666 
L 2759 1491 
L 3956 4666 
L 4897 4666 
L 4897 0 
L 4281 0 
L 4281 4097 
L 3078 897 
L 2444 897 
L 1241 4097 
L 1241 0 
L 628 0 
L 628 4666 
z
" transform="scale(0.015625)"/>
       <path id="DejaVuSans-6f" d="M 1959 3097 
Q 1497 3097 1228 2736 
Q 959 2375 959 1747 
Q 959 1119 1226 758 
Q 1494 397 1959 397 
Q 2419 397 2687 759 
Q 2956 1122 2956 1747 
Q 2956 2369 2687 2733 
Q 2419 3097 1959 3097 
z
M 1959 3584 
Q 2709 3584 3137 3096 
Q 3566 2609 3566 1747 
Q 3566 888 3137 398 
Q 2709 -91 1959 -91 
Q 1206 -91 779 398 
Q 353 888 353 1747 
Q 353 2609 779 3096 
Q 1206 3584 1959 3584 
z
" transform="scale(0.015625)"/>
       <path id="DejaVuSans-6e" d="M 3513 2113 
L 3513 0 
L 2938 0 
L 2938 2094 
Q 2938 2591 2744 2837 
Q 2550 3084 2163 3084 
Q 1697 3084 1428 2787 
Q 1159 2491 1159 1978 
L 1159 0 
L 581 0 
L 581 3500 
L 1159 3500 
L 1159 2956 
Q 1366 3272 1645 3428 
Q 1925 3584 2291 3584 
Q 2894 3584 3203 3211 
Q 3513 2838 3513 2113 
z
" transform="scale(0.015625)"/>
       <path id="DejaVuSans-74" d="M 1172 4494 
L 1172 3500 
L 2356 3500 
L 2356 3053 
L 1172 3053 
L 1172 1153 
Q 1172 725 1289 603 
Q 1406 481 1766 481 
L 2356 481 
L 2356 0 
L 1766 0 
Q 1100 0 847 248 
Q 594 497 594 1153 
L 594 3053 
L 172 3053 
L 172 3500 
L 594 3500 
L 594 4494 
L 1172 4494 
z
" transform="scale(0.015625)"/>
       <path id="DejaVuSans-68" d="M 3513 2113 
L 3513 0 
L 2938 0 
L 2938 2094 
Q 2938 2591 2744 2837 
Q 2550 3084 2163 3084 
Q 1697 3084 1428 2787 
Q 1159 2491 1159 1978 
L 1159 0 
L 581 0 
L 581 4863 
L 1159 4863 
L 1159 2956 
Q 1366 3272 1645 3428 
Q 1925 3584 2291 3584 
Q 2894 3584 3203 3211 
Q 3513 2838 3513 2113 
z
" transform="scale(0.015625)"/>
      </defs>
      <use xlink:href="#DejaVuSans-59"/>
      <use xlink:href="#DejaVuSans-65" transform="translate(47.833984 0)"/>
      <use xlink:href="#DejaVuSans-61" transform="translate(109.357422 0)"/>
      <use xlink:href="#DejaVuSans-72" transform="translate(170.636719 0)"/>
      <use xlink:href="#DejaVuSans-2d" transform="translate(205.375 0)"/>
      <use xlink:href="#DejaVuSans-4d" transform="translate(241.458984 0)"/>
      <use xlink:href="#DejaVuSans-6f" transform="translate(327.738281 0)"/>
      <use xlink:href="#DejaVuSans-6e" transform="translate(388.919922 0)"/>
      <use xlink:href="#DejaVuSans-74" transform="translate(452.298828 0)"/>
      <use xlink:href="#DejaVuSans-68" transform="translate(491.507812 0)"/>
     </g>
    </g>
   </g>
   <g id="matplotlib.axis_2">
    <g id="ytick_1">
     <g id="line2d_7">
      <path d="M 56.795938 369.597187 
L 893.795938 369.597187 
" clip-path="url(#pb358f96adb)" style="fill: none; stroke: #d1dfe6; stroke-linecap: round"/>
     </g>
     <g id="text_8">
      <!-- 0 -->
      <g style="fill: #3e3a39" transform="translate(40.933438 373.396406) scale(0.1 -0.1)">
       <use xlink:href="#DejaVuSans-30"/>
      </g>
     </g>
    </g>
    <g id="ytick_2">
     <g id="line2d_8">
      <path d="M 56.795938 329.202291 
L 893.795938 329.202291 
" clip-path="url(#pb358f96adb)" style="fill: none; stroke: #d1dfe6; stroke-linecap: round"/>
     </g>
     <g id="text_9">
      <!-- 500 -->
      <g style="fill: #3e3a39" transform="translate(28.208438 333.001509) scale(0.1 -0.1)">
       <use xlink:href="#DejaVuSans-35"/>
       <use xlink:href="#DejaVuSans-30" transform="translate(63.623047 0)"/>
       <use xlink:href="#DejaVuSans-30" transform="translate(127.246094 0)"/>
      </g>
     </g>
    </g>
    <g id="ytick_3">
     <g id="line2d_9">
      <path d="M 56.795938 288.807394 
L 893.795938 288.807394 
" clip-path="url(#pb358f96adb)" style="fill: none; stroke: #d1dfe6; stroke-linecap: round"/>
     </g>
     <g id="text_10">
      <!-- 1000 -->
      <g style="fill: #3e3a39" transform="translate(21.845938 292.606612) scale(0.1 -0.1)">
       <use xlink:href="#DejaVuSans-31"/>
       <use xlink:href="#DejaVuSans-30" transform="translate(63.623047 0)"/>
       <use xlink:href="#DejaVuSans-30" transform="translate(127.246094 0)"/>
       <use xlink:href="#DejaVuSans-30" transform="translate(190.869141 0)"/>
      </g>
     </g>
    </g>
    <g id="ytick_4">
     <g id="line2d_10">
      <path d="M 56.795938 248.412497 
L 893.795938 248.412497 
" clip-path="url(#pb358f96adb)" style="fill: none; stroke: #d1dfe6; stroke-linecap: round"/>
     </g>
     <g id="text_11">
      <!-- 1500 -->
      <g style="fill: #3e3a39" transform="translate(21.845938 252.211716) scale(0.1 -0.1)">
       <use xlink:href="#DejaVuSans-31"/>
       <use xlink:href="#DejaVuSans-35" transform="translate(63.623047 0)"/>
       <use xlink:href="#DejaVuSans-30" transform="translate(127.246094 0)"/>
       <use xlink:href="#DejaVuSans-30" transform="translate(190.869141 0)"/>
      </g>
     </g>
    </g>
    <g id="ytick_5">
     <g id="line2d_11">
      <path d="M 56.795938 208.0176 
L 893.795938 208.0176 
" clip-path="url(#pb358f96adb)" style="fill: none; stroke: #d1dfe6; stroke-linecap: round"/>
     </g>
     <g id="text_12">
      <!-- 2000 -->
      <g style="fill: #3e3a39" transform="translate(21.845938 211.816819) scale(0.1 -0.1)">
       <use xlink:href="#DejaVuSans-32"/>
       <use xlink:href="#DejaVuSans-30" transform="translate(63.623047 0)"/>
       <use xlink:href="#DejaVuSans-30" transform="translate(127.246094 0)"/>
       <use xlink:href="#DejaVuSans-30" transform="translate(190.869141 0)"/>
      </g>
     </g>
    </g>
    <g id="ytick_6">
     <g id="line2d_12">
      <path d="M 56.795938 167.622703 
L 893.795938 167.622703 
" clip-path="url(#pb358f96adb)" style="fill: none; stroke: #d1dfe6; stroke-linecap: round"/>
     </g>
     <g id="text_13">
      <!-- 2500 -->
      <g style="fill: #3e3a39" transform="translate(21.845938 171.421922) scale(0.1 -0.1)">
       <use xlink:href="#DejaVuSans-32"/>
       <use xlink:href="#DejaVuSans-35" transform="translate(63.623047 0)"/>
       <use xlink:href="#DejaVuSans-30" transform="translate(127.246094 0)"/>
       <use xlink:href="#DejaVuSans-30" transform="translate(190.869141 0)"/>
      </g>
     </g>
    </g>
    <g id="ytick_7">
     <g id="line2d_13">
      <path d="M 56.795938 127.227806 
L 893.795938 127.227806 
" clip-path="url(#pb358f96adb)" style="fill: none; stroke: #d1dfe6; stroke-linecap: round"/>
     </g>
     <g id="text_14">
      <!-- 3000 -->
      <g style="fill: #3e3a39" transform="translate(21.845938 131.027025) scale(0.1 -0.1)">
       <use xlink:href="#DejaVuSans-33"/>
       <use xlink:href="#DejaVuSans-30" transform="translate(63.623047 0)"/>
       <use xlink:href="#DejaVuSans-30" transform="translate(127.246094 0)"/>
       <use xlink:href="#DejaVuSans-30" transform="translate(190.869141 0)"/>
      </g>
     </g>
    </g>
    <g id="ytick_8">
     <g id="line2d_14">
      <path d="M 56.795938 86.832909 
L 893.795938 86.832909 
" clip-path="url(#pb358f96adb)" style="fill: none; stroke: #d1dfe6; stroke-linecap: round"/>
     </g>
     <g id="text_15">
      <!-- 3500 -->
      <g style="fill: #3e3a39" transform="translate(21.845938 90.632128) scale(0.1 -0.1)">
       <use xlink:href="#DejaVuSans-33"/>
       <use xlink:href="#DejaVuSans-35" transform="translate(63.623047 0)"/>
       <use xlink:href="#DejaVuSans-30" transform="translate(127.246094 0)"/>
       <use xlink:href="#DejaVuSans-30" transform="translate(190.869141 0)"/>
      </g>
     </g>
    </g>
    <g id="ytick_9">
     <g id="line2d_15">
      <path d="M 56.795938 46.438012 
L 893.795938 46.438012 
" clip-path="url(#pb358f96adb)" style="fill: none; stroke: #d1dfe6; stroke-linecap: round"/>
     </g>
     <g id="text_16">
      <!-- 4000 -->
      <g style="fill: #3e3a39" transform="translate(21.845938 50.237231) scale(0.1 -0.1)">
       <use xlink:href="#DejaVuSans-34"/>
       <use xlink:href="#DejaVuSans-30" transform="translate(63.623047 0)"/>
       <use xlink:href="#DejaVuSans-30" transform="translate(127.246094 0)"/>
       <use xlink:href="#DejaVuSans-30" transform="translate(190.869141 0)"/>
      </g>
     </g>
    </g>
    <g id="text_17">
     <!-- Flights -->
     <g style="fill: #3e3a39" transform="translate(15.558281 216.455078) rotate(-90) scale(0.11 -0.11)">
      <defs>
       <path id="DejaVuSans-46" d="M 628 4666 
L 3309 4666 
L 3309 4134 
L 1259 4134 
L 1259 2759 
L 3109 2759 
L 3109 2228 
L 1259 2228 
L 1259 0 
L 628 0 
L 628 4666 
z
" transform="scale(0.015625)"/>
       <path id="DejaVuSans-6c" d="M 603 4863 
L 1178 4863 
L 1178 0 
L 603 0 
L 603 4863 
z
" transform="scale(0.015625)"/>
       <path id="DejaVuSans-69" d="M 603 3500 
L 1178 3500 
L 1178 0 
L 603 0 
L 603 3500 
z
M 603 4863 
L 1178 4863 
L 1178 4134 
L 603 4134 
L 603 4863 
z
" transform="scale(0.015625)"/>
       <path id="DejaVuSans-67" d="M 2906 1791 
Q 2906 2416 2648 2759 
Q 2391 3103 1925 3103 
Q 1463 3103 1205 2759 
Q 947 2416 947 1791 
Q 947 1169 1205 825 
Q 1463 481 1925 481 
Q 2391 481 2648 825 
Q 2906 1169 2906 1791 
z
M 3481 434 
Q 3481 -459 3084 -895 
Q 2688 -1331 1869 -1331 
Q 1566 -1331 1297 -1286 
Q 1028 -1241 775 -1147 
L 775 -588 
Q 1028 -725 1275 -790 
Q 1522 -856 1778 -856 
Q 2344 -856 2625 -561 
Q 2906 -266 2906 331 
L 2906 616 
Q 2728 306 2450 153 
Q 2172 0 1784 0 
Q 1141 0 747 490 
Q 353 981 353 1791 
Q 353 2603 747 3093 
Q 1141 3584 1784 3584 
Q 2172 3584 2450 3431 
Q 2728 3278 2906 2969 
L 2906 3500 
L 3481 3500 
L 3481 434 
z
" transform="scale(0.015625)"/>
       <path id="DejaVuSans-73" d="M 2834 3397 
L 2834 2853 
Q 2591 2978 2328 3040 
Q 2066 3103 1784 3103 
Q 1356 3103 1142 2972 
Q 928 2841 928 2578 
Q 928 2378 1081 2264 
Q 1234 2150 1697 2047 
L 1894 2003 
Q 2506 1872 2764 1633 
Q 3022 1394 3022 966 
Q 3022 478 2636 193 
Q 2250 -91 1575 -91 
Q 1294 -91 989 -36 
Q 684 19 347 128 
L 347 722 
Q 666 556 975 473 
Q 1284 391 1588 391 
Q 1994 391 2212 530 
Q 2431 669 2431 922 
Q 2431 1156 2273 1281 
Q 2116 1406 1581 1522 
L 1381 1569 
Q 847 1681 609 1914 
Q 372 2147 372 2553 
Q 372 3047 722 3315 
Q 1072 3584 1716 3584 
Q 2034 3584 2315 3537 
Q 2597 3491 2834 3397 
z
" transform="scale(0.015625)"/>
      </defs>
      <use xlink:href="#DejaVuSans-46"/>
      <use xlink:href="#DejaVuSans-6c" transform="translate(57.519531 0)"/>
      <use xlink:href="#DejaVuSans-69" transform="translate(85.302734 0)"/>
      <use xlink:href="#DejaVuSans-67" transform="translate(113.085938 0)"/>
      <use xlink:href="#DejaVuSans-68" transform="translate(176.5625 0)"/>
      <use xlink:href="#DejaVuSans-74" transform="translate(239.941406 0)"/>
      <use xlink:href="#DejaVuSans-73" transform="translate(279.150391 0)"/>
     </g>
    </g>
   </g>
   <g id="FillBetweenPolyCollection_1">
    <defs>
     <path id="maa986a90b5" d="M 56.795938 -41.024062 
L 56.795938 -154.372143 
L 68.802879 -134.982593 
L 80.035179 -99.919822 
L 92.04212 -45.629081 
L 103.66174 -45.144342 
L 115.668682 -49.345411 
L 127.288302 -65.66495 
L 139.295243 -63.806784 
L 151.302185 -50.476468 
L 162.921805 -56.939652 
L 174.928746 -62.837307 
L 186.548367 -89.0132 
L 198.555308 -75.117355 
L 210.562249 -78.429737 
L 221.407229 -70.189178 
L 233.41417 -89.901888 
L 245.03379 -106.302216 
L 257.040732 -191.454659 
L 268.660352 -233.465351 
L 280.667293 -198.160211 
L 292.674235 -149.120807 
L 304.293855 -130.943103 
L 316.300796 -186.203322 
L 327.920417 -209.874732 
L 339.927358 -224.982423 
L 351.934299 -237.828 
L 362.779279 -251.400686 
L 374.78622 -249.219361 
L 386.40584 -280.242642 
L 398.412782 -296.158231 
L 410.032402 -287.513723 
L 422.039343 -295.269544 
L 434.046285 -240.332484 
L 445.665905 -261.5802 
L 457.672846 -239.443796 
L 469.292467 -305.045109 
L 481.299408 -270.628656 
L 493.306349 -213.671852 
L 504.151329 -277.818948 
L 516.15827 -299.228243 
L 527.77789 -218.034501 
L 539.784832 -295.027174 
L 551.404452 -336.472338 
L 563.411393 -249.46173 
L 575.418335 -260.529932 
L 587.037955 -185.557004 
L 599.044896 -164.470867 
L 610.664517 -205.835242 
L 622.671458 -207.774197 
L 634.678399 -167.944829 
L 645.910699 -223.851366 
L 657.91764 -200.583905 
L 669.537261 -235.323517 
L 681.544202 -257.6215 
L 693.163823 -297.370078 
L 705.170764 -275.233675 
L 717.177705 -161.885594 
L 728.797326 -147.82817 
L 740.804267 -137.891025 
L 752.423888 -245.503031 
L 764.430829 -178.851451 
L 776.43777 -189.273334 
L 787.282749 -214.56054 
L 799.28969 -189.354124 
L 810.909311 -272.486822 
L 822.916252 -296.885339 
L 834.535873 -301.813517 
L 846.542814 -215.126068 
L 858.549755 -161.077696 
L 870.169376 -201.634173 
L 882.176317 -202.361281 
L 893.795938 -276.607101 
L 893.795938 -41.024062 
L 893.795938 -41.024062 
L 882.176317 -41.024062 
L 870.169376 -41.024062 
L 858.549755 -41.024062 
L 846.542814 -41.024062 
L 834.535873 -41.024062 
L 822.916252 -41.024062 
L 810.909311 -41.024062 
L 799.28969 -41.024062 
L 787.282749 -41.024062 
L 776.43777 -41.024062 
L 764.430829 -41.024062 
L 752.423888 -41.024062 
L 740.804267 -41.024062 
L 728.797326 -41.024062 
L 717.177705 -41.024062 
L 705.170764 -41.024062 
L 693.163823 -41.024062 
L 681.544202 -41.024062 
L 669.537261 -41.024062 
L 657.91764 -41.024062 
L 645.910699 -41.024062 
L 634.678399 -41.024062 
L 622.671458 -41.024062 
L 610.664517 -41.024062 
L 599.044896 -41.024062 
L 587.037955 -41.024062 
L 575.418335 -41.024062 
L 563.411393 -41.024062 
L 551.404452 -41.024062 
L 539.784832 -41.024062 
L 527.77789 -41.024062 
L 516.15827 -41.024062 
L 504.151329 -41.024062 
L 493.306349 -41.024062 
L 481.299408 -41.024062 
L 469.292467 -41.024062 
L 457.672846 -41.024062 
L 445.665905 -41.024062 
L 434.046285 -41.024062 
L 422.039343 -41.024062 
L 410.032402 -41.024062 
L 398.412782 -41.024062 
L 386.40584 -41.024062 
L 374.78622 -41.024062 
L 362.779279 -41.024062 
L 351.934299 -41.024062 
L 339.927358 -41.024062 
L 327.920417 -41.024062 
L 316.300796 -41.024062 
L 304.293855 -41.024062 
L 292.674235 -41.024062 
L 280.667293 -41.024062 
L 268.660352 -41.024062 
L 257.040732 -41.024062 
L 245.03379 -41.024062 
L 233.41417 -41.024062 
L 221.407229 -41.024062 
L 210.562249 -41.024062 
L 198.555308 -41.024062 
L 186.548367 -41.024062 
L 174.928746 -41.024062 
L 162.921805 -41.024062 
L 151.302185 -41.024062 
L 139.295243 -41.024062 
L 127.288302 -41.024062 
L 115.668682 -41.024062 
L 103.66174 -41.024062 
L 92.04212 -41.024062 
L 80.035179 -41.024062 
L 68.802879 -41.024062 
L 56.795938 -41.024062 
z
" style="stroke: #3f74a3; stroke-opacity: 0.1"/>
    </defs>
    <g clip-path="url(#pb358f96adb)">
     <use xlink:href="#maa986a90b5" x="0" y="410.62125" style="fill: #3f74a3; fill-opacity: 0.1; stroke: #3f74a3; stroke-opacity: 0.1"/>
    </g>
   </g>
   <g id="FillBetweenPolyCollection_2">
    <defs>
     <path id="m4b91a4b8b5" d="M 56.795938 -41.024062 
L 56.795938 -42.559069 
L 68.802879 -42.882228 
L 80.035179 -194.524671 
L 92.04212 -136.19444 
L 103.66174 -46.921717 
L 115.668682 -42.963018 
L 127.288302 -50.880417 
L 139.295243 -47.325666 
L 151.302185 -42.316699 
L 162.921805 -41.347222 
L 174.928746 -43.690126 
L 186.548367 -48.860672 
L 198.555308 -44.659603 
L 210.562249 -58.878607 
L 221.407229 -41.99354 
L 233.41417 -43.851705 
L 245.03379 -41.428011 
L 257.040732 -46.11382 
L 268.660352 -54.273589 
L 280.667293 -49.506991 
L 292.674235 -53.546481 
L 304.293855 -44.255654 
L 316.300796 -44.578813 
L 327.920417 -58.717027 
L 339.927358 -132.558899 
L 351.934299 -68.007854 
L 362.779279 -54.435168 
L 374.78622 -83.761863 
L 386.40584 -81.580539 
L 398.412782 -100.8893 
L 410.032402 -76.006043 
L 422.039343 -79.237635 
L 434.046285 -59.040187 
L 445.665905 -49.183832 
L 457.672846 -48.456724 
L 469.292467 -66.068899 
L 481.299408 -48.052775 
L 493.306349 -52.980952 
L 504.151329 -56.697282 
L 516.15827 -69.946809 
L 527.77789 -46.436979 
L 539.784832 -83.681074 
L 551.404452 -116.077781 
L 563.411393 -57.58597 
L 575.418335 -87.155035 
L 587.037955 -41.91275 
L 599.044896 -41.508801 
L 610.664517 -45.386711 
L 622.671458 -64.291523 
L 634.678399 -51.284366 
L 645.910699 -47.487246 
L 657.91764 -49.83015 
L 669.537261 -48.779883 
L 681.544202 -70.108388 
L 693.163823 -76.329202 
L 705.170764 -97.576918 
L 717.177705 -43.366967 
L 728.797326 -46.840928 
L 740.804267 -41.589591 
L 752.423888 -45.225132 
L 764.430829 -55.323856 
L 776.43777 -57.74755 
L 787.282749 -48.779883 
L 799.28969 -45.144342 
L 810.909311 -51.041997 
L 822.916252 -71.239445 
L 834.535873 -111.634342 
L 846.542814 -50.718838 
L 858.549755 -47.729615 
L 870.169376 -54.354378 
L 882.176317 -65.34179 
L 893.795938 -75.844464 
L 893.795938 -41.024062 
L 893.795938 -41.024062 
L 882.176317 -41.024062 
L 870.169376 -41.024062 
L 858.549755 -41.024062 
L 846.542814 -41.024062 
L 834.535873 -41.024062 
L 822.916252 -41.024062 
L 810.909311 -41.024062 
L 799.28969 -41.024062 
L 787.282749 -41.024062 
L 776.43777 -41.024062 
L 764.430829 -41.024062 
L 752.423888 -41.024062 
L 740.804267 -41.024062 
L 728.797326 -41.024062 
L 717.177705 -41.024062 
L 705.170764 -41.024062 
L 693.163823 -41.024062 
L 681.544202 -41.024062 
L 669.537261 -41.024062 
L 657.91764 -41.024062 
L 645.910699 -41.024062 
L 634.678399 -41.024062 
L 622.671458 -41.024062 
L 610.664517 -41.024062 
L 599.044896 -41.024062 
L 587.037955 -41.024062 
L 575.418335 -41.024062 
L 563.411393 -41.024062 
L 551.404452 -41.024062 
L 539.784832 -41.024062 
L 527.77789 -41.024062 
L 516.15827 -41.024062 
L 504.151329 -41.024062 
L 493.306349 -41.024062 
L 481.299408 -41.024062 
L 469.292467 -41.024062 
L 457.672846 -41.024062 
L 445.665905 -41.024062 
L 434.046285 -41.024062 
L 422.039343 -41.024062 
L 410.032402 -41.024062 
L 398.412782 -41.024062 
L 386.40584 -41.024062 
L 374.78622 -41.024062 
L 362.779279 -41.024062 
L 351.934299 -41.024062 
L 339.927358 -41.024062 
L 327.920417 -41.024062 
L 316.300796 -41.024062 
L 304.293855 -41.024062 
L 292.674235 -41.024062 
L 280.667293 -41.024062 
L 268.660352 -41.024062 
L 257.040732 -41.024062 
L 245.03379 -41.024062 
L 233.41417 -41.024062 
L 221.407229 -41.024062 
L 210.562249 -41.024062 
L 198.555308 -41.024062 
L 186.548367 -41.024062 
L 174.928746 -41.024062 
L 162.921805 -41.024062 
L 151.302185 -41.024062 
L 139.295243 -41.024062 
L 127.288302 -41.024062 
L 115.668682 -41.024062 
L 103.66174 -41.024062 
L 92.04212 -41.024062 
L 80.035179 -41.024062 
L 68.802879 -41.024062 
L 56.795938 -41.024062 
z
" style="stroke: #b54646; stroke-opacity: 0.12"/>
    </defs>
    <g clip-path="url(#pb358f96adb)">
     <use xlink:href="#m4b91a4b8b5" x="0" y="410.62125" style="fill: #b54646; fill-opacity: 0.12; stroke: #b54646; stroke-opacity: 0.12"/>
    </g>
   </g>
   <g id="line2d_16">
    <path d="M 56.795938 256.249107 
L 68.802879 275.638657 
L 80.035179 310.701428 
L 92.04212 364.992169 
L 103.66174 365.476908 
L 115.668682 361.275839 
L 127.288302 344.9563 
L 139.295243 346.814466 
L 151.302185 360.144782 
L 162.921805 353.681598 
L 174.928746 347.783943 
L 186.548367 321.60805 
L 198.555308 335.503895 
L 210.562249 332.191513 
L 221.407229 340.432072 
L 233.41417 320.719362 
L 245.03379 304.319034 
L 257.040732 219.166591 
L 268.660352 177.155899 
L 280.667293 212.461039 
L 292.674235 261.500443 
L 304.293855 279.678147 
L 316.300796 224.417928 
L 327.920417 200.746518 
L 339.927358 185.638827 
L 351.934299 172.79325 
L 362.779279 159.220564 
L 374.78622 161.401889 
L 386.40584 130.378608 
L 398.412782 114.463019 
L 410.032402 123.107527 
L 422.039343 115.351706 
L 434.046285 170.288766 
L 445.665905 149.04105 
L 457.672846 171.177454 
L 469.292467 105.576141 
L 481.299408 139.992594 
L 493.306349 196.949398 
L 504.151329 132.802302 
L 516.15827 111.393007 
L 527.77789 192.586749 
L 539.784832 115.594076 
L 551.404452 74.148912 
L 563.411393 161.15952 
L 575.418335 150.091318 
L 587.037955 225.064246 
L 599.044896 246.150383 
L 610.664517 204.786008 
L 622.671458 202.847053 
L 634.678399 242.676421 
L 645.910699 186.769884 
L 657.91764 210.037345 
L 669.537261 175.297733 
L 681.544202 152.99975 
L 693.163823 113.251172 
L 705.170764 135.387575 
L 717.177705 248.735656 
L 728.797326 262.79308 
L 740.804267 272.730225 
L 752.423888 165.118219 
L 764.430829 231.769799 
L 776.43777 221.347916 
L 787.282749 196.06071 
L 799.28969 221.267126 
L 810.909311 138.134428 
L 822.916252 113.735911 
L 834.535873 108.807733 
L 846.542814 195.495182 
L 858.549755 249.543554 
L 870.169376 208.987077 
L 882.176317 208.259969 
L 893.795938 134.014149 
" clip-path="url(#pb358f96adb)" style="fill: none; stroke: #3f74a3; stroke-width: 2.6; stroke-linecap: round"/>
    <defs>
     <path id="m04437190f1" d="M 0 2.25 
C 0.596707 2.25 1.169055 2.012926 1.59099 1.59099 
C 2.012926 1.169055 2.25 0.596707 2.25 0 
C 2.25 -0.596707 2.012926 -1.169055 1.59099 -1.59099 
C 1.169055 -2.012926 0.596707 -2.25 0 -2.25 
C -0.596707 -2.25 -1.169055 -2.012926 -1.59099 -1.59099 
C -2.012926 -1.169055 -2.25 -0.596707 -2.25 0 
C -2.25 0.596707 -2.012926 1.169055 -1.59099 1.59099 
C -1.169055 2.012926 -0.596707 2.25 0 2.25 
z
" style="stroke: #3f74a3"/>
    </defs>
    <g clip-path="url(#pb358f96adb)">
     <use xlink:href="#m04437190f1" x="56.795938" y="256.249107" style="fill: #3f74a3; stroke: #3f74a3"/>
     <use xlink:href="#m04437190f1" x="68.802879" y="275.638657" style="fill: #3f74a3; stroke: #3f74a3"/>
     <use xlink:href="#m04437190f1" x="80.035179" y="310.701428" style="fill: #3f74a3; stroke: #3f74a3"/>
     <use xlink:href="#m04437190f1" x="92.04212" y="364.992169" style="fill: #3f74a3; stroke: #3f74a3"/>
     <use xlink:href="#m04437190f1" x="103.66174" y="365.476908" style="fill: #3f74a3; stroke: #3f74a3"/>
     <use xlink:href="#m04437190f1" x="115.668682" y="361.275839" style="fill: #3f74a3; stroke: #3f74a3"/>
     <use xlink:href="#m04437190f1" x="127.288302" y="344.9563" style="fill: #3f74a3; stroke: #3f74a3"/>
     <use xlink:href="#m04437190f1" x="139.295243" y="346.814466" style="fill: #3f74a3; stroke: #3f74a3"/>
     <use xlink:href="#m04437190f1" x="151.302185" y="360.144782" style="fill: #3f74a3; stroke: #3f74a3"/>
     <use xlink:href="#m04437190f1" x="162.921805" y="353.681598" style="fill: #3f74a3; stroke: #3f74a3"/>
     <use xlink:href="#m04437190f1" x="174.928746" y="347.783943" style="fill: #3f74a3; stroke: #3f74a3"/>
     <use xlink:href="#m04437190f1" x="186.548367" y="321.60805" style="fill: #3f74a3; stroke: #3f74a3"/>
     <use xlink:href="#m04437190f1" x="198.555308" y="335.503895" style="fill: #3f74a3; stroke: #3f74a3"/>
     <use xlink:href="#m04437190f1" x="210.562249" y="332.191513" style="fill: #3f74a3; stroke: #3f74a3"/>
     <use xlink:href="#m04437190f1" x="221.407229" y="340.432072" style="fill: #3f74a3; stroke: #3f74a3"/>
     <use xlink:href="#m04437190f1" x="233.41417" y="320.719362" style="fill: #3f74a3; stroke: #3f74a3"/>
     <use xlink:href="#m04437190f1" x="245.03379" y="304.319034" style="fill: #3f74a3; stroke: #3f74a3"/>
     <use xlink:href="#m04437190f1" x="257.040732" y="219.166591" style="fill: #3f74a3; stroke: #3f74a3"/>
     <use xlink:href="#m04437190f1" x="268.660352" y="177.155899" style="fill: #3f74a3; stroke: #3f74a3"/>
     <use xlink:href="#m04437190f1" x="280.667293" y="212.461039" style="fill: #3f74a3; stroke: #3f74a3"/>
     <use xlink:href="#m04437190f1" x="292.674235" y="261.500443" style="fill: #3f74a3; stroke: #3f74a3"/>
     <use xlink:href="#m04437190f1" x="304.293855" y="279.678147" style="fill: #3f74a3; stroke: #3f74a3"/>
     <use xlink:href="#m04437190f1" x="316.300796" y="224.417928" style="fill: #3f74a3; stroke: #3f74a3"/>
     <use xlink:href="#m04437190f1" x="327.920417" y="200.746518" style="fill: #3f74a3; stroke: #3f74a3"/>
     <use xlink:href="#m04437190f1" x="339.927358" y="185.638827" style="fill: #3f74a3; stroke: #3f74a3"/>
     <use xlink:href="#m04437190f1" x="351.934299" y="172.79325" style="fill: #3f74a3; stroke: #3f74a3"/>
     <use xlink:href="#m04437190f1" x="362.779279" y="159.220564" style="fill: #3f74a3; stroke: #3f74a3"/>
     <use xlink:href="#m04437190f1" x="374.78622" y="161.401889" style="fill: #3f74a3; stroke: #3f74a3"/>
     <use xlink:href="#m04437190f1" x="386.40584" y="130.378608" style="fill: #3f74a3; stroke: #3f74a3"/>
     <use xlink:href="#m04437190f1" x="398.412782" y="114.463019" style="fill: #3f74a3; stroke: #3f74a3"/>
     <use xlink:href="#m04437190f1" x="410.032402" y="123.107527" style="fill: #3f74a3; stroke: #3f74a3"/>
     <use xlink:href="#m04437190f1" x="422.039343" y="115.351706" style="fill: #3f74a3; stroke: #3f74a3"/>
     <use xlink:href="#m04437190f1" x="434.046285" y="170.288766" style="fill: #3f74a3; stroke: #3f74a3"/>
     <use xlink:href="#m04437190f1" x="445.665905" y="149.04105" style="fill: #3f74a3; stroke: #3f74a3"/>
     <use xlink:href="#m04437190f1" x="457.672846" y="171.177454" style="fill: #3f74a3; stroke: #3f74a3"/>
     <use xlink:href="#m04437190f1" x="469.292467" y="105.576141" style="fill: #3f74a3; stroke: #3f74a3"/>
     <use xlink:href="#m04437190f1" x="481.299408" y="139.992594" style="fill: #3f74a3; stroke: #3f74a3"/>
     <use xlink:href="#m04437190f1" x="493.306349" y="196.949398" style="fill: #3f74a3; stroke: #3f74a3"/>
     <use xlink:href="#m04437190f1" x="504.151329" y="132.802302" style="fill: #3f74a3; stroke: #3f74a3"/>
     <use xlink:href="#m04437190f1" x="516.15827" y="111.393007" style="fill: #3f74a3; stroke: #3f74a3"/>
     <use xlink:href="#m04437190f1" x="527.77789" y="192.586749" style="fill: #3f74a3; stroke: #3f74a3"/>
     <use xlink:href="#m04437190f1" x="539.784832" y="115.594076" style="fill: #3f74a3; stroke: #3f74a3"/>
     <use xlink:href="#m04437190f1" x="551.404452" y="74.148912" style="fill: #3f74a3; stroke: #3f74a3"/>
     <use xlink:href="#m04437190f1" x="563.411393" y="161.15952" style="fill: #3f74a3; stroke: #3f74a3"/>
     <use xlink:href="#m04437190f1" x="575.418335" y="150.091318" style="fill: #3f74a3; stroke: #3f74a3"/>
     <use xlink:href="#m04437190f1" x="587.037955" y="225.064246" style="fill: #3f74a3; stroke: #3f74a3"/>
     <use xlink:href="#m04437190f1" x="599.044896" y="246.150383" style="fill: #3f74a3; stroke: #3f74a3"/>
     <use xlink:href="#m04437190f1" x="610.664517" y="204.786008" style="fill: #3f74a3; stroke: #3f74a3"/>
     <use xlink:href="#m04437190f1" x="622.671458" y="202.847053" style="fill: #3f74a3; stroke: #3f74a3"/>
     <use xlink:href="#m04437190f1" x="634.678399" y="242.676421" style="fill: #3f74a3; stroke: #3f74a3"/>
     <use xlink:href="#m04437190f1" x="645.910699" y="186.769884" style="fill: #3f74a3; stroke: #3f74a3"/>
     <use xlink:href="#m04437190f1" x="657.91764" y="210.037345" style="fill: #3f74a3; stroke: #3f74a3"/>
     <use xlink:href="#m04437190f1" x="669.537261" y="175.297733" style="fill: #3f74a3; stroke: #3f74a3"/>
     <use xlink:href="#m04437190f1" x="681.544202" y="152.99975" style="fill: #3f74a3; stroke: #3f74a3"/>
     <use xlink:href="#m04437190f1" x="693.163823" y="113.251172" style="fill: #3f74a3; stroke: #3f74a3"/>
     <use xlink:href="#m04437190f1" x="705.170764" y="135.387575" style="fill: #3f74a3; stroke: #3f74a3"/>
     <use xlink:href="#m04437190f1" x="717.177705" y="248.735656" style="fill: #3f74a3; stroke: #3f74a3"/>
     <use xlink:href="#m04437190f1" x="728.797326" y="262.79308" style="fill: #3f74a3; stroke: #3f74a3"/>
     <use xlink:href="#m04437190f1" x="740.804267" y="272.730225" style="fill: #3f74a3; stroke: #3f74a3"/>
     <use xlink:href="#m04437190f1" x="752.423888" y="165.118219" style="fill: #3f74a3; stroke: #3f74a3"/>
     <use xlink:href="#m04437190f1" x="764.430829" y="231.769799" style="fill: #3f74a3; stroke: #3f74a3"/>
     <use xlink:href="#m04437190f1" x="776.43777" y="221.347916" style="fill: #3f74a3; stroke: #3f74a3"/>
     <use xlink:href="#m04437190f1" x="787.282749" y="196.06071" style="fill: #3f74a3; stroke: #3f74a3"/>
     <use xlink:href="#m04437190f1" x="799.28969" y="221.267126" style="fill: #3f74a3; stroke: #3f74a3"/>
     <use xlink:href="#m04437190f1" x="810.909311" y="138.134428" style="fill: #3f74a3; stroke: #3f74a3"/>
     <use xlink:href="#m04437190f1" x="822.916252" y="113.735911" style="fill: #3f74a3; stroke: #3f74a3"/>
     <use xlink:href="#m04437190f1" x="834.535873" y="108.807733" style="fill: #3f74a3; stroke: #3f74a3"/>
     <use xlink:href="#m04437190f1" x="846.542814" y="195.495182" style="fill: #3f74a3; stroke: #3f74a3"/>
     <use xlink:href="#m04437190f1" x="858.549755" y="249.543554" style="fill: #3f74a3; stroke: #3f74a3"/>
     <use xlink:href="#m04437190f1" x="870.169376" y="208.987077" style="fill: #3f74a3; stroke: #3f74a3"/>
     <use xlink:href="#m04437190f1" x="882.176317" y="208.259969" style="fill: #3f74a3; stroke: #3f74a3"/>
     <use xlink:href="#m04437190f1" x="893.795938" y="134.014149" style="fill: #3f74a3; stroke: #3f74a3"/>
    </g>
   </g>
   <g id="line2d_17">
    <path d="M 56.795938 368.062181 
L 68.802879 367.739022 
L 80.035179 216.096579 
L 92.04212 274.42681 
L 103.66174 363.699533 
L 115.668682 367.658232 
L 127.288302 359.740833 
L 139.295243 363.295584 
L 151.302185 368.304551 
L 162.921805 369.274028 
L 174.928746 366.931124 
L 186.548367 361.760578 
L 198.555308 365.961647 
L 210.562249 351.742643 
L 221.407229 368.62771 
L 233.41417 366.769545 
L 245.03379 369.193239 
L 257.040732 364.50743 
L 268.660352 356.347661 
L 280.667293 361.114259 
L 292.674235 357.074769 
L 304.293855 366.365596 
L 316.300796 366.042437 
L 327.920417 351.904223 
L 339.927358 278.062351 
L 351.934299 342.613396 
L 362.779279 356.186082 
L 374.78622 326.859387 
L 386.40584 329.040711 
L 398.412782 309.73195 
L 410.032402 334.615207 
L 422.039343 331.383615 
L 434.046285 351.581063 
L 445.665905 361.437418 
L 457.672846 362.164526 
L 469.292467 344.552351 
L 481.299408 362.568475 
L 493.306349 357.640298 
L 504.151329 353.923968 
L 516.15827 340.674441 
L 527.77789 364.184271 
L 539.784832 326.940176 
L 551.404452 294.543469 
L 563.411393 353.03528 
L 575.418335 323.466215 
L 587.037955 368.7085 
L 599.044896 369.112449 
L 610.664517 365.234539 
L 622.671458 346.329727 
L 634.678399 359.336884 
L 645.910699 363.134004 
L 657.91764 360.7911 
L 669.537261 361.841367 
L 681.544202 340.512862 
L 693.163823 334.292048 
L 705.170764 313.044332 
L 717.177705 367.254283 
L 728.797326 363.780322 
L 740.804267 369.031659 
L 752.423888 365.396118 
L 764.430829 355.297394 
L 776.43777 352.8737 
L 787.282749 361.841367 
L 799.28969 365.476908 
L 810.909311 359.579253 
L 822.916252 339.381805 
L 834.535873 298.986908 
L 846.542814 359.902412 
L 858.549755 362.891635 
L 870.169376 356.266872 
L 882.176317 345.27946 
L 893.795938 334.776786 
" clip-path="url(#pb358f96adb)" style="fill: none; stroke: #b54646; stroke-width: 2.6; stroke-linecap: round"/>
    <defs>
     <path id="mdb83200708" d="M 0 2.25 
C 0.596707 2.25 1.169055 2.012926 1.59099 1.59099 
C 2.012926 1.169055 2.25 0.596707 2.25 0 
C 2.25 -0.596707 2.012926 -1.169055 1.59099 -1.59099 
C 1.169055 -2.012926 0.596707 -2.25 0 -2.25 
C -0.596707 -2.25 -1.169055 -2.012926 -1.59099 -1.59099 
C -2.012926 -1.169055 -2.25 -0.596707 -2.25 0 
C -2.25 0.596707 -2.012926 1.169055 -1.59099 1.59099 
C -1.169055 2.012926 -0.596707 2.25 0 2.25 
z
" style="stroke: #b54646"/>
    </defs>
    <g clip-path="url(#pb358f96adb)">
     <use xlink:href="#mdb83200708" x="56.795938" y="368.062181" style="fill: #b54646; stroke: #b54646"/>
     <use xlink:href="#mdb83200708" x="68.802879" y="367.739022" style="fill: #b54646; stroke: #b54646"/>
     <use xlink:href="#mdb83200708" x="80.035179" y="216.096579" style="fill: #b54646; stroke: #b54646"/>
     <use xlink:href="#mdb83200708" x="92.04212" y="274.42681" style="fill: #b54646; stroke: #b54646"/>
     <use xlink:href="#mdb83200708" x="103.66174" y="363.699533" style="fill: #b54646; stroke: #b54646"/>
     <use xlink:href="#mdb83200708" x="115.668682" y="367.658232" style="fill: #b54646; stroke: #b54646"/>
     <use xlink:href="#mdb83200708" x="127.288302" y="359.740833" style="fill: #b54646; stroke: #b54646"/>
     <use xlink:href="#mdb83200708" x="139.295243" y="363.295584" style="fill: #b54646; stroke: #b54646"/>
     <use xlink:href="#mdb83200708" x="151.302185" y="368.304551" style="fill: #b54646; stroke: #b54646"/>
     <use xlink:href="#mdb83200708" x="162.921805" y="369.274028" style="fill: #b54646; stroke: #b54646"/>
     <use xlink:href="#mdb83200708" x="174.928746" y="366.931124" style="fill: #b54646; stroke: #b54646"/>
     <use xlink:href="#mdb83200708" x="186.548367" y="361.760578" style="fill: #b54646; stroke: #b54646"/>
     <use xlink:href="#mdb83200708" x="198.555308" y="365.961647" style="fill: #b54646; stroke: #b54646"/>
     <use xlink:href="#mdb83200708" x="210.562249" y="351.742643" style="fill: #b54646; stroke: #b54646"/>
     <use xlink:href="#mdb83200708" x="221.407229" y="368.62771" style="fill: #b54646; stroke: #b54646"/>
     <use xlink:href="#mdb83200708" x="233.41417" y="366.769545" style="fill: #b54646; stroke: #b54646"/>
     <use xlink:href="#mdb83200708" x="245.03379" y="369.193239" style="fill: #b54646; stroke: #b54646"/>
     <use xlink:href="#mdb83200708" x="257.040732" y="364.50743" style="fill: #b54646; stroke: #b54646"/>
     <use xlink:href="#mdb83200708" x="268.660352" y="356.347661" style="fill: #b54646; stroke: #b54646"/>
     <use xlink:href="#mdb83200708" x="280.667293" y="361.114259" style="fill: #b54646; stroke: #b54646"/>
     <use xlink:href="#mdb83200708" x="292.674235" y="357.074769" style="fill: #b54646; stroke: #b54646"/>
     <use xlink:href="#mdb83200708" x="304.293855" y="366.365596" style="fill: #b54646; stroke: #b54646"/>
     <use xlink:href="#mdb83200708" x="316.300796" y="366.042437" style="fill: #b54646; stroke: #b54646"/>
     <use xlink:href="#mdb83200708" x="327.920417" y="351.904223" style="fill: #b54646; stroke: #b54646"/>
     <use xlink:href="#mdb83200708" x="339.927358" y="278.062351" style="fill: #b54646; stroke: #b54646"/>
     <use xlink:href="#mdb83200708" x="351.934299" y="342.613396" style="fill: #b54646; stroke: #b54646"/>
     <use xlink:href="#mdb83200708" x="362.779279" y="356.186082" style="fill: #b54646; stroke: #b54646"/>
     <use xlink:href="#mdb83200708" x="374.78622" y="326.859387" style="fill: #b54646; stroke: #b54646"/>
     <use xlink:href="#mdb83200708" x="386.40584" y="329.040711" style="fill: #b54646; stroke: #b54646"/>
     <use xlink:href="#mdb83200708" x="398.412782" y="309.73195" style="fill: #b54646; stroke: #b54646"/>
     <use xlink:href="#mdb83200708" x="410.032402" y="334.615207" style="fill: #b54646; stroke: #b54646"/>
     <use xlink:href="#mdb83200708" x="422.039343" y="331.383615" style="fill: #b54646; stroke: #b54646"/>
     <use xlink:href="#mdb83200708" x="434.046285" y="351.581063" style="fill: #b54646; stroke: #b54646"/>
     <use xlink:href="#mdb83200708" x="445.665905" y="361.437418" style="fill: #b54646; stroke: #b54646"/>
     <use xlink:href="#mdb83200708" x="457.672846" y="362.164526" style="fill: #b54646; stroke: #b54646"/>
     <use xlink:href="#mdb83200708" x="469.292467" y="344.552351" style="fill: #b54646; stroke: #b54646"/>
     <use xlink:href="#mdb83200708" x="481.299408" y="362.568475" style="fill: #b54646; stroke: #b54646"/>
     <use xlink:href="#mdb83200708" x="493.306349" y="357.640298" style="fill: #b54646; stroke: #b54646"/>
     <use xlink:href="#mdb83200708" x="504.151329" y="353.923968" style="fill: #b54646; stroke: #b54646"/>
     <use xlink:href="#mdb83200708" x="516.15827" y="340.674441" style="fill: #b54646; stroke: #b54646"/>
     <use xlink:href="#mdb83200708" x="527.77789" y="364.184271" style="fill: #b54646; stroke: #b54646"/>
     <use xlink:href="#mdb83200708" x="539.784832" y="326.940176" style="fill: #b54646; stroke: #b54646"/>
     <use xlink:href="#mdb83200708" x="551.404452" y="294.543469" style="fill: #b54646; stroke: #b54646"/>
     <use xlink:href="#mdb83200708" x="563.411393" y="353.03528" style="fill: #b54646; stroke: #b54646"/>
     <use xlink:href="#mdb83200708" x="575.418335" y="323.466215" style="fill: #b54646; stroke: #b54646"/>
     <use xlink:href="#mdb83200708" x="587.037955" y="368.7085" style="fill: #b54646; stroke: #b54646"/>
     <use xlink:href="#mdb83200708" x="599.044896" y="369.112449" style="fill: #b54646; stroke: #b54646"/>
     <use xlink:href="#mdb83200708" x="610.664517" y="365.234539" style="fill: #b54646; stroke: #b54646"/>
     <use xlink:href="#mdb83200708" x="622.671458" y="346.329727" style="fill: #b54646; stroke: #b54646"/>
     <use xlink:href="#mdb83200708" x="634.678399" y="359.336884" style="fill: #b54646; stroke: #b54646"/>
     <use xlink:href="#mdb83200708" x="645.910699" y="363.134004" style="fill: #b54646; stroke: #b54646"/>
     <use xlink:href="#mdb83200708" x="657.91764" y="360.7911" style="fill: #b54646; stroke: #b54646"/>
     <use xlink:href="#mdb83200708" x="669.537261" y="361.841367" style="fill: #b54646; stroke: #b54646"/>
     <use xlink:href="#mdb83200708" x="681.544202" y="340.512862" style="fill: #b54646; stroke: #b54646"/>
     <use xlink:href="#mdb83200708" x="693.163823" y="334.292048" style="fill: #b54646; stroke: #b54646"/>
     <use xlink:href="#mdb83200708" x="705.170764" y="313.044332" style="fill: #b54646; stroke: #b54646"/>
     <use xlink:href="#mdb83200708" x="717.177705" y="367.254283" style="fill: #b54646; stroke: #b54646"/>
     <use xlink:href="#mdb83200708" x="728.797326" y="363.780322" style="fill: #b54646; stroke: #b54646"/>
     <use xlink:href="#mdb83200708" x="740.804267" y="369.031659" style="fill: #b54646; stroke: #b54646"/>
     <use xlink:href="#mdb83200708" x="752.423888" y="365.396118" style="fill: #b54646; stroke: #b54646"/>
     <use xlink:href="#mdb83200708" x="764.430829" y="355.297394" style="fill: #b54646; stroke: #b54646"/>
     <use xlink:href="#mdb83200708" x="776.43777" y="352.8737" style="fill: #b54646; stroke: #b54646"/>
     <use xlink:href="#mdb83200708" x="787.282749" y="361.841367" style="fill: #b54646; stroke: #b54646"/>
     <use xlink:href="#mdb83200708" x="799.28969" y="365.476908" style="fill: #b54646; stroke: #b54646"/>
     <use xlink:href="#mdb83200708" x="810.909311" y="359.579253" style="fill: #b54646; stroke: #b54646"/>
     <use xlink:href="#mdb83200708" x="822.916252" y="339.381805" style="fill: #b54646; stroke: #b54646"/>
     <use xlink:href="#mdb83200708" x="834.535873" y="298.986908" style="fill: #b54646; stroke: #b54646"/>
     <use xlink:href="#mdb83200708" x="846.542814" y="359.902412" style="fill: #b54646; stroke: #b54646"/>
     <use xlink:href="#mdb83200708" x="858.549755" y="362.891635" style="fill: #b54646; stroke: #b54646"/>
     <use xlink:href="#mdb83200708" x="870.169376" y="356.266872" style="fill: #b54646; stroke: #b54646"/>
     <use xlink:href="#mdb83200708" x="882.176317" y="345.27946" style="fill: #b54646; stroke: #b54646"/>
     <use xlink:href="#mdb83200708" x="893.795938" y="334.776786" style="fill: #b54646; stroke: #b54646"/>
    </g>
   </g>
   <g id="patch_3">
    <path d="M 56.795938 369.597187 
L 56.795938 26.877187 
" style="fill: none; stroke: #d1dfe6; stroke-width: 1.25; stroke-linejoin: miter; stroke-linecap: square"/>
   </g>
   <g id="patch_4">
    <path d="M 56.795938 369.597187 
L 893.795938 369.597187 
" style="fill: none; stroke: #d1dfe6; stroke-width: 1.25; stroke-linejoin: miter; stroke-linecap: square"/>
   </g>
   <g id="patch_5">
    <path d="M 454.080571 60.233977 
Q 501.751987 67.049823 547.98459 73.659955 
" style="fill: none; stroke: #3e3a39; stroke-width: 1.3; stroke-linecap: round"/>
    <path d="M 544.124097 70.986643 
L 547.98459 73.659955 
L 543.529645 75.144362 
" style="fill: none; stroke: #3e3a39; stroke-width: 1.3; stroke-linecap: round"/>
   </g>
   <g id="text_18">
    <g id="patch_6">
     <path d="M 334.232499 66.348912 
L 447.404452 66.348912 
Q 451.604452 66.348912 451.604452 62.148912 
L 451.604452 40.229177 
Q 451.604452 36.029177 447.404452 36.029177 
L 334.232499 36.029177 
Q 330.032499 36.029177 330.032499 40.229177 
L 330.032499 62.148912 
Q 330.032499 66.348912 334.232499 66.348912 
z
" style="fill: #ffffff; stroke: #d1dfe6; stroke-linejoin: miter"/>
    </g>
    <!-- Peak delays: 2023-07 -->
    <g style="fill: #3e3a39" transform="translate(334.232499 48.207537) scale(0.105 -0.105)">
     <defs>
      <path id="DejaVuSans-50" d="M 1259 4147 
L 1259 2394 
L 2053 2394 
Q 2494 2394 2734 2622 
Q 2975 2850 2975 3272 
Q 2975 3691 2734 3919 
Q 2494 4147 2053 4147 
L 1259 4147 
z
M 628 4666 
L 2053 4666 
Q 2838 4666 3239 4311 
Q 3641 3956 3641 3272 
Q 3641 2581 3239 2228 
Q 2838 1875 2053 1875 
L 1259 1875 
L 1259 0 
L 628 0 
L 628 4666 
z
" transform="scale(0.015625)"/>
      <path id="DejaVuSans-6b" d="M 581 4863 
L 1159 4863 
L 1159 1991 
L 2875 3500 
L 3609 3500 
L 1753 1863 
L 3688 0 
L 2938 0 
L 1159 1709 
L 1159 0 
L 581 0 
L 581 4863 
z
" transform="scale(0.015625)"/>
      <path id="DejaVuSans-20" transform="scale(0.015625)"/>
      <path id="DejaVuSans-64" d="M 2906 2969 
L 2906 4863 
L 3481 4863 
L 3481 0 
L 2906 0 
L 2906 525 
Q 2725 213 2448 61 
Q 2172 -91 1784 -91 
Q 1150 -91 751 415 
Q 353 922 353 1747 
Q 353 2572 751 3078 
Q 1150 3584 1784 3584 
Q 2172 3584 2448 3432 
Q 2725 3281 2906 2969 
z
M 947 1747 
Q 947 1113 1208 752 
Q 1469 391 1925 391 
Q 2381 391 2643 752 
Q 2906 1113 2906 1747 
Q 2906 2381 2643 2742 
Q 2381 3103 1925 3103 
Q 1469 3103 1208 2742 
Q 947 2381 947 1747 
z
" transform="scale(0.015625)"/>
      <path id="DejaVuSans-79" d="M 2059 -325 
Q 1816 -950 1584 -1140 
Q 1353 -1331 966 -1331 
L 506 -1331 
L 506 -850 
L 844 -850 
Q 1081 -850 1212 -737 
Q 1344 -625 1503 -206 
L 1606 56 
L 191 3500 
L 800 3500 
L 1894 763 
L 2988 3500 
L 3597 3500 
L 2059 -325 
z
" transform="scale(0.015625)"/>
      <path id="DejaVuSans-3a" d="M 750 794 
L 1409 794 
L 1409 0 
L 750 0 
L 750 794 
z
M 750 3309 
L 1409 3309 
L 1409 2516 
L 750 2516 
L 750 3309 
z
" transform="scale(0.015625)"/>
      <path id="DejaVuSans-37" d="M 525 4666 
L 3525 4666 
L 3525 4397 
L 1831 0 
L 1172 0 
L 2766 4134 
L 525 4134 
L 525 4666 
z
" transform="scale(0.015625)"/>
     </defs>
     <use xlink:href="#DejaVuSans-50"/>
     <use xlink:href="#DejaVuSans-65" transform="translate(56.677734 0)"/>
     <use xlink:href="#DejaVuSans-61" transform="translate(118.201172 0)"/>
     <use xlink:href="#DejaVuSans-6b" transform="translate(179.480469 0)"/>
     <use xlink:href="#DejaVuSans-20" transform="translate(237.390625 0)"/>
     <use xlink:href="#DejaVuSans-64" transform="translate(269.177734 0)"/>
     <use xlink:href="#DejaVuSans-65" transform="translate(332.654297 0)"/>
     <use xlink:href="#DejaVuSans-6c" transform="translate(394.177734 0)"/>
     <use xlink:href="#DejaVuSans-61" transform="translate(421.960938 0)"/>
     <use xlink:href="#DejaVuSans-79" transform="translate(483.240234 0)"/>
     <use xlink:href="#DejaVuSans-73" transform="translate(542.419922 0)"/>
     <use xlink:href="#DejaVuSans-3a" transform="translate(594.519531 0)"/>
     <use xlink:href="#DejaVuSans-20" transform="translate(628.210938 0)"/>
     <use xlink:href="#DejaVuSans-32" transform="translate(659.998047 0)"/>
     <use xlink:href="#DejaVuSans-30" transform="translate(723.621094 0)"/>
     <use xlink:href="#DejaVuSans-32" transform="translate(787.244141 0)"/>
     <use xlink:href="#DejaVuSans-33" transform="translate(850.867188 0)"/>
     <use xlink:href="#DejaVuSans-2d" transform="translate(914.490234 0)"/>
     <use xlink:href="#DejaVuSans-30" transform="translate(950.574219 0)"/>
     <use xlink:href="#DejaVuSans-37" transform="translate(1014.197266 0)"/>
    </g>
    <!-- 3,657 -->
    <g style="fill: #3e3a39" transform="translate(417.344921 59.96524) scale(0.105 -0.105)">
     <defs>
      <path id="DejaVuSans-2c" d="M 750 794 
L 1409 794 
L 1409 256 
L 897 -744 
L 494 -744 
L 750 256 
L 750 794 
z
" transform="scale(0.015625)"/>
      <path id="DejaVuSans-36" d="M 2113 2584 
Q 1688 2584 1439 2293 
Q 1191 2003 1191 1497 
Q 1191 994 1439 701 
Q 1688 409 2113 409 
Q 2538 409 2786 701 
Q 3034 994 3034 1497 
Q 3034 2003 2786 2293 
Q 2538 2584 2113 2584 
z
M 3366 4563 
L 3366 3988 
Q 3128 4100 2886 4159 
Q 2644 4219 2406 4219 
Q 1781 4219 1451 3797 
Q 1122 3375 1075 2522 
Q 1259 2794 1537 2939 
Q 1816 3084 2150 3084 
Q 2853 3084 3261 2657 
Q 3669 2231 3669 1497 
Q 3669 778 3244 343 
Q 2819 -91 2113 -91 
Q 1303 -91 875 529 
Q 447 1150 447 2328 
Q 447 3434 972 4092 
Q 1497 4750 2381 4750 
Q 2619 4750 2861 4703 
Q 3103 4656 3366 4563 
z
" transform="scale(0.015625)"/>
     </defs>
     <use xlink:href="#DejaVuSans-33"/>
     <use xlink:href="#DejaVuSans-2c" transform="translate(63.623047 0)"/>
     <use xlink:href="#DejaVuSans-36" transform="translate(95.410156 0)"/>
     <use xlink:href="#DejaVuSans-35" transform="translate(159.033203 0)"/>
     <use xlink:href="#DejaVuSans-37" transform="translate(222.65625 0)"/>
    </g>
   </g>
   <g id="text_19">
    <!-- Chart 1. Monthly Delay and Cancellation Trend at JFK -->
    <g style="fill: #1f1f1f" transform="translate(56.795938 20.877187) scale(0.18 -0.18)">
     <defs>
      <path id="DejaVuSans-Bold-43" d="M 4288 256 
Q 3956 84 3597 -3 
Q 3238 -91 2847 -91 
Q 1681 -91 1000 561 
Q 319 1213 319 2328 
Q 319 3447 1000 4098 
Q 1681 4750 2847 4750 
Q 3238 4750 3597 4662 
Q 3956 4575 4288 4403 
L 4288 3438 
Q 3953 3666 3628 3772 
Q 3303 3878 2944 3878 
Q 2300 3878 1931 3465 
Q 1563 3053 1563 2328 
Q 1563 1606 1931 1193 
Q 2300 781 2944 781 
Q 3303 781 3628 887 
Q 3953 994 4288 1222 
L 4288 256 
z
" transform="scale(0.015625)"/>
      <path id="DejaVuSans-Bold-68" d="M 4056 2131 
L 4056 0 
L 2931 0 
L 2931 347 
L 2931 1625 
Q 2931 2084 2911 2256 
Q 2891 2428 2841 2509 
Q 2775 2619 2662 2680 
Q 2550 2741 2406 2741 
Q 2056 2741 1856 2470 
Q 1656 2200 1656 1722 
L 1656 0 
L 538 0 
L 538 4863 
L 1656 4863 
L 1656 2988 
Q 1909 3294 2193 3439 
Q 2478 3584 2822 3584 
Q 3428 3584 3742 3212 
Q 4056 2841 4056 2131 
z
" transform="scale(0.015625)"/>
      <path id="DejaVuSans-Bold-61" d="M 2106 1575 
Q 1756 1575 1579 1456 
Q 1403 1338 1403 1106 
Q 1403 894 1545 773 
Q 1688 653 1941 653 
Q 2256 653 2472 879 
Q 2688 1106 2688 1447 
L 2688 1575 
L 2106 1575 
z
M 3816 1997 
L 3816 0 
L 2688 0 
L 2688 519 
Q 2463 200 2181 54 
Q 1900 -91 1497 -91 
Q 953 -91 614 226 
Q 275 544 275 1050 
Q 275 1666 698 1953 
Q 1122 2241 2028 2241 
L 2688 2241 
L 2688 2328 
Q 2688 2594 2478 2717 
Q 2269 2841 1825 2841 
Q 1466 2841 1156 2769 
Q 847 2697 581 2553 
L 581 3406 
Q 941 3494 1303 3539 
Q 1666 3584 2028 3584 
Q 2975 3584 3395 3211 
Q 3816 2838 3816 1997 
z
" transform="scale(0.015625)"/>
      <path id="DejaVuSans-Bold-72" d="M 3138 2547 
Q 2991 2616 2845 2648 
Q 2700 2681 2553 2681 
Q 2122 2681 1889 2404 
Q 1656 2128 1656 1613 
L 1656 0 
L 538 0 
L 538 3500 
L 1656 3500 
L 1656 2925 
Q 1872 3269 2151 3426 
Q 2431 3584 2822 3584 
Q 2878 3584 2943 3579 
Q 3009 3575 3134 3559 
L 3138 2547 
z
" transform="scale(0.015625)"/>
      <path id="DejaVuSans-Bold-74" d="M 1759 4494 
L 1759 3500 
L 2913 3500 
L 2913 2700 
L 1759 2700 
L 1759 1216 
Q 1759 972 1856 886 
Q 1953 800 2241 800 
L 2816 800 
L 2816 0 
L 1856 0 
Q 1194 0 917 276 
Q 641 553 641 1216 
L 641 2700 
L 84 2700 
L 84 3500 
L 641 3500 
L 641 4494 
L 1759 4494 
z
" transform="scale(0.015625)"/>
      <path id="DejaVuSans-Bold-20" transform="scale(0.015625)"/>
      <path id="DejaVuSans-Bold-31" d="M 750 831 
L 1813 831 
L 1813 3847 
L 722 3622 
L 722 4441 
L 1806 4666 
L 2950 4666 
L 2950 831 
L 4013 831 
L 4013 0 
L 750 0 
L 750 831 
z
" transform="scale(0.015625)"/>
      <path id="DejaVuSans-Bold-2e" d="M 653 1209 
L 1778 1209 
L 1778 0 
L 653 0 
L 653 1209 
z
" transform="scale(0.015625)"/>
      <path id="DejaVuSans-Bold-4d" d="M 588 4666 
L 2119 4666 
L 3181 2169 
L 4250 4666 
L 5778 4666 
L 5778 0 
L 4641 0 
L 4641 3413 
L 3566 897 
L 2803 897 
L 1728 3413 
L 1728 0 
L 588 0 
L 588 4666 
z
" transform="scale(0.015625)"/>
      <path id="DejaVuSans-Bold-6f" d="M 2203 2784 
Q 1831 2784 1636 2517 
Q 1441 2250 1441 1747 
Q 1441 1244 1636 976 
Q 1831 709 2203 709 
Q 2569 709 2762 976 
Q 2956 1244 2956 1747 
Q 2956 2250 2762 2517 
Q 2569 2784 2203 2784 
z
M 2203 3584 
Q 3106 3584 3614 3096 
Q 4122 2609 4122 1747 
Q 4122 884 3614 396 
Q 3106 -91 2203 -91 
Q 1297 -91 786 396 
Q 275 884 275 1747 
Q 275 2609 786 3096 
Q 1297 3584 2203 3584 
z
" transform="scale(0.015625)"/>
      <path id="DejaVuSans-Bold-6e" d="M 4056 2131 
L 4056 0 
L 2931 0 
L 2931 347 
L 2931 1631 
Q 2931 2084 2911 2256 
Q 2891 2428 2841 2509 
Q 2775 2619 2662 2680 
Q 2550 2741 2406 2741 
Q 2056 2741 1856 2470 
Q 1656 2200 1656 1722 
L 1656 0 
L 538 0 
L 538 3500 
L 1656 3500 
L 1656 2988 
Q 1909 3294 2193 3439 
Q 2478 3584 2822 3584 
Q 3428 3584 3742 3212 
Q 4056 2841 4056 2131 
z
" transform="scale(0.015625)"/>
      <path id="DejaVuSans-Bold-6c" d="M 538 4863 
L 1656 4863 
L 1656 0 
L 538 0 
L 538 4863 
z
" transform="scale(0.015625)"/>
      <path id="DejaVuSans-Bold-79" d="M 78 3500 
L 1197 3500 
L 2138 1125 
L 2938 3500 
L 4056 3500 
L 2584 -331 
Q 2363 -916 2067 -1148 
Q 1772 -1381 1288 -1381 
L 641 -1381 
L 641 -647 
L 991 -647 
Q 1275 -647 1404 -556 
Q 1534 -466 1606 -231 
L 1638 -134 
L 78 3500 
z
" transform="scale(0.015625)"/>
      <path id="DejaVuSans-Bold-44" d="M 1791 3756 
L 1791 909 
L 2222 909 
Q 2959 909 3348 1275 
Q 3738 1641 3738 2338 
Q 3738 3031 3350 3393 
Q 2963 3756 2222 3756 
L 1791 3756 
z
M 588 4666 
L 1856 4666 
Q 2919 4666 3439 4514 
Q 3959 4363 4331 4000 
Q 4659 3684 4818 3271 
Q 4978 2859 4978 2338 
Q 4978 1809 4818 1395 
Q 4659 981 4331 666 
Q 3956 303 3431 151 
Q 2906 0 1856 0 
L 588 0 
L 588 4666 
z
" transform="scale(0.015625)"/>
      <path id="DejaVuSans-Bold-65" d="M 4031 1759 
L 4031 1441 
L 1416 1441 
Q 1456 1047 1700 850 
Q 1944 653 2381 653 
Q 2734 653 3104 758 
Q 3475 863 3866 1075 
L 3866 213 
Q 3469 63 3072 -14 
Q 2675 -91 2278 -91 
Q 1328 -91 801 392 
Q 275 875 275 1747 
Q 275 2603 792 3093 
Q 1309 3584 2216 3584 
Q 3041 3584 3536 3087 
Q 4031 2591 4031 1759 
z
M 2881 2131 
Q 2881 2450 2695 2645 
Q 2509 2841 2209 2841 
Q 1884 2841 1681 2658 
Q 1478 2475 1428 2131 
L 2881 2131 
z
" transform="scale(0.015625)"/>
      <path id="DejaVuSans-Bold-64" d="M 2919 2988 
L 2919 4863 
L 4044 4863 
L 4044 0 
L 2919 0 
L 2919 506 
Q 2688 197 2409 53 
Q 2131 -91 1766 -91 
Q 1119 -91 703 423 
Q 288 938 288 1747 
Q 288 2556 703 3070 
Q 1119 3584 1766 3584 
Q 2128 3584 2408 3439 
Q 2688 3294 2919 2988 
z
M 2181 722 
Q 2541 722 2730 984 
Q 2919 1247 2919 1747 
Q 2919 2247 2730 2509 
Q 2541 2772 2181 2772 
Q 1825 2772 1636 2509 
Q 1447 2247 1447 1747 
Q 1447 1247 1636 984 
Q 1825 722 2181 722 
z
" transform="scale(0.015625)"/>
      <path id="DejaVuSans-Bold-63" d="M 3366 3391 
L 3366 2478 
Q 3138 2634 2908 2709 
Q 2678 2784 2431 2784 
Q 1963 2784 1702 2511 
Q 1441 2238 1441 1747 
Q 1441 1256 1702 982 
Q 1963 709 2431 709 
Q 2694 709 2930 787 
Q 3166 866 3366 1019 
L 3366 103 
Q 3103 6 2833 -42 
Q 2563 -91 2291 -91 
Q 1344 -91 809 395 
Q 275 881 275 1747 
Q 275 2613 809 3098 
Q 1344 3584 2291 3584 
Q 2566 3584 2833 3536 
Q 3100 3488 3366 3391 
z
" transform="scale(0.015625)"/>
      <path id="DejaVuSans-Bold-69" d="M 538 3500 
L 1656 3500 
L 1656 0 
L 538 0 
L 538 3500 
z
M 538 4863 
L 1656 4863 
L 1656 3950 
L 538 3950 
L 538 4863 
z
" transform="scale(0.015625)"/>
      <path id="DejaVuSans-Bold-54" d="M 31 4666 
L 4331 4666 
L 4331 3756 
L 2784 3756 
L 2784 0 
L 1581 0 
L 1581 3756 
L 31 3756 
L 31 4666 
z
" transform="scale(0.015625)"/>
      <path id="DejaVuSans-Bold-4a" d="M 588 4666 
L 1791 4666 
L 1791 453 
Q 1791 -419 1317 -850 
Q 844 -1281 -116 -1281 
L -359 -1281 
L -359 -372 
L -172 -372 
Q 203 -372 395 -162 
Q 588 47 588 453 
L 588 4666 
z
" transform="scale(0.015625)"/>
      <path id="DejaVuSans-Bold-46" d="M 588 4666 
L 3834 4666 
L 3834 3756 
L 1791 3756 
L 1791 2888 
L 3713 2888 
L 3713 1978 
L 1791 1978 
L 1791 0 
L 588 0 
L 588 4666 
z
" transform="scale(0.015625)"/>
      <path id="DejaVuSans-Bold-4b" d="M 588 4666 
L 1791 4666 
L 1791 2963 
L 3525 4666 
L 4922 4666 
L 2675 2456 
L 5153 0 
L 3647 0 
L 1791 1838 
L 1791 0 
L 588 0 
L 588 4666 
z
" transform="scale(0.015625)"/>
     </defs>
     <use xlink:href="#DejaVuSans-Bold-43"/>
     <use xlink:href="#DejaVuSans-Bold-68" transform="translate(73.388672 0)"/>
     <use xlink:href="#DejaVuSans-Bold-61" transform="translate(144.580078 0)"/>
     <use xlink:href="#DejaVuSans-Bold-72" transform="translate(212.060547 0)"/>
     <use xlink:href="#DejaVuSans-Bold-74" transform="translate(261.376953 0)"/>
     <use xlink:href="#DejaVuSans-Bold-20" transform="translate(309.179688 0)"/>
     <use xlink:href="#DejaVuSans-Bold-31" transform="translate(343.994141 0)"/>
     <use xlink:href="#DejaVuSans-Bold-2e" transform="translate(413.574219 0)"/>
     <use xlink:href="#DejaVuSans-Bold-20" transform="translate(451.5625 0)"/>
     <use xlink:href="#DejaVuSans-Bold-4d" transform="translate(486.376953 0)"/>
     <use xlink:href="#DejaVuSans-Bold-6f" transform="translate(585.888672 0)"/>
     <use xlink:href="#DejaVuSans-Bold-6e" transform="translate(654.589844 0)"/>
     <use xlink:href="#DejaVuSans-Bold-74" transform="translate(725.78125 0)"/>
     <use xlink:href="#DejaVuSans-Bold-68" transform="translate(773.583984 0)"/>
     <use xlink:href="#DejaVuSans-Bold-6c" transform="translate(844.775391 0)"/>
     <use xlink:href="#DejaVuSans-Bold-79" transform="translate(879.052734 0)"/>
     <use xlink:href="#DejaVuSans-Bold-20" transform="translate(944.238281 0)"/>
     <use xlink:href="#DejaVuSans-Bold-44" transform="translate(979.052734 0)"/>
     <use xlink:href="#DejaVuSans-Bold-65" transform="translate(1062.060547 0)"/>
     <use xlink:href="#DejaVuSans-Bold-6c" transform="translate(1129.882812 0)"/>
     <use xlink:href="#DejaVuSans-Bold-61" transform="translate(1164.160156 0)"/>
     <use xlink:href="#DejaVuSans-Bold-79" transform="translate(1228.515625 0)"/>
     <use xlink:href="#DejaVuSans-Bold-20" transform="translate(1293.701172 0)"/>
     <use xlink:href="#DejaVuSans-Bold-61" transform="translate(1328.515625 0)"/>
     <use xlink:href="#DejaVuSans-Bold-6e" transform="translate(1395.996094 0)"/>
     <use xlink:href="#DejaVuSans-Bold-64" transform="translate(1467.1875 0)"/>
     <use xlink:href="#DejaVuSans-Bold-20" transform="translate(1538.769531 0)"/>
     <use xlink:href="#DejaVuSans-Bold-43" transform="translate(1573.583984 0)"/>
     <use xlink:href="#DejaVuSans-Bold-61" transform="translate(1646.972656 0)"/>
     <use xlink:href="#DejaVuSans-Bold-6e" transform="translate(1714.453125 0)"/>
     <use xlink:href="#DejaVuSans-Bold-63" transform="translate(1785.644531 0)"/>
     <use xlink:href="#DejaVuSans-Bold-65" transform="translate(1844.921875 0)"/>
     <use xlink:href="#DejaVuSans-Bold-6c" transform="translate(1912.744141 0)"/>
     <use xlink:href="#DejaVuSans-Bold-6c" transform="translate(1947.021484 0)"/>
     <use xlink:href="#DejaVuSans-Bold-61" transform="translate(1981.298828 0)"/>
     <use xlink:href="#DejaVuSans-Bold-74" transform="translate(2048.779297 0)"/>
     <use xlink:href="#DejaVuSans-Bold-69" transform="translate(2096.582031 0)"/>
     <use xlink:href="#DejaVuSans-Bold-6f" transform="translate(2130.859375 0)"/>
     <use xlink:href="#DejaVuSans-Bold-6e" transform="translate(2199.560547 0)"/>
     <use xlink:href="#DejaVuSans-Bold-20" transform="translate(2270.751953 0)"/>
     <use xlink:href="#DejaVuSans-Bold-54" transform="translate(2305.566406 0)"/>
     <use xlink:href="#DejaVuSans-Bold-72" transform="translate(2362.779297 0)"/>
     <use xlink:href="#DejaVuSans-Bold-65" transform="translate(2412.095703 0)"/>
     <use xlink:href="#DejaVuSans-Bold-6e" transform="translate(2479.917969 0)"/>
     <use xlink:href="#DejaVuSans-Bold-64" transform="translate(2551.109375 0)"/>
     <use xlink:href="#DejaVuSans-Bold-20" transform="translate(2622.691406 0)"/>
     <use xlink:href="#DejaVuSans-Bold-61" transform="translate(2657.505859 0)"/>
     <use xlink:href="#DejaVuSans-Bold-74" transform="translate(2724.986328 0)"/>
     <use xlink:href="#DejaVuSans-Bold-20" transform="translate(2772.789062 0)"/>
     <use xlink:href="#DejaVuSans-Bold-4a" transform="translate(2807.603516 0)"/>
     <use xlink:href="#DejaVuSans-Bold-46" transform="translate(2844.810547 0)"/>
     <use xlink:href="#DejaVuSans-Bold-4b" transform="translate(2913.121094 0)"/>
    </g>
   </g>
   <g id="legend_1">
    <g id="line2d_18">
     <path d="M 66.695938 41.285469 
L 77.695938 41.285469 
L 88.695938 41.285469 
" style="fill: none; stroke: #3f74a3; stroke-width: 2.6; stroke-linecap: round"/>
     <g>
      <use xlink:href="#m04437190f1" x="77.695938" y="41.285469" style="fill: #3f74a3; stroke: #3f74a3"/>
     </g>
    </g>
    <g id="text_20">
     <!-- Delayed arrivals (15+ min) -->
     <g style="fill: #3e3a39" transform="translate(97.495938 45.135469) scale(0.11 -0.11)">
      <defs>
       <path id="DejaVuSans-44" d="M 1259 4147 
L 1259 519 
L 2022 519 
Q 2988 519 3436 956 
Q 3884 1394 3884 2338 
Q 3884 3275 3436 3711 
Q 2988 4147 2022 4147 
L 1259 4147 
z
M 628 4666 
L 1925 4666 
Q 3281 4666 3915 4102 
Q 4550 3538 4550 2338 
Q 4550 1131 3912 565 
Q 3275 0 1925 0 
L 628 0 
L 628 4666 
z
" transform="scale(0.015625)"/>
       <path id="DejaVuSans-76" d="M 191 3500 
L 800 3500 
L 1894 563 
L 2988 3500 
L 3597 3500 
L 2284 0 
L 1503 0 
L 191 3500 
z
" transform="scale(0.015625)"/>
       <path id="DejaVuSans-28" d="M 1984 4856 
Q 1566 4138 1362 3434 
Q 1159 2731 1159 2009 
Q 1159 1288 1364 580 
Q 1569 -128 1984 -844 
L 1484 -844 
Q 1016 -109 783 600 
Q 550 1309 550 2009 
Q 550 2706 781 3412 
Q 1013 4119 1484 4856 
L 1984 4856 
z
" transform="scale(0.015625)"/>
       <path id="DejaVuSans-2b" d="M 2944 4013 
L 2944 2272 
L 4684 2272 
L 4684 1741 
L 2944 1741 
L 2944 0 
L 2419 0 
L 2419 1741 
L 678 1741 
L 678 2272 
L 2419 2272 
L 2419 4013 
L 2944 4013 
z
" transform="scale(0.015625)"/>
       <path id="DejaVuSans-6d" d="M 3328 2828 
Q 3544 3216 3844 3400 
Q 4144 3584 4550 3584 
Q 5097 3584 5394 3201 
Q 5691 2819 5691 2113 
L 5691 0 
L 5113 0 
L 5113 2094 
Q 5113 2597 4934 2840 
Q 4756 3084 4391 3084 
Q 3944 3084 3684 2787 
Q 3425 2491 3425 1978 
L 3425 0 
L 2847 0 
L 2847 2094 
Q 2847 2600 2669 2842 
Q 2491 3084 2119 3084 
Q 1678 3084 1418 2786 
Q 1159 2488 1159 1978 
L 1159 0 
L 581 0 
L 581 3500 
L 1159 3500 
L 1159 2956 
Q 1356 3278 1631 3431 
Q 1906 3584 2284 3584 
Q 2666 3584 2933 3390 
Q 3200 3197 3328 2828 
z
" transform="scale(0.015625)"/>
       <path id="DejaVuSans-29" d="M 513 4856 
L 1013 4856 
Q 1481 4119 1714 3412 
Q 1947 2706 1947 2009 
Q 1947 1309 1714 600 
Q 1481 -109 1013 -844 
L 513 -844 
Q 928 -128 1133 580 
Q 1338 1288 1338 2009 
Q 1338 2731 1133 3434 
Q 928 4138 513 4856 
z
" transform="scale(0.015625)"/>
      </defs>
      <use xlink:href="#DejaVuSans-44"/>
      <use xlink:href="#DejaVuSans-65" transform="translate(77.001953 0)"/>
      <use xlink:href="#DejaVuSans-6c" transform="translate(138.525391 0)"/>
      <use xlink:href="#DejaVuSans-61" transform="translate(166.308594 0)"/>
      <use xlink:href="#DejaVuSans-79" transform="translate(227.587891 0)"/>
      <use xlink:href="#DejaVuSans-65" transform="translate(286.767578 0)"/>
      <use xlink:href="#DejaVuSans-64" transform="translate(348.291016 0)"/>
      <use xlink:href="#DejaVuSans-20" transform="translate(411.767578 0)"/>
      <use xlink:href="#DejaVuSans-61" transform="translate(443.554688 0)"/>
      <use xlink:href="#DejaVuSans-72" transform="translate(504.833984 0)"/>
      <use xlink:href="#DejaVuSans-72" transform="translate(544.197266 0)"/>
      <use xlink:href="#DejaVuSans-69" transform="translate(585.310547 0)"/>
      <use xlink:href="#DejaVuSans-76" transform="translate(613.09375 0)"/>
      <use xlink:href="#DejaVuSans-61" transform="translate(672.273438 0)"/>
      <use xlink:href="#DejaVuSans-6c" transform="translate(733.552734 0)"/>
      <use xlink:href="#DejaVuSans-73" transform="translate(761.335938 0)"/>
      <use xlink:href="#DejaVuSans-20" transform="translate(813.435547 0)"/>
      <use xlink:href="#DejaVuSans-28" transform="translate(845.222656 0)"/>
      <use xlink:href="#DejaVuSans-31" transform="translate(884.236328 0)"/>
      <use xlink:href="#DejaVuSans-35" transform="translate(947.859375 0)"/>
      <use xlink:href="#DejaVuSans-2b" transform="translate(1011.482422 0)"/>
      <use xlink:href="#DejaVuSans-20" transform="translate(1095.271484 0)"/>
      <use xlink:href="#DejaVuSans-6d" transform="translate(1127.058594 0)"/>
      <use xlink:href="#DejaVuSans-69" transform="translate(1224.470703 0)"/>
      <use xlink:href="#DejaVuSans-6e" transform="translate(1252.253906 0)"/>
      <use xlink:href="#DejaVuSans-29" transform="translate(1315.632812 0)"/>
     </g>
    </g>
    <g id="line2d_19">
     <path d="M 66.695938 57.431406 
L 77.695938 57.431406 
L 88.695938 57.431406 
" style="fill: none; stroke: #b54646; stroke-width: 2.6; stroke-linecap: round"/>
     <g>
      <use xlink:href="#mdb83200708" x="77.695938" y="57.431406" style="fill: #b54646; stroke: #b54646"/>
     </g>
    </g>
    <g id="text_21">
     <!-- Cancelled arrivals -->
     <g style="fill: #3e3a39" transform="translate(97.495938 61.281406) scale(0.11 -0.11)">
      <defs>
       <path id="DejaVuSans-43" d="M 4122 4306 
L 4122 3641 
Q 3803 3938 3442 4084 
Q 3081 4231 2675 4231 
Q 1875 4231 1450 3742 
Q 1025 3253 1025 2328 
Q 1025 1406 1450 917 
Q 1875 428 2675 428 
Q 3081 428 3442 575 
Q 3803 722 4122 1019 
L 4122 359 
Q 3791 134 3420 21 
Q 3050 -91 2638 -91 
Q 1578 -91 968 557 
Q 359 1206 359 2328 
Q 359 3453 968 4101 
Q 1578 4750 2638 4750 
Q 3056 4750 3426 4639 
Q 3797 4528 4122 4306 
z
" transform="scale(0.015625)"/>
       <path id="DejaVuSans-63" d="M 3122 3366 
L 3122 2828 
Q 2878 2963 2633 3030 
Q 2388 3097 2138 3097 
Q 1578 3097 1268 2742 
Q 959 2388 959 1747 
Q 959 1106 1268 751 
Q 1578 397 2138 397 
Q 2388 397 2633 464 
Q 2878 531 3122 666 
L 3122 134 
Q 2881 22 2623 -34 
Q 2366 -91 2075 -91 
Q 1284 -91 818 406 
Q 353 903 353 1747 
Q 353 2603 823 3093 
Q 1294 3584 2113 3584 
Q 2378 3584 2631 3529 
Q 2884 3475 3122 3366 
z
" transform="scale(0.015625)"/>
      </defs>
      <use xlink:href="#DejaVuSans-43"/>
      <use xlink:href="#DejaVuSans-61" transform="translate(69.824219 0)"/>
      <use xlink:href="#DejaVuSans-6e" transform="translate(131.103516 0)"/>
      <use xlink:href="#DejaVuSans-63" transform="translate(194.482422 0)"/>
      <use xlink:href="#DejaVuSans-65" transform="translate(249.462891 0)"/>
      <use xlink:href="#DejaVuSans-6c" transform="translate(310.986328 0)"/>
      <use xlink:href="#DejaVuSans-6c" transform="translate(338.769531 0)"/>
      <use xlink:href="#DejaVuSans-65" transform="translate(366.552734 0)"/>
      <use xlink:href="#DejaVuSans-64" transform="translate(428.076172 0)"/>
      <use xlink:href="#DejaVuSans-20" transform="translate(491.552734 0)"/>
      <use xlink:href="#DejaVuSans-61" transform="translate(523.339844 0)"/>
      <use xlink:href="#DejaVuSans-72" transform="translate(584.619141 0)"/>
      <use xlink:href="#DejaVuSans-72" transform="translate(623.982422 0)"/>
      <use xlink:href="#DejaVuSans-69" transform="translate(665.095703 0)"/>
      <use xlink:href="#DejaVuSans-76" transform="translate(692.878906 0)"/>
      <use xlink:href="#DejaVuSans-61" transform="translate(752.058594 0)"/>
      <use xlink:href="#DejaVuSans-6c" transform="translate(813.337891 0)"/>
      <use xlink:href="#DejaVuSans-73" transform="translate(841.121094 0)"/>
     </g>
    </g>
   </g>
  </g>
 </g>
 <defs>
  <clipPath id="pb358f96adb">
   <rect x="56.795938" y="26.877187" width="837" height="342.72"/>
  </clipPath>
 </defs>
</svg>
